<svg xmlns="http://www.w3.org/2000/svg" xmlns:xlink="http://www.w3.org/1999/xlink" width="370" zoomAndPan="magnify" viewBox="0 0 277.5 277.500005" height="370" preserveAspectRatio="xMidYMid meet" version="1.0"><path fill="#10b1b4" d="M 119.972656 15.988281 C 65.890625 19.929688 20.5625 58.71875 7.710938 112.011719 C -7.425781 174.527344 28.523438 239.015625 90.015625 259.59375 C 108.304688 265.664062 110.121094 265.820312 176.027344 265.820312 L 234.285156 265.820312 L 234.128906 253.050781 L 233.894531 240.199219 L 173.976562 239.726562 C 120.527344 239.332031 113.429688 239.175781 108.226562 237.914062 C 71.648438 229.242188 42.636719 201.175781 33.570312 165.855469 C 24.976562 132.273438 33.882812 98.371094 57.691406 73.144531 C 75.117188 54.777344 96.480469 44.367188 121.945312 41.925781 C 126.753906 41.53125 140.785156 41.136719 153.320312 41.136719 L 175.949219 41.136719 L 175.789062 28.285156 L 175.554688 15.515625 L 151.902344 15.4375 C 138.894531 15.355469 124.546875 15.59375 119.972656 15.988281 Z M 119.972656 15.988281 " fill-opacity="1" fill-rule="nonzero"/><path fill="#10b1b4" d="M 114.0625 55.644531 C 75.902344 62.816406 46.417969 95.21875 43.582031 133.21875 C 42.949219 142.207031 43.738281 153.398438 45.472656 160.652344 C 48.46875 172.636719 55.722656 186.039062 64.238281 195.421875 L 68.335938 199.835938 L 68.808594 164.042969 C 69.28125 124.46875 69.28125 124.230469 74.722656 113.273438 C 81.738281 98.925781 95.0625 87.886719 111.695312 82.761719 C 116.976562 81.105469 118.710938 81.027344 156.003906 80.710938 C 193.132812 80.476562 195.105469 80.554688 201.726562 82.132812 C 219.9375 86.46875 234.050781 97.664062 241.855469 114.0625 C 247.769531 126.515625 247.6875 124.859375 247.6875 199.597656 L 247.6875 265.820312 L 273.785156 265.820312 L 273.46875 198.179688 C 273.230469 139.050781 272.996094 129.90625 271.890625 124.703125 C 264.402344 90.804688 241.066406 65.96875 208.429688 57.0625 L 200.78125 55.011719 L 160.179688 54.855469 C 129.355469 54.695312 118.238281 54.855469 114.0625 55.644531 Z M 114.0625 55.644531 " fill-opacity="1" fill-rule="nonzero"/><path fill="#10b1b4" d="M 118.160156 95.21875 C 115.558594 95.847656 110.75 97.742188 107.28125 99.554688 C 92.539062 107.203125 83.078125 121.945312 81.816406 139.289062 C 81.582031 142.757812 81.660156 160.496094 81.972656 178.628906 L 82.527344 211.738281 L 89.226562 215.128906 C 92.933594 217.019531 98.609375 219.230469 101.839844 220.015625 L 107.753906 221.515625 L 108.148438 178.785156 C 108.542969 137.238281 108.621094 136.054688 110.277344 132.429688 C 111.144531 130.457031 113.429688 127.382812 115.164062 125.648438 C 120.761719 120.210938 122.417969 119.972656 150.878906 119.972656 L 175.949219 119.972656 L 175.949219 93.957031 L 149.378906 94.035156 C 129.277344 94.035156 121.628906 94.351562 118.160156 95.21875 Z M 118.160156 95.21875 " fill-opacity="1" fill-rule="nonzero"/></svg>