<svg xmlns="http://www.w3.org/2000/svg" xmlns:xlink="http://www.w3.org/1999/xlink" width="370" zoomAndPan="magnify" viewBox="0 0 277.5 220.499993" height="294" preserveAspectRatio="xMidYMid meet" version="1.0"><path fill="#ffffff" d="M 122.90625 5.289062 C 77.394531 8.609375 39.246094 41.25 28.433594 86.097656 C 15.695312 138.707031 45.949219 192.972656 97.695312 210.289062 C 113.085938 215.398438 114.613281 215.53125 170.074219 215.53125 L 219.101562 215.53125 L 218.96875 204.78125 L 218.769531 193.96875 L 168.351562 193.570312 C 123.371094 193.238281 117.398438 193.105469 113.019531 192.046875 C 82.238281 184.746094 57.824219 161.128906 50.195312 131.40625 C 42.960938 103.144531 50.460938 74.617188 70.496094 53.390625 C 85.15625 37.929688 103.136719 29.175781 124.5625 27.117188 C 128.609375 26.785156 140.417969 26.453125 150.96875 26.453125 L 170.007812 26.453125 L 169.875 15.640625 L 169.675781 4.890625 L 149.773438 4.828125 C 138.828125 4.761719 126.753906 4.957031 122.90625 5.289062 Z M 122.90625 5.289062 " fill-opacity="1" fill-rule="nonzero"/><path fill="#ffffff" d="M 117.929688 38.660156 C 85.820312 44.699219 61.007812 71.964844 58.621094 103.941406 C 58.089844 111.503906 58.753906 120.925781 60.210938 127.027344 C 62.734375 137.113281 68.835938 148.390625 76 156.285156 L 79.449219 160 L 79.847656 129.882812 C 80.246094 96.578125 80.246094 96.378906 84.824219 87.15625 C 90.730469 75.082031 101.941406 65.796875 115.9375 61.484375 C 120.382812 60.089844 121.84375 60.023438 153.222656 59.757812 C 184.472656 59.558594 186.128906 59.625 191.703125 60.953125 C 207.027344 64.601562 218.902344 74.023438 225.472656 87.820312 C 230.445312 98.304688 230.378906 96.910156 230.378906 159.800781 L 230.378906 215.53125 L 252.339844 215.53125 L 252.074219 158.609375 C 251.875 108.851562 251.675781 101.15625 250.746094 96.777344 C 244.445312 68.25 224.808594 47.351562 197.339844 39.855469 L 190.90625 38.128906 L 156.738281 37.996094 C 130.800781 37.863281 121.445312 37.996094 117.929688 38.660156 Z M 117.929688 38.660156 " fill-opacity="1" fill-rule="nonzero"/><path fill="#ffffff" d="M 121.378906 71.964844 C 119.191406 72.496094 115.144531 74.085938 112.222656 75.613281 C 99.816406 82.050781 91.855469 94.453125 90.796875 109.050781 C 90.597656 111.96875 90.664062 126.898438 90.929688 142.15625 L 91.394531 170.019531 L 97.03125 172.871094 C 100.148438 174.464844 104.925781 176.320312 107.648438 176.984375 L 112.621094 178.246094 L 112.953125 142.289062 C 113.285156 107.324219 113.351562 106.332031 114.746094 103.277344 C 115.476562 101.621094 117.398438 99.03125 118.859375 97.574219 C 123.570312 92.996094 124.960938 92.796875 148.910156 92.796875 L 170.007812 92.796875 L 170.007812 70.902344 L 147.652344 70.96875 C 130.734375 70.96875 124.296875 71.234375 121.378906 71.964844 Z M 121.378906 71.964844 " fill-opacity="1" fill-rule="nonzero"/></svg>