<svg xmlns="http://www.w3.org/2000/svg" xmlns:xlink="http://www.w3.org/1999/xlink" width="370" zoomAndPan="magnify" viewBox="0 0 277.5 220.499993" height="294" preserveAspectRatio="xMidYMid meet" version="1.0"><defs><clipPath id="6818a70ae8"><path d="M 0.0664062 0 L 276.9375 0 L 276.9375 220 L 0.0664062 220 Z M 0.0664062 0 " clip-rule="nonzero"/></clipPath><clipPath id="2ab2ecad25"><path d="M 218 2.078125 L 231 2.078125 L 231 11 L 218 11 Z M 218 2.078125 " clip-rule="nonzero"/></clipPath><clipPath id="60003e021a"><path d="M 26.046875 9 L 246 9 L 246 217.589844 L 26.046875 217.589844 Z M 26.046875 9 " clip-rule="nonzero"/></clipPath></defs><g clip-path="url(#6818a70ae8)"><path fill="#ffffff" d="M 0.0664062 0 L 276.9375 0 L 276.9375 220 L 0.0664062 220 Z M 0.0664062 0 " fill-opacity="1" fill-rule="nonzero"/><path fill="#16436f" d="M 0.0664062 0 L 276.9375 0 L 276.9375 220 L 0.0664062 220 Z M 0.0664062 0 " fill-opacity="1" fill-rule="nonzero"/></g><g clip-path="url(#2ab2ecad25)"><path fill="#ffffff" d="M 220.054688 3.492188 C 217.691406 5.238281 218.617188 7.90625 222.105469 9.242188 C 225.703125 10.578125 226.832031 10.476562 229.296875 8.730469 C 231.246094 7.1875 231.246094 7.1875 229.296875 5.238281 C 226.523438 2.566406 222.3125 1.847656 220.054688 3.492188 Z M 220.054688 3.492188 " fill-opacity="1" fill-rule="nonzero"/></g><g clip-path="url(#60003e021a)"><path fill="#ffffff" d="M 192.328125 11.808594 C 162.550781 17.558594 139.652344 28.648438 122.605469 45.796875 C 114.800781 53.5 101.347656 73.011719 97.34375 82.355469 C 95.699219 86.050781 94.160156 88.308594 93.132812 88.308594 C 91.082031 88.308594 79.167969 82.972656 64.074219 75.371094 C 58.015625 72.1875 53.292969 70.136719 53.601562 70.648438 C 54.421875 72.085938 67.359375 79.480469 81.632812 86.769531 L 93.03125 92.625 L 92.105469 95.804688 C 91.59375 97.65625 89.539062 105.253906 87.484375 112.851562 C 85.535156 120.347656 83.6875 126.921875 83.378906 127.433594 C 82.453125 129.078125 63.558594 120.964844 48.773438 112.542969 C 44.972656 110.386719 41.585938 108.847656 41.277344 109.15625 C 40.96875 109.464844 41.996094 110.386719 43.640625 111.210938 C 45.28125 112.132812 48.980469 114.289062 51.855469 116.242188 C 54.730469 118.089844 62.636719 122.402344 69.515625 125.789062 C 83.6875 132.773438 82.761719 131.234375 80.503906 146.121094 C 79.683594 151.257812 78.757812 158.753906 78.449219 162.757812 C 77.730469 170.972656 77.320312 171.589844 85.945312 151.976562 C 89.335938 144.375 92.519531 138.011719 93.03125 137.804688 C 94.675781 137.292969 109.460938 142.734375 110.796875 144.375 C 111.71875 145.402344 110.589844 148.074219 106.175781 155.980469 C 97.445312 171.792969 95.394531 174.667969 86.664062 184.21875 C 73.214844 198.902344 56.167969 209.070312 36.964844 214.101562 C 26.59375 216.769531 23.308594 218.308594 30.085938 217.386719 C 43.84375 215.4375 59.351562 212.25 69.925781 208.964844 C 100.734375 199.621094 115.210938 187.503906 135.851562 153.515625 C 136.773438 151.871094 138.007812 151.976562 151.765625 154.027344 C 160.394531 155.363281 172.511719 156.289062 180.519531 156.390625 C 193.355469 156.597656 194.792969 156.390625 199.207031 154.132812 C 205.984375 150.640625 208.347656 147.765625 208.964844 142.425781 C 209.683594 136.574219 207.117188 130.824219 200.132812 122.402344 C 197.15625 118.808594 194.894531 115.726562 195.101562 115.625 C 195.203125 115.523438 197.460938 114.804688 200.03125 114.085938 C 209.476562 111.414062 214.40625 106.179688 214.40625 98.683594 C 214.40625 93.339844 209.578125 85.023438 202.597656 78.042969 L 195.921875 71.46875 L 198.078125 77.015625 C 202.082031 87.695312 199.617188 94.0625 189.25 99.402344 C 184.730469 101.660156 182.574219 102.070312 171.585938 102.480469 C 164.601562 102.6875 158.957031 102.582031 158.957031 102.277344 C 158.957031 100.117188 170.046875 80.816406 175.488281 73.421875 C 181.03125 65.824219 194.382812 53.191406 202.390625 47.953125 C 211.121094 42.203125 224.261719 36.453125 236.378906 33.269531 L 245.726562 30.703125 L 238.539062 31.320312 C 228.574219 32.140625 215.433594 34.503906 206.808594 37.070312 C 196.230469 40.152344 178.980469 47.851562 170.96875 52.988281 C 160.085938 60.070312 147.96875 72.703125 139.136719 86.359375 C 134.824219 92.929688 131.023438 98.578125 130.511719 98.886719 C 129.484375 99.503906 115.828125 95.703125 114.492188 94.472656 C 112.128906 92.417969 125.683594 73.625 138.625 60.996094 C 148.894531 50.933594 157.621094 44.15625 185.140625 25.363281 C 204.652344 12.015625 206.191406 10.886719 206.191406 9.859375 C 206.191406 9.039062 206.910156 8.933594 192.328125 11.808594 Z M 123.324219 103.40625 C 124.964844 103.714844 126.507812 104.636719 126.816406 105.460938 C 127.429688 106.894531 116.957031 132.566406 114.390625 136.160156 C 113.15625 137.804688 112.542969 137.804688 108.023438 136.574219 C 105.25 135.855469 101.246094 134.519531 99.089844 133.695312 C 94.367188 131.847656 94.261719 132.464844 103.710938 113.777344 L 110.898438 99.707031 L 115.621094 101.25 C 118.292969 102.070312 121.785156 102.996094 123.324219 103.40625 Z M 160.90625 113.058594 C 163.679688 113.671875 171.6875 114.394531 178.671875 114.804688 C 191.300781 115.523438 191.300781 115.523438 192.738281 118.5 C 194.792969 122.914062 195.304688 128.972656 193.867188 132.464844 C 192.226562 136.367188 185.140625 141.089844 178.15625 142.9375 C 171.996094 144.480469 144.167969 144.789062 142.628906 143.246094 C 141.703125 142.324219 143.964844 136.46875 153.308594 115.214844 C 154.128906 113.46875 155.054688 111.929688 155.257812 111.929688 C 155.566406 111.929688 158.03125 112.441406 160.90625 113.058594 Z M 160.90625 113.058594 " fill-opacity="1" fill-rule="nonzero"/></g></svg>