<svg xmlns="http://www.w3.org/2000/svg" xmlns:xlink="http://www.w3.org/1999/xlink" width="370" zoomAndPan="magnify" viewBox="0 0 277.5 277.500005" height="370" preserveAspectRatio="xMidYMid meet" version="1.0"><defs><clipPath id="de73059da7"><path d="M 242 3.023438 L 258 3.023438 L 258 14 L 242 14 Z M 242 3.023438 " clip-rule="nonzero"/></clipPath></defs><path fill="#ffffff" d="M 0 0 L 277 0 L 277 277 L 0 277 Z M 0 0 " fill-opacity="1" fill-rule="nonzero"/><path fill="#ffffff" d="M 0 0 L 277 0 L 277 277 L 0 277 Z M 0 0 " fill-opacity="1" fill-rule="nonzero"/><g clip-path="url(#de73059da7)"><path fill="#10b1b4" d="M 243.777344 4.796875 C 240.808594 6.992188 241.96875 10.347656 246.355469 12.023438 C 250.871094 13.703125 252.292969 13.574219 255.386719 11.378906 C 257.839844 9.445312 257.839844 9.445312 255.386719 6.992188 C 251.90625 3.636719 246.613281 2.734375 243.777344 4.796875 Z M 243.777344 4.796875 " fill-opacity="1" fill-rule="nonzero"/></g><path fill="#10b1b4" d="M 208.941406 15.25 C 171.523438 22.476562 142.75 36.414062 121.332031 57.96875 C 111.523438 67.648438 94.621094 92.167969 89.589844 103.910156 C 87.527344 108.558594 85.589844 111.394531 84.300781 111.394531 C 81.71875 111.394531 66.753906 104.683594 47.785156 95.136719 C 40.175781 91.132812 34.238281 88.554688 34.625 89.199219 C 35.65625 91.003906 51.914062 100.296875 69.851562 109.460938 L 84.171875 116.816406 L 83.011719 120.816406 C 82.363281 123.140625 79.785156 132.6875 77.203125 142.238281 C 74.753906 151.660156 72.429688 159.917969 72.042969 160.566406 C 70.882812 162.628906 47.140625 152.433594 28.5625 141.851562 C 23.789062 139.140625 19.53125 137.207031 19.144531 137.59375 C 18.753906 137.980469 20.046875 139.140625 22.109375 140.175781 C 24.175781 141.335938 28.820312 144.046875 32.433594 146.5 C 36.046875 148.820312 45.980469 154.242188 54.625 158.5 C 72.429688 167.273438 71.269531 165.339844 68.429688 184.054688 C 67.398438 190.503906 66.238281 199.925781 65.851562 204.960938 C 64.945312 215.28125 64.429688 216.058594 75.269531 191.410156 C 79.527344 181.859375 83.527344 173.855469 84.171875 173.597656 C 86.234375 172.953125 104.816406 179.792969 106.492188 181.859375 C 107.65625 183.148438 106.234375 186.503906 100.6875 196.441406 C 89.71875 216.316406 87.140625 219.929688 76.171875 231.929688 C 59.269531 250.386719 37.851562 263.160156 13.722656 269.484375 C 0.691406 272.839844 -3.4375 274.777344 5.078125 273.617188 C 22.367188 271.164062 41.851562 267.164062 55.140625 263.035156 C 93.847656 251.289062 112.039062 236.0625 137.976562 193.34375 C 139.136719 191.277344 140.683594 191.410156 157.972656 193.988281 C 168.8125 195.667969 184.035156 196.828125 194.101562 196.957031 C 210.230469 197.214844 212.035156 196.957031 217.582031 194.117188 C 226.097656 189.730469 229.066406 186.117188 229.839844 179.40625 C 230.746094 172.050781 227.519531 164.824219 218.746094 154.242188 C 215.003906 149.722656 212.164062 145.851562 212.421875 145.722656 C 212.550781 145.59375 215.390625 144.691406 218.617188 143.789062 C 230.484375 140.433594 236.679688 133.851562 236.679688 124.429688 C 236.679688 117.71875 230.617188 107.265625 221.839844 98.492188 L 213.453125 90.230469 L 216.164062 97.199219 C 221.195312 110.621094 218.101562 118.621094 205.070312 125.332031 C 199.390625 128.171875 196.683594 128.6875 182.875 129.203125 C 174.101562 129.464844 167.003906 129.332031 167.003906 128.945312 C 167.003906 126.238281 180.941406 101.976562 187.777344 92.683594 C 194.746094 83.132812 211.519531 67.257812 221.582031 60.679688 C 232.550781 53.449219 249.066406 46.222656 264.292969 42.222656 L 276.03125 38.996094 L 267 39.769531 C 254.484375 40.804688 237.96875 43.773438 227.132812 46.996094 C 213.84375 50.871094 192.164062 60.546875 182.101562 67 C 168.425781 75.90625 153.199219 91.78125 142.105469 108.945312 C 136.683594 117.203125 131.910156 124.300781 131.265625 124.6875 C 129.976562 125.460938 112.816406 120.6875 111.136719 119.140625 C 108.171875 116.558594 125.203125 92.941406 141.457031 77.066406 C 154.363281 64.421875 165.328125 55.902344 199.90625 32.285156 C 224.421875 15.507812 226.359375 14.089844 226.359375 12.800781 C 226.359375 11.765625 227.261719 11.636719 208.941406 15.25 Z M 122.234375 130.367188 C 124.296875 130.753906 126.234375 131.914062 126.621094 132.949219 C 127.394531 134.753906 114.234375 167.019531 111.007812 171.535156 C 109.460938 173.597656 108.6875 173.597656 103.007812 172.050781 C 99.527344 171.148438 94.492188 169.46875 91.785156 168.4375 C 85.847656 166.113281 85.71875 166.886719 97.589844 143.402344 L 106.621094 125.71875 L 112.558594 127.65625 C 115.910156 128.6875 120.300781 129.851562 122.234375 130.367188 Z M 169.457031 142.496094 C 172.941406 143.269531 183.003906 144.175781 191.777344 144.691406 C 207.648438 145.59375 207.648438 145.59375 209.457031 149.335938 C 212.035156 154.886719 212.679688 162.5 210.875 166.886719 C 208.808594 171.792969 199.90625 177.730469 191.132812 180.050781 C 183.390625 181.988281 148.425781 182.375 146.492188 180.4375 C 145.328125 179.277344 148.167969 171.921875 159.910156 145.207031 C 160.941406 143.015625 162.101562 141.078125 162.359375 141.078125 C 162.746094 141.078125 165.84375 141.722656 169.457031 142.496094 Z M 169.457031 142.496094 " fill-opacity="1" fill-rule="nonzero"/></svg>