<svg xmlns="http://www.w3.org/2000/svg" xmlns:xlink="http://www.w3.org/1999/xlink" width="370" zoomAndPan="magnify" viewBox="0 0 277.5 220.499993" height="294" preserveAspectRatio="xMidYMid meet" version="1.0"><defs><filter x="0%" y="0%" width="100%" height="100%" id="147c514cbd"><feColorMatrix values="0 0 0 0 1 0 0 0 0 1 0 0 0 0 1 0 0 0 1 0" color-interpolation-filters="sRGB"/></filter><mask id="355bda7a0c"><g filter="url(#147c514cbd)"><rect x="-27.75" width="333" fill="#000000" y="-22.049999" height="264.599992" fill-opacity="0.947"/></g></mask><clipPath id="a2afad52b1"><rect x="0" width="253" y="0" height="136"/></clipPath><mask id="5c7cad9472"><g filter="url(#147c514cbd)"><rect x="-27.75" width="333" fill="#000000" y="-22.049999" height="264.599992" fill-opacity="0.924"/></g></mask><clipPath id="25f3852b4d"><path d="M 1 1 L 11.410156 1 L 11.410156 55 L 1 55 Z M 1 1 " clip-rule="nonzero"/></clipPath><clipPath id="e79e0349ce"><rect x="0" width="12" y="0" height="56"/></clipPath><mask id="5499613bcc"><g filter="url(#147c514cbd)"><rect x="-27.75" width="333" fill="#000000" y="-22.049999" height="264.599992" fill-opacity="0.934"/></g></mask><clipPath id="848c72dced"><path d="M 0.144531 1 L 44.445312 1 L 44.445312 55 L 0.144531 55 Z M 0.144531 1 " clip-rule="nonzero"/></clipPath><clipPath id="108b53621e"><rect x="0" width="45" y="0" height="56"/></clipPath><mask id="883591c371"><g filter="url(#147c514cbd)"><rect x="-27.75" width="333" fill="#000000" y="-22.049999" height="264.599992" fill-opacity="0.959"/></g></mask><clipPath id="66d0596850"><path d="M 0.179688 1 L 37.773438 1 L 37.773438 55 L 0.179688 55 Z M 0.179688 1 " clip-rule="nonzero"/></clipPath><clipPath id="3d31ad0cc4"><rect x="0" width="38" y="0" height="56"/></clipPath><mask id="6b5bfe9f99"><g filter="url(#147c514cbd)"><rect x="-27.75" width="333" fill="#000000" y="-22.049999" height="264.599992" fill-opacity="0.934"/></g></mask><clipPath id="bf75e4a2af"><rect x="0" width="46" y="0" height="56"/></clipPath></defs><g mask="url(#355bda7a0c)"><g transform="matrix(1, 0, 0, 1, 2, 38)"><g clip-path="url(#a2afad52b1)"><path fill="#ffffff" d="M 174.394531 1.339844 C 187.515625 0.960938 200.59375 1.480469 213.625 2.894531 C 226.324219 4.28125 237.222656 9.367188 246.320312 18.152344 C 253.207031 28.410156 253.308594 38.789062 246.628906 49.285156 C 250.492188 37.9375 247.378906 28.699219 237.289062 21.578125 C 229.167969 16.273438 220.242188 13.160156 210.511719 12.234375 C 156.355469 9.375 106.539062 22.660156 61.0625 52.089844 C 51.300781 58.527344 42.6875 66.3125 35.21875 75.441406 C 19.222656 97.390625 23.789062 113.371094 48.917969 123.390625 C 59.988281 126.65625 71.300781 128.316406 82.855469 128.371094 C 99.691406 127.925781 116.296875 125.75 132.675781 121.832031 C 142.484375 119.113281 152.242188 116.414062 161.941406 113.738281 C 124.746094 129.894531 85.929688 136.746094 45.496094 134.289062 C 34.960938 133.316406 24.996094 130.410156 15.605469 125.570312 C 3.535156 118.347656 -0.925781 107.867188 2.214844 94.121094 C 5.238281 84.960938 10.011719 76.863281 16.539062 69.835938 C 34.957031 51.328125 56.234375 36.902344 80.367188 26.558594 C 110.429688 13.105469 141.773438 4.699219 174.394531 1.339844 Z M 174.394531 1.339844 " fill-opacity="1" fill-rule="evenodd"/></g></g></g><g mask="url(#5c7cad9472)"><g transform="matrix(1, 0, 0, 1, 100, 86)"><g clip-path="url(#e79e0349ce)"><g clip-path="url(#25f3852b4d)"><path fill="#ffffff" d="M 1.046875 1.285156 C 4.367188 1.285156 7.691406 1.285156 11.011719 1.285156 C 11.011719 19.136719 11.011719 36.988281 11.011719 54.839844 C 7.691406 54.839844 4.367188 54.839844 1.046875 54.839844 C 1.046875 36.988281 1.046875 19.136719 1.046875 1.285156 Z M 1.046875 1.285156 " fill-opacity="1" fill-rule="evenodd"/></g></g></g></g><g mask="url(#5499613bcc)"><g transform="matrix(1, 0, 0, 1, 123, 86)"><g clip-path="url(#108b53621e)"><g clip-path="url(#848c72dced)"><path fill="#ffffff" d="M 0.464844 1.285156 C 4.15625 1.09375 7.789062 1.300781 11.363281 1.910156 C 19.042969 14.363281 26.722656 26.816406 34.402344 39.273438 C 34.714844 26.613281 34.820312 13.949219 34.714844 1.285156 C 37.828125 1.285156 40.941406 1.285156 44.054688 1.285156 C 44.054688 19.136719 44.054688 36.988281 44.054688 54.839844 C 40.367188 55.03125 36.734375 54.824219 33.15625 54.21875 C 25.476562 41.761719 17.796875 29.308594 10.117188 16.855469 C 9.804688 29.515625 9.703125 42.175781 9.804688 54.839844 C 6.691406 54.839844 3.578125 54.839844 0.464844 54.839844 C 0.464844 36.988281 0.464844 19.136719 0.464844 1.285156 Z M 0.464844 1.285156 " fill-opacity="1" fill-rule="evenodd"/></g></g></g></g><g mask="url(#883591c371)"><g transform="matrix(1, 0, 0, 1, 179, 86)"><g clip-path="url(#3d31ad0cc4)"><g clip-path="url(#66d0596850)"><path fill="#ffffff" d="M 0.507812 1.285156 C 12.757812 1.285156 25.003906 1.285156 37.25 1.285156 C 37.25 4.191406 37.25 7.097656 37.25 10.003906 C 28.117188 10.003906 18.984375 10.003906 9.851562 10.003906 C 9.851562 14.363281 9.851562 18.722656 9.851562 23.082031 C 17.945312 23.082031 26.039062 23.082031 34.136719 23.082031 C 34.136719 25.78125 34.136719 28.480469 34.136719 31.175781 C 26.039062 31.175781 17.945312 31.175781 9.851562 31.175781 C 9.851562 39.066406 9.851562 46.953125 9.851562 54.839844 C 6.738281 54.839844 3.621094 54.839844 0.507812 54.839844 C 0.507812 36.988281 0.507812 19.136719 0.507812 1.285156 Z M 0.507812 1.285156 " fill-opacity="1" fill-rule="evenodd"/></g></g></g></g><g mask="url(#6b5bfe9f99)"><g transform="matrix(1, 0, 0, 1, 223, 86)"><g clip-path="url(#bf75e4a2af)"><path fill="#ffffff" d="M 1.34375 1.285156 C 5.035156 1.09375 8.667969 1.300781 12.242188 1.910156 C 19.921875 14.363281 27.601562 26.816406 35.28125 39.273438 C 35.59375 26.613281 35.699219 13.949219 35.59375 1.285156 C 38.707031 1.285156 41.820312 1.285156 44.933594 1.285156 C 44.933594 19.136719 44.933594 36.988281 44.933594 54.839844 C 41.246094 55.03125 37.613281 54.824219 34.039062 54.21875 C 26.355469 41.761719 18.675781 29.308594 10.996094 16.855469 C 10.683594 29.515625 10.582031 42.175781 10.683594 54.839844 C 7.570312 54.839844 4.457031 54.839844 1.34375 54.839844 C 1.34375 36.988281 1.34375 19.136719 1.34375 1.285156 Z M 1.34375 1.285156 " fill-opacity="1" fill-rule="evenodd"/></g></g></g></svg>