<svg xmlns="http://www.w3.org/2000/svg" xmlns:xlink="http://www.w3.org/1999/xlink" width="370" zoomAndPan="magnify" viewBox="0 0 277.5 277.500005" height="370" preserveAspectRatio="xMidYMid meet" version="1.0"><defs><filter x="0%" y="0%" width="100%" height="100%" id="accd8d73ea"><feColorMatrix values="0 0 0 0 1 0 0 0 0 1 0 0 0 0 1 0 0 0 1 0" color-interpolation-filters="sRGB"/></filter><mask id="fc6559a8eb"><g filter="url(#accd8d73ea)"><rect x="-27.75" width="333" fill="#000000" y="-27.75" height="333.000006" fill-opacity="0.947"/></g></mask><clipPath id="745716619a"><path d="M 0.1875 0.277344 L 248 0.277344 L 248 132.519531 L 0.1875 132.519531 Z M 0.1875 0.277344 " clip-rule="nonzero"/></clipPath><clipPath id="4ed99d3e60"><rect x="0" width="249" y="0" height="133"/></clipPath><mask id="6e793d3546"><g filter="url(#accd8d73ea)"><rect x="-27.75" width="333" fill="#000000" y="-27.75" height="333.000006" fill-opacity="0.924"/></g></mask><clipPath id="ff5a1af53f"><path d="M 1 0.472656 L 11 0.472656 L 11 54 L 1 54 Z M 1 0.472656 " clip-rule="nonzero"/></clipPath><clipPath id="1da3f69fd0"><rect x="0" width="12" y="0" height="55"/></clipPath><mask id="008569744a"><g filter="url(#accd8d73ea)"><rect x="-27.75" width="333" fill="#000000" y="-27.75" height="333.000006" fill-opacity="0.934"/></g></mask><clipPath id="b1c3b2eea2"><path d="M 1 0.472656 L 44.613281 0.472656 L 44.613281 54 L 1 54 Z M 1 0.472656 " clip-rule="nonzero"/></clipPath><clipPath id="f6a91a374b"><rect x="0" width="45" y="0" height="55"/></clipPath><mask id="6c6190a601"><g filter="url(#accd8d73ea)"><rect x="-27.75" width="333" fill="#000000" y="-27.75" height="333.000006" fill-opacity="0.959"/></g></mask><clipPath id="86e9e79f05"><path d="M 0.113281 0.472656 L 37 0.472656 L 37 54 L 0.113281 54 Z M 0.113281 0.472656 " clip-rule="nonzero"/></clipPath><clipPath id="be4114aab4"><rect x="0" width="38" y="0" height="55"/></clipPath><mask id="23005a699c"><g filter="url(#accd8d73ea)"><rect x="-27.75" width="333" fill="#000000" y="-27.75" height="333.000006" fill-opacity="0.934"/></g></mask><clipPath id="06c5ac5dfa"><path d="M 0.195312 0.472656 L 44 0.472656 L 44 54 L 0.195312 54 Z M 0.195312 0.472656 " clip-rule="nonzero"/></clipPath><clipPath id="a243cef594"><rect x="0" width="45" y="0" height="55"/></clipPath></defs><g mask="url(#fc6559a8eb)"><g transform="matrix(1, 0, 0, 1, 7, 68)"><g clip-path="url(#4ed99d3e60)"><g clip-path="url(#745716619a)"><path fill="#10b1b4" d="M 171.429688 0.601562 C 184.371094 0.230469 197.273438 0.742188 210.128906 2.136719 C 222.65625 3.507812 233.40625 8.523438 242.378906 17.1875 C 249.171875 27.308594 249.277344 37.546875 242.6875 47.902344 C 246.496094 36.707031 243.425781 27.59375 233.472656 20.566406 C 225.460938 15.335938 216.65625 12.261719 207.058594 11.351562 C 153.632812 8.53125 104.488281 21.636719 59.625 50.667969 C 49.996094 57.015625 41.5 64.695312 34.132812 73.703125 C 18.351562 95.355469 22.855469 111.121094 47.648438 121.003906 C 58.566406 124.222656 69.726562 125.863281 81.128906 125.917969 C 97.734375 125.480469 114.117188 123.328125 130.269531 119.46875 C 139.949219 116.785156 149.574219 114.121094 159.140625 111.480469 C 122.449219 127.421875 84.160156 134.179688 44.269531 131.753906 C 33.875 130.792969 24.046875 127.925781 14.78125 123.152344 C 2.878906 116.03125 -1.523438 105.691406 1.574219 92.132812 C 4.558594 83.09375 9.265625 75.105469 15.703125 68.175781 C 33.875 49.914062 54.863281 35.683594 78.667969 25.480469 C 108.328125 12.210938 139.246094 3.917969 171.429688 0.601562 Z M 171.429688 0.601562 " fill-opacity="1" fill-rule="evenodd"/></g></g></g></g><g mask="url(#6e793d3546)"><g transform="matrix(1, 0, 0, 1, 103, 115)"><g clip-path="url(#1da3f69fd0)"><g clip-path="url(#ff5a1af53f)"><path fill="#10b1b4" d="M 1.097656 0.902344 C 4.375 0.902344 7.652344 0.902344 10.925781 0.902344 C 10.925781 18.511719 10.925781 36.121094 10.925781 53.730469 C 7.652344 53.730469 4.375 53.730469 1.097656 53.730469 C 1.097656 36.121094 1.097656 18.511719 1.097656 0.902344 Z M 1.097656 0.902344 " fill-opacity="1" fill-rule="evenodd"/></g></g></g></g><g mask="url(#008569744a)"><g transform="matrix(1, 0, 0, 1, 125, 115)"><g clip-path="url(#f6a91a374b)"><g clip-path="url(#b1c3b2eea2)"><path fill="#10b1b4" d="M 1.214844 0.902344 C 4.851562 0.714844 8.4375 0.917969 11.964844 1.515625 C 19.539062 13.800781 27.117188 26.089844 34.691406 38.375 C 35 25.886719 35.101562 13.394531 35 0.902344 C 38.070312 0.902344 41.140625 0.902344 44.214844 0.902344 C 44.214844 18.511719 44.214844 36.121094 44.214844 53.730469 C 40.574219 53.921875 36.992188 53.714844 33.464844 53.117188 C 25.886719 40.832031 18.3125 28.546875 10.734375 16.257812 C 10.425781 28.75 10.324219 41.238281 10.425781 53.730469 C 7.355469 53.730469 4.285156 53.730469 1.214844 53.730469 C 1.214844 36.121094 1.214844 18.511719 1.214844 0.902344 Z M 1.214844 0.902344 " fill-opacity="1" fill-rule="evenodd"/></g></g></g></g><g mask="url(#6c6190a601)"><g transform="matrix(1, 0, 0, 1, 181, 115)"><g clip-path="url(#be4114aab4)"><g clip-path="url(#86e9e79f05)"><path fill="#10b1b4" d="M 0.5 0.902344 C 12.582031 0.902344 24.660156 0.902344 36.742188 0.902344 C 36.742188 3.769531 36.742188 6.636719 36.742188 9.503906 C 27.734375 9.503906 18.722656 9.503906 9.714844 9.503906 C 9.714844 13.800781 9.714844 18.101562 9.714844 22.402344 C 17.699219 22.402344 25.6875 22.402344 33.671875 22.402344 C 33.671875 25.0625 33.671875 27.726562 33.671875 30.386719 C 25.6875 30.386719 17.699219 30.386719 9.714844 30.386719 C 9.714844 38.167969 9.714844 45.949219 9.714844 53.730469 C 6.644531 53.730469 3.570312 53.730469 0.5 53.730469 C 0.5 36.121094 0.5 18.511719 0.5 0.902344 Z M 0.5 0.902344 " fill-opacity="1" fill-rule="evenodd"/></g></g></g></g><g mask="url(#23005a699c)"><g transform="matrix(1, 0, 0, 1, 225, 115)"><g clip-path="url(#a243cef594)"><g clip-path="url(#06c5ac5dfa)"><path fill="#10b1b4" d="M 0.730469 0.902344 C 4.367188 0.714844 7.953125 0.917969 11.480469 1.515625 C 19.054688 13.800781 26.632812 26.089844 34.207031 38.375 C 34.515625 25.886719 34.617188 13.394531 34.515625 0.902344 C 37.585938 0.902344 40.660156 0.902344 43.730469 0.902344 C 43.730469 18.511719 43.730469 36.121094 43.730469 53.730469 C 40.089844 53.921875 36.507812 53.714844 32.980469 53.117188 C 25.402344 40.832031 17.828125 28.546875 10.25 16.257812 C 9.945312 28.75 9.839844 41.238281 9.945312 53.730469 C 6.871094 53.730469 3.800781 53.730469 0.730469 53.730469 C 0.730469 36.121094 0.730469 18.511719 0.730469 0.902344 Z M 0.730469 0.902344 " fill-opacity="1" fill-rule="evenodd"/></g></g></g></g></svg>