<svg xmlns="http://www.w3.org/2000/svg" xmlns:xlink="http://www.w3.org/1999/xlink" width="370" zoomAndPan="magnify" viewBox="0 0 277.5 220.499993" height="294" preserveAspectRatio="xMidYMid meet" version="1.0"><defs><filter x="0%" y="0%" width="100%" height="100%" id="2d4c02352c"><feColorMatrix values="0 0 0 0 1 0 0 0 0 1 0 0 0 0 1 0 0 0 1 0" color-interpolation-filters="sRGB"/></filter><clipPath id="13e4985173"><path d="M 98 1.316406 L 149 1.316406 L 149 30 L 98 30 Z M 98 1.316406 " clip-rule="nonzero"/></clipPath><mask id="427061fcfc"><g filter="url(#2d4c02352c)"><rect x="-27.75" width="333" fill="#000000" y="-22.049999" height="264.599992" fill-opacity="0.921"/></g></mask><clipPath id="40dc140c1d"><path d="M 0.242188 0.316406 L 50.289062 0.316406 L 50.289062 28.691406 L 0.242188 28.691406 Z M 0.242188 0.316406 " clip-rule="nonzero"/></clipPath><clipPath id="a4ed6ece9d"><rect x="0" width="51" y="0" height="29"/></clipPath><mask id="517eb089f1"><g filter="url(#2d4c02352c)"><rect x="-27.75" width="333" fill="#000000" y="-22.049999" height="264.599992" fill-opacity="0.922"/></g></mask><clipPath id="75633aa038"><path d="M 0.484375 0.113281 L 23.953125 0.113281 L 23.953125 23.339844 L 0.484375 23.339844 Z M 0.484375 0.113281 " clip-rule="nonzero"/></clipPath><clipPath id="e86e397898"><rect x="0" width="24" y="0" height="24"/></clipPath><mask id="e6e491fdef"><g filter="url(#2d4c02352c)"><rect x="-27.75" width="333" fill="#000000" y="-22.049999" height="264.599992" fill-opacity="0.912"/></g></mask><clipPath id="df26a219b5"><path d="M 0.601562 0.859375 L 42.265625 0.859375 L 42.265625 38 L 0.601562 38 Z M 0.601562 0.859375 " clip-rule="nonzero"/></clipPath><clipPath id="62b670aebf"><rect x="0" width="43" y="0" height="39"/></clipPath><mask id="9c7838056e"><g filter="url(#2d4c02352c)"><rect x="-27.75" width="333" fill="#000000" y="-22.049999" height="264.599992" fill-opacity="0.915"/></g></mask><clipPath id="5e56a48f9c"><path d="M 0 0.453125 L 17.722656 0.453125 L 17.722656 24.875 L 0 24.875 Z M 0 0.453125 " clip-rule="nonzero"/></clipPath><clipPath id="9bb8c348cf"><rect x="0" width="18" y="0" height="25"/></clipPath><mask id="578edd2cde"><g filter="url(#2d4c02352c)"><rect x="-27.75" width="333" fill="#000000" y="-22.049999" height="264.599992" fill-opacity="0.908"/></g></mask><clipPath id="bb202a843b"><path d="M 1 0.199219 L 24 0.199219 L 24 25.582031 L 1 25.582031 Z M 1 0.199219 " clip-rule="nonzero"/></clipPath><clipPath id="57a537b09e"><rect x="0" width="25" y="0" height="26"/></clipPath><mask id="db475ad02b"><g filter="url(#2d4c02352c)"><rect x="-27.75" width="333" fill="#000000" y="-22.049999" height="264.599992" fill-opacity="0.912"/></g></mask><clipPath id="88a9a9df4c"><path d="M 0.464844 1 L 20.816406 1 L 20.816406 23.425781 L 0.464844 23.425781 Z M 0.464844 1 " clip-rule="nonzero"/></clipPath><clipPath id="a649717d96"><rect x="0" width="21" y="0" height="24"/></clipPath><mask id="ff55b87f0f"><g filter="url(#2d4c02352c)"><rect x="-27.75" width="333" fill="#000000" y="-22.049999" height="264.599992" fill-opacity="0.99"/></g></mask><clipPath id="9054e65b49"><path d="M 0.78125 1 L 26.402344 1 L 26.402344 68 L 0.78125 68 Z M 0.78125 1 " clip-rule="nonzero"/></clipPath><clipPath id="08d525d9b0"><rect x="0" width="27" y="0" height="69"/></clipPath><mask id="7e2c51ae0b"><g filter="url(#2d4c02352c)"><rect x="-27.75" width="333" fill="#000000" y="-22.049999" height="264.599992" fill-opacity="0.975"/></g></mask><clipPath id="cbfa105229"><path d="M 0.0898438 0.339844 L 17.570312 0.339844 L 17.570312 21.652344 L 0.0898438 21.652344 Z M 0.0898438 0.339844 " clip-rule="nonzero"/></clipPath><clipPath id="928cdf1955"><rect x="0" width="18" y="0" height="22"/></clipPath><mask id="b36e5550af"><g filter="url(#2d4c02352c)"><rect x="-27.75" width="333" fill="#000000" y="-22.049999" height="264.599992" fill-opacity="0.92"/></g></mask><clipPath id="eb4edd7737"><path d="M 1 0.734375 L 27.449219 0.734375 L 27.449219 27 L 1 27 Z M 1 0.734375 " clip-rule="nonzero"/></clipPath><clipPath id="a6fdc8670f"><rect x="0" width="28" y="0" height="28"/></clipPath><mask id="b1b130859a"><g filter="url(#2d4c02352c)"><rect x="-27.75" width="333" fill="#000000" y="-22.049999" height="264.599992" fill-opacity="0.968"/></g></mask><clipPath id="892f97acfd"><path d="M 0.609375 1 L 18.808594 1 L 18.808594 26 L 0.609375 26 Z M 0.609375 1 " clip-rule="nonzero"/></clipPath><clipPath id="0c9213f241"><rect x="0" width="19" y="0" height="27"/></clipPath><mask id="57c5b2c19a"><g filter="url(#2d4c02352c)"><rect x="-27.75" width="333" fill="#000000" y="-22.049999" height="264.599992" fill-opacity="0.923"/></g></mask><clipPath id="122975ed20"><path d="M 1 0.570312 L 24 0.570312 L 24 24 L 1 24 Z M 1 0.570312 " clip-rule="nonzero"/></clipPath><clipPath id="181aa7eb13"><rect x="0" width="25" y="0" height="25"/></clipPath><mask id="461588107a"><g filter="url(#2d4c02352c)"><rect x="-27.75" width="333" fill="#000000" y="-22.049999" height="264.599992" fill-opacity="0.919"/></g></mask><clipPath id="074dd2aeda"><path d="M 1 0.484375 L 24.59375 0.484375 L 24.59375 16.289062 L 1 16.289062 Z M 1 0.484375 " clip-rule="nonzero"/></clipPath><clipPath id="fe1f2c0402"><rect x="0" width="25" y="0" height="17"/></clipPath><mask id="841f640fbc"><g filter="url(#2d4c02352c)"><rect x="-27.75" width="333" fill="#000000" y="-22.049999" height="264.599992" fill-opacity="0.976"/></g></mask><clipPath id="81b9aed34b"><path d="M 0.0898438 0.625 L 17.570312 0.625 L 17.570312 22.175781 L 0.0898438 22.175781 Z M 0.0898438 0.625 " clip-rule="nonzero"/></clipPath><clipPath id="afd6334a65"><rect x="0" width="18" y="0" height="23"/></clipPath><clipPath id="a7c261ac16"><path d="M 27.800781 89 L 53 89 L 53 112 L 27.800781 112 Z M 27.800781 89 " clip-rule="nonzero"/></clipPath><mask id="16485a68f6"><g filter="url(#2d4c02352c)"><rect x="-27.75" width="333" fill="#000000" y="-22.049999" height="264.599992" fill-opacity="0.914"/></g></mask><clipPath id="d080952db1"><path d="M 0.800781 0.316406 L 25 0.316406 L 25 22 L 0.800781 22 Z M 0.800781 0.316406 " clip-rule="nonzero"/></clipPath><clipPath id="84f4fd7f1d"><rect x="0" width="26" y="0" height="23"/></clipPath><mask id="2dddc3cbcd"><g filter="url(#2d4c02352c)"><rect x="-27.75" width="333" fill="#000000" y="-22.049999" height="264.599992" fill-opacity="0.978"/></g></mask><clipPath id="5b79b93c02"><path d="M 0.328125 0.273438 L 51.570312 0.273438 L 51.570312 46.492188 L 0.328125 46.492188 Z M 0.328125 0.273438 " clip-rule="nonzero"/></clipPath><clipPath id="d34b5c166b"><rect x="0" width="52" y="0" height="47"/></clipPath><mask id="138ed9daa2"><g filter="url(#2d4c02352c)"><rect x="-27.75" width="333" fill="#000000" y="-22.049999" height="264.599992" fill-opacity="0.869"/></g></mask><clipPath id="450fdedb06"><path d="M 0.539062 1 L 5.808594 1 L 5.808594 6.375 L 0.539062 6.375 Z M 0.539062 1 " clip-rule="nonzero"/></clipPath><clipPath id="24a6bba23a"><rect x="0" width="6" y="0" height="7"/></clipPath><clipPath id="13172d4ab6"><path d="M 226 97 L 249.300781 97 L 249.300781 112 L 226 112 Z M 226 97 " clip-rule="nonzero"/></clipPath><mask id="d530498a0d"><g filter="url(#2d4c02352c)"><rect x="-27.75" width="333" fill="#000000" y="-22.049999" height="264.599992" fill-opacity="0.909"/></g></mask><clipPath id="f1fd2ec8db"><path d="M 0.113281 0.699219 L 23.300781 0.699219 L 23.300781 14 L 0.113281 14 Z M 0.113281 0.699219 " clip-rule="nonzero"/></clipPath><clipPath id="4a7e404041"><rect x="0" width="24" y="0" height="15"/></clipPath><mask id="d700f603f4"><g filter="url(#2d4c02352c)"><rect x="-27.75" width="333" fill="#000000" y="-22.049999" height="264.599992" fill-opacity="0.934"/></g></mask><clipPath id="9a43cd5adf"><path d="M 1 0.078125 L 8.511719 0.078125 L 8.511719 12.53125 L 1 12.53125 Z M 1 0.078125 " clip-rule="nonzero"/></clipPath><clipPath id="318dc4b13b"><rect x="0" width="9" y="0" height="13"/></clipPath><mask id="f41eeba04a"><g filter="url(#2d4c02352c)"><rect x="-27.75" width="333" fill="#000000" y="-22.049999" height="264.599992" fill-opacity="0.911"/></g></mask><clipPath id="cc64a65d42"><path d="M 1 0.628906 L 31.621094 0.628906 L 31.621094 50.914062 L 1 50.914062 Z M 1 0.628906 " clip-rule="nonzero"/></clipPath><clipPath id="83eb7906b5"><rect x="0" width="32" y="0" height="51"/></clipPath><mask id="9955ea2c93"><g filter="url(#2d4c02352c)"><rect x="-27.75" width="333" fill="#000000" y="-22.049999" height="264.599992" fill-opacity="0.91"/></g></mask><clipPath id="e2f2ead7f3"><path d="M 0.320312 0.347656 L 24 0.347656 L 24 23.8125 L 0.320312 23.8125 Z M 0.320312 0.347656 " clip-rule="nonzero"/></clipPath><clipPath id="3c088b5266"><rect x="0" width="25" y="0" height="24"/></clipPath><mask id="fffa6c6b20"><g filter="url(#2d4c02352c)"><rect x="-27.75" width="333" fill="#000000" y="-22.049999" height="264.599992" fill-opacity="0.981"/></g></mask><clipPath id="9881d9e6c6"><path d="M 0.246094 0.292969 L 13 0.292969 L 13 24.476562 L 0.246094 24.476562 Z M 0.246094 0.292969 " clip-rule="nonzero"/></clipPath><clipPath id="8a553c9128"><rect x="0" width="14" y="0" height="25"/></clipPath><mask id="cf65b1fc6e"><g filter="url(#2d4c02352c)"><rect x="-27.75" width="333" fill="#000000" y="-22.049999" height="264.599992" fill-opacity="0.979"/></g></mask><clipPath id="dd52350963"><path d="M 0.328125 0.476562 L 51.570312 0.476562 L 51.570312 46.691406 L 0.328125 46.691406 Z M 0.328125 0.476562 " clip-rule="nonzero"/></clipPath><clipPath id="ac053faba2"><rect x="0" width="52" y="0" height="47"/></clipPath><mask id="7c2c904107"><g filter="url(#2d4c02352c)"><rect x="-27.75" width="333" fill="#000000" y="-22.049999" height="264.599992" fill-opacity="0.911"/></g></mask><clipPath id="b0cdbf94a1"><path d="M 0.476562 0.292969 L 27 0.292969 L 27 20.886719 L 0.476562 20.886719 Z M 0.476562 0.292969 " clip-rule="nonzero"/></clipPath><clipPath id="adffce2229"><rect x="0" width="28" y="0" height="21"/></clipPath><mask id="ecf415481d"><g filter="url(#2d4c02352c)"><rect x="-27.75" width="333" fill="#000000" y="-22.049999" height="264.599992" fill-opacity="0.938"/></g></mask><clipPath id="ff8096c0d0"><path d="M 0.148438 0.519531 L 7.570312 0.519531 L 7.570312 12.972656 L 0.148438 12.972656 Z M 0.148438 0.519531 " clip-rule="nonzero"/></clipPath><clipPath id="fa738ed1c5"><rect x="0" width="8" y="0" height="13"/></clipPath><mask id="82823637e3"><g filter="url(#2d4c02352c)"><rect x="-27.75" width="333" fill="#000000" y="-22.049999" height="264.599992" fill-opacity="0.916"/></g></mask><clipPath id="83210a40c8"><path d="M 0.574219 0.464844 L 24 0.464844 L 24 18.183594 L 0.574219 18.183594 Z M 0.574219 0.464844 " clip-rule="nonzero"/></clipPath><clipPath id="cc0e256aeb"><rect x="0" width="25" y="0" height="19"/></clipPath><mask id="b8f8c3f3c4"><g filter="url(#2d4c02352c)"><rect x="-27.75" width="333" fill="#000000" y="-22.049999" height="264.599992" fill-opacity="0.915"/></g></mask><clipPath id="c16d55ff06"><path d="M 1 0.253906 L 24 0.253906 L 24 19 L 1 19 Z M 1 0.253906 " clip-rule="nonzero"/></clipPath><clipPath id="ef4ee18cdd"><rect x="0" width="25" y="0" height="20"/></clipPath><clipPath id="a062cefd85"><path d="M 125 153 L 152 153 L 152 219.820312 L 125 219.820312 Z M 125 153 " clip-rule="nonzero"/></clipPath><mask id="4bc6f0813a"><g filter="url(#2d4c02352c)"><rect x="-27.75" width="333" fill="#000000" y="-22.049999" height="264.599992" fill-opacity="0.986"/></g></mask><clipPath id="0b45b92b7a"><path d="M 0.78125 1 L 26.402344 1 L 26.402344 66.820312 L 0.78125 66.820312 Z M 0.78125 1 " clip-rule="nonzero"/></clipPath><clipPath id="1b7e250c04"><rect x="0" width="27" y="0" height="67"/></clipPath><mask id="36798d9327"><g filter="url(#2d4c02352c)"><rect x="-27.75" width="333" fill="#000000" y="-22.049999" height="264.599992" fill-opacity="0.902"/></g></mask><clipPath id="12f105a91a"><path d="M 0.644531 0.195312 L 28.421875 0.195312 L 28.421875 25 L 0.644531 25 Z M 0.644531 0.195312 " clip-rule="nonzero"/></clipPath><clipPath id="9e6dd14b78"><rect x="0" width="29" y="0" height="26"/></clipPath><mask id="a26f35b555"><g filter="url(#2d4c02352c)"><rect x="-27.75" width="333" fill="#000000" y="-22.049999" height="264.599992" fill-opacity="0.918"/></g></mask><clipPath id="e5cf508bbf"><path d="M 0.0898438 0.675781 L 5 0.675781 L 5 6.183594 L 0.0898438 6.183594 Z M 0.0898438 0.675781 " clip-rule="nonzero"/></clipPath><clipPath id="8f6bd6f402"><rect x="0" width="6" y="0" height="7"/></clipPath><mask id="d7355f21a2"><g filter="url(#2d4c02352c)"><rect x="-27.75" width="333" fill="#000000" y="-22.049999" height="264.599992" fill-opacity="0.974"/></g></mask><clipPath id="967f5b0e9a"><path d="M 0.566406 0.871094 L 18 0.871094 L 18 22 L 0.566406 22 Z M 0.566406 0.871094 " clip-rule="nonzero"/></clipPath><clipPath id="102fada253"><rect x="0" width="19" y="0" height="23"/></clipPath><mask id="4045cf33f4"><g filter="url(#2d4c02352c)"><rect x="-27.75" width="333" fill="#000000" y="-22.049999" height="264.599992" fill-opacity="0.9"/></g></mask><clipPath id="db38703bb4"><path d="M 0.40625 0.226562 L 26.746094 0.226562 L 26.746094 26.804688 L 0.40625 26.804688 Z M 0.40625 0.226562 " clip-rule="nonzero"/></clipPath><clipPath id="cd31426f5a"><rect x="0" width="27" y="0" height="27"/></clipPath><mask id="ed5b7cb3ed"><g filter="url(#2d4c02352c)"><rect x="-27.75" width="333" fill="#000000" y="-22.049999" height="264.599992" fill-opacity="0.91"/></g></mask><clipPath id="0e7e023c80"><path d="M 0.40625 0.367188 L 22.917969 0.367188 L 22.917969 20.480469 L 0.40625 20.480469 Z M 0.40625 0.367188 " clip-rule="nonzero"/></clipPath><clipPath id="1aa4484f97"><rect x="0" width="23" y="0" height="21"/></clipPath><mask id="1e2f5caf13"><g filter="url(#2d4c02352c)"><rect x="-27.75" width="333" fill="#000000" y="-22.049999" height="264.599992" fill-opacity="0.907"/></g></mask><clipPath id="c795107b96"><path d="M 0.53125 0.28125 L 23 0.28125 L 23 25.425781 L 0.53125 25.425781 Z M 0.53125 0.28125 " clip-rule="nonzero"/></clipPath><clipPath id="a245d96c3c"><rect x="0" width="24" y="0" height="26"/></clipPath><mask id="fcddb70762"><g filter="url(#2d4c02352c)"><rect x="-27.75" width="333" fill="#000000" y="-22.049999" height="264.599992" fill-opacity="0.971"/></g></mask><clipPath id="26c16ddc95"><path d="M 0.613281 0.761719 L 18.570312 0.761719 L 18.570312 25.664062 L 0.613281 25.664062 Z M 0.613281 0.761719 " clip-rule="nonzero"/></clipPath><clipPath id="42e6df04d3"><rect x="0" width="19" y="0" height="26"/></clipPath><mask id="b1da08a9cf"><g filter="url(#2d4c02352c)"><rect x="-27.75" width="333" fill="#000000" y="-22.049999" height="264.599992" fill-opacity="0.917"/></g></mask><clipPath id="4bdce41b27"><path d="M 0.421875 0.0703125 L 20.296875 0.0703125 L 20.296875 23.300781 L 0.421875 23.300781 Z M 0.421875 0.0703125 " clip-rule="nonzero"/></clipPath><clipPath id="9a2fee72ad"><rect x="0" width="21" y="0" height="24"/></clipPath><mask id="3cd999c566"><g filter="url(#2d4c02352c)"><rect x="-27.75" width="333" fill="#000000" y="-22.049999" height="264.599992" fill-opacity="0.973"/></g></mask><clipPath id="fbe774f533"><path d="M 0.566406 0.636719 L 18 0.636719 L 18 22 L 0.566406 22 Z M 0.566406 0.636719 " clip-rule="nonzero"/></clipPath><clipPath id="a25d7c70e2"><rect x="0" width="19" y="0" height="23"/></clipPath><mask id="c99fe060b3"><g filter="url(#2d4c02352c)"><rect x="-27.75" width="333" fill="#000000" y="-22.049999" height="264.599992" fill-opacity="0.884"/></g></mask><clipPath id="d6adb88f0b"><path d="M 0.84375 0.75 L 9 0.75 L 9 3.621094 L 0.84375 3.621094 Z M 0.84375 0.75 " clip-rule="nonzero"/></clipPath><clipPath id="82b14ed0b9"><rect x="0" width="10" y="0" height="4"/></clipPath></defs><g clip-path="url(#13e4985173)"><g mask="url(#427061fcfc)"><g transform="matrix(1, 0, 0, 1, 98, 1)"><g clip-path="url(#a4ed6ece9d)"><g clip-path="url(#40dc140c1d)"><path fill="#ffffff" d="M 41.855469 0.21875 C 42.304688 0.21875 42.757812 0.21875 43.210938 0.21875 C 45.496094 0.5 47.820312 0.628906 50.183594 0.605469 C 50.183594 0.929688 50.183594 1.253906 50.183594 1.574219 C 49.296875 1.492188 48.488281 1.6875 47.761719 2.15625 C 47.371094 3.34375 47.179688 4.570312 47.179688 5.835938 C 46.871094 10.675781 46.742188 15.515625 46.792969 20.363281 C 47.457031 21.023438 48.265625 21.34375 49.214844 21.332031 C 49.214844 21.65625 49.214844 21.976562 49.214844 22.300781 C 46.503906 22.195312 43.792969 22.101562 41.078125 22.007812 C 39.316406 22.046875 37.703125 21.59375 36.238281 20.652344 C 33.960938 18.378906 31.832031 15.992188 29.84375 13.488281 C 28.890625 13.144531 27.921875 13.113281 26.941406 13.390625 C 26.835938 15.660156 26.996094 17.917969 27.425781 20.167969 C 27.84375 21.558594 28.78125 22.074219 30.234375 21.71875 C 30.234375 22.042969 30.234375 22.363281 30.234375 22.6875 C 27.507812 22.90625 24.796875 23.230469 22.097656 23.65625 C 22.148438 23.371094 22.082031 23.113281 21.902344 22.882812 C 21.761719 23.238281 21.632812 23.59375 21.515625 23.945312 C 16.386719 25.464844 11.285156 27.011719 6.214844 28.59375 C 6.011719 28.328125 5.976562 28.035156 6.117188 27.722656 C 6.953125 27.46875 7.664062 27.015625 8.25 26.367188 C 8.3125 25.714844 8.246094 25.070312 8.054688 24.429688 C 6.542969 19.578125 4.996094 14.734375 3.40625 9.902344 C 2.820312 8.554688 1.816406 8.164062 0.402344 8.742188 C 0.335938 8.347656 0.335938 7.992188 0.402344 7.675781 C 5.015625 6.386719 9.566406 4.933594 14.058594 3.316406 C 14.691406 4.515625 15.269531 5.742188 15.800781 7 C 15.921875 7.691406 15.628906 7.917969 14.929688 7.675781 C 14.292969 6.453125 13.289062 5.777344 11.929688 5.640625 C 9.773438 6.015625 7.738281 6.695312 5.828125 7.675781 C 6.589844 10.226562 7.429688 12.742188 8.34375 15.230469 C 10.082031 14.953125 11.761719 14.4375 13.382812 13.679688 C 13.695312 13.464844 13.890625 13.175781 13.960938 12.808594 C 13.800781 12.171875 13.738281 11.527344 13.769531 10.871094 C 14.046875 10.886719 14.304688 10.824219 14.542969 10.679688 C 15.179688 12.726562 15.886719 14.761719 16.675781 16.78125 C 16.511719 17.085938 16.253906 17.25 15.898438 17.265625 C 15.359375 16.6875 14.839844 16.074219 14.351562 15.425781 C 12.433594 15.589844 10.59375 16.074219 8.828125 16.875 C 9.429688 19.453125 10.269531 21.972656 11.347656 24.429688 C 11.992188 24.976562 12.738281 25.136719 13.574219 24.914062 C 15.390625 24.542969 17.132812 23.960938 18.804688 23.171875 C 19.289062 22.945312 19.644531 22.589844 19.871094 22.105469 C 20.25 21.164062 20.542969 20.195312 20.742188 19.199219 C 21.039062 19.015625 21.363281 18.953125 21.710938 19.007812 C 21.847656 20.226562 21.945312 21.453125 22 22.6875 C 22.820312 22.523438 23.5625 22.203125 24.226562 21.71875 C 24.445312 20.761719 24.476562 19.792969 24.324219 18.8125 C 23.816406 13.898438 23.234375 8.992188 22.582031 4.09375 C 22.421875 3.671875 22.128906 3.382812 21.710938 3.222656 C 21.199219 3.125 20.679688 3.09375 20.160156 3.125 C 20.203125 2.804688 20.136719 2.515625 19.96875 2.253906 C 23.792969 1.355469 27.664062 0.96875 31.589844 1.089844 C 35.164062 2.003906 36.617188 4.296875 35.945312 7.96875 C 35.40625 9.605469 34.371094 10.832031 32.847656 11.648438 C 32.71875 11.839844 32.71875 12.035156 32.847656 12.226562 C 34.734375 14.890625 36.898438 17.3125 39.335938 19.492188 C 40.375 20.496094 41.601562 20.882812 43.015625 20.652344 C 43.476562 20.136719 43.703125 19.523438 43.695312 18.8125 C 44.046875 13.328125 44.238281 7.839844 44.273438 2.351562 C 44.183594 2.074219 44.023438 1.847656 43.792969 1.671875 C 43.066406 1.488281 42.355469 1.261719 41.660156 0.992188 C 41.804688 0.753906 41.871094 0.496094 41.855469 0.21875 Z M 26.359375 2.351562 C 31.328125 1.929688 33.492188 4.1875 32.847656 9.128906 C 32.308594 10.636719 31.242188 11.507812 29.652344 11.742188 C 28.617188 12 27.585938 12.03125 26.550781 11.839844 C 26.042969 8.824219 25.75 5.792969 25.679688 2.738281 C 25.933594 2.625 26.160156 2.496094 26.359375 2.351562 Z M 26.359375 2.351562 " fill-opacity="1" fill-rule="evenodd"/></g></g></g></g></g><g mask="url(#517eb089f1)"><g transform="matrix(1, 0, 0, 1, 149, 3)"><g clip-path="url(#e86e397898)"><g clip-path="url(#75633aa038)"><path fill="#ffffff" d="M 10.609375 0.351562 C 15.078125 -0.00390625 18.789062 1.480469 21.75 4.804688 C 24.652344 9.8125 24.394531 14.652344 20.972656 19.332031 C 17.328125 22.996094 13.035156 23.996094 8.09375 22.332031 C 2.394531 19.992188 -0.0234375 15.761719 0.828125 9.648438 C 2.0625 4.378906 5.324219 1.277344 10.609375 0.351562 Z M 11.578125 1.511719 C 17.351562 1.828125 20.257812 4.894531 20.296875 10.710938 C 20.285156 13.695312 19.476562 16.441406 17.875 18.945312 C 14.835938 22.253906 11.382812 22.738281 7.511719 20.398438 C 5.132812 18.296875 4.035156 15.652344 4.21875 12.457031 C 4.175781 9.613281 4.917969 7 6.445312 4.609375 C 7.773438 2.902344 9.484375 1.867188 11.578125 1.511719 Z M 11.578125 1.511719 " fill-opacity="1" fill-rule="evenodd"/></g></g></g></g><g mask="url(#e6e491fdef)"><g transform="matrix(1, 0, 0, 1, 169, 8)"><g clip-path="url(#62b670aebf)"><g clip-path="url(#df26a219b5)"><path fill="#ffffff" d="M 10.5625 0.96875 C 14.4375 2.308594 18.019531 4.179688 21.3125 6.582031 C 23.410156 9.453125 23.183594 12.132812 20.632812 14.621094 C 19.222656 15.449219 17.707031 15.871094 16.082031 15.882812 C 16.035156 19.597656 16.613281 23.214844 17.824219 26.726562 C 18.832031 28.867188 20.058594 28.996094 21.503906 27.117188 C 24.273438 23.378906 27.113281 19.699219 30.027344 16.074219 C 30.527344 15.378906 30.949219 14.636719 31.285156 13.847656 C 31.046875 13.105469 30.65625 12.460938 30.125 11.910156 C 30.210938 11.597656 30.40625 11.371094 30.707031 11.234375 C 34.394531 14.253906 38.171875 17.160156 42.035156 19.949219 C 41.816406 20.839844 41.429688 21.679688 40.875 22.46875 C 40.546875 22.894531 40.253906 23.34375 40.003906 23.824219 C 39.90625 24.019531 39.777344 24.054688 39.617188 23.917969 C 39.378906 23.769531 39.183594 23.574219 39.035156 23.339844 C 39.683594 22.140625 39.714844 20.945312 39.132812 19.753906 C 37.609375 18.117188 35.898438 16.792969 34 15.785156 C 32.246094 17.859375 30.566406 19.988281 28.960938 22.175781 C 30.339844 23.421875 31.824219 24.519531 33.417969 25.46875 C 33.765625 25.570312 34.085938 25.503906 34.386719 25.273438 C 34.753906 24.808594 35.207031 24.453125 35.742188 24.210938 C 36 24.402344 36.257812 24.597656 36.515625 24.792969 C 35.082031 26.484375 33.722656 28.226562 32.449219 30.019531 C 32.148438 29.839844 31.890625 29.613281 31.675781 29.34375 C 32.140625 28.589844 32.367188 27.78125 32.351562 26.921875 C 31.042969 25.613281 29.625 24.449219 28.089844 23.433594 C 26.53125 25.316406 25.046875 27.253906 23.636719 29.246094 C 23.25 29.957031 23.25 30.667969 23.636719 31.375 C 25.382812 33.222656 27.417969 34.644531 29.738281 35.636719 C 30.890625 35.40625 31.988281 35.015625 33.03125 34.476562 C 33.566406 34.707031 33.761719 35.058594 33.609375 35.542969 C 32.578125 36.25 31.542969 36.960938 30.511719 37.671875 C 30.152344 37.921875 29.761719 37.988281 29.351562 37.867188 C 24.898438 34.125 20.28125 30.605469 15.5 27.308594 C 14.726562 26.339844 14.210938 25.242188 13.949219 24.015625 C 13.511719 21.3125 13.125 18.601562 12.789062 15.882812 C 12.175781 14.957031 11.335938 14.3125 10.269531 13.945312 C 9.023438 15.988281 7.925781 18.121094 6.976562 20.335938 C 6.832031 20.878906 6.894531 21.394531 7.171875 21.886719 C 7.671875 22.21875 8.15625 22.574219 8.625 22.949219 C 8.484375 23.480469 8.160156 23.675781 7.65625 23.53125 C 5.316406 22.425781 3.054688 21.234375 0.875 19.949219 C 0.917969 19.671875 1.015625 19.410156 1.167969 19.175781 C 1.921875 19.617188 2.726562 19.78125 3.589844 19.660156 C 3.8125 19.433594 4.039062 19.207031 4.265625 18.980469 C 6.652344 14.207031 9.042969 9.429688 11.433594 4.648438 C 11.675781 4.148438 11.738281 3.632812 11.625 3.097656 C 11.160156 2.621094 10.675781 2.171875 10.175781 1.742188 C 10.304688 1.476562 10.433594 1.21875 10.5625 0.96875 Z M 14.824219 4.453125 C 19.386719 5.636719 20.644531 8.347656 18.601562 12.589844 C 17.003906 14.65625 15.035156 15.078125 12.691406 13.847656 C 12.007812 13.472656 11.359375 13.054688 10.753906 12.589844 C 12.113281 9.871094 13.46875 7.160156 14.824219 4.453125 Z M 14.824219 4.453125 " fill-opacity="1" fill-rule="evenodd"/></g></g></g></g><g mask="url(#9c7838056e)"><g transform="matrix(1, 0, 0, 1, 81, 12)"><g clip-path="url(#9bb8c348cf)"><g clip-path="url(#5e56a48f9c)"><path fill="#ffffff" d="M 10.238281 0.648438 C 15.070312 0.605469 17.363281 2.992188 17.113281 7.8125 C 16.324219 10.183594 14.808594 11.925781 12.5625 13.042969 C 12.300781 12.878906 12.105469 12.652344 11.980469 12.367188 C 15.300781 9.363281 15.300781 6.328125 11.980469 3.261719 C 9.773438 2.136719 7.671875 2.363281 5.683594 3.941406 C 5.554688 4.132812 5.554688 4.328125 5.683594 4.519531 C 8.347656 9.652344 11.058594 14.753906 13.820312 19.824219 C 14.121094 20.289062 14.542969 20.546875 15.078125 20.597656 C 15.722656 20.5 16.335938 20.308594 16.917969 20.015625 C 17.277344 20.144531 17.503906 20.40625 17.597656 20.792969 C 15.15625 22.058594 12.738281 23.351562 10.332031 24.664062 C 10.003906 24.554688 9.777344 24.328125 9.65625 23.988281 C 10.121094 23.542969 10.605469 23.125 11.109375 22.726562 C 11.457031 22.21875 11.457031 21.703125 11.109375 21.179688 C 8.847656 16.851562 6.589844 12.527344 4.328125 8.199219 C 3.964844 7.4375 3.480469 6.761719 2.875 6.167969 C 2.046875 6.03125 1.273438 6.195312 0.550781 6.652344 C -0.0195312 6.082031 0.046875 5.597656 0.746094 5.199219 C 3.726562 3.257812 6.890625 1.738281 10.238281 0.648438 Z M 10.238281 0.648438 " fill-opacity="1" fill-rule="evenodd"/></g></g></g></g><g mask="url(#578edd2cde)"><g transform="matrix(1, 0, 0, 1, 60, 18)"><g clip-path="url(#57a537b09e)"><g clip-path="url(#bb202a843b)"><path fill="#ffffff" d="M 18.648438 0.457031 C 19.054688 0.507812 19.3125 0.734375 19.421875 1.136719 C 18.78125 1.707031 18.328125 2.417969 18.066406 3.265625 C 19.625 10.503906 21.5625 17.636719 23.875 24.667969 C 23.820312 25.070312 23.59375 25.328125 23.199219 25.445312 C 17.304688 21.933594 11.332031 18.542969 5.28125 15.273438 C 4.046875 14.5625 2.886719 14.660156 1.796875 15.566406 C 1.511719 15.382812 1.316406 15.125 1.214844 14.792969 C 3.089844 13.207031 4.992188 11.660156 6.929688 10.140625 C 7.242188 10.230469 7.46875 10.425781 7.605469 10.722656 C 7.214844 11.148438 6.859375 11.601562 6.542969 12.078125 C 6.421875 12.261719 6.453125 12.425781 6.636719 12.5625 C 11.304688 15.367188 16.050781 18.046875 20.875 20.601562 C 19.578125 15.550781 18.160156 10.515625 16.613281 5.492188 C 16.480469 5.097656 16.253906 4.773438 15.933594 4.523438 C 15.339844 4.773438 14.789062 5.097656 14.289062 5.492188 C 14.027344 5.265625 13.800781 5.007812 13.609375 4.71875 C 15.351562 3.367188 17.027344 1.945312 18.648438 0.457031 Z M 18.648438 0.457031 " fill-opacity="1" fill-rule="evenodd"/></g></g></g></g><g mask="url(#db475ad02b)"><g transform="matrix(1, 0, 0, 1, 53, 35)"><g clip-path="url(#a649717d96)"><g clip-path="url(#88a9a9df4c)"><path fill="#ffffff" d="M 5.503906 1.082031 C 6.996094 1.476562 8.289062 2.21875 9.375 3.3125 C 9.261719 3.707031 9.003906 3.933594 8.601562 3.988281 C 5.175781 2.855469 2.980469 4.050781 2.015625 7.574219 C 2.449219 9.75 3.773438 10.878906 5.988281 10.960938 C 6.675781 10.933594 7.351562 10.839844 8.019531 10.671875 C 9.484375 10.140625 10.96875 9.691406 12.476562 9.316406 C 16.085938 8.585938 18.703125 9.847656 20.320312 13.09375 C 20.824219 14.976562 20.628906 16.78125 19.738281 18.515625 C 18.402344 20.628906 16.59375 22.179688 14.316406 23.164062 C 12.792969 22.582031 11.402344 21.773438 10.152344 20.742188 C 10.308594 20.402344 10.535156 20.109375 10.828125 19.871094 C 14.238281 21.554688 16.882812 20.78125 18.769531 17.546875 C 19.394531 15.210938 18.585938 13.5625 16.351562 12.609375 C 15.785156 12.417969 15.207031 12.320312 14.605469 12.316406 C 12.328125 12.773438 10.070312 13.324219 7.828125 13.964844 C 4.707031 14.453125 2.417969 13.324219 0.949219 10.574219 C 0.257812 7.929688 0.835938 5.605469 2.695312 3.601562 C 3.667969 2.789062 4.605469 1.949219 5.503906 1.082031 Z M 5.503906 1.082031 " fill-opacity="1" fill-rule="evenodd"/></g></g></g></g><g mask="url(#ff55b87f0f)"><g transform="matrix(1, 0, 0, 1, 125, 39)"><g clip-path="url(#08d525d9b0)"><g clip-path="url(#9054e65b49)"><path fill="#ffffff" d="M 0.910156 1.152344 C 9.367188 1.152344 17.824219 1.152344 26.28125 1.152344 C 26.28125 2.378906 26.28125 3.605469 26.28125 4.832031 C 24.152344 4.832031 22.019531 4.832031 19.890625 4.832031 C 19.953125 25.816406 19.890625 46.800781 19.695312 67.78125 C 15.695312 65.78125 11.691406 63.777344 7.6875 61.777344 C 7.492188 42.796875 7.429688 23.8125 7.492188 4.832031 C 5.296875 4.832031 3.101562 4.832031 0.910156 4.832031 C 0.910156 3.605469 0.910156 2.378906 0.910156 1.152344 Z M 0.910156 1.152344 " fill-opacity="1" fill-rule="evenodd"/></g></g></g></g><g mask="url(#7e2c51ae0b)"><g transform="matrix(1, 0, 0, 1, 147, 43)"><g clip-path="url(#928cdf1955)"><g clip-path="url(#cbfa105229)"><path fill="#ffffff" d="M 16.679688 0.445312 C 16.871094 0.445312 17.066406 0.445312 17.257812 0.445312 C 17.324219 4.707031 17.257812 8.96875 17.066406 13.226562 C 11.511719 15.941406 5.960938 18.652344 0.410156 21.363281 C 0.183594 17.167969 0.148438 12.972656 0.3125 8.773438 C 5.792969 6.015625 11.25 3.238281 16.679688 0.445312 Z M 16.679688 0.445312 " fill-opacity="1" fill-rule="evenodd"/></g></g></g></g><g mask="url(#b36e5550af)"><g transform="matrix(1, 0, 0, 1, 208, 45)"><g clip-path="url(#a6fdc8670f)"><g clip-path="url(#eb4edd7737)"><path fill="#ffffff" d="M 19.597656 0.960938 C 22.027344 4.082031 24.128906 7.4375 25.890625 11.035156 C 27.316406 14.125 27.507812 17.289062 26.472656 20.523438 C 23.710938 25.539062 19.480469 27.570312 13.785156 26.625 C 11.078125 25.804688 8.851562 24.289062 7.105469 22.074219 C 5.117188 18.554688 3.085938 15.070312 1.003906 11.617188 C 1.261719 11.421875 1.519531 11.226562 1.777344 11.035156 C 2.296875 11.746094 2.941406 12.328125 3.714844 12.777344 C 8.742188 10.003906 13.714844 7.132812 18.628906 4.160156 C 19.585938 3.332031 19.652344 2.429688 18.824219 1.445312 C 19.125 1.328125 19.382812 1.167969 19.597656 0.960938 Z M 20.566406 6.386719 C 21.296875 6.253906 21.847656 6.511719 22.210938 7.160156 C 27.152344 14.359375 25.699219 19.8125 17.855469 23.527344 C 11.660156 25.207031 7.65625 22.945312 5.84375 16.75 C 6.179688 15.316406 7.019531 14.28125 8.363281 13.648438 C 12.464844 11.253906 16.53125 8.832031 20.566406 6.386719 Z M 20.566406 6.386719 " fill-opacity="1" fill-rule="evenodd"/></g></g></g></g><g mask="url(#b1b130859a)"><g transform="matrix(1, 0, 0, 1, 112, 59)"><g clip-path="url(#0c9213f241)"><g clip-path="url(#892f97acfd)"><path fill="#ffffff" d="M 18.167969 1.101562 C 18.425781 3.132812 18.558594 5.230469 18.558594 7.398438 C 18.492188 9.496094 18.425781 11.59375 18.363281 13.691406 C 13.957031 15.410156 9.957031 17.765625 6.355469 20.761719 C 4.578125 22.3125 2.898438 23.960938 1.316406 25.699219 C -0.183594 15.957031 3.367188 8.691406 11.972656 3.910156 C 13.984375 2.804688 16.050781 1.867188 18.167969 1.101562 Z M 18.167969 1.101562 " fill-opacity="1" fill-rule="evenodd"/></g></g></g></g><g mask="url(#57c5b2c19a)"><g transform="matrix(1, 0, 0, 1, 33, 66)"><g clip-path="url(#181aa7eb13)"><g clip-path="url(#122975ed20)"><path fill="#ffffff" d="M 11.75 0.6875 C 16.546875 0.777344 20.195312 2.84375 22.695312 6.886719 C 25.003906 12.847656 23.746094 17.917969 18.917969 22.089844 C 13.054688 25.242188 7.855469 24.371094 3.324219 19.476562 C 0.21875 14.390625 0.414062 9.417969 3.90625 4.5625 C 5.988281 2.148438 8.601562 0.855469 11.75 0.6875 Z M 9.039062 4.175781 C 12.660156 3.910156 16.019531 4.71875 19.109375 6.59375 C 22.945312 9.570312 23.621094 13.152344 21.144531 17.34375 C 18.476562 20.183594 15.214844 21.183594 11.363281 20.347656 C 8.417969 19.859375 5.929688 18.535156 3.90625 16.375 C 1.523438 12.347656 2.074219 8.761719 5.550781 5.625 C 6.664062 4.972656 7.824219 4.488281 9.039062 4.175781 Z M 9.039062 4.175781 " fill-opacity="1" fill-rule="evenodd"/></g></g></g></g><g mask="url(#461588107a)"><g transform="matrix(1, 0, 0, 1, 219, 68)"><g clip-path="url(#fe1f2c0402)"><g clip-path="url(#074dd2aeda)"><path fill="#ffffff" d="M 20.605469 0.816406 C 20.929688 0.816406 21.25 0.816406 21.574219 0.816406 C 22.304688 3.363281 23.210938 5.847656 24.285156 8.273438 C 24.15625 8.632812 23.898438 8.859375 23.511719 8.953125 C 23.171875 8.46875 22.882812 7.953125 22.640625 7.402344 C 22.355469 7.082031 22 6.890625 21.574219 6.824219 C 16.167969 8.65625 10.808594 10.625 5.5 12.730469 C 5.191406 12.933594 4.898438 13.160156 4.625 13.40625 C 4.507812 14.246094 4.601562 15.050781 4.917969 15.828125 C 4.558594 16.046875 4.171875 16.144531 3.753906 16.121094 C 2.929688 13.445312 2.023438 10.796875 1.042969 8.179688 C 1.320312 8.195312 1.578125 8.128906 1.816406 7.984375 C 2.234375 8.625 2.683594 9.238281 3.175781 9.824219 C 3.691406 9.953125 4.207031 9.953125 4.722656 9.824219 C 8.933594 8.3125 13.132812 6.765625 17.3125 5.175781 C 18.5 4.792969 19.597656 4.242188 20.605469 3.53125 C 20.761719 2.589844 20.761719 1.683594 20.605469 0.816406 Z M 20.605469 0.816406 " fill-opacity="1" fill-rule="evenodd"/></g></g></g></g><g mask="url(#841f640fbc)"><g transform="matrix(1, 0, 0, 1, 147, 76)"><g clip-path="url(#afd6334a65)"><g clip-path="url(#81b9aed34b)"><path fill="#ffffff" d="M 16.871094 0.953125 C 17.128906 3.015625 17.257812 5.144531 17.257812 7.34375 C 17.226562 9.476562 17.195312 11.605469 17.164062 13.738281 C 11.546875 16.511719 5.929688 19.289062 0.3125 22.066406 C 0.183594 17.867188 0.183594 13.671875 0.3125 9.476562 C 5.890625 6.703125 11.410156 3.863281 16.871094 0.953125 Z M 16.871094 0.953125 " fill-opacity="1" fill-rule="evenodd"/></g></g></g></g><g clip-path="url(#a7c261ac16)"><g mask="url(#16485a68f6)"><g transform="matrix(1, 0, 0, 1, 27, 89)"><g clip-path="url(#84f4fd7f1d)"><g clip-path="url(#d080952db1)"><path fill="#ffffff" d="M 0.707031 20.300781 C 0.707031 20.042969 0.707031 19.785156 0.707031 19.523438 C 1.535156 19.242188 1.957031 18.664062 1.964844 17.78125 C 2.472656 12.941406 2.957031 8.101562 3.417969 3.253906 C 3.445312 2.285156 3.25 1.382812 2.835938 0.542969 C 4.496094 0.964844 6.171875 1.289062 7.871094 1.511719 C 7.871094 1.835938 7.871094 2.15625 7.871094 2.480469 C 5.796875 2.457031 4.667969 3.488281 4.484375 5.578125 C 4.339844 6.84375 4.179688 8.101562 4 9.355469 C 4.027344 9.507812 4.089844 9.636719 4.191406 9.742188 C 9.96875 10.390625 15.746094 11.003906 21.527344 11.582031 C 22.328125 11.621094 22.90625 11.296875 23.269531 10.617188 C 23.449219 10.113281 23.578125 9.59375 23.660156 9.066406 C 23.988281 8.890625 24.34375 8.824219 24.722656 8.871094 C 24.324219 11.699219 24.03125 14.539062 23.851562 17.394531 C 23.582031 17.722656 23.226562 17.851562 22.785156 17.78125 C 22.820312 17.003906 22.785156 16.230469 22.691406 15.457031 C 22.476562 15.007812 22.121094 14.71875 21.625 14.585938 C 15.984375 13.914062 10.332031 13.300781 4.675781 12.746094 C 4.292969 12.769531 3.96875 12.898438 3.707031 13.132812 C 3.445312 14.933594 3.382812 16.742188 3.515625 18.558594 C 4.03125 19.589844 4.804688 20.363281 5.839844 20.882812 C 6 21.625 5.707031 21.914062 4.96875 21.753906 C 3.589844 21.132812 2.167969 20.648438 0.707031 20.300781 Z M 0.707031 20.300781 " fill-opacity="1" fill-rule="evenodd"/></g></g></g></g></g><g mask="url(#2dddc3cbcd)"><g transform="matrix(1, 0, 0, 1, 113, 90)"><g clip-path="url(#d34b5c166b)"><g clip-path="url(#5b79b93c02)"><path fill="#ffffff" d="M 0.707031 0.511719 C 4.578125 4.414062 8.96875 7.609375 13.875 10.097656 C 21.074219 13.601562 28.238281 17.152344 35.375 20.753906 C 39.101562 22.710938 42.523438 25.101562 45.640625 27.917969 C 50.585938 33.070312 52.425781 39.171875 51.164062 46.222656 C 50.339844 44.03125 49.015625 42.191406 47.191406 40.703125 C 42.636719 37.421875 37.792969 34.582031 32.664062 32.179688 C 26.761719 29.8125 20.953125 27.226562 15.234375 24.433594 C 12.289062 22.800781 9.511719 20.929688 6.902344 18.816406 C 2.511719 14.6875 0.382812 9.585938 0.511719 3.515625 C 0.679688 2.519531 0.746094 1.519531 0.707031 0.511719 Z M 0.707031 0.511719 " fill-opacity="1" fill-rule="evenodd"/></g></g></g></g><g mask="url(#138ed9daa2)"><g transform="matrix(1, 0, 0, 1, 125, 93)"><g clip-path="url(#24a6bba23a)"><g clip-path="url(#450fdedb06)"><path fill="#ffffff" d="M 5.167969 1 C 5.550781 2.664062 5.679688 4.410156 5.558594 6.226562 C 3.839844 5.5625 2.222656 4.691406 0.714844 3.613281 C 2.210938 2.738281 3.695312 1.863281 5.167969 1 Z M 5.167969 1 " fill-opacity="1" fill-rule="evenodd"/></g></g></g></g><g clip-path="url(#13172d4ab6)"><g mask="url(#d530498a0d)"><g transform="matrix(1, 0, 0, 1, 226, 97)"><g clip-path="url(#4a7e404041)"><g clip-path="url(#f1fd2ec8db)"><path fill="#ffffff" d="M 23.097656 6.875 C 23.097656 7.910156 23.097656 8.941406 23.097656 9.976562 C 22.933594 10.644531 22.742188 11.320312 22.515625 12.007812 C 21.277344 12.425781 20.019531 12.714844 18.738281 12.882812 C 18.582031 12.507812 18.484375 12.117188 18.449219 11.71875 C 21.269531 10.863281 22.335938 8.992188 21.644531 6.101562 C 20.851562 4.113281 19.398438 3.371094 17.285156 3.875 C 16.621094 4.21875 16.007812 4.636719 15.445312 5.132812 C 14.21875 7.199219 12.992188 9.265625 11.765625 11.332031 C 9.128906 14.199219 6.128906 14.683594 2.757812 12.785156 C 1.03125 11.058594 0.191406 8.960938 0.242188 6.488281 C 0.308594 5.023438 0.597656 3.601562 1.113281 2.226562 C 2.609375 1.496094 4.191406 1.042969 5.859375 0.871094 C 5.917969 1.207031 5.953125 1.53125 5.957031 1.839844 C 3.878906 2.625 2.460938 4.046875 1.695312 6.101562 C 1.15625 9.824219 2.738281 11.535156 6.441406 11.234375 C 7.140625 11.015625 7.785156 10.691406 8.375 10.265625 C 9.917969 7.925781 11.433594 5.570312 12.929688 3.195312 C 16.03125 0.519531 19.003906 0.648438 21.839844 3.582031 C 22.398438 4.652344 22.820312 5.75 23.097656 6.875 Z M 23.097656 6.875 " fill-opacity="1" fill-rule="evenodd"/></g></g></g></g></g><g mask="url(#d700f603f4)"><g transform="matrix(1, 0, 0, 1, 112, 106)"><g clip-path="url(#318dc4b13b)"><g clip-path="url(#9a43cd5adf)"><path fill="#ffffff" d="M 2.675781 0.199219 C 2.816406 0.175781 2.945312 0.207031 3.0625 0.296875 C 4.582031 2.300781 6.324219 4.078125 8.292969 5.625 C 5.84375 7.75 3.519531 10.007812 1.316406 12.402344 C 0.949219 8.242188 1.402344 4.175781 2.675781 0.199219 Z M 2.675781 0.199219 " fill-opacity="1" fill-rule="evenodd"/></g></g></g></g><g mask="url(#f41eeba04a)"><g transform="matrix(1, 0, 0, 1, 217, 110)"><g clip-path="url(#83eb7906b5)"><g clip-path="url(#cc64a65d42)"><path fill="#ffffff" d="M 10.597656 0.847656 C 10.984375 0.847656 11.371094 0.847656 11.757812 0.847656 C 11.421875 1.894531 11.613281 2.832031 12.339844 3.65625 C 18.230469 6.992188 24.234375 10.121094 30.355469 13.050781 C 30.632812 13.671875 30.953125 14.253906 31.324219 14.796875 C 31.300781 14.976562 31.238281 15.140625 31.128906 15.28125 C 24.53125 16.652344 17.945312 18.070312 11.371094 19.539062 C 10.566406 19.699219 9.953125 20.121094 9.53125 20.800781 C 9.273438 21.824219 9.148438 22.859375 9.144531 23.898438 C 10.570312 24.820312 12.085938 25.5625 13.695312 26.125 C 17.375 27.484375 21.058594 28.839844 24.738281 30.195312 C 26.347656 30.460938 27.445312 29.816406 28.03125 28.257812 C 28.339844 28.117188 28.632812 28.148438 28.902344 28.355469 C 28.46875 29.910156 27.953125 31.457031 27.351562 33.003906 C 20.460938 35.363281 13.648438 37.980469 6.917969 40.847656 C 11.054688 42.496094 15.25 43.980469 19.507812 45.300781 C 20.023438 45.429688 20.539062 45.429688 21.058594 45.300781 C 21.652344 44.757812 22.105469 44.113281 22.414062 43.367188 C 22.828125 43.3125 23.152344 43.476562 23.382812 43.847656 C 22.402344 46.082031 21.496094 48.339844 20.667969 50.628906 C 20.429688 50.484375 20.171875 50.417969 19.894531 50.433594 C 20.027344 49.664062 20.0625 48.886719 19.992188 48.109375 C 19.832031 47.820312 19.605469 47.59375 19.3125 47.433594 C 13.5 45.019531 7.625 42.761719 1.6875 40.652344 C 1.195312 40.472656 1.003906 40.117188 1.105469 39.589844 C 8.429688 36.953125 15.722656 34.242188 22.992188 31.453125 C 18.582031 29.539062 14.0625 27.890625 9.433594 26.515625 C 8.984375 26.386719 8.53125 26.386719 8.078125 26.515625 C 7.578125 27.050781 7.191406 27.664062 6.917969 28.355469 C 6.511719 28.597656 6.1875 28.5 5.949219 28.0625 C 6.773438 26.058594 7.515625 24.027344 8.175781 21.960938 C 8.578125 19.457031 8.871094 16.9375 9.046875 14.40625 C 9.371094 14.40625 9.691406 14.40625 10.015625 14.40625 C 9.984375 14.992188 10.015625 15.574219 10.113281 16.152344 C 10.339844 16.378906 10.632812 16.511719 10.984375 16.539062 C 13.070312 16.207031 15.136719 15.785156 17.183594 15.28125 C 17.304688 15.132812 17.402344 14.972656 17.472656 14.796875 C 17.824219 12.738281 18.019531 10.671875 18.054688 8.597656 C 15.972656 7.523438 13.839844 6.554688 11.664062 5.691406 C 11.152344 6.222656 10.925781 6.867188 10.984375 7.628906 C 10.566406 7.652344 10.179688 7.558594 9.824219 7.339844 C 10.273438 5.207031 10.53125 3.042969 10.597656 0.847656 Z M 19.699219 9.371094 C 22.179688 10.578125 24.632812 11.839844 27.0625 13.148438 C 24.46875 13.90625 21.820312 14.457031 19.121094 14.796875 C 19.226562 12.976562 19.421875 11.167969 19.699219 9.371094 Z M 19.699219 9.371094 " fill-opacity="1" fill-rule="evenodd"/></g></g></g></g><g mask="url(#9955ea2c93)"><g transform="matrix(1, 0, 0, 1, 28, 111)"><g clip-path="url(#3c088b5266)"><g clip-path="url(#e2f2ead7f3)"><path fill="#ffffff" d="M 0.867188 0.625 C 1.0625 0.625 1.253906 0.625 1.449219 0.625 C 1.441406 2.007812 2.089844 2.941406 3.386719 3.433594 C 10.003906 5.8125 16.71875 7.875 23.53125 9.632812 C 23.789062 10.019531 23.789062 10.40625 23.53125 10.792969 C 17.179688 14 10.917969 17.355469 4.742188 20.867188 C 4.070312 21.605469 3.8125 22.476562 3.96875 23.480469 C 3.644531 23.480469 3.320312 23.480469 3 23.480469 C 2.800781 21.007812 2.480469 18.554688 2.03125 16.121094 C 2.398438 15.933594 2.785156 15.867188 3.191406 15.925781 C 3.253906 16.46875 3.417969 16.988281 3.675781 17.476562 C 3.878906 17.671875 4.105469 17.703125 4.355469 17.574219 C 9.101562 15.167969 13.75 12.617188 18.300781 9.921875 C 13.171875 8.257812 8.007812 6.707031 2.804688 5.273438 C 2.617188 5.367188 2.453125 5.496094 2.320312 5.660156 C 2.222656 6.238281 2.191406 6.820312 2.222656 7.402344 C 1.882812 7.375 1.558594 7.441406 1.253906 7.597656 C 1.011719 5.53125 0.753906 3.464844 0.480469 1.398438 C 0.539062 1.085938 0.667969 0.828125 0.867188 0.625 Z M 0.867188 0.625 " fill-opacity="1" fill-rule="evenodd"/></g></g></g></g><g mask="url(#fffa6c6b20)"><g transform="matrix(1, 0, 0, 1, 132, 118)"><g clip-path="url(#8a553c9128)"><g clip-path="url(#9881d9e6c6)"><path fill="#ffffff" d="M 0.492188 0.402344 C 4.578125 2.285156 8.648438 4.222656 12.695312 6.214844 C 12.953125 12.21875 12.953125 18.222656 12.695312 24.226562 C 8.648438 22.308594 4.613281 20.371094 0.589844 18.417969 C 0.492188 12.414062 0.460938 6.410156 0.492188 0.402344 Z M 0.492188 0.402344 " fill-opacity="1" fill-rule="evenodd"/></g></g></g></g><g mask="url(#cf65b1fc6e)"><g transform="matrix(1, 0, 0, 1, 113, 125)"><g clip-path="url(#ac053faba2)"><g clip-path="url(#dd52350963)"><path fill="#ffffff" d="M 0.707031 0.765625 C 4.042969 4.082031 7.789062 6.890625 11.941406 9.191406 C 19.6875 13.0625 27.433594 16.9375 35.183594 20.8125 C 38.480469 22.589844 41.582031 24.65625 44.480469 27.007812 C 50.296875 32.253906 52.523438 38.742188 51.164062 46.476562 C 50.542969 44.429688 49.414062 42.71875 47.773438 41.34375 C 43.023438 37.773438 37.925781 34.738281 32.472656 32.238281 C 26.699219 29.933594 21.015625 27.414062 15.425781 24.683594 C 12.675781 23.09375 10.027344 21.351562 7.484375 19.457031 C 2.730469 15.335938 0.40625 10.105469 0.511719 3.765625 C 0.679688 2.773438 0.746094 1.773438 0.707031 0.765625 Z M 0.707031 0.765625 " fill-opacity="1" fill-rule="evenodd"/></g></g></g></g><g mask="url(#7c2c904107)"><g transform="matrix(1, 0, 0, 1, 30, 135)"><g clip-path="url(#adffce2229)"><g clip-path="url(#b0cdbf94a1)"><path fill="#ffffff" d="M 23.660156 0.449219 C 23.855469 0.449219 24.046875 0.449219 24.242188 0.449219 C 24.96875 3.246094 25.875 5.992188 26.953125 8.679688 C 26.777344 9.128906 26.453125 9.257812 25.984375 9.066406 C 25.730469 8.234375 25.277344 7.523438 24.628906 6.9375 C 24.175781 6.808594 23.726562 6.808594 23.273438 6.9375 C 17.65625 8.722656 12.105469 10.660156 6.617188 12.75 C 7.152344 14.355469 7.765625 15.9375 8.457031 17.492188 C 9.300781 18.605469 10.429688 19.1875 11.84375 19.238281 C 12.03125 19.535156 12.09375 19.859375 12.039062 20.207031 C 10.546875 20.265625 9.0625 20.394531 7.585938 20.59375 C 7.335938 20.578125 7.113281 20.515625 6.90625 20.398438 C 6.941406 19.898438 7.101562 19.414062 7.390625 18.945312 C 5.664062 13.578125 3.824219 8.25 1.871094 2.964844 C 1.5625 2.703125 1.207031 2.574219 0.804688 2.578125 C 0.804688 2.320312 0.804688 2.0625 0.804688 1.804688 C 2.464844 1.613281 4.078125 1.226562 5.648438 0.640625 C 5.929688 0.867188 6.121094 1.15625 6.226562 1.515625 C 5.5625 1.863281 4.949219 2.28125 4.386719 2.773438 C 4.023438 3.863281 4.023438 4.960938 4.386719 6.066406 C 4.742188 7.351562 5.226562 8.578125 5.839844 9.746094 C 11.542969 7.832031 17.226562 5.863281 22.886719 3.839844 C 23.046875 3.675781 23.207031 3.515625 23.371094 3.355469 C 23.496094 2.605469 23.460938 1.863281 23.273438 1.125 C 23.34375 0.847656 23.472656 0.621094 23.660156 0.449219 Z M 23.660156 0.449219 " fill-opacity="1" fill-rule="evenodd"/></g></g></g></g><g mask="url(#ecf415481d)"><g transform="matrix(1, 0, 0, 1, 157, 141)"><g clip-path="url(#fa738ed1c5)"><g clip-path="url(#ff8096c0d0)"><path fill="#ffffff" d="M 7.066406 0.648438 C 7.609375 3.910156 7.445312 7.203125 6.582031 10.523438 C 6.40625 11.351562 6.117188 12.125 5.710938 12.847656 C 4.097656 10.847656 2.289062 9.039062 0.285156 7.425781 C 2.738281 5.359375 5 3.101562 7.066406 0.648438 Z M 7.066406 0.648438 " fill-opacity="1" fill-rule="evenodd"/></g></g></g></g><g mask="url(#82823637e3)"><g transform="matrix(1, 0, 0, 1, 39, 148)"><g clip-path="url(#cc0e256aeb)"><g clip-path="url(#83210a40c8)"><path fill="#ffffff" d="M 19.503906 0.621094 C 19.757812 0.585938 19.984375 0.652344 20.179688 0.8125 C 21.246094 3.070312 22.40625 5.265625 23.667969 7.398438 C 23.816406 7.863281 23.65625 8.1875 23.183594 8.367188 C 22.707031 7.792969 22.191406 7.246094 21.632812 6.722656 C 21.246094 6.59375 20.859375 6.59375 20.472656 6.722656 C 15.253906 9.265625 10.152344 12.007812 5.167969 14.953125 C 5.039062 15.210938 4.910156 15.46875 4.78125 15.726562 C 5.015625 16.355469 5.273438 16.96875 5.558594 17.566406 C 5.289062 17.765625 4.996094 17.925781 4.683594 18.050781 C 3.410156 15.566406 2.085938 13.113281 0.714844 10.691406 C 0.988281 10.472656 1.277344 10.28125 1.585938 10.109375 C 1.96875 10.976562 2.582031 11.621094 3.425781 12.046875 C 8.140625 9.820312 12.789062 7.464844 17.371094 4.976562 C 18.234375 4.59375 18.976562 4.046875 19.601562 3.332031 C 19.664062 2.519531 19.503906 1.746094 19.117188 1.007812 C 19.257812 0.875 19.386719 0.746094 19.503906 0.621094 Z M 19.503906 0.621094 " fill-opacity="1" fill-rule="evenodd"/></g></g></g></g><g mask="url(#b8f8c3f3c4)"><g transform="matrix(1, 0, 0, 1, 211, 153)"><g clip-path="url(#ef4ee18cdd)"><g clip-path="url(#c16d55ff06)"><path fill="#ffffff" d="M 5.167969 0.460938 C 5.648438 0.410156 5.972656 0.605469 6.136719 1.042969 C 5.886719 1.605469 5.695312 2.1875 5.558594 2.785156 C 5.671875 3.390625 5.996094 3.875 6.523438 4.238281 C 10.851562 6.886719 15.175781 9.535156 19.503906 12.179688 C 20.296875 12.769531 21.132812 12.898438 22.019531 12.566406 C 22.371094 12.054688 22.757812 11.570312 23.183594 11.117188 C 23.441406 11.308594 23.699219 11.503906 23.957031 11.695312 C 22.503906 14.085938 21.050781 16.472656 19.597656 18.863281 C 19.292969 18.691406 19 18.5 18.726562 18.28125 C 19.066406 17.699219 19.328125 17.085938 19.503906 16.441406 C 19.476562 16.125 19.378906 15.835938 19.210938 15.570312 C 14.21875 12.25 9.085938 9.152344 3.8125 6.273438 C 3.046875 6.714844 2.402344 7.296875 1.875 8.015625 C 1.289062 7.917969 1.0625 7.59375 1.199219 7.046875 C 2.671875 4.9375 3.996094 2.742188 5.167969 0.460938 Z M 5.167969 0.460938 " fill-opacity="1" fill-rule="evenodd"/></g></g></g></g><g clip-path="url(#a062cefd85)"><g mask="url(#4bc6f0813a)"><g transform="matrix(1, 0, 0, 1, 125, 153)"><g clip-path="url(#1b7e250c04)"><g clip-path="url(#0b45b92b7a)"><path fill="#ffffff" d="M 26.28125 66.898438 C 17.824219 66.898438 9.367188 66.898438 0.910156 66.898438 C 0.910156 65.605469 0.910156 64.316406 0.910156 63.023438 C 3.101562 63.023438 5.296875 63.023438 7.492188 63.023438 C 7.429688 42.363281 7.492188 21.703125 7.6875 1.042969 C 11.691406 2.851562 15.695312 4.660156 19.695312 6.464844 C 19.890625 25.320312 19.953125 44.171875 19.890625 63.023438 C 22.019531 63.023438 24.152344 63.023438 26.28125 63.023438 C 26.28125 64.316406 26.28125 65.605469 26.28125 66.898438 Z M 26.28125 66.898438 " fill-opacity="1" fill-rule="evenodd"/></g></g></g></g></g><g mask="url(#36798d9327)"><g transform="matrix(1, 0, 0, 1, 43, 160)"><g clip-path="url(#9e6dd14b78)"><g clip-path="url(#12f105a91a)"><path fill="#ffffff" d="M 22.476562 0.433594 C 22.769531 0.4375 22.996094 0.566406 23.152344 0.824219 C 24.726562 3.105469 26.371094 5.332031 28.09375 7.503906 C 27.863281 7.765625 27.605469 7.992188 27.316406 8.183594 C 26.71875 7.355469 25.976562 6.710938 25.089844 6.246094 C 24.738281 6.40625 24.382812 6.566406 24.027344 6.730469 C 19.277344 10.234375 14.5625 13.785156 9.886719 17.382812 C 10.890625 18.808594 11.988281 20.164062 13.179688 21.449219 C 14.285156 22.148438 15.480469 22.308594 16.761719 21.933594 C 17.121094 22.066406 17.347656 22.324219 17.441406 22.710938 C 15.910156 23.414062 14.363281 24.125 12.792969 24.839844 C 12.085938 24.496094 12.023438 24.042969 12.597656 23.484375 C 12.214844 22.75 11.796875 22.039062 11.339844 21.355469 C 8.359375 17.429688 5.359375 13.523438 2.332031 9.636719 C 1.738281 9.644531 1.285156 9.417969 0.976562 8.957031 C 2.398438 8.183594 3.753906 7.3125 5.042969 6.34375 C 5.589844 6.207031 5.914062 6.433594 6.011719 7.019531 C 5.554688 7.507812 5.136719 8.027344 4.753906 8.570312 C 4.625 9.023438 4.625 9.472656 4.753906 9.925781 C 5.597656 11.75 6.730469 13.363281 8.144531 14.769531 C 12.6875 11.480469 17.207031 8.15625 21.699219 4.792969 C 22.261719 4.328125 22.714844 3.78125 23.058594 3.148438 C 22.820312 2.351562 22.433594 1.640625 21.894531 1.015625 C 22.058594 0.777344 22.25 0.582031 22.476562 0.433594 Z M 22.476562 0.433594 " fill-opacity="1" fill-rule="evenodd"/></g></g></g></g><g mask="url(#a26f35b555)"><g transform="matrix(1, 0, 0, 1, 147, 160)"><g clip-path="url(#8f6bd6f402)"><g clip-path="url(#e5cf508bbf)"><path fill="#ffffff" d="M 0.214844 0.824219 C 1.71875 1.542969 3.203125 2.316406 4.667969 3.148438 C 4.867188 3.242188 4.898438 3.375 4.765625 3.535156 C 3.296875 4.347656 1.84375 5.1875 0.410156 6.050781 C 0.214844 4.3125 0.148438 2.570312 0.214844 0.824219 Z M 0.214844 0.824219 " fill-opacity="1" fill-rule="evenodd"/></g></g></g></g><g mask="url(#d7355f21a2)"><g transform="matrix(1, 0, 0, 1, 113, 161)"><g clip-path="url(#102fada253)"><g clip-path="url(#967f5b0e9a)"><path fill="#ffffff" d="M 17.363281 0.984375 C 17.621094 3.046875 17.75 5.175781 17.75 7.375 C 17.6875 9.507812 17.621094 11.636719 17.558594 13.769531 C 11.964844 16.554688 6.347656 19.269531 0.707031 21.902344 C 0.640625 17.703125 0.707031 13.507812 0.898438 9.3125 C 6.429688 6.582031 11.917969 3.804688 17.363281 0.984375 Z M 17.363281 0.984375 " fill-opacity="1" fill-rule="evenodd"/></g></g></g></g><g mask="url(#4045cf33f4)"><g transform="matrix(1, 0, 0, 1, 202, 165)"><g clip-path="url(#cd31426f5a)"><g clip-path="url(#db38703bb4)"><path fill="#ffffff" d="M 6.226562 0.472656 C 6.695312 0.421875 7.019531 0.617188 7.195312 1.050781 C 6.667969 1.753906 6.21875 2.496094 5.839844 3.28125 C 6.046875 3.8125 6.339844 4.296875 6.710938 4.730469 C 11.066406 8.585938 15.457031 12.398438 19.882812 16.160156 C 21.265625 14.84375 22.429688 13.355469 23.371094 11.707031 C 23.710938 10.488281 23.550781 9.328125 22.886719 8.21875 C 23.15625 7.773438 23.511719 7.644531 23.949219 7.832031 C 24.800781 9.175781 25.671875 10.5 26.566406 11.800781 C 26.539062 11.953125 26.472656 12.082031 26.371094 12.191406 C 25.921875 12.253906 25.46875 12.320312 25.015625 12.382812 C 21.425781 16.296875 17.90625 20.265625 14.460938 24.296875 C 14.09375 24.949219 13.867188 25.660156 13.78125 26.425781 C 13.667969 26.464844 13.570312 26.53125 13.492188 26.621094 C 12.453125 25.390625 11.355469 24.226562 10.199219 23.132812 C 10.046875 22.667969 10.210938 22.34375 10.683594 22.164062 C 11.351562 22.515625 12.03125 22.839844 12.714844 23.132812 C 14.226562 22.398438 15.519531 21.367188 16.589844 20.035156 C 16.90625 19.523438 17.292969 19.074219 17.753906 18.679688 C 17.882812 18.550781 17.882812 18.421875 17.753906 18.289062 C 13.386719 14.378906 8.964844 10.535156 4.484375 6.765625 C 4.066406 6.457031 3.617188 6.328125 3.128906 6.378906 C 2.519531 6.828125 1.9375 7.3125 1.386719 7.832031 C 1.097656 7.640625 0.839844 7.414062 0.609375 7.152344 C 2.597656 5.007812 4.46875 2.78125 6.226562 0.472656 Z M 6.226562 0.472656 " fill-opacity="1" fill-rule="evenodd"/></g></g></g></g><g mask="url(#ed5b7cb3ed)"><g transform="matrix(1, 0, 0, 1, 60, 173)"><g clip-path="url(#1aa4484f97)"><g clip-path="url(#0e7e023c80)"><path fill="#ffffff" d="M 14 0.605469 C 17.289062 0.6875 19.839844 2.105469 21.648438 4.867188 C 21.859375 5.351562 22.117188 5.804688 22.425781 6.222656 C 22.667969 6.722656 22.730469 7.238281 22.617188 7.773438 C 21.992188 9.074219 21.1875 10.234375 20.195312 11.257812 C 19.90625 11.148438 19.648438 10.984375 19.421875 10.773438 C 21.132812 7.660156 20.613281 5.015625 17.871094 2.832031 C 15.609375 1.824219 13.832031 2.371094 12.546875 4.480469 C 12.226562 5.199219 12 5.941406 11.867188 6.707031 C 12.335938 8.800781 12.820312 10.898438 13.320312 13.003906 C 13.871094 16.195312 12.738281 18.554688 9.929688 20.074219 C 7.667969 20.722656 5.601562 20.335938 3.734375 18.910156 C 2.449219 17.820312 1.382812 16.5625 0.535156 15.132812 C 0.898438 13.699219 1.640625 12.472656 2.765625 11.453125 C 3.066406 11.636719 3.324219 11.859375 3.539062 12.132812 C 2.054688 15.6875 3.183594 17.980469 6.929688 19.007812 C 9.183594 18.535156 10.3125 17.144531 10.316406 14.84375 C 9.910156 12.601562 9.425781 10.371094 8.867188 8.160156 C 8.566406 4.234375 10.277344 1.71875 14 0.605469 Z M 14 0.605469 " fill-opacity="1" fill-rule="evenodd"/></g></g></g></g><g mask="url(#1e2f5caf13)"><g transform="matrix(1, 0, 0, 1, 182, 175)"><g clip-path="url(#a245d96c3c)"><g clip-path="url(#c795107b96)"><path fill="#ffffff" d="M 17.707031 0.542969 C 18.171875 0.492188 18.496094 0.6875 18.675781 1.125 C 17.921875 1.746094 17.40625 2.519531 17.125 3.449219 C 18.800781 10.058594 20.671875 16.613281 22.742188 23.109375 C 22.441406 23.757812 22.25 24.433594 22.160156 25.140625 C 21.832031 25.171875 21.507812 25.140625 21.191406 25.046875 C 15.738281 21.1875 10.25 17.378906 4.726562 13.617188 C 3.542969 13.007812 2.445312 13.167969 1.433594 14.101562 C 1.242188 13.84375 1.046875 13.585938 0.855469 13.328125 C 2.914062 11.78125 4.980469 10.230469 7.050781 8.679688 C 7.351562 8.816406 7.546875 9.042969 7.632812 9.355469 C 7.355469 9.832031 7 10.25 6.566406 10.617188 C 6.4375 10.808594 6.4375 11.003906 6.566406 11.195312 C 8.261719 12.480469 9.972656 13.738281 11.699219 14.972656 C 12.113281 15.097656 12.5 15.03125 12.863281 14.78125 C 14.347656 13.683594 15.832031 12.585938 17.316406 11.488281 C 17.523438 11.21875 17.554688 10.925781 17.414062 10.617188 C 16.851562 8.558594 16.140625 6.558594 15.285156 4.609375 C 15.175781 4.507812 15.046875 4.445312 14.898438 4.417969 C 14.351562 4.625 13.832031 4.882812 13.347656 5.191406 C 13.066406 5.054688 12.90625 4.828125 12.863281 4.515625 C 14.472656 3.191406 16.085938 1.867188 17.707031 0.542969 Z M 17.898438 12.941406 C 18.183594 13.105469 18.34375 13.363281 18.382812 13.714844 C 19.046875 16.011719 19.722656 18.304688 20.417969 20.589844 C 20.351562 20.6875 20.289062 20.785156 20.222656 20.882812 C 18.050781 19.375 15.921875 17.828125 13.832031 16.230469 C 15.136719 15.058594 16.492188 13.960938 17.898438 12.941406 Z M 17.898438 12.941406 " fill-opacity="1" fill-rule="evenodd"/></g></g></g></g><g mask="url(#fcddb70762)"><g transform="matrix(1, 0, 0, 1, 146, 175)"><g clip-path="url(#42e6df04d3)"><g clip-path="url(#26c16ddc95)"><path fill="#ffffff" d="M 17.871094 0.929688 C 19.5 10.105469 16.335938 17.175781 8.382812 22.140625 C 6.050781 23.53125 3.597656 24.660156 1.019531 25.53125 C 0.761719 21.332031 0.761719 17.136719 1.019531 12.941406 C 6.609375 10.761719 11.515625 7.566406 15.742188 3.351562 C 16.429688 2.519531 17.140625 1.714844 17.871094 0.929688 Z M 17.871094 0.929688 " fill-opacity="1" fill-rule="evenodd"/></g></g></g></g><g mask="url(#b1da08a9cf)"><g transform="matrix(1, 0, 0, 1, 71, 180)"><g clip-path="url(#9a2fee72ad)"><g clip-path="url(#4bdce41b27)"><path fill="#ffffff" d="M 13.265625 0.386719 C 15.523438 2.03125 17.785156 3.679688 20.042969 5.324219 C 19.957031 5.640625 19.761719 5.863281 19.460938 6.003906 C 18.757812 5.484375 17.984375 5.261719 17.136719 5.324219 C 16.394531 5.996094 15.71875 6.738281 15.105469 7.550781 C 12.328125 11.492188 9.550781 15.429688 6.777344 19.367188 C 6.550781 19.804688 6.488281 20.257812 6.582031 20.722656 C 7.101562 21.210938 7.585938 21.726562 8.035156 22.273438 C 7.84375 22.558594 7.617188 22.816406 7.355469 23.046875 C 5.183594 21.324219 2.957031 19.679688 0.675781 18.109375 C 0.792969 17.769531 1.019531 17.542969 1.351562 17.429688 C 1.90625 17.820312 2.519531 18.078125 3.191406 18.207031 C 3.46875 18.164062 3.730469 18.066406 3.96875 17.914062 C 6.863281 14.027344 9.738281 10.121094 12.585938 6.195312 C 13.261719 5.261719 13.8125 4.261719 14.234375 3.195312 C 13.976562 2.324219 13.457031 1.644531 12.683594 1.160156 C 12.882812 0.898438 13.074219 0.640625 13.265625 0.386719 Z M 13.265625 0.386719 " fill-opacity="1" fill-rule="evenodd"/></g></g></g></g><g mask="url(#3cd999c566)"><g transform="matrix(1, 0, 0, 1, 113, 195)"><g clip-path="url(#a25d7c70e2)"><g clip-path="url(#fbe774f533)"><path fill="#ffffff" d="M 17.558594 0.882812 C 17.78125 5.109375 17.816406 9.371094 17.652344 13.664062 C 12.109375 16.519531 6.523438 19.296875 0.898438 21.992188 C 0.671875 17.796875 0.640625 13.601562 0.800781 9.402344 C 6.414062 6.582031 12 3.738281 17.558594 0.882812 Z M 17.558594 0.882812 " fill-opacity="1" fill-rule="evenodd"/></g></g></g></g><g mask="url(#c99fe060b3)"><g transform="matrix(1, 0, 0, 1, 203, 198)"><g clip-path="url(#82b14ed0b9)"><g clip-path="url(#d6adb88f0b)"><path fill="#ffffff" d="M 7.359375 0.980469 C 8.714844 0.910156 9.199219 1.554688 8.8125 2.917969 C 8.714844 3.144531 8.554688 3.304688 8.328125 3.402344 C 5.929688 3.539062 3.539062 3.441406 1.160156 3.109375 C 1.097656 2.980469 1.03125 2.851562 0.964844 2.722656 C 3.089844 2.066406 5.21875 1.484375 7.359375 0.980469 Z M 7.359375 0.980469 " fill-opacity="1" fill-rule="evenodd"/></g></g></g></g></svg>