<svg xmlns="http://www.w3.org/2000/svg" xmlns:xlink="http://www.w3.org/1999/xlink" width="370" zoomAndPan="magnify" viewBox="0 0 277.5 277.500005" height="370" preserveAspectRatio="xMidYMid meet" version="1.0"><defs><filter x="0%" y="0%" width="100%" height="100%" id="5000e9d175"><feColorMatrix values="0 0 0 0 1 0 0 0 0 1 0 0 0 0 1 0 0 0 1 0" color-interpolation-filters="sRGB"/></filter><clipPath id="137a272bb8"><path d="M 130 4.542969 L 146 4.542969 L 146 22 L 130 22 Z M 130 4.542969 " clip-rule="nonzero"/></clipPath><mask id="4d7f707a81"><g filter="url(#5000e9d175)"><rect x="-27.75" width="333" fill="#000000" y="-27.75" height="333.000006" fill-opacity="0.87"/></g></mask><clipPath id="a4b2a3e42e"><path d="M 0.566406 0.542969 L 15 0.542969 L 15 17.5625 L 0.566406 17.5625 Z M 0.566406 0.542969 " clip-rule="nonzero"/></clipPath><clipPath id="075c45a8fd"><rect x="0" width="16" y="0" height="18"/></clipPath><clipPath id="8a7907b21e"><path d="M 153 4.542969 L 171 4.542969 L 171 25 L 153 25 Z M 153 4.542969 " clip-rule="nonzero"/></clipPath><mask id="c6d60a3ae5"><g filter="url(#5000e9d175)"><rect x="-27.75" width="333" fill="#000000" y="-27.75" height="333.000006" fill-opacity="0.872"/></g></mask><clipPath id="2262ad9a87"><path d="M 0.324219 1 L 17 1 L 17 20 L 0.324219 20 Z M 0.324219 1 " clip-rule="nonzero"/></clipPath><clipPath id="af4075137b"><rect x="0" width="18" y="0" height="21"/></clipPath><mask id="2f7b047c67"><g filter="url(#5000e9d175)"><rect x="-27.75" width="333" fill="#000000" y="-27.75" height="333.000006" fill-opacity="0.884"/></g></mask><clipPath id="8c8c3a764b"><path d="M 0.0859375 0.46875 L 17.816406 0.46875 L 17.816406 18.675781 L 0.0859375 18.675781 Z M 0.0859375 0.46875 " clip-rule="nonzero"/></clipPath><clipPath id="8c9b00e50f"><rect x="0" width="18" y="0" height="19"/></clipPath><mask id="ebe4274d77"><g filter="url(#5000e9d175)"><rect x="-27.75" width="333" fill="#000000" y="-27.75" height="333.000006" fill-opacity="0.861"/></g></mask><clipPath id="3adcd7adf6"><path d="M 0.476562 1 L 15.332031 1 L 15.332031 19.945312 L 0.476562 19.945312 Z M 0.476562 1 " clip-rule="nonzero"/></clipPath><clipPath id="1d17b1849c"><rect x="0" width="16" y="0" height="20"/></clipPath><mask id="be6dfc53f4"><g filter="url(#5000e9d175)"><rect x="-27.75" width="333" fill="#000000" y="-27.75" height="333.000006" fill-opacity="0.864"/></g></mask><clipPath id="67f1d24117"><path d="M 0.234375 0.257812 L 9.578125 0.257812 L 9.578125 17.988281 L 0.234375 17.988281 Z M 0.234375 0.257812 " clip-rule="nonzero"/></clipPath><clipPath id="3c8985d905"><rect x="0" width="10" y="0" height="18"/></clipPath><mask id="bade1882dc"><g filter="url(#5000e9d175)"><rect x="-27.75" width="333" fill="#000000" y="-27.75" height="333.000006" fill-opacity="0.866"/></g></mask><clipPath id="3152bf3aa0"><path d="M 1 0.0507812 L 17.527344 0.0507812 L 17.527344 19.695312 L 1 19.695312 Z M 1 0.0507812 " clip-rule="nonzero"/></clipPath><clipPath id="2dd7329d02"><rect x="0" width="18" y="0" height="20"/></clipPath><mask id="384f8e91d8"><g filter="url(#5000e9d175)"><rect x="-27.75" width="333" fill="#000000" y="-27.75" height="333.000006" fill-opacity="0.848"/></g></mask><clipPath id="a7a76a2ea8"><path d="M 0.53125 1 L 20 1 L 20 22 L 0.53125 22 Z M 0.53125 1 " clip-rule="nonzero"/></clipPath><clipPath id="05b83757bf"><rect x="0" width="21" y="0" height="23"/></clipPath><mask id="97cbc37b6b"><g filter="url(#5000e9d175)"><rect x="-27.75" width="333" fill="#000000" y="-27.75" height="333.000006" fill-opacity="0.97"/></g></mask><clipPath id="a4491e944f"><path d="M 0.59375 1 L 223.628906 1 L 223.628906 223.828125 L 0.59375 223.828125 Z M 0.59375 1 " clip-rule="nonzero"/></clipPath><clipPath id="ca329d3e31"><rect x="0" width="224" y="0" height="224"/></clipPath><mask id="32c2c79252"><g filter="url(#5000e9d175)"><rect x="-27.75" width="333" fill="#000000" y="-27.75" height="333.000006" fill-opacity="0.869"/></g></mask><clipPath id="cee837731b"><path d="M 0.289062 1 L 22 1 L 22 21 L 0.289062 21 Z M 0.289062 1 " clip-rule="nonzero"/></clipPath><clipPath id="6295544cda"><rect x="0" width="23" y="0" height="22"/></clipPath><mask id="ac56b06cfc"><g filter="url(#5000e9d175)"><rect x="-27.75" width="333" fill="#000000" y="-27.75" height="333.000006" fill-opacity="0.847"/></g></mask><clipPath id="fc7572a107"><path d="M 0.359375 1 L 21.441406 1 L 21.441406 21.921875 L 0.359375 21.921875 Z M 0.359375 1 " clip-rule="nonzero"/></clipPath><clipPath id="961f2086d3"><rect x="0" width="22" y="0" height="22"/></clipPath><mask id="5e73938d9f"><g filter="url(#5000e9d175)"><rect x="-27.75" width="333" fill="#000000" y="-27.75" height="333.000006" fill-opacity="0.876"/></g></mask><clipPath id="941ba31bc0"><path d="M 0.132812 0.507812 L 144 0.507812 L 144 53.691406 L 0.132812 53.691406 Z M 0.132812 0.507812 " clip-rule="nonzero"/></clipPath><clipPath id="38172475c9"><rect x="0" width="145" y="0" height="54"/></clipPath><mask id="fc1baccae2"><g filter="url(#5000e9d175)"><rect x="-27.75" width="333" fill="#000000" y="-27.75" height="333.000006" fill-opacity="0.855"/></g></mask><clipPath id="47ed4f9611"><rect x="0" width="18" y="0" height="15"/></clipPath><mask id="66b7ec74a4"><g filter="url(#5000e9d175)"><rect x="-27.75" width="333" fill="#000000" y="-27.75" height="333.000006" fill-opacity="0.974"/></g></mask><clipPath id="3cb0de69d5"><path d="M 1 1 L 23.511719 1 L 23.511719 48 L 1 48 Z M 1 1 " clip-rule="nonzero"/></clipPath><clipPath id="53dd104d6d"><rect x="0" width="24" y="0" height="49"/></clipPath><mask id="8757afc881"><g filter="url(#5000e9d175)"><rect x="-27.75" width="333" fill="#000000" y="-27.75" height="333.000006" fill-opacity="0.962"/></g></mask><clipPath id="274493e956"><path d="M 1 1 L 26 1 L 26 45.773438 L 1 45.773438 Z M 1 1 " clip-rule="nonzero"/></clipPath><clipPath id="7ff93d1738"><rect x="0" width="27" y="0" height="46"/></clipPath><mask id="70f8cc35d5"><g filter="url(#5000e9d175)"><rect x="-27.75" width="333" fill="#000000" y="-27.75" height="333.000006" fill-opacity="0.914"/></g></mask><clipPath id="ddfd61ed5f"><path d="M 0.148438 1 L 14 1 L 14 44.734375 L 0.148438 44.734375 Z M 0.148438 1 " clip-rule="nonzero"/></clipPath><clipPath id="8695e8ec8b"><rect x="0" width="15" y="0" height="45"/></clipPath><mask id="2011bd394c"><g filter="url(#5000e9d175)"><rect x="-27.75" width="333" fill="#000000" y="-27.75" height="333.000006" fill-opacity="0.966"/></g></mask><clipPath id="85204e3213"><path d="M 0.0351562 1 L 43.636719 1 L 43.636719 53.515625 L 0.0351562 53.515625 Z M 0.0351562 1 " clip-rule="nonzero"/></clipPath><clipPath id="2913f17570"><rect x="0" width="44" y="0" height="54"/></clipPath><mask id="1d2bcff39c"><g filter="url(#5000e9d175)"><rect x="-27.75" width="333" fill="#000000" y="-27.75" height="333.000006" fill-opacity="0.96"/></g></mask><clipPath id="cbe473fb2d"><path d="M 0.105469 1 L 20.226562 1 L 20.226562 44.609375 L 0.105469 44.609375 Z M 0.105469 1 " clip-rule="nonzero"/></clipPath><clipPath id="627c36131b"><rect x="0" width="21" y="0" height="45"/></clipPath><mask id="c9ac11d351"><g filter="url(#5000e9d175)"><rect x="-27.75" width="333" fill="#000000" y="-27.75" height="333.000006" fill-opacity="0.862"/></g></mask><clipPath id="0133e0e7ad"><path d="M 1 1 L 20.457031 1 L 20.457031 19.640625 L 1 19.640625 Z M 1 1 " clip-rule="nonzero"/></clipPath><clipPath id="ad0d947bac"><rect x="0" width="21" y="0" height="20"/></clipPath><mask id="5619787029"><g filter="url(#5000e9d175)"><rect x="-27.75" width="333" fill="#000000" y="-27.75" height="333.000006" fill-opacity="0.952"/></g></mask><clipPath id="24b0779148"><path d="M 0.0703125 0.308594 L 19 0.308594 L 19 37.921875 L 0.0703125 37.921875 Z M 0.0703125 0.308594 " clip-rule="nonzero"/></clipPath><clipPath id="b3159726df"><rect x="0" width="20" y="0" height="38"/></clipPath><mask id="2ef4c37ab6"><g filter="url(#5000e9d175)"><rect x="-27.75" width="333" fill="#000000" y="-27.75" height="333.000006" fill-opacity="0.965"/></g></mask><clipPath id="9a8b8cf1b6"><path d="M 1 0.265625 L 49.417969 0.265625 L 49.417969 58 L 1 58 Z M 1 0.265625 " clip-rule="nonzero"/></clipPath><clipPath id="ea2ee5ffdf"><rect x="0" width="50" y="0" height="59"/></clipPath><mask id="10ae7653bf"><g filter="url(#5000e9d175)"><rect x="-27.75" width="333" fill="#000000" y="-27.75" height="333.000006" fill-opacity="0.866"/></g></mask><clipPath id="178da80c2f"><path d="M 1 1 L 18.847656 1 L 18.847656 17.433594 L 1 17.433594 Z M 1 1 " clip-rule="nonzero"/></clipPath><clipPath id="b45fa09260"><rect x="0" width="19" y="0" height="18"/></clipPath><mask id="c569a245f7"><g filter="url(#5000e9d175)"><rect x="-27.75" width="333" fill="#000000" y="-27.75" height="333.000006" fill-opacity="0.957"/></g></mask><clipPath id="c2af991419"><path d="M 0.0078125 0.234375 L 67.804688 0.234375 L 67.804688 50 L 0.0078125 50 Z M 0.0078125 0.234375 " clip-rule="nonzero"/></clipPath><clipPath id="43a6d009e1"><rect x="0" width="68" y="0" height="51"/></clipPath><mask id="69a273e76f"><g filter="url(#5000e9d175)"><rect x="-27.75" width="333" fill="#000000" y="-27.75" height="333.000006" fill-opacity="0.855"/></g></mask><clipPath id="bf0b8fb0fa"><path d="M 0.144531 0.347656 L 19.789062 0.347656 L 19.789062 17 L 0.144531 17 Z M 0.144531 0.347656 " clip-rule="nonzero"/></clipPath><clipPath id="63511e3e9b"><rect x="0" width="20" y="0" height="18"/></clipPath><mask id="b030b577f2"><g filter="url(#5000e9d175)"><rect x="-27.75" width="333" fill="#000000" y="-27.75" height="333.000006" fill-opacity="0.873"/></g></mask><clipPath id="9eb6d62fe7"><path d="M 0.347656 0.578125 L 19.753906 0.578125 L 19.753906 16.867188 L 0.347656 16.867188 Z M 0.347656 0.578125 " clip-rule="nonzero"/></clipPath><clipPath id="649d393b76"><rect x="0" width="20" y="0" height="17"/></clipPath><mask id="ffb36adf93"><g filter="url(#5000e9d175)"><rect x="-27.75" width="333" fill="#000000" y="-27.75" height="333.000006" fill-opacity="0.933"/></g></mask><clipPath id="198bd164fb"><path d="M 0.0546875 1 L 12.992188 1 L 12.992188 17.617188 L 0.0546875 17.617188 Z M 0.0546875 1 " clip-rule="nonzero"/></clipPath><clipPath id="e3d61f22f7"><rect x="0" width="13" y="0" height="18"/></clipPath><mask id="c3d9972fd0"><g filter="url(#5000e9d175)"><rect x="-27.75" width="333" fill="#000000" y="-27.75" height="333.000006" fill-opacity="0.936"/></g></mask><clipPath id="162c232af6"><path d="M 1 0.667969 L 16.992188 0.667969 L 16.992188 25.585938 L 1 25.585938 Z M 1 0.667969 " clip-rule="nonzero"/></clipPath><clipPath id="eabb26236f"><rect x="0" width="17" y="0" height="26"/></clipPath><clipPath id="4a47ec2592"><path d="M 3.359375 120 L 23 120 L 23 135 L 3.359375 135 Z M 3.359375 120 " clip-rule="nonzero"/></clipPath><mask id="d87a0be599"><g filter="url(#5000e9d175)"><rect x="-27.75" width="333" fill="#000000" y="-27.75" height="333.000006" fill-opacity="0.871"/></g></mask><clipPath id="c31252d3f3"><path d="M 0.359375 0.0234375 L 19 0.0234375 L 19 14 L 0.359375 14 Z M 0.359375 0.0234375 " clip-rule="nonzero"/></clipPath><clipPath id="a65965b0d3"><rect x="0" width="20" y="0" height="15"/></clipPath><clipPath id="078371e60d"><path d="M 255 123 L 273.621094 123 L 273.621094 141 L 255 141 Z M 255 123 " clip-rule="nonzero"/></clipPath><mask id="23321e2022"><g filter="url(#5000e9d175)"><rect x="-27.75" width="333" fill="#000000" y="-27.75" height="333.000006" fill-opacity="0.886"/></g></mask><clipPath id="7d5211e92b"><path d="M 0.378906 1 L 18.585938 1 L 18.585938 17 L 0.378906 17 Z M 0.378906 1 " clip-rule="nonzero"/></clipPath><clipPath id="5d7f5b228a"><rect x="0" width="19" y="0" height="18"/></clipPath><mask id="8dd9e9dd4f"><g filter="url(#5000e9d175)"><rect x="-27.75" width="333" fill="#000000" y="-27.75" height="333.000006" fill-opacity="0.804"/></g></mask><clipPath id="5e6c0cd5ed"><path d="M 0.496094 0.46875 L 4.808594 0.46875 L 4.808594 5 L 0.496094 5 Z M 0.496094 0.46875 " clip-rule="nonzero"/></clipPath><clipPath id="043444c33b"><rect x="0" width="5" y="0" height="6"/></clipPath><mask id="6d6cb82bfe"><g filter="url(#5000e9d175)"><rect x="-27.75" width="333" fill="#000000" y="-27.75" height="333.000006" fill-opacity="0.775"/></g></mask><clipPath id="0967eab0e8"><path d="M 0.402344 0.46875 L 4.476562 0.46875 L 4.476562 5 L 0.402344 5 Z M 0.402344 0.46875 " clip-rule="nonzero"/></clipPath><clipPath id="3267f10eb3"><rect x="0" width="5" y="0" height="6"/></clipPath><mask id="a2e1650216"><g filter="url(#5000e9d175)"><rect x="-27.75" width="333" fill="#000000" y="-27.75" height="333.000006" fill-opacity="0.773"/></g></mask><clipPath id="a628d9a281"><path d="M 0.0703125 0.46875 L 4.140625 0.46875 L 4.140625 5 L 0.0703125 5 Z M 0.0703125 0.46875 " clip-rule="nonzero"/></clipPath><clipPath id="c47476805c"><rect x="0" width="5" y="0" height="6"/></clipPath><mask id="af8721f318"><g filter="url(#5000e9d175)"><rect x="-27.75" width="333" fill="#000000" y="-27.75" height="333.000006" fill-opacity="0.762"/></g></mask><clipPath id="64b3d68d5c"><path d="M 1 0.46875 L 5 0.46875 L 5 5 L 1 5 Z M 1 0.46875 " clip-rule="nonzero"/></clipPath><clipPath id="bb8241f44f"><rect x="0" width="6" y="0" height="6"/></clipPath><clipPath id="539b8549ee"><path d="M 3.359375 142 L 22 142 L 22 158 L 3.359375 158 Z M 3.359375 142 " clip-rule="nonzero"/></clipPath><mask id="09d736eec4"><g filter="url(#5000e9d175)"><rect x="-27.75" width="333" fill="#000000" y="-27.75" height="333.000006" fill-opacity="0.871"/></g></mask><clipPath id="ba44eebffd"><path d="M 1 1 L 18.5625 1 L 18.5625 15.636719 L 1 15.636719 Z M 1 1 " clip-rule="nonzero"/></clipPath><clipPath id="cb7398d702"><rect x="0" width="19" y="0" height="16"/></clipPath><mask id="94b85d4528"><g filter="url(#5000e9d175)"><rect x="-27.75" width="333" fill="#000000" y="-27.75" height="333.000006" fill-opacity="0.87"/></g></mask><clipPath id="4d795a010e"><path d="M 0.421875 0.25 L 18 0.25 L 18 17.5 L 0.421875 17.5 Z M 0.421875 0.25 " clip-rule="nonzero"/></clipPath><clipPath id="ecaaf39abf"><rect x="0" width="19" y="0" height="18"/></clipPath><mask id="0618e4a294"><g filter="url(#5000e9d175)"><rect x="-27.75" width="333" fill="#000000" y="-27.75" height="333.000006" fill-opacity="0.745"/></g></mask><clipPath id="28e4bb1adf"><path d="M 0.015625 0.210938 L 5 0.210938 L 5 5 L 0.015625 5 Z M 0.015625 0.210938 " clip-rule="nonzero"/></clipPath><clipPath id="f63ff47330"><rect x="0" width="6" y="0" height="6"/></clipPath><mask id="1180a12b9d"><g filter="url(#5000e9d175)"><rect x="-27.75" width="333" fill="#000000" y="-27.75" height="333.000006" fill-opacity="0.828"/></g></mask><clipPath id="c4ace18471"><path d="M 0.203125 0.6875 L 4.996094 0.6875 L 4.996094 5 L 0.203125 5 Z M 0.203125 0.6875 " clip-rule="nonzero"/></clipPath><clipPath id="7eb018d056"><rect x="0" width="5" y="0" height="6"/></clipPath><mask id="a5d94a1302"><g filter="url(#5000e9d175)"><rect x="-27.75" width="333" fill="#000000" y="-27.75" height="333.000006" fill-opacity="0.79"/></g></mask><clipPath id="d481391dc0"><path d="M 0.148438 0.6875 L 4.703125 0.6875 L 4.703125 5.242188 L 0.148438 5.242188 Z M 0.148438 0.6875 " clip-rule="nonzero"/></clipPath><clipPath id="dd46215d60"><rect x="0" width="5" y="0" height="6"/></clipPath><mask id="51c3cf1d85"><g filter="url(#5000e9d175)"><rect x="-27.75" width="333" fill="#000000" y="-27.75" height="333.000006" fill-opacity="0.814"/></g></mask><clipPath id="350ef13326"><path d="M 0.015625 1 L 4.566406 1 L 4.566406 5 L 0.015625 5 Z M 0.015625 1 " clip-rule="nonzero"/></clipPath><clipPath id="c02b985b22"><rect x="0" width="5" y="0" height="6"/></clipPath><mask id="8093f889e4"><g filter="url(#5000e9d175)"><rect x="-27.75" width="333" fill="#000000" y="-27.75" height="333.000006" fill-opacity="0.823"/></g></mask><clipPath id="b2a4ba25bc"><path d="M 0.203125 0.394531 L 4.996094 0.394531 L 4.996094 4.46875 L 0.203125 4.46875 Z M 0.203125 0.394531 " clip-rule="nonzero"/></clipPath><clipPath id="efefdb30b1"><rect x="0" width="5" y="0" height="5"/></clipPath><mask id="25efa7bad8"><g filter="url(#5000e9d175)"><rect x="-27.75" width="333" fill="#000000" y="-27.75" height="333.000006" fill-opacity="0.802"/></g></mask><clipPath id="c0c88a1bf9"><path d="M 0.148438 1 L 4.703125 1 L 4.703125 5 L 0.148438 5 Z M 0.148438 1 " clip-rule="nonzero"/></clipPath><clipPath id="7ae176ab7e"><rect x="0" width="5" y="0" height="6"/></clipPath><mask id="db176d708b"><g filter="url(#5000e9d175)"><rect x="-27.75" width="333" fill="#000000" y="-27.75" height="333.000006" fill-opacity="0.832"/></g></mask><clipPath id="4de6f5c25b"><path d="M 1 0.488281 L 26.785156 0.488281 L 26.785156 5.519531 L 1 5.519531 Z M 1 0.488281 " clip-rule="nonzero"/></clipPath><clipPath id="d1eca9a234"><rect x="0" width="27" y="0" height="6"/></clipPath><mask id="69a02185e5"><g filter="url(#5000e9d175)"><rect x="-27.75" width="333" fill="#000000" y="-27.75" height="333.000006" fill-opacity="0.859"/></g></mask><clipPath id="9484c7ec56"><path d="M 1 1 L 19.160156 1 L 19.160156 17 L 1 17 Z M 1 1 " clip-rule="nonzero"/></clipPath><clipPath id="dca3541c4c"><rect x="0" width="20" y="0" height="18"/></clipPath><mask id="cdb0778c18"><g filter="url(#5000e9d175)"><rect x="-27.75" width="333" fill="#000000" y="-27.75" height="333.000006" fill-opacity="0.868"/></g></mask><clipPath id="8260475221"><path d="M 1 1 L 20.621094 1 L 20.621094 20.488281 L 1 20.488281 Z M 1 1 " clip-rule="nonzero"/></clipPath><clipPath id="b295154c53"><rect x="0" width="21" y="0" height="21"/></clipPath><mask id="e7efe1ec83"><g filter="url(#5000e9d175)"><rect x="-27.75" width="333" fill="#000000" y="-27.75" height="333.000006" fill-opacity="0.859"/></g></mask><clipPath id="08bfda5a35"><path d="M 1 0.726562 L 18.621094 0.726562 L 18.621094 17.976562 L 1 17.976562 Z M 1 0.726562 " clip-rule="nonzero"/></clipPath><clipPath id="6e46384c95"><rect x="0" width="19" y="0" height="18"/></clipPath><mask id="3bd9325a0a"><g filter="url(#5000e9d175)"><rect x="-27.75" width="333" fill="#000000" y="-27.75" height="333.000006" fill-opacity="0.853"/></g></mask><clipPath id="53fe2ec0c6"><path d="M 1 1 L 22 1 L 22 20.808594 L 1 20.808594 Z M 1 1 " clip-rule="nonzero"/></clipPath><clipPath id="767584e619"><rect x="0" width="23" y="0" height="21"/></clipPath><mask id="a21dc32b74"><g filter="url(#5000e9d175)"><rect x="-27.75" width="333" fill="#000000" y="-27.75" height="333.000006" fill-opacity="0.846"/></g></mask><clipPath id="c1403fad0e"><path d="M 1 1 L 22.402344 1 L 22.402344 21.820312 L 1 21.820312 Z M 1 1 " clip-rule="nonzero"/></clipPath><clipPath id="c7832deeec"><rect x="0" width="23" y="0" height="22"/></clipPath><mask id="f28fda6037"><g filter="url(#5000e9d175)"><rect x="-27.75" width="333" fill="#000000" y="-27.75" height="333.000006" fill-opacity="0.864"/></g></mask><clipPath id="89b5089806"><path d="M 1 0.164062 L 20.539062 0.164062 L 20.539062 15.976562 L 1 15.976562 Z M 1 0.164062 " clip-rule="nonzero"/></clipPath><clipPath id="0528fe3a07"><rect x="0" width="21" y="0" height="16"/></clipPath><mask id="ee58791f5b"><g filter="url(#5000e9d175)"><rect x="-27.75" width="333" fill="#000000" y="-27.75" height="333.000006" fill-opacity="0.861"/></g></mask><clipPath id="2e291358e2"><path d="M 0.351562 0.308594 L 22.390625 0.308594 L 22.390625 22.828125 L 0.351562 22.828125 Z M 0.351562 0.308594 " clip-rule="nonzero"/></clipPath><clipPath id="2d8a081412"><rect x="0" width="23" y="0" height="23"/></clipPath><mask id="4360bfd619"><g filter="url(#5000e9d175)"><rect x="-27.75" width="333" fill="#000000" y="-27.75" height="333.000006" fill-opacity="0.871"/></g></mask><clipPath id="03adde8c4d"><path d="M 1 0.695312 L 18 0.695312 L 18 20.816406 L 1 20.816406 Z M 1 0.695312 " clip-rule="nonzero"/></clipPath><clipPath id="aecf2b56b7"><rect x="0" width="19" y="0" height="21"/></clipPath><mask id="c90ef548cf"><g filter="url(#5000e9d175)"><rect x="-27.75" width="333" fill="#000000" y="-27.75" height="333.000006" fill-opacity="0.868"/></g></mask><clipPath id="7a459c37e6"><path d="M 1 0.484375 L 20.589844 0.484375 L 20.589844 22 L 1 22 Z M 1 0.484375 " clip-rule="nonzero"/></clipPath><clipPath id="d8b3be72bd"><rect x="0" width="21" y="0" height="23"/></clipPath><mask id="0dd5b709c6"><g filter="url(#5000e9d175)"><rect x="-27.75" width="333" fill="#000000" y="-27.75" height="333.000006" fill-opacity="0.863"/></g></mask><clipPath id="4aab18b432"><path d="M 0.203125 0.191406 L 23 0.191406 L 23 21.753906 L 0.203125 21.753906 Z M 0.203125 0.191406 " clip-rule="nonzero"/></clipPath><clipPath id="5b28140f79"><rect x="0" width="24" y="0" height="22"/></clipPath><mask id="f6b0847514"><g filter="url(#5000e9d175)"><rect x="-27.75" width="333" fill="#000000" y="-27.75" height="333.000006" fill-opacity="0.873"/></g></mask><clipPath id="eba8e11fce"><path d="M 0.667969 0.109375 L 16.71875 0.109375 L 16.71875 19.753906 L 0.667969 19.753906 Z M 0.667969 0.109375 " clip-rule="nonzero"/></clipPath><clipPath id="4aab0ee870"><rect x="0" width="17" y="0" height="20"/></clipPath><mask id="9fdb26da22"><g filter="url(#5000e9d175)"><rect x="-27.75" width="333" fill="#000000" y="-27.75" height="333.000006" fill-opacity="0.904"/></g></mask><clipPath id="160c84193f"><path d="M 1 0.328125 L 9.304688 0.328125 L 9.304688 8.710938 L 1 8.710938 Z M 1 0.328125 " clip-rule="nonzero"/></clipPath><clipPath id="87dd828197"><rect x="0" width="10" y="0" height="9"/></clipPath></defs><path fill="#ffffff" d="M 0 0 L 277 0 L 277 277 L 0 277 Z M 0 0 " fill-opacity="1" fill-rule="nonzero"/><path fill="#ffffff" d="M 0 0 L 277 0 L 277 277 L 0 277 Z M 0 0 " fill-opacity="1" fill-rule="nonzero"/><g clip-path="url(#137a272bb8)"><g mask="url(#4d7f707a81)"><g transform="matrix(1, 0, 0, 1, 130, 4)"><g clip-path="url(#075c45a8fd)"><g clip-path="url(#a4b2a3e42e)"><path fill="#10b1b4" d="M 2.800781 0.296875 C 6.847656 0.296875 10.894531 0.296875 14.941406 0.296875 C 14.941406 1.433594 14.941406 2.566406 14.941406 3.699219 C 13.160156 3.699219 11.382812 3.699219 9.601562 3.699219 C 9.566406 8.242188 9.730469 12.773438 10.085938 17.296875 C 8.789062 17.296875 7.496094 17.296875 6.199219 17.296875 C 6.199219 12.765625 6.199219 8.230469 6.199219 3.699219 C 4.417969 3.699219 2.636719 3.699219 0.855469 3.699219 C 0.855469 2.726562 0.855469 1.753906 0.855469 0.785156 C 1.632812 0.914062 2.28125 0.753906 2.800781 0.296875 Z M 2.800781 0.296875 " fill-opacity="1" fill-rule="evenodd"/></g></g></g></g></g><g clip-path="url(#8a7907b21e)"><g mask="url(#c6d60a3ae5)"><g transform="matrix(1, 0, 0, 1, 153, 4)"><g clip-path="url(#af4075137b)"><g clip-path="url(#2262ad9a87)"><path fill="#10b1b4" d="M 2.628906 1.269531 C 3.875 1.503906 5.089844 1.828125 6.269531 2.242188 C 5.871094 5.957031 5.300781 9.683594 4.570312 13.414062 C 5.347656 16.289062 7.128906 17.179688 9.914062 16.085938 C 11.480469 11.949219 12.453125 7.660156 12.828125 3.214844 C 14.105469 3.5 15.398438 3.664062 16.714844 3.699219 C 16.179688 8.515625 15.128906 13.210938 13.558594 17.785156 C 12.96875 18.535156 12.238281 19.101562 11.371094 19.484375 C 7.824219 20.257812 4.667969 19.527344 1.898438 17.296875 C 1.34375 16.054688 0.941406 14.757812 0.683594 13.414062 C 1.492188 9.386719 2.140625 5.335938 2.628906 1.269531 Z M 2.628906 1.269531 " fill-opacity="1" fill-rule="evenodd"/></g></g></g></g></g><g mask="url(#2f7b047c67)"><g transform="matrix(1, 0, 0, 1, 107, 6)"><g clip-path="url(#8c9b00e50f)"><g clip-path="url(#8c8c3a764b)"><path fill="#10b1b4" d="M 5.402344 0.726562 C 7.671875 0.648438 9.941406 0.726562 12.199219 0.96875 C 14.015625 1.84375 14.824219 3.300781 14.628906 5.339844 C 14.757812 6.941406 14.273438 8.320312 13.171875 9.46875 C 14.449219 11.621094 15.90625 13.644531 17.542969 15.542969 C 16.414062 16.125 15.199219 16.53125 13.902344 16.753906 C 12.308594 14.953125 10.769531 13.09375 9.285156 11.167969 C 8.320312 11.082031 7.347656 11.164062 6.371094 11.414062 C 6.570312 13.210938 6.894531 14.992188 7.34375 16.753906 C 7.1875 17.3125 6.867188 17.71875 6.371094 17.96875 C 5.414062 18.210938 4.441406 18.292969 3.457031 18.210938 C 2.71875 12.734375 1.75 7.308594 0.542969 1.941406 C 2.261719 1.683594 3.882812 1.277344 5.402344 0.726562 Z M 6.859375 3.640625 C 8.980469 3.171875 10.4375 3.902344 11.230469 5.828125 C 9.949219 7.703125 8.167969 8.515625 5.886719 8.253906 C 5.539062 7.058594 5.214844 5.847656 4.914062 4.613281 C 5.617188 4.285156 6.265625 3.960938 6.859375 3.640625 Z M 6.859375 3.640625 " fill-opacity="1" fill-rule="evenodd"/></g></g></g></g><g mask="url(#ebe4274d77)"><g transform="matrix(1, 0, 0, 1, 178, 10)"><g clip-path="url(#1d17b1849c)"><g clip-path="url(#3adcd7adf6)"><path fill="#10b1b4" d="M 2.398438 1.097656 C 6.613281 2.558594 10.824219 4.015625 15.027344 5.46875 C 15.082031 6.710938 14.757812 7.847656 14.054688 8.871094 C 12.496094 7.910156 10.875 7.585938 9.199219 7.898438 C 7.835938 11.660156 6.378906 15.382812 4.828125 19.070312 C 3.4375 19.601562 2.144531 19.359375 0.941406 18.339844 C 2.652344 14.339844 4.273438 10.292969 5.800781 6.199219 C 4.59375 5.199219 3.21875 4.46875 1.671875 4.011719 C 1.472656 2.945312 1.714844 1.976562 2.398438 1.097656 Z M 2.398438 1.097656 " fill-opacity="1" fill-rule="evenodd"/></g></g></g></g><g mask="url(#be6dfc53f4)"><g transform="matrix(1, 0, 0, 1, 92, 11)"><g clip-path="url(#3c8985d905)"><g clip-path="url(#67f1d24117)"><path fill="#10b1b4" d="M 2.429688 0.585938 C 3.078125 0.585938 3.726562 0.585938 4.371094 0.585938 C 5.996094 5.933594 7.613281 11.277344 9.230469 16.613281 C 8.097656 16.691406 7.046875 17.015625 6.074219 17.582031 C 4.074219 12.457031 2.214844 7.273438 0.488281 2.042969 C 1.03125 1.382812 1.679688 0.894531 2.429688 0.585938 Z M 2.429688 0.585938 " fill-opacity="1" fill-rule="evenodd"/></g></g></g></g><g mask="url(#bade1882dc)"><g transform="matrix(1, 0, 0, 1, 68, 16)"><g clip-path="url(#2dd7329d02)"><g clip-path="url(#3152bf3aa0)"><path fill="#10b1b4" d="M 13.800781 0.441406 C 14.378906 0.667969 14.703125 1.15625 14.773438 1.898438 C 15.558594 7.003906 16.367188 12.101562 17.199219 17.199219 C 16.710938 18.503906 15.738281 19.230469 14.285156 19.382812 C 9.628906 15.859375 5.257812 11.972656 1.171875 7.726562 C 2.191406 6.488281 3.488281 5.921875 5.058594 6.027344 C 7.730469 8.699219 10.402344 11.371094 13.074219 14.042969 C 12.507812 10.160156 11.777344 6.277344 10.886719 2.382812 C 11.890625 1.726562 12.863281 1.078125 13.800781 0.441406 Z M 13.800781 0.441406 " fill-opacity="1" fill-rule="evenodd"/></g></g></g></g><g mask="url(#384f8e91d8)"><g transform="matrix(1, 0, 0, 1, 194, 20)"><g clip-path="url(#05b83757bf)"><g clip-path="url(#a7a76a2ea8)"><path fill="#10b1b4" d="M 9.226562 1.296875 C 13.035156 3.007812 16.597656 5.113281 19.914062 7.613281 C 19.582031 8.605469 19.015625 9.417969 18.214844 10.042969 C 15.945312 8.746094 13.679688 7.449219 11.414062 6.15625 C 10.527344 6.691406 9.800781 7.421875 9.226562 8.339844 C 11.507812 9.964844 13.777344 11.582031 16.027344 13.199219 C 15.640625 14.070312 15.074219 14.796875 14.328125 15.382812 C 12.03125 14.277344 9.84375 12.980469 7.769531 11.5 C 6.664062 12.417969 6.09375 13.550781 6.070312 14.898438 C 8.175781 16.195312 10.28125 17.488281 12.382812 18.785156 C 12.675781 20.148438 12.1875 21.117188 10.925781 21.699219 C 7.773438 19.84375 4.617188 17.980469 1.457031 16.113281 C 1.203125 15.839844 1.039062 15.515625 0.96875 15.140625 C 3.632812 10.460938 6.382812 5.84375 9.226562 1.296875 Z M 9.226562 1.296875 " fill-opacity="1" fill-rule="evenodd"/></g></g></g></g><g mask="url(#97cbc37b6b)"><g transform="matrix(1, 0, 0, 1, 26, 27)"><g clip-path="url(#ca329d3e31)"><g clip-path="url(#a4491e944f)"><path fill="#10b1b4" d="M 103.886719 1.097656 C 150.320312 -0.339844 185.53125 18.601562 209.527344 57.925781 C 224.574219 86.34375 227.488281 115.972656 218.269531 146.808594 C 203.144531 188.332031 173.921875 213.507812 130.601562 222.335938 C 86.273438 228.046875 50.25 213.558594 22.53125 178.867188 C 1.015625 148.054688 -4.488281 114.539062 6.015625 78.324219 C 18.929688 41.289062 44.105469 16.921875 81.542969 5.226562 C 88.953125 3.265625 96.402344 1.886719 103.886719 1.097656 Z M 127.683594 96.296875 C 122.925781 93.566406 118.632812 90.167969 114.8125 86.097656 C 114.492188 90.144531 114.492188 94.191406 114.8125 98.238281 C 119.371094 100.429688 123.984375 102.371094 128.65625 104.066406 C 123.941406 103.199219 119.410156 101.742188 115.058594 99.695312 C 114.492188 109.246094 114.410156 118.796875 114.8125 128.351562 C 118.921875 131.324219 122.886719 134.484375 126.714844 137.824219 C 120.550781 138.390625 114.398438 138.957031 108.257812 139.523438 C 105.832031 137.019531 103.484375 134.429688 101.214844 131.753906 C 95.863281 138.433594 88.984375 140.945312 80.570312 139.28125 C 86.886719 133.9375 93.199219 128.597656 99.515625 123.253906 C 103.699219 123.40625 107.664062 124.457031 111.414062 126.410156 C 111.65625 123.175781 111.738281 119.9375 111.65625 116.695312 C 83.816406 118.273438 60.421875 108.882812 41.472656 88.523438 C 38.210938 84.78125 35.136719 80.894531 32.246094 76.867188 C 31.085938 78.835938 29.464844 80.292969 27.386719 81.238281 C 37.675781 57.835938 54.429688 40.59375 77.65625 29.511719 C 88.402344 25.144531 99.574219 22.796875 111.171875 22.46875 C 110.945312 20.105469 111.269531 17.835938 112.144531 15.667969 C 112.828125 15.125 113.558594 14.636719 114.328125 14.210938 C 114.421875 17.085938 114.664062 19.917969 115.058594 22.710938 C 144.269531 24.28125 167.585938 36.667969 185 59.867188 C 184.917969 60.03125 184.835938 60.191406 184.753906 60.355469 C 183.136719 59.417969 181.4375 58.851562 179.65625 58.652344 C 174.523438 62.5 171.363281 67.601562 170.183594 73.953125 C 169.917969 78.507812 169.917969 83.039062 170.183594 87.554688 C 152.707031 77.988281 134.167969 74.914062 114.570312 78.324219 C 114.492188 80.273438 114.570312 82.21875 114.8125 84.152344 C 118.882812 88.464844 123.171875 92.511719 127.683594 96.296875 Z M 198.597656 104.066406 C 197.753906 106.074219 196.21875 107.207031 193.984375 107.46875 C 187.882812 105.367188 186.105469 101.320312 188.640625 95.324219 C 191.535156 91.984375 195.179688 90.769531 199.570312 91.683594 C 200.800781 91.933594 201.851562 92.5 202.726562 93.382812 C 202.984375 90.589844 202.253906 88.082031 200.542969 85.855469 C 200.863281 85.53125 201.1875 85.53125 201.511719 85.855469 C 207.210938 92.988281 209.152344 101 207.339844 109.894531 C 213.953125 108.421875 217.191406 111.015625 217.054688 117.667969 C 212.679688 117.585938 208.308594 117.667969 203.941406 117.910156 C 199.828125 124.941406 194.644531 131.09375 188.398438 136.367188 C 172.324219 149.175781 154.027344 157.109375 133.515625 160.167969 C 92.1875 165.925781 51.710938 162.363281 12.085938 149.480469 C 12.890625 148.59375 13.863281 147.945312 15.003906 147.539062 C 18.8125 147.515625 22.617188 147.757812 26.417969 148.265625 C 32.175781 148.183594 37.597656 146.808594 42.6875 144.136719 C 45.035156 142.4375 47.058594 140.414062 48.757812 138.066406 C 49.503906 128.367188 50.148438 118.652344 50.703125 108.925781 C 50.902344 108.703125 51.144531 108.539062 51.429688 108.4375 C 52.171875 112.292969 52.65625 116.179688 52.886719 120.097656 C 60.8125 120.683594 68.746094 121.167969 76.6875 121.554688 C 76.898438 126.910156 76.898438 132.253906 76.6875 137.582031 C 74.414062 139.203125 71.988281 140.578125 69.402344 141.710938 C 71.613281 142.300781 73.878906 142.625 76.199219 142.679688 C 98.808594 143.585938 121.3125 142.453125 143.714844 139.28125 C 153.960938 137.976562 163.835938 135.382812 173.339844 131.511719 C 171.898438 127.519531 170.601562 123.472656 169.457031 119.367188 C 169.578125 118.191406 169.984375 117.136719 170.671875 116.210938 C 173.550781 120.523438 176.546875 124.734375 179.65625 128.839844 C 184.59375 126.164062 189.128906 122.929688 193.253906 119.125 C 193.6875 118.722656 193.847656 118.238281 193.742188 117.667969 C 190.664062 117.667969 187.589844 117.667969 184.511719 117.667969 C 184.511719 115.078125 184.511719 112.488281 184.511719 109.894531 C 189.859375 109.976562 195.199219 109.894531 200.542969 109.652344 C 203.585938 105.875 204.15625 101.746094 202.242188 97.269531 C 199.1875 94.15625 195.703125 93.589844 191.796875 95.566406 C 189.070312 98.976562 189.234375 102.214844 192.285156 105.28125 C 194.714844 106.464844 196.816406 106.058594 198.597656 104.066406 Z M 149.054688 93.867188 C 159.59375 93.960938 165.746094 99.222656 167.511719 109.652344 C 167.273438 112.15625 166.542969 114.503906 165.328125 116.695312 C 164.804688 116.152344 164.238281 115.667969 163.628906 115.238281 C 165.371094 111.277344 164.722656 107.796875 161.683594 104.796875 C 160.457031 104.105469 159.160156 103.945312 157.800781 104.3125 C 157.164062 104.699219 156.84375 105.269531 156.828125 106.011719 C 157.804688 107.566406 158.453125 109.265625 158.769531 111.109375 C 158.484375 113.140625 157.675781 114.917969 156.34375 116.453125 C 155.199219 116.527344 154.066406 116.527344 152.941406 116.453125 C 152.195312 118.027344 152.359375 119.484375 153.429688 120.824219 C 157.582031 120.914062 160.574219 122.773438 162.414062 126.410156 C 163.808594 127.964844 165.34375 129.34375 167.027344 130.539062 C 164.691406 131.304688 162.34375 132.03125 159.984375 132.722656 C 158.472656 132.007812 156.933594 131.359375 155.371094 130.78125 C 154.027344 131.722656 152.890625 132.9375 151.972656 134.425781 C 144.5625 135.875 137.117188 136.847656 129.628906 137.339844 C 133.917969 133.554688 136.75 128.9375 138.128906 123.496094 C 140.484375 121.832031 142.75 120.050781 144.929688 118.152344 C 145.511719 117.097656 145.753906 115.960938 145.65625 114.753906 C 143.984375 114.851562 142.367188 114.605469 140.800781 114.023438 C 141.921875 112.023438 142.972656 110 143.957031 107.953125 C 145.378906 108.757812 146.835938 108.921875 148.328125 108.4375 C 148.660156 108.035156 148.582031 107.710938 148.085938 107.46875 C 144.332031 106.054688 144.332031 104.597656 148.085938 103.097656 C 152.863281 104.867188 154.5625 103.410156 153.183594 98.726562 C 152.144531 97.355469 150.769531 96.707031 149.054688 96.78125 C 149.054688 95.8125 149.054688 94.839844 149.054688 93.867188 Z M 127.683594 96.296875 C 128.425781 96.261719 128.914062 96.585938 129.144531 97.269531 C 128.402344 97.304688 127.914062 96.980469 127.683594 96.296875 Z M 129.144531 97.269531 C 129.882812 97.230469 130.371094 97.554688 130.601562 98.238281 C 129.859375 98.273438 129.371094 97.949219 129.144531 97.269531 Z M 186.457031 141.953125 C 186.941406 141.910156 187.34375 142.074219 187.671875 142.4375 C 191.253906 148.066406 194.894531 153.652344 198.597656 159.195312 C 196.925781 158.847656 195.304688 158.203125 193.742188 157.253906 C 191.71875 155.550781 189.855469 153.691406 188.15625 151.667969 C 186.78125 149.238281 185.402344 146.808594 184.027344 144.382812 C 184.757812 143.457031 185.570312 142.648438 186.457031 141.953125 Z M 188.398438 163.808594 C 186.539062 163.167969 185 162.035156 183.785156 160.410156 C 181.207031 156.792969 179.347656 152.828125 178.199219 148.507812 C 179.078125 147.019531 180.371094 146.128906 182.085938 145.839844 C 184.285156 151.792969 186.390625 157.78125 188.398438 163.808594 Z M 168 157.007812 C 177.222656 157.886719 180.542969 162.746094 177.957031 171.582031 C 174.023438 176.234375 169.8125 176.558594 165.328125 172.550781 C 163.40625 169.75 163.8125 167.402344 166.542969 165.507812 C 169.289062 165.03125 169.53125 165.433594 167.269531 166.722656 C 166.625 171.417969 168.648438 173.28125 173.339844 172.308594 C 174.554688 171.742188 175.445312 170.851562 176.011719 169.636719 C 177.125 162.546875 174.132812 159.390625 167.027344 160.167969 C 164.949219 160.882812 163.007812 161.851562 161.199219 163.082031 C 155.714844 168.398438 150.777344 174.148438 146.386719 180.324219 C 143.667969 183.226562 140.351562 184.277344 136.429688 183.480469 C 133.039062 181.804688 131.828125 179.132812 132.785156 175.464844 C 133.835938 173.707031 135.375 173.140625 137.398438 173.765625 C 134.878906 175.179688 134.3125 177.207031 135.699219 179.835938 C 139.25 182.152344 142.164062 181.503906 144.441406 177.894531 C 145.183594 170.867188 142.027344 167.710938 134.972656 168.421875 C 131.902344 169.070312 129.148438 170.363281 126.714844 172.308594 C 121.386719 177.152344 116.203125 182.171875 111.171875 187.367188 C 107.105469 189.730469 103.460938 189.164062 100.242188 185.667969 C 98.625 183.398438 98.625 181.132812 100.242188 178.867188 C 101.753906 177.300781 103.453125 177.058594 105.34375 178.136719 C 102.152344 178.738281 101.097656 180.601562 102.1875 183.722656 C 104.878906 186.765625 107.792969 186.925781 110.929688 184.210938 C 113.460938 178.683594 111.921875 174.878906 106.316406 172.796875 C 101.199219 172.050781 96.34375 172.859375 91.742188 175.222656 C 85.90625 178.300781 80.402344 181.863281 75.230469 185.910156 C 68.671875 189.09375 64.300781 187.234375 62.117188 180.324219 C 62.53125 177.234375 64.234375 175.292969 67.214844 174.496094 C 70.730469 175.886719 70.652344 176.613281 66.972656 176.679688 C 64.175781 179.660156 64.5 182.25 67.945312 184.453125 C 74.984375 184.6875 77.492188 181.367188 75.472656 174.496094 C 72.820312 171.183594 69.339844 169.320312 65.03125 168.910156 C 60.980469 168.585938 56.933594 168.585938 52.886719 168.910156 C 50.128906 169.398438 47.375 169.722656 44.628906 169.878906 C 53.046875 166.785156 61.628906 166.136719 70.371094 167.9375 C 76.03125 169.632812 79.109375 173.4375 79.601562 179.351562 C 85.710938 174.757812 92.511719 171.601562 100 169.878906 C 107.617188 168.664062 112.636719 171.660156 115.058594 178.867188 C 119.816406 173.695312 125.320312 169.566406 131.570312 166.480469 C 139.101562 163.917969 144.523438 166.265625 147.84375 173.523438 C 151.585938 168.222656 156.039062 163.605469 161.199219 159.679688 C 163.394531 158.441406 165.660156 157.550781 168 157.007812 Z M 148.570312 196.835938 C 142.664062 201.484375 135.945312 204.398438 128.414062 205.578125 C 121.253906 205.207031 117.285156 201.480469 116.515625 194.410156 C 111.183594 198.453125 105.355469 201.609375 99.027344 203.878906 C 94.089844 205.679688 89.394531 205.195312 84.945312 202.421875 C 79.601562 197 79.765625 191.816406 85.429688 186.878906 C 90.019531 184.6875 93.664062 185.738281 96.359375 190.039062 C 97.300781 193.140625 96.410156 195.488281 93.6875 197.082031 C 92.730469 197.382812 91.921875 197.140625 91.257812 196.351562 C 94.210938 195.070312 94.9375 192.964844 93.441406 190.039062 C 90.261719 187.871094 87.347656 188.195312 84.699219 191.007812 C 82.699219 196.667969 84.558594 200.308594 90.285156 201.9375 C 95.65625 202.414062 100.675781 201.28125 105.34375 198.539062 C 110.953125 195.191406 116.296875 191.46875 121.371094 187.367188 C 126.527344 184.875 130.496094 186.089844 133.269531 191.007812 C 134.273438 195.820312 132.410156 198.328125 127.683594 198.539062 C 127.199219 198.050781 126.714844 197.566406 126.226562 197.082031 C 130.324219 196.902344 131.699219 194.878906 130.355469 191.007812 C 126.183594 187.359375 122.785156 188.007812 120.15625 192.953125 C 119.433594 199.679688 122.511719 203.082031 129.386719 203.152344 C 131.273438 203.105469 133.136719 202.863281 134.972656 202.421875 C 139.679688 200.957031 144.214844 199.097656 148.570312 196.835938 Z M 148.570312 196.835938 " fill-opacity="1" fill-rule="evenodd"/></g></g></g></g><g mask="url(#32c2c79252)"><g transform="matrix(1, 0, 0, 1, 39, 39)"><g clip-path="url(#6295544cda)"><g clip-path="url(#cee837731b)"><path fill="#10b1b4" d="M 8.800781 1.242188 C 13.460938 1.441406 15.566406 3.789062 15.117188 8.285156 C 17.496094 8.941406 19.761719 9.832031 21.914062 10.953125 C 21.226562 12.132812 20.253906 12.941406 19 13.382812 C 16.757812 12.550781 14.492188 11.984375 12.203125 11.683594 C 11.625 12.179688 11.140625 12.746094 10.746094 13.382812 C 12.136719 14.855469 13.433594 16.394531 14.628906 17.996094 C 14.082031 19.113281 13.273438 20.003906 12.203125 20.667969 C 8.328125 16.632812 4.445312 12.585938 0.542969 8.527344 C 2.875 5.542969 5.625 3.117188 8.800781 1.242188 Z M 8.316406 5.125 C 10.742188 5.042969 11.632812 6.175781 10.988281 8.527344 C 10.167969 9.425781 9.277344 10.234375 8.316406 10.953125 C 7.273438 10.152344 6.300781 9.261719 5.402344 8.285156 C 6.472656 7.292969 7.445312 6.242188 8.316406 5.125 Z M 8.316406 5.125 " fill-opacity="1" fill-rule="evenodd"/></g></g></g></g><g mask="url(#ac56b06cfc)"><g transform="matrix(1, 0, 0, 1, 221, 43)"><g clip-path="url(#961f2086d3)"><g clip-path="url(#fc7572a107)"><path fill="#10b1b4" d="M 12.828125 1.125 C 15.855469 3.863281 18.609375 6.859375 21.082031 10.113281 C 20.699219 11.0625 20.050781 11.792969 19.140625 12.296875 C 17.421875 10.410156 15.640625 8.546875 13.796875 6.710938 C 12.15625 6.59375 11.265625 7.324219 11.125 8.898438 C 13.007812 10.613281 14.707031 12.476562 16.226562 14.484375 C 15.632812 15.242188 14.902344 15.808594 14.042969 16.183594 C 12.023438 14.8125 10.324219 13.113281 8.941406 11.082031 C 7.660156 11.324219 6.527344 11.972656 5.542969 13.027344 C 7.304688 15.277344 9.25 17.382812 11.371094 19.339844 C 10.632812 20.160156 9.824219 20.886719 8.941406 21.527344 C 6.113281 18.617188 3.359375 15.621094 0.683594 12.539062 C 4.765625 8.726562 8.816406 4.921875 12.828125 1.125 Z M 12.828125 1.125 " fill-opacity="1" fill-rule="evenodd"/></g></g></g></g><g mask="url(#5e73938d9f)"><g transform="matrix(1, 0, 0, 1, 60, 51)"><g clip-path="url(#38172475c9)"><g clip-path="url(#941ba31bc0)"><path fill="#10b1b4" d="M 71.828125 0.898438 C 99.820312 -0.21875 123.539062 9.171875 142.984375 29.070312 C 144.042969 30.96875 143.882812 32.75 142.5 34.410156 C 122.148438 11.972656 96.808594 2.339844 66.484375 5.511719 C 42.257812 9.648438 23.074219 21.707031 8.929688 41.695312 C 6.542969 45.339844 4.273438 49.0625 2.128906 52.867188 C 1.804688 53.515625 1.484375 53.515625 1.160156 52.867188 C 0.4375 51.3125 0.277344 49.695312 0.671875 48.011719 C 16.363281 20.210938 40.082031 4.503906 71.828125 0.898438 Z M 71.828125 0.898438 " fill-opacity="1" fill-rule="evenodd"/></g></g></g></g><g mask="url(#fc1baccae2)"><g transform="matrix(1, 0, 0, 1, 28, 56)"><g clip-path="url(#47ed4f9611)"><path fill="#10b1b4" d="M 3.289062 1.242188 C 7.476562 3.824219 11.523438 6.660156 15.429688 9.742188 C 16.007812 10.234375 16.492188 10.800781 16.886719 11.441406 C 16.386719 12.023438 15.980469 12.671875 15.671875 13.382812 C 15.164062 13.878906 14.597656 13.957031 13.972656 13.625 C 9.765625 10.386719 5.554688 7.148438 1.34375 3.910156 C 2.054688 3.050781 2.703125 2.160156 3.289062 1.242188 Z M 3.289062 1.242188 " fill-opacity="1" fill-rule="evenodd"/></g></g></g><g mask="url(#66b7ec74a4)"><g transform="matrix(1, 0, 0, 1, 114, 57)"><g clip-path="url(#53dd104d6d)"><g clip-path="url(#3cb0de69d5)"><path fill="#10b1b4" d="M 15.398438 1.210938 C 17.992188 1.210938 20.582031 1.210938 23.171875 1.210938 C 23.253906 16.59375 23.171875 31.972656 22.929688 47.355469 C 22.726562 47.574219 22.484375 47.738281 22.199219 47.839844 C 12.824219 34.464844 5.863281 19.894531 1.316406 4.125 C 6.019531 2.90625 10.714844 1.933594 15.398438 1.210938 Z M 15.398438 1.210938 " fill-opacity="1" fill-rule="evenodd"/></g></g></g></g><g mask="url(#8757afc881)"><g transform="matrix(1, 0, 0, 1, 142, 57)"><g clip-path="url(#7ff93d1738)"><g clip-path="url(#274493e956)"><path fill="#10b1b4" d="M 1 1.210938 C 7.917969 1.542969 14.636719 2.839844 21.15625 5.097656 C 18.695312 18.984375 20.234375 32.421875 25.769531 45.410156 C 21.898438 44.925781 18.011719 44.523438 14.113281 44.195312 C 6.273438 30.953125 1.902344 16.625 1 1.210938 Z M 1 1.210938 " fill-opacity="1" fill-rule="evenodd"/></g></g></g></g><g mask="url(#70f8cc35d5)"><g transform="matrix(1, 0, 0, 1, 140, 59)"><g clip-path="url(#8695e8ec8b)"><g clip-path="url(#ddfd61ed5f)"><path fill="#10b1b4" d="M 0.570312 1.15625 C 1.828125 12.359375 4.660156 23.207031 9.070312 33.695312 C 10.425781 36.648438 11.960938 39.480469 13.683594 42.195312 C 9.296875 42.472656 5.007812 43.199219 0.8125 44.382812 C 0.570312 29.972656 0.492188 15.566406 0.570312 1.15625 Z M 0.570312 1.15625 " fill-opacity="1" fill-rule="evenodd"/></g></g></g></g><g mask="url(#2011bd394c)"><g transform="matrix(1, 0, 0, 1, 91, 61)"><g clip-path="url(#2913f17570)"><g clip-path="url(#85204e3213)"><path fill="#10b1b4" d="M 21.402344 1.097656 C 24.933594 10.277344 28.898438 19.34375 33.300781 28.296875 C 36.375 33.804688 39.695312 39.144531 43.257812 44.324219 C 38.929688 46.371094 35.285156 49.285156 32.328125 53.066406 C 18.804688 41.816406 8.203125 28.296875 0.515625 12.511719 C 6.929688 7.683594 13.894531 3.878906 21.402344 1.097656 Z M 21.402344 1.097656 " fill-opacity="1" fill-rule="evenodd"/></g></g></g></g><g mask="url(#1d2bcff39c)"><g transform="matrix(1, 0, 0, 1, 164, 62)"><g clip-path="url(#627c36131b)"><g clip-path="url(#cbe473fb2d)"><path fill="#10b1b4" d="M 1.34375 1.070312 C 8.027344 2.996094 14.261719 5.910156 20.042969 9.8125 C 18.300781 14.828125 17.007812 20.007812 16.15625 25.355469 C 15.457031 31.679688 16.183594 37.832031 18.34375 43.8125 C 18.179688 43.972656 18.019531 44.136719 17.855469 44.296875 C 14.160156 43.066406 10.4375 41.933594 6.683594 40.898438 C 0.6875 28.199219 -1.09375 14.925781 1.34375 1.070312 Z M 1.34375 1.070312 " fill-opacity="1" fill-rule="evenodd"/></g></g></g></g><g mask="url(#c9ac11d351)"><g transform="matrix(1, 0, 0, 1, 15, 69)"><g clip-path="url(#ad0d947bac)"><g clip-path="url(#0133e0e7ad)"><path fill="#10b1b4" d="M 7.058594 1.355469 C 11.484375 2.878906 15.609375 4.984375 19.445312 7.667969 C 21.367188 12.265625 20.316406 16.070312 16.289062 19.082031 C 14.300781 19.457031 12.355469 19.292969 10.460938 18.597656 C 7.289062 16.933594 4.214844 15.152344 1.230469 13.253906 C 1.609375 12.09375 2.175781 11.039062 2.929688 10.097656 C 6.515625 12.296875 10.242188 14.238281 14.101562 15.925781 C 17.246094 14.457031 17.8125 12.433594 15.800781 9.855469 C 12.726562 8.15625 9.648438 6.453125 6.574219 4.753906 C 6.410156 4.511719 6.25 4.269531 6.089844 4.027344 C 6.484375 3.152344 6.808594 2.261719 7.058594 1.355469 Z M 7.058594 1.355469 " fill-opacity="1" fill-rule="evenodd"/></g></g></g></g><g mask="url(#5619787029)"><g transform="matrix(1, 0, 0, 1, 182, 73)"><g clip-path="url(#b3159726df)"><g clip-path="url(#24b0779148)"><path fill="#10b1b4" d="M 4.226562 0.753906 C 7.46875 2.449219 10.382812 4.636719 12.96875 7.3125 C 14.914062 9.578125 16.855469 11.84375 18.800781 14.113281 C 15.84375 17.027344 13.820312 20.507812 12.726562 24.554688 C 11.839844 28.878906 11.273438 33.25 11.027344 37.667969 C 8.4375 36.535156 5.847656 35.402344 3.257812 34.269531 C -0.878906 22.964844 -0.554688 11.792969 4.226562 0.753906 Z M 4.226562 0.753906 " fill-opacity="1" fill-rule="evenodd"/></g></g></g></g><g mask="url(#2ef4c37ab6)"><g transform="matrix(1, 0, 0, 1, 73, 74)"><g clip-path="url(#ea2ee5ffdf)"><g clip-path="url(#9a8b8cf1b6)"><path fill="#10b1b4" d="M 16.574219 0.726562 C 24.683594 16.375 35.609375 29.8125 49.359375 41.039062 C 48.0625 44.355469 47.171875 47.835938 46.6875 51.480469 C 47.203125 53.492188 47.449219 55.515625 47.414062 57.554688 C 27.839844 48.5 12.378906 34.820312 1.03125 16.511719 C 5.652344 10.675781 10.832031 5.414062 16.574219 0.726562 Z M 16.574219 0.726562 " fill-opacity="1" fill-rule="evenodd"/></g></g></g></g><g mask="url(#10ae7653bf)"><g transform="matrix(1, 0, 0, 1, 243, 76)"><g clip-path="url(#b45fa09260)"><g clip-path="url(#178da80c2f)"><path fill="#10b1b4" d="M 7.828125 1.15625 C 14.972656 0.449219 18.453125 3.6875 18.269531 10.867188 C 17.671875 12.4375 16.699219 13.734375 15.355469 14.753906 C 14.664062 13.863281 14.097656 12.890625 13.65625 11.839844 C 16.167969 8.28125 15.355469 5.851562 11.226562 4.554688 C 8.519531 5.054688 6.332031 6.351562 4.667969 8.441406 C 4.085938 11.992188 5.625 13.933594 9.285156 14.269531 C 9.890625 15.152344 10.214844 16.125 10.253906 17.183594 C 3.253906 17.382812 0.257812 13.984375 1.269531 6.984375 C 2.644531 4.066406 4.832031 2.121094 7.828125 1.15625 Z M 7.828125 1.15625 " fill-opacity="1" fill-rule="evenodd"/></g></g></g></g><g mask="url(#c569a245f7)"><g transform="matrix(1, 0, 0, 1, 63, 92)"><g clip-path="url(#43a6d009e1)"><g clip-path="url(#c2af991419)"><path fill="#10b1b4" d="M 8.601562 0.695312 C 9.339844 0.703125 9.90625 1.027344 10.300781 1.667969 C 22.476562 19.777344 38.585938 33.132812 58.628906 41.738281 C 60.757812 45.324219 63.671875 48.078125 67.371094 49.996094 C 46.78125 49.988281 28.8125 43.1875 13.457031 29.597656 C 8.972656 25.4375 4.84375 20.984375 1.074219 16.238281 C 0.695312 15.644531 0.449219 14.996094 0.34375 14.296875 C 2.855469 9.59375 5.609375 5.058594 8.601562 0.695312 Z M 8.601562 0.695312 " fill-opacity="1" fill-rule="evenodd"/></g></g></g></g><g mask="url(#69a273e76f)"><g transform="matrix(1, 0, 0, 1, 8, 95)"><g clip-path="url(#63511e3e9b)"><g clip-path="url(#bf0b8fb0fa)"><path fill="#10b1b4" d="M 5.316406 0.609375 C 6.289062 0.609375 7.257812 0.609375 8.230469 0.609375 C 8.144531 1.757812 7.984375 2.890625 7.746094 4.011719 C 4.457031 4.585938 3.246094 6.527344 4.101562 9.839844 C 5.832031 11.796875 8.019531 12.929688 10.660156 13.238281 C 13.160156 12.695312 14.617188 11.160156 15.03125 8.625 C 14.71875 7.265625 13.988281 6.214844 12.84375 5.46875 C 12.421875 6.84375 11.855469 8.136719 11.144531 9.355469 C 10.382812 8.960938 9.574219 8.796875 8.714844 8.867188 C 9.007812 6.140625 9.734375 3.550781 10.902344 1.097656 C 13.660156 2.152344 16.492188 2.960938 19.402344 3.527344 C 19.242188 4.496094 19.078125 5.46875 18.917969 6.441406 C 18.429688 6.441406 17.945312 6.441406 17.460938 6.441406 C 18.109375 15.359375 14.0625 18.519531 5.316406 15.910156 C 0.132812 12.734375 -0.917969 8.445312 2.160156 3.039062 C 3.113281 2.042969 4.167969 1.234375 5.316406 0.609375 Z M 5.316406 0.609375 " fill-opacity="1" fill-rule="evenodd"/></g></g></g></g><g mask="url(#b030b577f2)"><g transform="matrix(1, 0, 0, 1, 250, 101)"><g clip-path="url(#649d393b76)"><g clip-path="url(#9eb6d62fe7)"><path fill="#10b1b4" d="M 0.828125 0.925781 C 6.667969 1.332031 12.496094 1.898438 18.3125 2.625 C 18.90625 3.785156 19.148438 5 19.039062 6.269531 C 14.34375 9.667969 9.648438 13.066406 4.953125 16.46875 C 2.847656 13.648438 3.414062 11.625 6.65625 10.398438 C 5.921875 8.605469 5.4375 6.742188 5.199219 4.8125 C 3.882812 4.773438 2.589844 4.613281 1.3125 4.324219 C 1.074219 3.207031 0.910156 2.070312 0.828125 0.925781 Z M 8.597656 5.296875 C 10.386719 5.214844 12.167969 5.296875 13.941406 5.539062 C 12.277344 6.410156 10.738281 7.464844 9.328125 8.695312 C 9.003906 7.574219 8.761719 6.441406 8.597656 5.296875 Z M 8.597656 5.296875 " fill-opacity="1" fill-rule="evenodd"/></g></g></g></g><g mask="url(#ffb36adf93)"><g transform="matrix(1, 0, 0, 1, 125, 106)"><g clip-path="url(#e3d61f22f7)"><g clip-path="url(#198bd164fb)"><path fill="#10b1b4" d="M 10.230469 1.269531 C 11.15625 1.304688 11.722656 1.789062 11.929688 2.726562 C 12.023438 7.445312 12.265625 12.136719 12.65625 16.8125 C 12.496094 16.972656 12.332031 17.132812 12.171875 17.296875 C 7.820312 15.210938 3.933594 12.539062 0.515625 9.28125 C 1.128906 7.734375 2.101562 6.441406 3.429688 5.398438 C 5.660156 3.878906 7.929688 2.503906 10.230469 1.269531 Z M 10.230469 1.269531 " fill-opacity="1" fill-rule="evenodd"/></g></g></g></g><g mask="url(#c3d9972fd0)"><g transform="matrix(1, 0, 0, 1, 121, 116)"><g clip-path="url(#eabb26236f)"><g clip-path="url(#162c232af6)"><path fill="#10b1b4" d="M 3.058594 0.980469 C 7.320312 3.683594 11.691406 6.273438 16.171875 8.753906 C 16.65625 14.25 16.820312 19.753906 16.65625 25.265625 C 7.121094 24.472656 1.941406 19.292969 1.113281 9.726562 C 1.328125 6.707031 1.976562 3.792969 3.058594 0.980469 Z M 3.058594 0.980469 " fill-opacity="1" fill-rule="evenodd"/></g></g></g></g><g clip-path="url(#4a47ec2592)"><g mask="url(#d87a0be599)"><g transform="matrix(1, 0, 0, 1, 3, 120)"><g clip-path="url(#a65965b0d3)"><g clip-path="url(#c31252d3f3)"><path fill="#10b1b4" d="M 1.574219 0.382812 C 2.707031 0.382812 3.839844 0.382812 4.972656 0.382812 C 4.808594 3.253906 4.484375 6.089844 4.003906 8.882812 C 5.261719 8.992188 6.476562 9.234375 7.644531 9.609375 C 7.953125 6.859375 8.195312 4.109375 8.375 1.355469 C 9.519531 1.273438 10.652344 1.355469 11.773438 1.597656 C 11.320312 4.230469 10.996094 6.902344 10.800781 9.609375 C 12.097656 9.773438 13.394531 9.933594 14.6875 10.097656 C 14.945312 7.511719 15.1875 4.921875 15.417969 2.324219 C 16.109375 1.214844 17 1.050781 18.089844 1.839844 C 18.25 2.40625 18.410156 2.972656 18.574219 3.539062 C 18.148438 7.011719 17.824219 10.492188 17.601562 13.980469 C 11.925781 13.582031 6.261719 13.097656 0.601562 12.523438 C 1.160156 8.5 1.484375 4.453125 1.574219 0.382812 Z M 1.574219 0.382812 " fill-opacity="1" fill-rule="evenodd"/></g></g></g></g></g><g clip-path="url(#078371e60d)"><g mask="url(#23321e2022)"><g transform="matrix(1, 0, 0, 1, 255, 123)"><g clip-path="url(#5d7f5b228a)"><g clip-path="url(#7d5211e92b)"><path fill="#10b1b4" d="M 18.167969 11.953125 C 18.167969 13.25 18.167969 14.542969 18.167969 15.839844 C 12.703125 15.902344 7.28125 16.226562 1.898438 16.808594 C 1.519531 15.191406 1.355469 13.570312 1.410156 11.953125 C 5.015625 9.707031 8.65625 7.519531 12.339844 5.394531 C 8.628906 5.605469 4.90625 5.605469 1.167969 5.394531 C 0.722656 4.40625 0.558594 3.351562 0.683594 2.238281 C 6.359375 2.039062 12.027344 1.71875 17.683594 1.269531 C 17.761719 2.894531 17.683594 4.515625 17.441406 6.125 C 13.960938 8.3125 10.480469 10.496094 6.996094 12.683594 C 10.699219 12.582031 14.425781 12.339844 18.167969 11.953125 Z M 18.167969 11.953125 " fill-opacity="1" fill-rule="evenodd"/></g></g></g></g></g><g mask="url(#8dd9e9dd4f)"><g transform="matrix(1, 0, 0, 1, 212, 138)"><g clip-path="url(#043444c33b)"><g clip-path="url(#5e6c0cd5ed)"><path fill="#10b1b4" d="M 1.914062 0.839844 C 2.605469 0.800781 3.253906 0.960938 3.855469 1.324219 C 5.015625 4.292969 4.125 5.261719 1.183594 4.238281 C 0.78125 2.941406 1.023438 1.808594 1.914062 0.839844 Z M 1.914062 0.839844 " fill-opacity="1" fill-rule="evenodd"/></g></g></g></g><g mask="url(#6d6cb82bfe)"><g transform="matrix(1, 0, 0, 1, 220, 138)"><g clip-path="url(#3267f10eb3)"><g clip-path="url(#0967eab0e8)"><path fill="#10b1b4" d="M 1.683594 0.839844 C 4.355469 1.082031 5.003906 2.296875 3.628906 4.480469 C 0.566406 4.722656 -0.078125 3.507812 1.683594 0.839844 Z M 1.683594 0.839844 " fill-opacity="1" fill-rule="evenodd"/></g></g></g></g><g mask="url(#a2e1650216)"><g transform="matrix(1, 0, 0, 1, 228, 138)"><g clip-path="url(#c47476805c)"><g clip-path="url(#a628d9a281)"><path fill="#10b1b4" d="M 1.457031 0.839844 C 4.125 1.082031 4.773438 2.296875 3.398438 4.480469 C 0.339844 4.722656 -0.308594 3.507812 1.457031 0.839844 Z M 1.457031 0.839844 " fill-opacity="1" fill-rule="evenodd"/></g></g></g></g><g mask="url(#af8721f318)"><g transform="matrix(1, 0, 0, 1, 235, 138)"><g clip-path="url(#bb8241f44f)"><g clip-path="url(#64b3d68d5c)"><path fill="#10b1b4" d="M 2.226562 0.839844 C 4.90625 1.101562 5.554688 2.316406 4.167969 4.480469 C 1.109375 4.722656 0.460938 3.507812 2.226562 0.839844 Z M 2.226562 0.839844 " fill-opacity="1" fill-rule="evenodd"/></g></g></g></g><g clip-path="url(#539b8549ee)"><g mask="url(#09d736eec4)"><g transform="matrix(1, 0, 0, 1, 3, 142)"><g clip-path="url(#cb7398d702)"><g clip-path="url(#ba44eebffd)"><path fill="#10b1b4" d="M 10.800781 1.210938 C 14.257812 0.550781 16.605469 1.84375 17.84375 5.097656 C 18.167969 7.199219 18.167969 9.304688 17.84375 11.410156 C 16.996094 13.816406 15.296875 15.113281 12.746094 15.296875 C 12.832031 14.28125 12.671875 13.308594 12.257812 12.382812 C 13.175781 11.632812 14.066406 10.824219 14.929688 9.953125 C 15.316406 8.429688 15.152344 6.972656 14.445312 5.582031 C 13.34375 4.882812 12.371094 5.046875 11.53125 6.066406 C 11.253906 8.179688 10.929688 10.285156 10.558594 12.382812 C 9.191406 15.136719 7.007812 16.023438 4.003906 15.054688 C 3.003906 14.601562 2.277344 13.871094 1.816406 12.867188 C 0.65625 9.570312 0.898438 6.414062 2.546875 3.394531 C 3.488281 2.472656 4.621094 2.066406 5.945312 2.183594 C 5.820312 3.296875 5.984375 4.347656 6.429688 5.339844 C 3.371094 7.28125 3.207031 9.46875 5.945312 11.894531 C 6.421875 11.664062 6.824219 11.339844 7.160156 10.925781 C 7.605469 8.484375 8.09375 6.054688 8.617188 3.640625 C 9.113281 2.578125 9.84375 1.765625 10.800781 1.210938 Z M 10.800781 1.210938 " fill-opacity="1" fill-rule="evenodd"/></g></g></g></g></g><g mask="url(#94b85d4528)"><g transform="matrix(1, 0, 0, 1, 254, 149)"><g clip-path="url(#ecaaf39abf)"><g clip-path="url(#4d795a010e)"><path fill="#10b1b4" d="M 6.539062 0.523438 C 15.625 -0.191406 19.269531 3.859375 17.46875 12.667969 C 14.542969 17.03125 10.578125 18.246094 5.570312 16.308594 C 0.9375 13.757812 -0.4375 9.953125 1.441406 4.894531 C 2.648438 2.792969 4.347656 1.335938 6.539062 0.523438 Z M 7.027344 4.410156 C 11.117188 3.738281 13.867188 5.273438 15.285156 9.023438 C 14.058594 12.875 11.46875 14.167969 7.511719 12.910156 C 2.597656 10.261719 2.4375 7.429688 7.027344 4.410156 Z M 7.027344 4.410156 " fill-opacity="1" fill-rule="evenodd"/></g></g></g></g><g mask="url(#0618e4a294)"><g transform="matrix(1, 0, 0, 1, 80, 150)"><g clip-path="url(#f63ff47330)"><g clip-path="url(#28e4bb1adf)"><path fill="#10b1b4" d="M 1.800781 0.496094 C 4.164062 0.585938 4.972656 1.71875 4.230469 3.894531 C 2.355469 5.292969 1.058594 4.890625 0.34375 2.679688 C 0.371094 1.609375 0.859375 0.878906 1.800781 0.496094 Z M 1.800781 0.496094 " fill-opacity="1" fill-rule="evenodd"/></g></g></g></g><g mask="url(#1180a12b9d)"><g transform="matrix(1, 0, 0, 1, 87, 150)"><g clip-path="url(#7eb018d056)"><g clip-path="url(#c4ace18471)"><path fill="#10b1b4" d="M 1.601562 0.980469 C 4.425781 0.769531 5.234375 1.984375 4.03125 4.625 C 0.75 4.992188 -0.0625 3.777344 1.601562 0.980469 Z M 1.601562 0.980469 " fill-opacity="1" fill-rule="evenodd"/></g></g></g></g><g mask="url(#a5d94a1302)"><g transform="matrix(1, 0, 0, 1, 94, 150)"><g clip-path="url(#dd46215d60)"><g clip-path="url(#d481391dc0)"><path fill="#10b1b4" d="M 1.402344 0.980469 C 4.382812 1.238281 5.03125 2.613281 3.34375 5.109375 C 0.308594 4.964844 -0.335938 3.589844 1.402344 0.980469 Z M 1.402344 0.980469 " fill-opacity="1" fill-rule="evenodd"/></g></g></g></g><g mask="url(#51c3cf1d85)"><g transform="matrix(1, 0, 0, 1, 80, 156)"><g clip-path="url(#c02b985b22)"><g clip-path="url(#350ef13326)"><path fill="#10b1b4" d="M 1.316406 1.296875 C 4.289062 1.179688 5.097656 2.394531 3.742188 4.9375 C 0.464844 5.304688 -0.347656 4.089844 1.316406 1.296875 Z M 1.316406 1.296875 " fill-opacity="1" fill-rule="evenodd"/></g></g></g></g><g mask="url(#8093f889e4)"><g transform="matrix(1, 0, 0, 1, 87, 157)"><g clip-path="url(#efefdb30b1)"><g clip-path="url(#b2a4ba25bc)"><path fill="#10b1b4" d="M 1.117188 0.78125 C 4.214844 0.15625 5.1875 1.289062 4.03125 4.179688 C 1.027344 4.898438 0.0546875 3.765625 1.117188 0.78125 Z M 1.117188 0.78125 " fill-opacity="1" fill-rule="evenodd"/></g></g></g></g><g mask="url(#25efa7bad8)"><g transform="matrix(1, 0, 0, 1, 94, 157)"><g clip-path="url(#7ae176ab7e)"><g clip-path="url(#c0c88a1bf9)"><path fill="#10b1b4" d="M 0.914062 1.265625 C 4.148438 0.707031 5.121094 1.921875 3.828125 4.910156 C 0.796875 5.359375 -0.171875 4.144531 0.914062 1.265625 Z M 0.914062 1.265625 " fill-opacity="1" fill-rule="evenodd"/></g></g></g></g><g mask="url(#db176d708b)"><g transform="matrix(1, 0, 0, 1, 70, 172)"><g clip-path="url(#d1eca9a234)"><g clip-path="url(#4de6f5c25b)"><path fill="#10b1b4" d="M 5.972656 0.839844 C 12.796875 1.433594 19.597656 2.246094 26.371094 3.265625 C 18.035156 5.253906 9.617188 5.660156 1.117188 4.480469 C 2.960938 3.519531 4.582031 2.304688 5.972656 0.839844 Z M 5.972656 0.839844 " fill-opacity="1" fill-rule="evenodd"/></g></g></g></g><g mask="url(#69a02185e5)"><g transform="matrix(1, 0, 0, 1, 247, 173)"><g clip-path="url(#dca3541c4c)"><g clip-path="url(#9484c7ec56)"><path fill="#10b1b4" d="M 6.253906 1.296875 C 7.550781 1.296875 8.84375 1.296875 10.140625 1.296875 C 10.277344 3.992188 8.984375 5.367188 6.253906 5.425781 C 4.597656 7.109375 4.433594 8.890625 5.769531 10.765625 C 6.253906 11.089844 6.742188 11.089844 7.226562 10.765625 C 8.609375 8.488281 10.230469 6.382812 12.082031 4.453125 C 14.25 3.394531 16.273438 3.640625 18.15625 5.179688 C 20.0625 10.070312 18.847656 13.875 14.511719 16.59375 C 13.390625 16.835938 12.257812 16.917969 11.113281 16.839844 C 10.96875 14.195312 12.183594 12.738281 14.753906 12.464844 C 15.863281 11.121094 16.105469 9.664062 15.484375 8.09375 C 14.890625 7.554688 14.242188 7.472656 13.539062 7.851562 C 12.386719 9.757812 11.171875 11.617188 9.898438 13.4375 C 4.007812 16.074219 1.253906 14.128906 1.640625 7.609375 C 2.246094 4.757812 3.785156 2.65625 6.253906 1.296875 Z M 6.253906 1.296875 " fill-opacity="1" fill-rule="evenodd"/></g></g></g></g><g mask="url(#cdb0778c18)"><g transform="matrix(1, 0, 0, 1, 11, 175)"><g clip-path="url(#b295154c53)"><g clip-path="url(#8260475221)"><path fill="#10b1b4" d="M 14.945312 1.238281 C 15.632812 2.386719 16.28125 3.601562 16.886719 4.882812 C 15.269531 6.824219 13.648438 8.765625 12.03125 10.710938 C 12.433594 11.589844 12.839844 12.480469 13.246094 13.378906 C 15.070312 12.507812 16.933594 11.699219 18.832031 10.953125 C 19.804688 11.917969 20.207031 13.050781 20.046875 14.351562 C 15.046875 16.769531 9.949219 18.792969 4.746094 20.421875 C 3.203125 17.335938 2.070312 14.097656 1.34375 10.710938 C 2.738281 6.25 5.570312 5.035156 9.84375 7.066406 C 11.664062 5.199219 13.363281 3.257812 14.945312 1.238281 Z M 6.6875 9.496094 C 8.625 10.28125 9.757812 11.738281 10.089844 13.867188 C 9.191406 14.871094 8.054688 15.519531 6.6875 15.808594 C 5.722656 14.632812 5.074219 13.253906 4.746094 11.679688 C 5.15625 10.707031 5.804688 9.976562 6.6875 9.496094 Z M 6.6875 9.496094 " fill-opacity="1" fill-rule="evenodd"/></g></g></g></g><g mask="url(#e7efe1ec83)"><g transform="matrix(1, 0, 0, 1, 237, 195)"><g clip-path="url(#6e46384c95)"><g clip-path="url(#08bfda5a35)"><path fill="#10b1b4" d="M 6.054688 1.152344 C 10.425781 0.476562 14.070312 1.773438 16.984375 5.039062 C 19.277344 9.234375 18.710938 13.039062 15.285156 16.453125 C 13.175781 17.636719 10.988281 17.878906 8.726562 17.179688 C 8.742188 16.160156 9.066406 15.191406 9.699219 14.265625 C 12.574219 14.636719 14.433594 13.34375 15.285156 10.378906 C 14.054688 7.128906 11.707031 5.1875 8.242188 4.550781 C 4.324219 5.707031 3.433594 7.972656 5.570312 11.351562 C 4.257812 15.195312 2.878906 15.195312 1.441406 11.351562 C 0.628906 6.824219 2.167969 3.421875 6.054688 1.152344 Z M 6.054688 1.152344 " fill-opacity="1" fill-rule="evenodd"/></g></g></g></g><g mask="url(#3bd9325a0a)"><g transform="matrix(1, 0, 0, 1, 20, 196)"><g clip-path="url(#767584e619)"><g clip-path="url(#53fe2ec0c6)"><path fill="#10b1b4" d="M 14.6875 1.125 C 15.171875 1.082031 15.578125 1.242188 15.902344 1.609375 C 18.046875 4.765625 20.070312 8.003906 21.972656 11.324219 C 17.421875 14.574219 12.726562 17.648438 7.886719 20.550781 C 5.527344 17.136719 3.257812 13.65625 1.089844 10.109375 C 1.976562 9.542969 2.867188 8.976562 3.757812 8.410156 C 5.5 10.753906 7.117188 13.183594 8.617188 15.695312 C 9.574219 15.140625 10.464844 14.492188 11.289062 13.75 C 10.167969 11.746094 8.957031 9.800781 7.644531 7.921875 C 7.335938 6.441406 7.984375 5.632812 9.589844 5.496094 C 11.121094 7.585938 12.660156 9.6875 14.203125 11.808594 C 15.359375 11.394531 16.332031 10.75 17.117188 9.867188 C 15.839844 7.394531 14.382812 5.050781 12.746094 2.824219 C 13.519531 2.363281 14.167969 1.796875 14.6875 1.125 Z M 14.6875 1.125 " fill-opacity="1" fill-rule="evenodd"/></g></g></g></g><g mask="url(#a21dc32b74)"><g transform="matrix(1, 0, 0, 1, 221, 212)"><g clip-path="url(#c7832deeec)"><g clip-path="url(#c1403fad0e)"><path fill="#10b1b4" d="M 9.425781 1.152344 C 13.699219 4.855469 17.910156 8.660156 22.054688 12.566406 C 19.378906 15.648438 16.625 18.640625 13.796875 21.550781 C 12.878906 21.015625 12.070312 20.367188 11.371094 19.609375 C 13.332031 17.644531 15.113281 15.542969 16.710938 13.292969 C 16.074219 12.414062 15.34375 11.601562 14.527344 10.867188 C 12.882812 13.328125 10.859375 15.1875 8.457031 16.453125 C 7.878906 15.957031 7.394531 15.390625 7 14.75 C 8.433594 12.667969 10.054688 10.722656 11.855469 8.921875 C 11.175781 7.660156 10.203125 6.933594 8.941406 6.738281 C 7.140625 8.371094 5.523438 10.152344 4.085938 12.082031 C 2.824219 12.296875 1.851562 11.8125 1.167969 10.621094 C 3.984375 7.496094 6.734375 4.339844 9.425781 1.152344 Z M 9.425781 1.152344 " fill-opacity="1" fill-rule="evenodd"/></g></g></g></g><g mask="url(#f28fda6037)"><g transform="matrix(1, 0, 0, 1, 36, 220)"><g clip-path="url(#0528fe3a07)"><g clip-path="url(#89b5089806)"><path fill="#10b1b4" d="M 4.515625 0.4375 C 8.289062 0.230469 11.28125 1.6875 13.5 4.808594 C 14.664062 3.398438 16.042969 2.265625 17.628906 1.410156 C 18.601562 2.054688 19.410156 2.867188 20.058594 3.835938 C 16.015625 7.796875 11.886719 11.683594 7.671875 15.496094 C 5.382812 13.042969 3.28125 10.453125 1.359375 7.722656 C 0.566406 4.457031 1.617188 2.027344 4.515625 0.4375 Z M 6.460938 3.835938 C 8.3125 4.386719 9.769531 5.519531 10.832031 7.238281 C 9.808594 8.320312 8.675781 9.289062 7.429688 10.152344 C 6.054688 9.257812 5.082031 8.042969 4.515625 6.507812 C 4.761719 5.273438 5.410156 4.382812 6.460938 3.835938 Z M 6.460938 3.835938 " fill-opacity="1" fill-rule="evenodd"/></g></g></g></g><g mask="url(#ee58791f5b)"><g transform="matrix(1, 0, 0, 1, 204, 228)"><g clip-path="url(#2d8a081412)"><g clip-path="url(#2e291358e2)"><path fill="#10b1b4" d="M 10.882812 0.695312 C 11.800781 0.597656 12.53125 0.917969 13.070312 1.664062 C 16.160156 5.644531 19.152344 9.691406 22.054688 13.808594 C 20.921875 14.859375 19.710938 15.828125 18.414062 16.722656 C 14.863281 14.824219 11.21875 13.285156 7.484375 12.109375 C 9.625 14.730469 11.566406 17.484375 13.3125 20.367188 C 12.585938 21.171875 11.777344 21.902344 10.882812 22.550781 C 7.367188 18.269531 3.96875 13.894531 0.683594 9.4375 C 1.578125 8.058594 2.792969 7.089844 4.328125 6.523438 C 8.101562 8.292969 11.90625 9.832031 15.742188 11.136719 C 13.542969 8.761719 11.519531 6.25 9.671875 3.609375 C 9.347656 3.121094 9.347656 2.636719 9.671875 2.152344 C 10.175781 1.726562 10.582031 1.242188 10.882812 0.695312 Z M 10.882812 0.695312 " fill-opacity="1" fill-rule="evenodd"/></g></g></g></g><g mask="url(#4360bfd619)"><g transform="matrix(1, 0, 0, 1, 68, 236)"><g clip-path="url(#aecf2b56b7)"><g clip-path="url(#03adde8c4d)"><path fill="#10b1b4" d="M 4.085938 0.953125 C 5.085938 1.65625 6.136719 2.300781 7.246094 2.894531 C 7.386719 3.78125 7.304688 4.671875 7 5.566406 C 8.121094 7.351562 9.738281 8.566406 11.859375 9.207031 C 12.960938 8.75 13.933594 8.105469 14.773438 7.265625 C 15.875 7.722656 16.847656 8.371094 17.6875 9.207031 C 13.429688 13.382812 8.816406 17.109375 3.84375 20.378906 C 2.175781 20.085938 1.285156 19.113281 1.171875 17.464844 C 2.039062 11.933594 3.011719 6.425781 4.085938 0.953125 Z M 5.542969 14.550781 C 5.628906 12.914062 5.871094 11.292969 6.273438 9.695312 C 7.121094 10.402344 8.011719 11.046875 8.945312 11.636719 C 8.097656 12.96875 6.964844 13.941406 5.542969 14.550781 Z M 5.542969 14.550781 " fill-opacity="1" fill-rule="evenodd"/></g></g></g></g><g mask="url(#c90ef548cf)"><g transform="matrix(1, 0, 0, 1, 184, 241)"><g clip-path="url(#d8b3be72bd)"><g clip-path="url(#7a459c37e6)"><path fill="#10b1b4" d="M 12.425781 0.808594 C 13.855469 1.300781 14.5 2.355469 14.371094 3.964844 C 13.621094 7.863281 12.8125 11.75 11.941406 15.621094 C 12.105469 15.863281 12.265625 16.109375 12.425781 16.351562 C 14.421875 15.3125 16.445312 14.34375 18.5 13.4375 C 19.300781 14.0625 19.867188 14.871094 20.199219 15.863281 C 16.550781 17.933594 12.828125 19.875 9.027344 21.695312 C 8.351562 20.914062 7.867188 20.023438 7.570312 19.023438 C 8.46875 14.78125 9.441406 10.570312 10.484375 6.394531 C 7.945312 7.214844 5.4375 8.265625 2.957031 9.550781 C 2.15625 8.925781 1.589844 8.117188 1.257812 7.121094 C 4.914062 4.890625 8.636719 2.785156 12.425781 0.808594 Z M 12.425781 0.808594 " fill-opacity="1" fill-rule="evenodd"/></g></g></g></g><g mask="url(#0dd5b709c6)"><g transform="matrix(1, 0, 0, 1, 87, 248)"><g clip-path="url(#5b28140f79)"><g clip-path="url(#4aab18b432)"><path fill="#10b1b4" d="M 5.972656 0.609375 C 7.339844 0.628906 8.472656 1.117188 9.371094 2.066406 C 8.285156 4.597656 7.554688 7.1875 7.1875 9.835938 C 9.046875 7.40625 10.910156 4.980469 12.773438 2.550781 C 13.855469 3.074219 14.988281 3.398438 16.171875 3.523438 C 16.089844 7.089844 16.171875 10.648438 16.414062 14.207031 C 17.308594 10.945312 18.523438 7.871094 20.058594 4.980469 C 21.050781 5.335938 22.019531 5.742188 22.972656 6.195312 C 21.082031 11.21875 19.382812 16.320312 17.871094 21.492188 C 16.324219 21.664062 14.785156 21.339844 13.257812 20.523438 C 12.855469 16.484375 12.609375 12.4375 12.53125 8.378906 C 10.34375 11.535156 8.15625 14.695312 5.972656 17.851562 C 4.042969 17.828125 2.261719 17.261719 0.628906 16.152344 C 2.414062 10.957031 4.195312 5.773438 5.972656 0.609375 Z M 5.972656 0.609375 " fill-opacity="1" fill-rule="evenodd"/></g></g></g></g><g mask="url(#f6b0847514)"><g transform="matrix(1, 0, 0, 1, 162, 250)"><g clip-path="url(#4aab0ee870)"><g clip-path="url(#eba8e11fce)"><path fill="#10b1b4" d="M 15.484375 0.550781 C 16.089844 0.957031 16.414062 1.605469 16.457031 2.492188 C 16.015625 7.183594 15.609375 11.878906 15.242188 16.578125 C 14.910156 18.449219 13.777344 19.421875 11.84375 19.492188 C 8.140625 14.761719 4.496094 9.984375 0.914062 5.164062 C 1.945312 4.539062 3.078125 4.136719 4.3125 3.949219 C 5.347656 4.859375 6.480469 5.667969 7.714844 6.378906 C 9.15625 5.925781 10.613281 5.519531 12.085938 5.164062 C 11.886719 2.550781 13.023438 1.015625 15.484375 0.550781 Z M 12.085938 8.324219 C 12.386719 8.523438 12.550781 8.847656 12.570312 9.292969 C 12.261719 10.738281 12.015625 12.195312 11.84375 13.664062 C 10.855469 12.4375 9.964844 11.140625 9.171875 9.78125 C 10.113281 9.148438 11.085938 8.660156 12.085938 8.324219 Z M 12.085938 8.324219 " fill-opacity="1" fill-rule="evenodd"/></g></g></g></g><g mask="url(#9fdb26da22)"><g transform="matrix(1, 0, 0, 1, 133, 262)"><g clip-path="url(#87dd828197)"><g clip-path="url(#160c84193f)"><path fill="#10b1b4" d="M 3.199219 0.695312 C 7.972656 -0.117188 9.835938 1.824219 8.785156 6.523438 C 6.695312 8.925781 4.429688 9.085938 1.984375 7.007812 C 0.75 4.550781 1.15625 2.445312 3.199219 0.695312 Z M 3.199219 0.695312 " fill-opacity="1" fill-rule="evenodd"/></g></g></g></g></svg>