<svg xmlns="http://www.w3.org/2000/svg" xmlns:xlink="http://www.w3.org/1999/xlink" width="370" zoomAndPan="magnify" viewBox="0 0 277.5 220.499993" height="294" preserveAspectRatio="xMidYMid meet" version="1.0"><defs><filter x="0%" y="0%" width="100%" height="100%" id="0996ecf189"><feColorMatrix values="0 0 0 0 1 0 0 0 0 1 0 0 0 0 1 0 0 0 1 0" color-interpolation-filters="sRGB"/></filter><clipPath id="0485fd8a7f"><path d="M 0.0664062 0 L 276.9375 0 L 276.9375 220 L 0.0664062 220 Z M 0.0664062 0 " clip-rule="nonzero"/></clipPath><clipPath id="c483841c25"><path d="M 132 1.496094 L 144 1.496094 L 144 16 L 132 16 Z M 132 1.496094 " clip-rule="nonzero"/></clipPath><mask id="ac937f9770"><g filter="url(#0996ecf189)"><rect x="-27.75" width="333" fill="#000000" y="-22.049999" height="264.599992" fill-opacity="0.87"/></g></mask><clipPath id="1ff414671e"><path d="M 0.00390625 0.496094 L 11.976562 0.496094 L 11.976562 14 L 0.00390625 14 Z M 0.00390625 0.496094 " clip-rule="nonzero"/></clipPath><clipPath id="73c4f2e272"><rect x="0" width="12" y="0" height="15"/></clipPath><clipPath id="65e25aa2f7"><path d="M 150 1.496094 L 165 1.496094 L 165 18 L 150 18 Z M 150 1.496094 " clip-rule="nonzero"/></clipPath><mask id="3a3a8dbed3"><g filter="url(#0996ecf189)"><rect x="-27.75" width="333" fill="#000000" y="-22.049999" height="264.599992" fill-opacity="0.872"/></g></mask><clipPath id="b3aa774aa1"><path d="M 0.445312 1 L 14 1 L 14 16 L 0.445312 16 Z M 0.445312 1 " clip-rule="nonzero"/></clipPath><clipPath id="abcd2bbe18"><rect x="0" width="15" y="0" height="17"/></clipPath><mask id="dc134c7d18"><g filter="url(#0996ecf189)"><rect x="-27.75" width="333" fill="#000000" y="-22.049999" height="264.599992" fill-opacity="0.884"/></g></mask><clipPath id="069f707064"><path d="M 0.328125 1 L 14.695312 1 L 14.695312 15.71875 L 0.328125 15.71875 Z M 0.328125 1 " clip-rule="nonzero"/></clipPath><clipPath id="e06c6948c4"><rect x="0" width="15" y="0" height="16"/></clipPath><mask id="d31ebff798"><g filter="url(#0996ecf189)"><rect x="-27.75" width="333" fill="#000000" y="-22.049999" height="264.599992" fill-opacity="0.861"/></g></mask><clipPath id="416d1425d5"><path d="M 1 0.464844 L 12.769531 0.464844 L 12.769531 16 L 1 16 Z M 1 0.464844 " clip-rule="nonzero"/></clipPath><clipPath id="151f98134e"><rect x="0" width="13" y="0" height="17"/></clipPath><mask id="716dcece6b"><g filter="url(#0996ecf189)"><rect x="-27.75" width="333" fill="#000000" y="-22.049999" height="264.599992" fill-opacity="0.864"/></g></mask><clipPath id="12a1a81a11"><path d="M 0.117188 1 L 7.777344 1 L 7.777344 15 L 0.117188 15 Z M 0.117188 1 " clip-rule="nonzero"/></clipPath><clipPath id="be38dc9a6d"><rect x="0" width="8" y="0" height="16"/></clipPath><mask id="bc67dad043"><g filter="url(#0996ecf189)"><rect x="-27.75" width="333" fill="#000000" y="-22.049999" height="264.599992" fill-opacity="0.866"/></g></mask><clipPath id="18961cafc7"><path d="M 0.4375 1 L 14 1 L 14 16.578125 L 0.4375 16.578125 Z M 0.4375 1 " clip-rule="nonzero"/></clipPath><clipPath id="597b37e348"><rect x="0" width="15" y="0" height="17"/></clipPath><mask id="d0e92daa50"><g filter="url(#0996ecf189)"><rect x="-27.75" width="333" fill="#000000" y="-22.049999" height="264.599992" fill-opacity="0.848"/></g></mask><clipPath id="7b891db56b"><path d="M 1 0.605469 L 16.53125 0.605469 L 16.53125 17.847656 L 1 17.847656 Z M 1 0.605469 " clip-rule="nonzero"/></clipPath><clipPath id="df2b4f03fc"><rect x="0" width="17" y="0" height="18"/></clipPath><mask id="61675dc163"><g filter="url(#0996ecf189)"><rect x="-27.75" width="333" fill="#000000" y="-22.049999" height="264.599992" fill-opacity="0.97"/></g></mask><clipPath id="fb162df4a9"><path d="M 0.433594 0.113281 L 180.265625 0.113281 L 180.265625 179.945312 L 0.433594 179.945312 Z M 0.433594 0.113281 " clip-rule="nonzero"/></clipPath><clipPath id="f129b2a6c7"><rect x="0" width="181" y="0" height="180"/></clipPath><mask id="6398bae516"><g filter="url(#0996ecf189)"><rect x="-27.75" width="333" fill="#000000" y="-22.049999" height="264.599992" fill-opacity="0.869"/></g></mask><clipPath id="c7958a4033"><path d="M 0.492188 1 L 18.453125 1 L 18.453125 17 L 0.492188 17 Z M 0.492188 1 " clip-rule="nonzero"/></clipPath><clipPath id="3fe2048339"><rect x="0" width="19" y="0" height="18"/></clipPath><mask id="e902d0e286"><g filter="url(#0996ecf189)"><rect x="-27.75" width="333" fill="#000000" y="-22.049999" height="264.599992" fill-opacity="0.847"/></g></mask><clipPath id="fd38d20775"><path d="M 0.277344 0.046875 L 17.28125 0.046875 L 17.28125 17 L 0.277344 17 Z M 0.277344 0.046875 " clip-rule="nonzero"/></clipPath><clipPath id="bbda8524e6"><rect x="0" width="18" y="0" height="18"/></clipPath><mask id="0aac1d3b93"><g filter="url(#0996ecf189)"><rect x="-27.75" width="333" fill="#000000" y="-22.049999" height="264.599992" fill-opacity="0.876"/></g></mask><clipPath id="1b683bca7e"><path d="M 0.492188 0.269531 L 116.390625 0.269531 L 116.390625 43 L 0.492188 43 Z M 0.492188 0.269531 " clip-rule="nonzero"/></clipPath><clipPath id="ccbd924db1"><rect x="0" width="117" y="0" height="44"/></clipPath><mask id="8b65a25625"><g filter="url(#0996ecf189)"><rect x="-27.75" width="333" fill="#000000" y="-22.049999" height="264.599992" fill-opacity="0.855"/></g></mask><clipPath id="3de972470c"><path d="M 0.351562 0.582031 L 13.519531 0.582031 L 13.519531 11.355469 L 0.351562 11.355469 Z M 0.351562 0.582031 " clip-rule="nonzero"/></clipPath><clipPath id="e501648ac6"><rect x="0" width="14" y="0" height="12"/></clipPath><mask id="3a0ca8c498"><g filter="url(#0996ecf189)"><rect x="-27.75" width="333" fill="#000000" y="-22.049999" height="264.599992" fill-opacity="0.974"/></g></mask><clipPath id="c1c9cb3d9e"><path d="M 0.554688 0.300781 L 18.753906 0.300781 L 18.753906 38.613281 L 0.554688 38.613281 Z M 0.554688 0.300781 " clip-rule="nonzero"/></clipPath><clipPath id="d4f7a66d37"><rect x="0" width="19" y="0" height="39"/></clipPath><mask id="ae67167cc6"><g filter="url(#0996ecf189)"><rect x="-27.75" width="333" fill="#000000" y="-22.049999" height="264.599992" fill-opacity="0.962"/></g></mask><clipPath id="34c61d2bf9"><path d="M 1 0.300781 L 21.417969 0.300781 L 21.417969 36.695312 L 1 36.695312 Z M 1 0.300781 " clip-rule="nonzero"/></clipPath><clipPath id="4f812dd0b6"><rect x="0" width="22" y="0" height="37"/></clipPath><mask id="213a572037"><g filter="url(#0996ecf189)"><rect x="-27.75" width="333" fill="#000000" y="-22.049999" height="264.599992" fill-opacity="0.914"/></g></mask><clipPath id="eb43403d0e"><path d="M 1 1 L 12 1 L 12 36.414062 L 1 36.414062 Z M 1 1 " clip-rule="nonzero"/></clipPath><clipPath id="5e13dcf64a"><rect x="0" width="13" y="0" height="37"/></clipPath><mask id="0eab769fa4"><g filter="url(#0996ecf189)"><rect x="-27.75" width="333" fill="#000000" y="-22.049999" height="264.599992" fill-opacity="0.966"/></g></mask><clipPath id="788567f1d4"><path d="M 0.398438 0.652344 L 35.597656 0.652344 L 35.597656 43 L 0.398438 43 Z M 0.398438 0.652344 " clip-rule="nonzero"/></clipPath><clipPath id="563e535981"><rect x="0" width="36" y="0" height="44"/></clipPath><mask id="08c1fe097f"><g filter="url(#0996ecf189)"><rect x="-27.75" width="333" fill="#000000" y="-22.049999" height="264.599992" fill-opacity="0.96"/></g></mask><clipPath id="69be211f23"><path d="M 0.0625 0.371094 L 16.347656 0.371094 L 16.347656 35.808594 L 0.0625 35.808594 Z M 0.0625 0.371094 " clip-rule="nonzero"/></clipPath><clipPath id="c3aa9e72e4"><rect x="0" width="17" y="0" height="36"/></clipPath><mask id="6b44d8268d"><g filter="url(#0996ecf189)"><rect x="-27.75" width="333" fill="#000000" y="-22.049999" height="264.599992" fill-opacity="0.862"/></g></mask><clipPath id="ab9c593218"><path d="M 1 0.117188 L 16.617188 0.117188 L 16.617188 15 L 1 15 Z M 1 0.117188 " clip-rule="nonzero"/></clipPath><clipPath id="2cd4949e25"><rect x="0" width="17" y="0" height="16"/></clipPath><mask id="5b95a21367"><g filter="url(#0996ecf189)"><rect x="-27.75" width="333" fill="#000000" y="-22.049999" height="264.599992" fill-opacity="0.952"/></g></mask><clipPath id="ae6e5acdc9"><path d="M 0.671875 1 L 15.996094 1 L 15.996094 31 L 0.671875 31 Z M 0.671875 1 " clip-rule="nonzero"/></clipPath><clipPath id="1db61b4353"><rect x="0" width="16" y="0" height="32"/></clipPath><mask id="7d6cf1c461"><g filter="url(#0996ecf189)"><rect x="-27.75" width="333" fill="#000000" y="-22.049999" height="264.599992" fill-opacity="0.965"/></g></mask><clipPath id="ed6afa3258"><path d="M 0.269531 1 L 39.78125 1 L 39.78125 47 L 0.269531 47 Z M 0.269531 1 " clip-rule="nonzero"/></clipPath><clipPath id="27f2dcbb38"><rect x="0" width="40" y="0" height="48"/></clipPath><mask id="147aa2b9f6"><g filter="url(#0996ecf189)"><rect x="-27.75" width="333" fill="#000000" y="-22.049999" height="264.599992" fill-opacity="0.866"/></g></mask><clipPath id="237fe0d92d"><path d="M 0.238281 0.625 L 15 0.625 L 15 14 L 0.238281 14 Z M 0.238281 0.625 " clip-rule="nonzero"/></clipPath><clipPath id="8271b378ab"><rect x="0" width="16" y="0" height="15"/></clipPath><mask id="169e2d771a"><g filter="url(#0996ecf189)"><rect x="-27.75" width="333" fill="#000000" y="-22.049999" height="264.599992" fill-opacity="0.957"/></g></mask><clipPath id="49b96eabcf"><path d="M 1 0.078125 L 55.246094 0.078125 L 55.246094 40.304688 L 1 40.304688 Z M 1 0.078125 " clip-rule="nonzero"/></clipPath><clipPath id="762e637f8d"><rect x="0" width="56" y="0" height="41"/></clipPath><mask id="a05a770211"><g filter="url(#0996ecf189)"><rect x="-27.75" width="333" fill="#000000" y="-22.049999" height="264.599992" fill-opacity="0.855"/></g></mask><clipPath id="58ae83627c"><path d="M 0.589844 0.472656 L 16.394531 0.472656 L 16.394531 14 L 0.589844 14 Z M 0.589844 0.472656 " clip-rule="nonzero"/></clipPath><clipPath id="8711889358"><rect x="0" width="17" y="0" height="15"/></clipPath><mask id="7a9adc8025"><g filter="url(#0996ecf189)"><rect x="-27.75" width="333" fill="#000000" y="-22.049999" height="264.599992" fill-opacity="0.873"/></g></mask><clipPath id="ba82da2536"><path d="M 1 0.738281 L 16 0.738281 L 16 13.667969 L 1 13.667969 Z M 1 0.738281 " clip-rule="nonzero"/></clipPath><clipPath id="eb7e7eeeee"><rect x="0" width="17" y="0" height="14"/></clipPath><mask id="cc8ec621b4"><g filter="url(#0996ecf189)"><rect x="-27.75" width="333" fill="#000000" y="-22.049999" height="264.599992" fill-opacity="0.933"/></g></mask><clipPath id="b98a48d05d"><path d="M 1 1 L 11 1 L 11 14.460938 L 1 14.460938 Z M 1 1 " clip-rule="nonzero"/></clipPath><clipPath id="36cecb8ffc"><rect x="0" width="12" y="0" height="15"/></clipPath><mask id="e964433ca0"><g filter="url(#0996ecf189)"><rect x="-27.75" width="333" fill="#000000" y="-22.049999" height="264.599992" fill-opacity="0.936"/></g></mask><clipPath id="fe88d4b304"><path d="M 0.0625 1 L 13 1 L 13 20.828125 L 0.0625 20.828125 Z M 0.0625 1 " clip-rule="nonzero"/></clipPath><clipPath id="439c11ea72"><rect x="0" width="14" y="0" height="21"/></clipPath><clipPath id="5520067d54"><path d="M 29.738281 94 L 45 94 L 45 107 L 29.738281 107 Z M 29.738281 94 " clip-rule="nonzero"/></clipPath><mask id="d434e749c0"><g filter="url(#0996ecf189)"><rect x="-27.75" width="333" fill="#000000" y="-22.049999" height="264.599992" fill-opacity="0.871"/></g></mask><clipPath id="223df10f31"><path d="M 0.738281 0.585938 L 15.601562 0.585938 L 15.601562 12 L 0.738281 12 Z M 0.738281 0.585938 " clip-rule="nonzero"/></clipPath><clipPath id="ceb0d27cff"><rect x="0" width="16" y="0" height="13"/></clipPath><clipPath id="94bb961a80"><path d="M 232 97 L 247.492188 97 L 247.492188 111 L 232 111 Z M 232 97 " clip-rule="nonzero"/></clipPath><mask id="fe4bea85e0"><g filter="url(#0996ecf189)"><rect x="-27.75" width="333" fill="#000000" y="-22.049999" height="264.599992" fill-opacity="0.886"/></g></mask><clipPath id="9c84cdbd12"><path d="M 0.578125 0.699219 L 15.421875 0.699219 L 15.421875 13.867188 L 0.578125 13.867188 Z M 0.578125 0.699219 " clip-rule="nonzero"/></clipPath><clipPath id="24616b9c16"><rect x="0" width="16" y="0" height="14"/></clipPath><mask id="752b0dbc1e"><g filter="url(#0996ecf189)"><rect x="-27.75" width="333" fill="#000000" y="-22.049999" height="264.599992" fill-opacity="0.804"/></g></mask><clipPath id="b00e4179d8"><path d="M 0.335938 0.433594 L 3.6875 0.433594 L 3.6875 4 L 0.335938 4 Z M 0.335938 0.433594 " clip-rule="nonzero"/></clipPath><clipPath id="29ae4715d9"><rect x="0" width="4" y="0" height="5"/></clipPath><mask id="cc3dc4d52c"><g filter="url(#0996ecf189)"><rect x="-27.75" width="333" fill="#000000" y="-22.049999" height="264.599992" fill-opacity="0.775"/></g></mask><clipPath id="d30fe7a763"><path d="M 0.5625 0.433594 L 3.914062 0.433594 L 3.914062 4 L 0.5625 4 Z M 0.5625 0.433594 " clip-rule="nonzero"/></clipPath><clipPath id="683def7443"><rect x="0" width="4" y="0" height="5"/></clipPath><mask id="7c1e7bb76b"><g filter="url(#0996ecf189)"><rect x="-27.75" width="333" fill="#000000" y="-22.049999" height="264.599992" fill-opacity="0.773"/></g></mask><clipPath id="467dc88c5f"><path d="M 1 0.433594 L 4 0.433594 L 4 4 L 1 4 Z M 1 0.433594 " clip-rule="nonzero"/></clipPath><clipPath id="b6cc797beb"><rect x="0" width="5" y="0" height="5"/></clipPath><mask id="0f0cf139f3"><g filter="url(#0996ecf189)"><rect x="-27.75" width="333" fill="#000000" y="-22.049999" height="264.599992" fill-opacity="0.762"/></g></mask><clipPath id="e9028dbbc7"><path d="M 0.0117188 0.433594 L 3.363281 0.433594 L 3.363281 4 L 0.0117188 4 Z M 0.0117188 0.433594 " clip-rule="nonzero"/></clipPath><clipPath id="46f79e5fdd"><rect x="0" width="4" y="0" height="5"/></clipPath><clipPath id="f804ac3a3d"><path d="M 29.738281 112 L 45 112 L 45 125 L 29.738281 125 Z M 29.738281 112 " clip-rule="nonzero"/></clipPath><mask id="67dbb3a37a"><g filter="url(#0996ecf189)"><rect x="-27.75" width="333" fill="#000000" y="-22.049999" height="264.599992" fill-opacity="0.871"/></g></mask><clipPath id="678e715cf7"><path d="M 1 1 L 15.363281 1 L 15.363281 12.757812 L 1 12.757812 Z M 1 1 " clip-rule="nonzero"/></clipPath><clipPath id="b05fb97614"><rect x="0" width="16" y="0" height="13"/></clipPath><mask id="211d59229e"><g filter="url(#0996ecf189)"><rect x="-27.75" width="333" fill="#000000" y="-22.049999" height="264.599992" fill-opacity="0.87"/></g></mask><clipPath id="517d75ec29"><path d="M 1 0.0507812 L 15.226562 0.0507812 L 15.226562 13.941406 L 1 13.941406 Z M 1 0.0507812 " clip-rule="nonzero"/></clipPath><clipPath id="5026549242"><rect x="0" width="16" y="0" height="14"/></clipPath><mask id="1f0ab0980e"><g filter="url(#0996ecf189)"><rect x="-27.75" width="333" fill="#000000" y="-22.049999" height="264.599992" fill-opacity="0.745"/></g></mask><clipPath id="2dc6c7b497"><path d="M 0.535156 1 L 4.609375 1 L 4.609375 4.839844 L 0.535156 4.839844 Z M 0.535156 1 " clip-rule="nonzero"/></clipPath><clipPath id="95471ff604"><rect x="0" width="5" y="0" height="5"/></clipPath><mask id="98cd78828e"><g filter="url(#0996ecf189)"><rect x="-27.75" width="333" fill="#000000" y="-22.049999" height="264.599992" fill-opacity="0.828"/></g></mask><clipPath id="f98b22edae"><path d="M 0.285156 0.25 L 4 0.25 L 4 3.839844 L 0.285156 3.839844 Z M 0.285156 0.25 " clip-rule="nonzero"/></clipPath><clipPath id="3c7a7bfdf8"><rect x="0" width="5" y="0" height="4"/></clipPath><mask id="b096aef183"><g filter="url(#0996ecf189)"><rect x="-27.75" width="333" fill="#000000" y="-22.049999" height="264.599992" fill-opacity="0.79"/></g></mask><clipPath id="c5ee021531"><path d="M 1 0.25 L 4.621094 0.25 L 4.621094 3.839844 L 1 3.839844 Z M 1 0.25 " clip-rule="nonzero"/></clipPath><clipPath id="9e7d980ba2"><rect x="0" width="5" y="0" height="4"/></clipPath><mask id="d1719c17e1"><g filter="url(#0996ecf189)"><rect x="-27.75" width="333" fill="#000000" y="-22.049999" height="264.599992" fill-opacity="0.814"/></g></mask><clipPath id="27f80dfccf"><path d="M 0.535156 0.277344 L 4 0.277344 L 4 3.871094 L 0.535156 3.871094 Z M 0.535156 0.277344 " clip-rule="nonzero"/></clipPath><clipPath id="016706ae8c"><rect x="0" width="5" y="0" height="4"/></clipPath><mask id="fda25b9cbc"><g filter="url(#0996ecf189)"><rect x="-27.75" width="333" fill="#000000" y="-22.049999" height="264.599992" fill-opacity="0.823"/></g></mask><clipPath id="baf581e92e"><path d="M 0.285156 0.519531 L 4 0.519531 L 4 3.871094 L 0.285156 3.871094 Z M 0.285156 0.519531 " clip-rule="nonzero"/></clipPath><clipPath id="1642862a05"><rect x="0" width="5" y="0" height="4"/></clipPath><mask id="1d6ce17f04"><g filter="url(#0996ecf189)"><rect x="-27.75" width="333" fill="#000000" y="-22.049999" height="264.599992" fill-opacity="0.802"/></g></mask><clipPath id="84984e2cee"><path d="M 1 1 L 4.621094 1 L 4.621094 4.828125 L 1 4.828125 Z M 1 1 " clip-rule="nonzero"/></clipPath><clipPath id="d8f8d06657"><rect x="0" width="5" y="0" height="5"/></clipPath><mask id="10b494599a"><g filter="url(#0996ecf189)"><rect x="-27.75" width="333" fill="#000000" y="-22.049999" height="264.599992" fill-opacity="0.832"/></g></mask><clipPath id="fa8b109eee"><path d="M 0.113281 1 L 20.945312 1 L 20.945312 4.800781 L 0.113281 4.800781 Z M 0.113281 1 " clip-rule="nonzero"/></clipPath><clipPath id="90a9a93703"><rect x="0" width="21" y="0" height="5"/></clipPath><mask id="e8158ad695"><g filter="url(#0996ecf189)"><rect x="-27.75" width="333" fill="#000000" y="-22.049999" height="264.599992" fill-opacity="0.859"/></g></mask><clipPath id="23eb9bf20b"><path d="M 1 1 L 15.4375 1 L 15.4375 14 L 1 14 Z M 1 1 " clip-rule="nonzero"/></clipPath><clipPath id="698e5d4857"><rect x="0" width="16" y="0" height="15"/></clipPath><mask id="2293b57c8d"><g filter="url(#0996ecf189)"><rect x="-27.75" width="333" fill="#000000" y="-22.049999" height="264.599992" fill-opacity="0.868"/></g></mask><clipPath id="47336f29b6"><path d="M 0.703125 0.363281 L 16.503906 0.363281 L 16.503906 16.40625 L 0.703125 16.40625 Z M 0.703125 0.363281 " clip-rule="nonzero"/></clipPath><clipPath id="91eab5b9f2"><rect x="0" width="17" y="0" height="17"/></clipPath><mask id="6c5e5c7cb6"><g filter="url(#0996ecf189)"><rect x="-27.75" width="333" fill="#000000" y="-22.049999" height="264.599992" fill-opacity="0.859"/></g></mask><clipPath id="d8c42534a3"><path d="M 0.6875 0.40625 L 14.816406 0.40625 L 14.816406 14.535156 L 0.6875 14.535156 Z M 0.6875 0.40625 " clip-rule="nonzero"/></clipPath><clipPath id="244a1d740b"><rect x="0" width="15" y="0" height="15"/></clipPath><mask id="334b28d10a"><g filter="url(#0996ecf189)"><rect x="-27.75" width="333" fill="#000000" y="-22.049999" height="264.599992" fill-opacity="0.853"/></g></mask><clipPath id="e33a1c3b2a"><path d="M 1 0.367188 L 18 0.367188 L 18 16.648438 L 1 16.648438 Z M 1 0.367188 " clip-rule="nonzero"/></clipPath><clipPath id="09b7c125c1"><rect x="0" width="19" y="0" height="17"/></clipPath><mask id="78a814d3dd"><g filter="url(#0996ecf189)"><rect x="-27.75" width="333" fill="#000000" y="-22.049999" height="264.599992" fill-opacity="0.846"/></g></mask><clipPath id="f54b96965a"><path d="M 0.757812 0.296875 L 18 0.296875 L 18 17 L 0.757812 17 Z M 0.757812 0.296875 " clip-rule="nonzero"/></clipPath><clipPath id="8f5c504265"><rect x="0" width="19" y="0" height="18"/></clipPath><mask id="e074c52c4f"><g filter="url(#0996ecf189)"><rect x="-27.75" width="333" fill="#000000" y="-22.049999" height="264.599992" fill-opacity="0.864"/></g></mask><clipPath id="ce20da4e71"><path d="M 0.578125 0.0429688 L 16.378906 0.0429688 L 16.378906 12.734375 L 0.578125 12.734375 Z M 0.578125 0.0429688 " clip-rule="nonzero"/></clipPath><clipPath id="2d405ee574"><rect x="0" width="17" y="0" height="13"/></clipPath><mask id="a4093ee86e"><g filter="url(#0996ecf189)"><rect x="-27.75" width="333" fill="#000000" y="-22.049999" height="264.599992" fill-opacity="0.861"/></g></mask><clipPath id="bd9a40b6ed"><path d="M 0.628906 1 L 18.351562 1 L 18.351562 18.945312 L 0.628906 18.945312 Z M 0.628906 1 " clip-rule="nonzero"/></clipPath><clipPath id="9d0b23eb30"><rect x="0" width="19" y="0" height="19"/></clipPath><mask id="dc88788767"><g filter="url(#0996ecf189)"><rect x="-27.75" width="333" fill="#000000" y="-22.049999" height="264.599992" fill-opacity="0.871"/></g></mask><clipPath id="1087245bd0"><path d="M 0.4375 0.453125 L 14.328125 0.453125 L 14.328125 16.734375 L 0.4375 16.734375 Z M 0.4375 0.453125 " clip-rule="nonzero"/></clipPath><clipPath id="8f08a082cd"><rect x="0" width="15" y="0" height="17"/></clipPath><mask id="e3f70621b7"><g filter="url(#0996ecf189)"><rect x="-27.75" width="333" fill="#000000" y="-22.049999" height="264.599992" fill-opacity="0.868"/></g></mask><clipPath id="2cd790b61f"><path d="M 1 0.285156 L 16.871094 0.285156 L 16.871094 17.765625 L 1 17.765625 Z M 1 0.285156 " clip-rule="nonzero"/></clipPath><clipPath id="541d578943"><rect x="0" width="17" y="0" height="18"/></clipPath><mask id="f93551aa9b"><g filter="url(#0996ecf189)"><rect x="-27.75" width="333" fill="#000000" y="-22.049999" height="264.599992" fill-opacity="0.863"/></g></mask><clipPath id="50d12d79ff"><path d="M 0.285156 1 L 18.960938 1 L 18.960938 18 L 0.285156 18 Z M 0.285156 1 " clip-rule="nonzero"/></clipPath><clipPath id="a2330b81b1"><rect x="0" width="19" y="0" height="19"/></clipPath><mask id="be6c8c9b5a"><g filter="url(#0996ecf189)"><rect x="-27.75" width="333" fill="#000000" y="-22.049999" height="264.599992" fill-opacity="0.873"/></g></mask><clipPath id="6b187cab35"><path d="M 1 0.226562 L 14 0.226562 L 14 16 L 1 16 Z M 1 0.226562 " clip-rule="nonzero"/></clipPath><clipPath id="dcac8a8d52"><rect x="0" width="15" y="0" height="17"/></clipPath><mask id="37734ae300"><g filter="url(#0996ecf189)"><rect x="-27.75" width="333" fill="#000000" y="-22.049999" height="264.599992" fill-opacity="0.904"/></g></mask><clipPath id="7bcdc6a043"><path d="M 1 0.046875 L 7.824219 0.046875 L 7.824219 6.988281 L 1 6.988281 Z M 1 0.046875 " clip-rule="nonzero"/></clipPath><clipPath id="5a234775b6"><rect x="0" width="8" y="0" height="7"/></clipPath></defs><g clip-path="url(#0485fd8a7f)"><path fill="#ffffff" d="M 0.0664062 0 L 276.9375 0 L 276.9375 220 L 0.0664062 220 Z M 0.0664062 0 " fill-opacity="1" fill-rule="nonzero"/><path fill="#16436f" d="M 0.0664062 0 L 276.9375 0 L 276.9375 220 L 0.0664062 220 Z M 0.0664062 0 " fill-opacity="1" fill-rule="nonzero"/></g><g clip-path="url(#c483841c25)"><g mask="url(#ac937f9770)"><g transform="matrix(1, 0, 0, 1, 132, 1)"><g clip-path="url(#73c4f2e272)"><g clip-path="url(#1ff414671e)"><path fill="#ffffff" d="M 2 0.304688 C 5.257812 0.304688 8.519531 0.304688 11.777344 0.304688 C 11.777344 1.21875 11.777344 2.128906 11.777344 3.042969 C 10.34375 3.042969 8.910156 3.042969 7.476562 3.042969 C 7.449219 6.703125 7.582031 10.351562 7.867188 13.996094 C 6.824219 13.996094 5.78125 13.996094 4.738281 13.996094 C 4.738281 10.347656 4.738281 6.695312 4.738281 3.042969 C 3.300781 3.042969 1.867188 3.042969 0.433594 3.042969 C 0.433594 2.261719 0.433594 1.476562 0.433594 0.695312 C 1.058594 0.800781 1.582031 0.667969 2 0.304688 Z M 2 0.304688 " fill-opacity="1" fill-rule="evenodd"/></g></g></g></g></g><g clip-path="url(#65e25aa2f7)"><g mask="url(#3a3a8dbed3)"><g transform="matrix(1, 0, 0, 1, 150, 1)"><g clip-path="url(#abcd2bbe18)"><g clip-path="url(#b3aa774aa1)"><path fill="#ffffff" d="M 2.386719 1.085938 C 3.390625 1.273438 4.367188 1.535156 5.320312 1.871094 C 4.996094 4.863281 4.539062 7.863281 3.949219 10.867188 C 4.578125 13.183594 6.011719 13.902344 8.253906 13.019531 C 9.515625 9.6875 10.300781 6.234375 10.601562 2.652344 C 11.628906 2.882812 12.671875 3.011719 13.730469 3.042969 C 13.300781 6.921875 12.457031 10.703125 11.1875 14.386719 C 10.714844 14.996094 10.128906 15.449219 9.429688 15.757812 C 6.570312 16.378906 4.027344 15.792969 1.800781 13.996094 C 1.351562 12.996094 1.027344 11.953125 0.820312 10.867188 C 1.472656 7.625 1.992188 4.363281 2.386719 1.085938 Z M 2.386719 1.085938 " fill-opacity="1" fill-rule="evenodd"/></g></g></g></g></g><g mask="url(#dc134c7d18)"><g transform="matrix(1, 0, 0, 1, 113, 2)"><g clip-path="url(#e06c6948c4)"><g clip-path="url(#069f707064)"><path fill="#ffffff" d="M 4.566406 1.261719 C 6.398438 1.195312 8.222656 1.261719 10.042969 1.457031 C 11.503906 2.160156 12.15625 3.332031 12 4.976562 C 12.105469 6.265625 11.714844 7.375 10.828125 8.300781 C 11.855469 10.035156 13.03125 11.667969 14.347656 13.191406 C 13.4375 13.664062 12.460938 13.988281 11.414062 14.171875 C 10.132812 12.71875 8.890625 11.21875 7.695312 9.671875 C 6.917969 9.601562 6.136719 9.667969 5.347656 9.867188 C 5.507812 11.316406 5.769531 12.75 6.132812 14.171875 C 6.007812 14.621094 5.746094 14.945312 5.347656 15.148438 C 4.578125 15.34375 3.796875 15.40625 3.003906 15.34375 C 2.40625 10.929688 1.625 6.5625 0.65625 2.238281 C 2.039062 2.03125 3.34375 1.703125 4.566406 1.261719 Z M 5.742188 3.609375 C 7.449219 3.230469 8.625 3.816406 9.261719 5.367188 C 8.230469 6.882812 6.796875 7.53125 4.957031 7.324219 C 4.675781 6.363281 4.417969 5.382812 4.175781 4.390625 C 4.742188 4.128906 5.265625 3.867188 5.742188 3.609375 Z M 5.742188 3.609375 " fill-opacity="1" fill-rule="evenodd"/></g></g></g></g><g mask="url(#d31ebff798)"><g transform="matrix(1, 0, 0, 1, 170, 6)"><g clip-path="url(#151f98134e)"><g clip-path="url(#416d1425d5)"><path fill="#ffffff" d="M 2.339844 0.78125 C 5.734375 1.957031 9.125 3.132812 12.511719 4.300781 C 12.554688 5.304688 12.292969 6.214844 11.726562 7.042969 C 10.46875 6.265625 9.167969 6.003906 7.816406 6.257812 C 6.71875 9.289062 5.546875 12.289062 4.296875 15.257812 C 3.175781 15.6875 2.132812 15.492188 1.164062 14.671875 C 2.542969 11.449219 3.847656 8.1875 5.078125 4.890625 C 4.109375 4.085938 3 3.496094 1.753906 3.128906 C 1.59375 2.269531 1.789062 1.488281 2.339844 0.78125 Z M 2.339844 0.78125 " fill-opacity="1" fill-rule="evenodd"/></g></g></g></g><g mask="url(#716dcece6b)"><g transform="matrix(1, 0, 0, 1, 101, 6)"><g clip-path="url(#be38dc9a6d)"><g clip-path="url(#12a1a81a11)"><path fill="#ffffff" d="M 2.089844 1.171875 C 2.613281 1.171875 3.136719 1.171875 3.65625 1.171875 C 4.964844 5.484375 6.265625 9.785156 7.570312 14.082031 C 6.660156 14.148438 5.8125 14.410156 5.027344 14.867188 C 3.417969 10.734375 1.917969 6.5625 0.527344 2.347656 C 0.964844 1.816406 1.488281 1.421875 2.089844 1.171875 Z M 2.089844 1.171875 " fill-opacity="1" fill-rule="evenodd"/></g></g></g></g><g mask="url(#bc67dad043)"><g transform="matrix(1, 0, 0, 1, 82, 10)"><g clip-path="url(#597b37e348)"><g clip-path="url(#18961cafc7)"><path fill="#ffffff" d="M 10.917969 1.085938 C 11.386719 1.269531 11.648438 1.660156 11.703125 2.257812 C 12.335938 6.371094 12.988281 10.476562 13.660156 14.582031 C 13.261719 15.632812 12.480469 16.21875 11.3125 16.34375 C 7.558594 13.503906 4.035156 10.375 0.746094 6.953125 C 1.570312 5.953125 2.613281 5.5 3.878906 5.585938 C 6.03125 7.734375 8.179688 9.886719 10.332031 12.039062 C 9.878906 8.914062 9.289062 5.785156 8.574219 2.648438 C 9.378906 2.117188 10.164062 1.597656 10.917969 1.085938 Z M 10.917969 1.085938 " fill-opacity="1" fill-rule="evenodd"/></g></g></g></g><g mask="url(#d0e92daa50)"><g transform="matrix(1, 0, 0, 1, 183, 14)"><g clip-path="url(#df2b4f03fc)"><g clip-path="url(#7b891db56b)"><path fill="#ffffff" d="M 7.726562 0.996094 C 10.792969 2.375 13.664062 4.070312 16.332031 6.082031 C 16.066406 6.882812 15.609375 7.535156 14.964844 8.039062 C 13.136719 6.996094 11.3125 5.953125 9.488281 4.910156 C 8.773438 5.339844 8.1875 5.929688 7.726562 6.671875 C 9.5625 7.976562 11.390625 9.28125 13.203125 10.582031 C 12.894531 11.285156 12.4375 11.871094 11.835938 12.34375 C 9.984375 11.449219 8.222656 10.40625 6.554688 9.214844 C 5.660156 9.953125 5.203125 10.867188 5.183594 11.953125 C 6.878906 12.996094 8.574219 14.039062 10.269531 15.082031 C 10.503906 16.179688 10.113281 16.960938 9.097656 17.429688 C 6.558594 15.933594 4.015625 14.4375 1.46875 12.929688 C 1.261719 12.710938 1.132812 12.449219 1.074219 12.148438 C 3.21875 8.375 5.4375 4.660156 7.726562 0.996094 Z M 7.726562 0.996094 " fill-opacity="1" fill-rule="evenodd"/></g></g></g></g><g mask="url(#61675dc163)"><g transform="matrix(1, 0, 0, 1, 48, 20)"><g clip-path="url(#f129b2a6c7)"><g clip-path="url(#fb162df4a9)"><path fill="#ffffff" d="M 83.652344 0.472656 C 121.050781 -0.683594 149.417969 14.574219 168.742188 46.246094 C 180.863281 69.140625 183.210938 93.003906 175.785156 117.84375 C 163.601562 151.289062 140.0625 171.566406 105.167969 178.679688 C 69.464844 183.277344 40.449219 171.605469 18.121094 143.664062 C 0.792969 118.84375 -3.644531 91.847656 4.820312 62.679688 C 15.21875 32.847656 35.5 13.222656 65.65625 3.800781 C 71.625 2.21875 77.621094 1.109375 83.652344 0.472656 Z M 102.820312 77.15625 C 98.988281 74.957031 95.53125 72.21875 92.453125 68.9375 C 92.191406 72.199219 92.191406 75.460938 92.453125 78.71875 C 96.125 80.484375 99.839844 82.050781 103.605469 83.414062 C 99.804688 82.714844 96.15625 81.539062 92.648438 79.894531 C 92.191406 87.585938 92.128906 95.277344 92.453125 102.976562 C 95.761719 105.371094 98.957031 107.914062 102.039062 110.605469 C 97.074219 111.0625 92.117188 111.519531 87.171875 111.972656 C 85.21875 109.957031 83.328125 107.871094 81.5 105.714844 C 77.191406 111.097656 71.648438 113.117188 64.871094 111.777344 C 69.957031 107.476562 75.042969 103.171875 80.128906 98.867188 C 83.5 98.992188 86.695312 99.839844 89.714844 101.410156 C 89.910156 98.804688 89.976562 96.199219 89.910156 93.585938 C 67.484375 94.859375 48.640625 87.292969 33.378906 70.894531 C 30.75 67.878906 28.273438 64.75 25.945312 61.507812 C 25.011719 63.089844 23.707031 64.265625 22.03125 65.027344 C 30.320312 46.175781 43.816406 32.289062 62.523438 23.359375 C 71.179688 19.84375 80.179688 17.953125 89.519531 17.6875 C 89.335938 15.785156 89.597656 13.957031 90.300781 12.210938 C 90.855469 11.773438 91.441406 11.378906 92.0625 11.039062 C 92.136719 13.351562 92.332031 15.632812 92.648438 17.882812 C 116.179688 19.148438 134.960938 29.125 148.984375 47.8125 C 148.921875 47.941406 148.855469 48.074219 148.789062 48.203125 C 147.484375 47.449219 146.117188 46.992188 144.683594 46.835938 C 140.546875 49.933594 138.003906 54.039062 137.054688 59.160156 C 136.835938 62.824219 136.835938 66.476562 137.054688 70.113281 C 122.972656 62.410156 108.042969 59.929688 92.257812 62.679688 C 92.191406 64.25 92.257812 65.816406 92.453125 67.375 C 95.730469 70.847656 99.1875 74.105469 102.820312 77.15625 Z M 159.941406 83.414062 C 159.261719 85.03125 158.023438 85.945312 156.222656 86.152344 C 151.3125 84.460938 149.875 81.203125 151.921875 76.371094 C 154.253906 73.683594 157.1875 72.703125 160.722656 73.4375 C 161.714844 73.640625 162.5625 74.097656 163.265625 74.808594 C 163.472656 72.558594 162.886719 70.539062 161.503906 68.742188 C 161.765625 68.484375 162.027344 68.484375 162.289062 68.742188 C 166.878906 74.488281 168.441406 80.945312 166.984375 88.109375 C 172.308594 86.921875 174.917969 89.007812 174.808594 94.367188 C 171.285156 94.304688 167.761719 94.367188 164.242188 94.566406 C 160.929688 100.226562 156.757812 105.183594 151.726562 109.429688 C 138.777344 119.746094 124.039062 126.136719 107.515625 128.601562 C 74.226562 133.238281 41.625 130.371094 9.710938 119.996094 C 10.355469 119.277344 11.140625 118.757812 12.054688 118.429688 C 15.125 118.410156 18.191406 118.605469 21.25 119.015625 C 25.886719 118.949219 30.257812 117.839844 34.355469 115.691406 C 36.246094 114.320312 37.878906 112.691406 39.246094 110.800781 C 39.847656 102.988281 40.367188 95.164062 40.8125 87.328125 C 40.972656 87.148438 41.167969 87.015625 41.398438 86.9375 C 41.996094 90.039062 42.386719 93.167969 42.574219 96.324219 C 48.957031 96.796875 55.34375 97.1875 61.742188 97.5 C 61.914062 101.8125 61.914062 106.117188 61.742188 110.410156 C 59.914062 111.714844 57.957031 112.824219 55.875 113.734375 C 57.65625 114.210938 59.480469 114.46875 61.351562 114.515625 C 79.558594 115.246094 97.6875 114.332031 115.730469 111.777344 C 123.984375 110.726562 131.941406 108.640625 139.597656 105.519531 C 138.433594 102.304688 137.390625 99.046875 136.46875 95.738281 C 136.566406 94.789062 136.890625 93.941406 137.445312 93.195312 C 139.765625 96.667969 142.179688 100.058594 144.683594 103.367188 C 148.660156 101.214844 152.3125 98.605469 155.636719 95.542969 C 155.984375 95.21875 156.113281 94.828125 156.027344 94.367188 C 153.550781 94.367188 151.074219 94.367188 148.59375 94.367188 C 148.59375 92.28125 148.59375 90.195312 148.59375 88.109375 C 152.898438 88.175781 157.203125 88.109375 161.503906 87.914062 C 163.960938 84.871094 164.414062 81.546875 162.875 77.9375 C 160.414062 75.433594 157.609375 74.976562 154.464844 76.566406 C 152.265625 79.3125 152.398438 81.921875 154.855469 84.394531 C 156.8125 85.34375 158.507812 85.019531 159.941406 83.414062 Z M 120.035156 75.199219 C 128.523438 75.273438 133.480469 79.511719 134.902344 87.914062 C 134.707031 89.929688 134.121094 91.820312 133.140625 93.585938 C 132.722656 93.148438 132.265625 92.757812 131.773438 92.414062 C 133.175781 89.222656 132.65625 86.417969 130.207031 84 C 129.21875 83.445312 128.175781 83.316406 127.078125 83.609375 C 126.566406 83.925781 126.304688 84.382812 126.296875 84.980469 C 127.082031 86.230469 127.605469 87.601562 127.859375 89.085938 C 127.628906 90.722656 126.976562 92.15625 125.902344 93.390625 C 124.980469 93.453125 124.070312 93.453125 123.164062 93.390625 C 122.5625 94.660156 122.695312 95.832031 123.554688 96.910156 C 126.902344 96.984375 129.3125 98.484375 130.792969 101.410156 C 131.917969 102.664062 133.15625 103.773438 134.511719 104.738281 C 132.628906 105.351562 130.738281 105.941406 128.839844 106.496094 C 127.621094 105.921875 126.378906 105.398438 125.121094 104.933594 C 124.039062 105.691406 123.125 106.667969 122.382812 107.867188 C 116.417969 109.035156 110.417969 109.816406 104.386719 110.214844 C 107.839844 107.164062 110.125 103.449219 111.234375 99.0625 C 113.128906 97.722656 114.957031 96.289062 116.710938 94.761719 C 117.179688 93.910156 117.375 92.996094 117.296875 92.023438 C 115.949219 92.097656 114.648438 91.902344 113.382812 91.433594 C 114.289062 89.824219 115.136719 88.191406 115.925781 86.542969 C 117.074219 87.195312 118.246094 87.324219 119.449219 86.9375 C 119.71875 86.609375 119.652344 86.351562 119.253906 86.152344 C 116.230469 85.015625 116.230469 83.84375 119.253906 82.632812 C 123.101562 84.058594 124.472656 82.886719 123.359375 79.109375 C 122.523438 78.007812 121.414062 77.484375 120.035156 77.546875 C 120.035156 76.765625 120.035156 75.980469 120.035156 75.199219 Z M 102.820312 77.15625 C 103.417969 77.125 103.808594 77.386719 103.996094 77.9375 C 103.398438 77.964844 103.007812 77.703125 102.820312 77.15625 Z M 103.996094 77.9375 C 104.59375 77.910156 104.984375 78.167969 105.167969 78.71875 C 104.570312 78.75 104.179688 78.488281 103.996094 77.9375 Z M 150.160156 113.929688 C 150.550781 113.898438 150.875 114.027344 151.136719 114.320312 C 154.023438 118.855469 156.957031 123.351562 159.941406 127.820312 C 158.59375 127.539062 157.289062 127.019531 156.027344 126.253906 C 154.398438 124.882812 152.898438 123.386719 151.527344 121.753906 C 150.421875 119.796875 149.3125 117.84375 148.203125 115.886719 C 148.792969 115.144531 149.445312 114.492188 150.160156 113.929688 Z M 151.726562 131.535156 C 150.226562 131.019531 148.988281 130.105469 148.007812 128.796875 C 145.933594 125.886719 144.433594 122.691406 143.507812 119.210938 C 144.21875 118.011719 145.261719 117.292969 146.640625 117.058594 C 148.410156 121.855469 150.105469 126.679688 151.726562 131.535156 Z M 135.292969 126.058594 C 142.722656 126.765625 145.394531 130.679688 143.3125 137.796875 C 140.144531 141.542969 136.753906 141.804688 133.140625 138.578125 C 131.59375 136.320312 131.917969 134.429688 134.121094 132.90625 C 136.332031 132.519531 136.527344 132.84375 134.707031 133.882812 C 134.1875 137.664062 135.816406 139.164062 139.597656 138.382812 C 140.574219 137.925781 141.292969 137.207031 141.75 136.230469 C 142.644531 130.519531 140.234375 127.976562 134.511719 128.601562 C 132.835938 129.175781 131.273438 129.960938 129.816406 130.949219 C 125.398438 135.230469 121.421875 139.863281 117.882812 144.835938 C 115.695312 147.175781 113.023438 148.023438 109.863281 147.378906 C 107.136719 146.03125 106.15625 143.878906 106.929688 140.925781 C 107.773438 139.507812 109.011719 139.050781 110.644531 139.554688 C 108.617188 140.695312 108.160156 142.324219 109.277344 144.445312 C 112.136719 146.308594 114.484375 145.789062 116.320312 142.882812 C 116.917969 137.21875 114.375 134.675781 108.691406 135.253906 C 106.214844 135.773438 104 136.816406 102.039062 138.382812 C 97.746094 142.28125 93.574219 146.324219 89.519531 150.511719 C 86.246094 152.414062 83.308594 151.957031 80.71875 149.140625 C 79.414062 147.316406 79.414062 145.488281 80.71875 143.664062 C 81.933594 142.402344 83.304688 142.207031 84.824219 143.078125 C 82.253906 143.5625 81.40625 145.0625 82.28125 147.574219 C 84.449219 150.023438 86.796875 150.15625 89.324219 147.96875 C 91.363281 143.515625 90.125 140.449219 85.605469 138.773438 C 81.488281 138.171875 77.574219 138.824219 73.871094 140.730469 C 69.171875 143.207031 64.734375 146.078125 60.570312 149.335938 C 55.289062 151.902344 51.765625 150.402344 50.003906 144.835938 C 50.339844 142.351562 51.710938 140.785156 54.113281 140.140625 C 56.945312 141.261719 56.882812 141.847656 53.917969 141.902344 C 51.667969 144.304688 51.925781 146.390625 54.699219 148.164062 C 60.371094 148.351562 62.390625 145.679688 60.765625 140.140625 C 58.628906 137.476562 55.824219 135.976562 52.351562 135.644531 C 49.09375 135.382812 45.832031 135.382812 42.574219 135.644531 C 40.351562 136.035156 38.132812 136.296875 35.921875 136.425781 C 42.703125 133.929688 49.613281 133.410156 56.65625 134.859375 C 61.214844 136.226562 63.695312 139.292969 64.089844 144.054688 C 69.011719 140.355469 74.488281 137.8125 80.519531 136.425781 C 86.65625 135.449219 90.699219 137.859375 92.648438 143.664062 C 96.484375 139.5 100.917969 136.171875 105.949219 133.6875 C 112.015625 131.625 116.386719 133.515625 119.058594 139.359375 C 122.074219 135.089844 125.660156 131.371094 129.816406 128.210938 C 131.582031 127.210938 133.410156 126.492188 135.292969 126.058594 Z M 119.644531 158.140625 C 114.886719 161.878906 109.472656 164.226562 103.40625 165.179688 C 97.640625 164.878906 94.445312 161.878906 93.824219 156.183594 C 89.527344 159.4375 84.832031 161.980469 79.738281 163.8125 C 75.761719 165.261719 71.980469 164.871094 68.394531 162.636719 C 64.089844 158.269531 64.222656 154.09375 68.785156 150.117188 C 72.480469 148.351562 75.417969 149.199219 77.585938 152.660156 C 78.347656 155.160156 77.628906 157.050781 75.433594 158.335938 C 74.667969 158.578125 74.015625 158.382812 73.480469 157.746094 C 75.859375 156.714844 76.445312 155.019531 75.238281 152.660156 C 72.675781 150.917969 70.328125 151.179688 68.199219 153.445312 C 66.585938 158.003906 68.082031 160.9375 72.695312 162.246094 C 77.023438 162.632812 81.066406 161.71875 84.824219 159.507812 C 89.34375 156.8125 93.648438 153.8125 97.734375 150.511719 C 101.886719 148.503906 105.082031 149.484375 107.320312 153.445312 C 108.125 157.320312 106.625 159.339844 102.820312 159.507812 C 102.429688 159.117188 102.039062 158.726562 101.648438 158.335938 C 104.945312 158.191406 106.054688 156.558594 104.972656 153.445312 C 101.613281 150.503906 98.875 151.027344 96.757812 155.007812 C 96.175781 160.429688 98.652344 163.167969 104.191406 163.226562 C 105.710938 163.1875 107.210938 162.992188 108.691406 162.636719 C 112.484375 161.457031 116.136719 159.957031 119.644531 158.140625 Z M 119.644531 158.140625 " fill-opacity="1" fill-rule="evenodd"/></g></g></g></g><g mask="url(#6398bae516)"><g transform="matrix(1, 0, 0, 1, 58, 29)"><g clip-path="url(#3fe2048339)"><g clip-path="url(#c7958a4033)"><path fill="#ffffff" d="M 7.535156 1.253906 C 11.289062 1.417969 12.984375 3.308594 12.621094 6.929688 C 14.535156 7.457031 16.363281 8.175781 18.097656 9.078125 C 17.542969 10.027344 16.757812 10.679688 15.75 11.035156 C 13.945312 10.367188 12.117188 9.910156 10.273438 9.667969 C 9.808594 10.066406 9.417969 10.523438 9.097656 11.035156 C 10.222656 12.222656 11.265625 13.460938 12.226562 14.753906 C 11.789062 15.652344 11.136719 16.367188 10.273438 16.902344 C 7.152344 13.65625 4.023438 10.394531 0.882812 7.125 C 2.757812 4.722656 4.976562 2.765625 7.535156 1.253906 Z M 7.140625 4.386719 C 9.097656 4.316406 9.8125 5.230469 9.292969 7.125 C 8.636719 7.847656 7.917969 8.5 7.140625 9.078125 C 6.300781 8.433594 5.519531 7.71875 4.796875 6.929688 C 5.65625 6.132812 6.441406 5.285156 7.140625 4.386719 Z M 7.140625 4.386719 " fill-opacity="1" fill-rule="evenodd"/></g></g></g></g><g mask="url(#e902d0e286)"><g transform="matrix(1, 0, 0, 1, 205, 33)"><g clip-path="url(#bbda8524e6)"><g clip-path="url(#fd38d20775)"><path fill="#ffffff" d="M 10.375 0.386719 C 12.8125 2.589844 15.03125 5.003906 17.023438 7.621094 C 16.714844 8.390625 16.191406 8.976562 15.460938 9.382812 C 14.074219 7.863281 12.640625 6.363281 11.15625 4.882812 C 9.832031 4.789062 9.117188 5.375 9.003906 6.644531 C 10.519531 8.027344 11.886719 9.527344 13.113281 11.144531 C 12.632812 11.753906 12.046875 12.210938 11.351562 12.511719 C 9.726562 11.410156 8.355469 10.039062 7.242188 8.40625 C 6.210938 8.597656 5.300781 9.121094 4.503906 9.96875 C 5.925781 11.78125 7.492188 13.476562 9.199219 15.054688 C 8.605469 15.714844 7.953125 16.300781 7.242188 16.816406 C 4.964844 14.472656 2.75 12.058594 0.59375 9.578125 C 3.882812 6.507812 7.144531 3.441406 10.375 0.386719 Z M 10.375 0.386719 " fill-opacity="1" fill-rule="evenodd"/></g></g></g></g><g mask="url(#0aac1d3b93)"><g transform="matrix(1, 0, 0, 1, 75, 39)"><g clip-path="url(#ccbd924db1)"><g clip-path="url(#1b683bca7e)"><path fill="#ffffff" d="M 58.214844 0.644531 C 80.761719 -0.257812 99.867188 7.308594 115.53125 23.335938 C 116.382812 24.867188 116.253906 26.300781 115.140625 27.640625 C 98.746094 9.566406 78.339844 1.804688 53.914062 4.359375 C 34.398438 7.691406 18.945312 17.40625 7.550781 33.507812 C 5.628906 36.441406 3.800781 39.441406 2.074219 42.507812 C 1.8125 43.027344 1.554688 43.027344 1.292969 42.507812 C 0.710938 41.253906 0.582031 39.949219 0.902344 38.59375 C 13.539062 16.199219 32.644531 3.550781 58.214844 0.644531 Z M 58.214844 0.644531 " fill-opacity="1" fill-rule="evenodd"/></g></g></g></g><g mask="url(#8b65a25625)"><g transform="matrix(1, 0, 0, 1, 50, 43)"><g clip-path="url(#e501648ac6)"><g clip-path="url(#3de972470c)"><path fill="#ffffff" d="M 2.230469 0.949219 C 5.605469 3.03125 8.867188 5.3125 12.011719 7.792969 C 12.476562 8.191406 12.867188 8.648438 13.1875 9.164062 C 12.78125 9.632812 12.457031 10.15625 12.207031 10.730469 C 11.796875 11.125 11.339844 11.191406 10.839844 10.925781 C 7.449219 8.316406 4.058594 5.707031 0.667969 3.101562 C 1.242188 2.40625 1.761719 1.6875 2.230469 0.949219 Z M 2.230469 0.949219 " fill-opacity="1" fill-rule="evenodd"/></g></g></g></g><g mask="url(#3a0ca8c498)"><g transform="matrix(1, 0, 0, 1, 119, 44)"><g clip-path="url(#d4f7a66d37)"><g clip-path="url(#c1c9cb3d9e)"><path fill="#ffffff" d="M 12.261719 0.730469 C 14.347656 0.730469 16.433594 0.730469 18.519531 0.730469 C 18.585938 13.121094 18.519531 25.507812 18.324219 37.898438 C 18.160156 38.074219 17.964844 38.207031 17.738281 38.289062 C 10.1875 27.515625 4.578125 15.777344 0.914062 3.078125 C 4.703125 2.09375 8.488281 1.3125 12.261719 0.730469 Z M 12.261719 0.730469 " fill-opacity="1" fill-rule="evenodd"/></g></g></g></g><g mask="url(#ae67167cc6)"><g transform="matrix(1, 0, 0, 1, 141, 44)"><g clip-path="url(#4f812dd0b6)"><g clip-path="url(#34c61d2bf9)"><path fill="#ffffff" d="M 1.214844 0.730469 C 6.785156 0.996094 12.199219 2.039062 17.449219 3.859375 C 15.46875 15.046875 16.707031 25.871094 21.167969 36.332031 C 18.046875 35.941406 14.917969 35.617188 11.777344 35.355469 C 5.460938 24.683594 1.941406 13.144531 1.214844 0.730469 Z M 1.214844 0.730469 " fill-opacity="1" fill-rule="evenodd"/></g></g></g></g><g mask="url(#213a572037)"><g transform="matrix(1, 0, 0, 1, 139, 45)"><g clip-path="url(#5e13dcf64a)"><g clip-path="url(#eb43403d0e)"><path fill="#ffffff" d="M 1.257812 1.296875 C 2.269531 10.320312 4.550781 19.058594 8.105469 27.507812 C 9.195312 29.882812 10.433594 32.164062 11.820312 34.355469 C 8.285156 34.574219 4.832031 35.160156 1.453125 36.113281 C 1.257812 24.507812 1.191406 12.902344 1.257812 1.296875 Z M 1.257812 1.296875 " fill-opacity="1" fill-rule="evenodd"/></g></g></g></g><g mask="url(#0eab769fa4)"><g transform="matrix(1, 0, 0, 1, 100, 47)"><g clip-path="url(#563e535981)"><g clip-path="url(#788567f1d4)"><path fill="#ffffff" d="M 17.566406 0.859375 C 20.414062 8.253906 23.609375 15.554688 27.152344 22.769531 C 29.628906 27.203125 32.304688 31.507812 35.171875 35.679688 C 31.6875 37.328125 28.75 39.671875 26.371094 42.722656 C 15.476562 33.65625 6.933594 22.769531 0.746094 10.054688 C 5.910156 6.167969 11.519531 3.101562 17.566406 0.859375 Z M 17.566406 0.859375 " fill-opacity="1" fill-rule="evenodd"/></g></g></g></g><g mask="url(#08c1fe097f)"><g transform="matrix(1, 0, 0, 1, 159, 48)"><g clip-path="url(#c3aa9e72e4)"><g clip-path="url(#69be211f23)"><path fill="#ffffff" d="M 1.210938 0.644531 C 6.597656 2.195312 11.617188 4.542969 16.273438 7.683594 C 14.871094 11.726562 13.828125 15.898438 13.144531 20.203125 C 12.578125 25.300781 13.167969 30.253906 14.902344 35.070312 C 14.773438 35.199219 14.644531 35.332031 14.511719 35.460938 C 11.535156 34.46875 8.539062 33.558594 5.515625 32.722656 C 0.683594 22.496094 -0.753906 11.804688 1.210938 0.644531 Z M 1.210938 0.644531 " fill-opacity="1" fill-rule="evenodd"/></g></g></g></g><g mask="url(#6b44d8268d)"><g transform="matrix(1, 0, 0, 1, 39, 54)"><g clip-path="url(#2cd4949e25)"><g clip-path="url(#ab9c593218)"><path fill="#ffffff" d="M 5.796875 0.511719 C 9.363281 1.738281 12.6875 3.433594 15.773438 5.597656 C 17.324219 9.300781 16.476562 12.367188 13.230469 14.789062 C 11.628906 15.089844 10.066406 14.960938 8.539062 14.398438 C 5.984375 13.058594 3.507812 11.625 1.105469 10.097656 C 1.410156 9.160156 1.863281 8.3125 2.472656 7.554688 C 5.363281 9.324219 8.359375 10.886719 11.472656 12.246094 C 14.003906 11.066406 14.460938 9.433594 12.839844 7.359375 C 10.363281 5.988281 7.886719 4.617188 5.40625 3.25 C 5.277344 3.054688 5.148438 2.859375 5.015625 2.664062 C 5.335938 1.957031 5.597656 1.242188 5.796875 0.511719 Z M 5.796875 0.511719 " fill-opacity="1" fill-rule="evenodd"/></g></g></g></g><g mask="url(#5b95a21367)"><g transform="matrix(1, 0, 0, 1, 173, 56)"><g clip-path="url(#1db61b4353)"><g clip-path="url(#ae6e5acdc9)"><path fill="#ffffff" d="M 4.035156 1.25 C 6.644531 2.613281 8.992188 4.375 11.074219 6.53125 C 12.640625 8.355469 14.207031 10.183594 15.769531 12.007812 C 13.390625 14.355469 11.757812 17.160156 10.878906 20.421875 C 10.164062 23.902344 9.707031 27.421875 9.511719 30.984375 C 7.425781 30.070312 5.335938 29.15625 3.25 28.246094 C -0.0820312 19.140625 0.179688 10.140625 4.035156 1.25 Z M 4.035156 1.25 " fill-opacity="1" fill-rule="evenodd"/></g></g></g></g><g mask="url(#7d6cf1c461)"><g transform="matrix(1, 0, 0, 1, 86, 57)"><g clip-path="url(#27f2dcbb38)"><g clip-path="url(#ed6afa3258)"><path fill="#ffffff" d="M 13.179688 1.03125 C 19.710938 13.636719 28.515625 24.460938 39.585938 33.503906 C 38.542969 36.175781 37.828125 38.980469 37.433594 41.914062 C 37.851562 43.535156 38.050781 45.164062 38.023438 46.804688 C 22.253906 39.515625 9.800781 28.496094 0.660156 13.746094 C 4.382812 9.046875 8.558594 4.808594 13.179688 1.03125 Z M 13.179688 1.03125 " fill-opacity="1" fill-rule="evenodd"/></g></g></g></g><g mask="url(#147aa2b9f6)"><g transform="matrix(1, 0, 0, 1, 223, 59)"><g clip-path="url(#8271b378ab)"><g clip-path="url(#237fe0d92d)"><path fill="#ffffff" d="M 6.066406 0.988281 C 11.824219 0.421875 14.625 3.027344 14.476562 8.8125 C 13.996094 10.078125 13.214844 11.121094 12.128906 11.941406 C 11.574219 11.222656 11.117188 10.441406 10.761719 9.59375 C 12.785156 6.726562 12.132812 4.773438 8.804688 3.726562 C 6.625 4.128906 4.863281 5.171875 3.523438 6.855469 C 3.054688 9.71875 4.292969 11.28125 7.242188 11.550781 C 7.726562 12.265625 7.988281 13.046875 8.023438 13.898438 C 2.382812 14.0625 -0.0273438 11.324219 0.785156 5.683594 C 1.894531 3.332031 3.652344 1.769531 6.066406 0.988281 Z M 6.066406 0.988281 " fill-opacity="1" fill-rule="evenodd"/></g></g></g></g><g mask="url(#169e2d771a)"><g transform="matrix(1, 0, 0, 1, 77, 72)"><g clip-path="url(#762e637f8d)"><g clip-path="url(#49b96eabcf)"><path fill="#ffffff" d="M 7.703125 0.507812 C 8.296875 0.511719 8.753906 0.773438 9.074219 1.289062 C 18.882812 15.875 31.855469 26.632812 48 33.566406 C 49.714844 36.457031 52.0625 38.671875 55.042969 40.21875 C 38.457031 40.210938 23.984375 34.734375 11.617188 23.785156 C 8.003906 20.433594 4.679688 16.847656 1.640625 13.027344 C 1.335938 12.546875 1.140625 12.023438 1.054688 11.460938 C 3.074219 7.671875 5.292969 4.023438 7.703125 0.507812 Z M 7.703125 0.507812 " fill-opacity="1" fill-rule="evenodd"/></g></g></g></g><g mask="url(#a05a770211)"><g transform="matrix(1, 0, 0, 1, 33, 74)"><g clip-path="url(#8711889358)"><g clip-path="url(#58ae83627c)"><path fill="#ffffff" d="M 4.757812 0.855469 C 5.539062 0.855469 6.320312 0.855469 7.105469 0.855469 C 7.035156 1.777344 6.90625 2.691406 6.710938 3.59375 C 4.066406 4.054688 3.085938 5.621094 3.777344 8.289062 C 5.171875 9.867188 6.933594 10.777344 9.058594 11.027344 C 11.074219 10.589844 12.246094 9.351562 12.582031 7.308594 C 12.328125 6.214844 11.742188 5.367188 10.820312 4.765625 C 10.480469 5.875 10.023438 6.917969 9.453125 7.898438 C 8.835938 7.582031 8.183594 7.449219 7.496094 7.507812 C 7.726562 5.308594 8.316406 3.222656 9.253906 1.246094 C 11.476562 2.09375 13.757812 2.746094 16.101562 3.203125 C 15.972656 3.984375 15.839844 4.765625 15.710938 5.550781 C 15.320312 5.550781 14.929688 5.550781 14.539062 5.550781 C 15.0625 12.734375 11.800781 15.277344 4.757812 13.179688 C 0.582031 10.621094 -0.265625 7.164062 2.214844 2.8125 C 2.984375 2.007812 3.832031 1.355469 4.757812 0.855469 Z M 4.757812 0.855469 " fill-opacity="1" fill-rule="evenodd"/></g></g></g></g><g mask="url(#7a9adc8025)"><g transform="matrix(1, 0, 0, 1, 228, 79)"><g clip-path="url(#eb7e7eeeee)"><g clip-path="url(#ba82da2536)"><path fill="#ffffff" d="M 1.066406 0.941406 C 5.773438 1.269531 10.464844 1.726562 15.152344 2.308594 C 15.628906 3.246094 15.824219 4.222656 15.738281 5.246094 C 11.957031 7.984375 8.175781 10.722656 4.390625 13.460938 C 2.695312 11.191406 3.148438 9.558594 5.761719 8.570312 C 5.171875 7.125 4.78125 5.625 4.585938 4.070312 C 3.527344 4.042969 2.484375 3.910156 1.457031 3.679688 C 1.265625 2.777344 1.136719 1.863281 1.066406 0.941406 Z M 7.328125 4.460938 C 8.765625 4.398438 10.199219 4.460938 11.628906 4.65625 C 10.289062 5.359375 9.050781 6.207031 7.914062 7.199219 C 7.652344 6.296875 7.457031 5.382812 7.328125 4.460938 Z M 7.328125 4.460938 " fill-opacity="1" fill-rule="evenodd"/></g></g></g></g><g mask="url(#cc8ec621b4)"><g transform="matrix(1, 0, 0, 1, 127, 83)"><g clip-path="url(#36cecb8ffc)"><g clip-path="url(#b98a48d05d)"><path fill="#ffffff" d="M 8.953125 1.246094 C 9.703125 1.273438 10.160156 1.664062 10.324219 2.417969 C 10.398438 6.21875 10.59375 10 10.910156 13.765625 C 10.78125 13.894531 10.648438 14.023438 10.519531 14.15625 C 7.015625 12.472656 3.882812 10.320312 1.128906 7.699219 C 1.625 6.453125 2.40625 5.410156 3.476562 4.570312 C 5.277344 3.347656 7.101562 2.238281 8.953125 1.246094 Z M 8.953125 1.246094 " fill-opacity="1" fill-rule="evenodd"/></g></g></g></g><g mask="url(#e964433ca0)"><g transform="matrix(1, 0, 0, 1, 125, 91)"><g clip-path="url(#439c11ea72)"><g clip-path="url(#fe88d4b304)"><path fill="#ffffff" d="M 1.957031 1.070312 C 5.390625 3.246094 8.914062 5.332031 12.519531 7.328125 C 12.910156 11.753906 13.039062 16.1875 12.910156 20.628906 C 5.230469 19.992188 1.054688 15.816406 0.390625 8.109375 C 0.566406 5.679688 1.085938 3.332031 1.957031 1.070312 Z M 1.957031 1.070312 " fill-opacity="1" fill-rule="evenodd"/></g></g></g></g><g clip-path="url(#5520067d54)"><g mask="url(#d434e749c0)"><g transform="matrix(1, 0, 0, 1, 29, 94)"><g clip-path="url(#ceb0d27cff)"><g clip-path="url(#223df10f31)"><path fill="#ffffff" d="M 1.714844 0.808594 C 2.628906 0.808594 3.539062 0.808594 4.453125 0.808594 C 4.320312 3.121094 4.058594 5.402344 3.671875 7.652344 C 4.6875 7.742188 5.664062 7.9375 6.605469 8.242188 C 6.851562 6.027344 7.046875 3.808594 7.191406 1.589844 C 8.113281 1.527344 9.027344 1.589844 9.929688 1.785156 C 9.566406 3.90625 9.304688 6.058594 9.148438 8.242188 C 10.191406 8.371094 11.234375 8.5 12.277344 8.632812 C 12.484375 6.550781 12.679688 4.464844 12.863281 2.371094 C 13.421875 1.476562 14.140625 1.347656 15.015625 1.980469 C 15.148438 2.4375 15.277344 2.894531 15.40625 3.351562 C 15.0625 6.148438 14.804688 8.953125 14.625 11.761719 C 10.054688 11.441406 5.488281 11.050781 0.933594 10.589844 C 1.378906 7.347656 1.640625 4.085938 1.714844 0.808594 Z M 1.714844 0.808594 " fill-opacity="1" fill-rule="evenodd"/></g></g></g></g></g><g clip-path="url(#94bb961a80)"><g mask="url(#fe4bea85e0)"><g transform="matrix(1, 0, 0, 1, 232, 97)"><g clip-path="url(#24616b9c16)"><g clip-path="url(#9c84cdbd12)"><path fill="#ffffff" d="M 15.0625 9.542969 C 15.0625 10.585938 15.0625 11.632812 15.0625 12.675781 C 10.660156 12.726562 6.292969 12.988281 1.957031 13.457031 C 1.652344 12.152344 1.519531 10.847656 1.566406 9.542969 C 4.46875 7.734375 7.402344 5.972656 10.367188 4.261719 C 7.378906 4.429688 4.378906 4.429688 1.371094 4.261719 C 1.007812 3.464844 0.878906 2.617188 0.980469 1.71875 C 5.550781 1.558594 10.117188 1.300781 14.671875 0.9375 C 14.738281 2.25 14.671875 3.550781 14.476562 4.851562 C 11.671875 6.609375 8.867188 8.371094 6.066406 10.132812 C 9.046875 10.050781 12.046875 9.855469 15.0625 9.542969 Z M 15.0625 9.542969 " fill-opacity="1" fill-rule="evenodd"/></g></g></g></g></g><g mask="url(#752b0dbc1e)"><g transform="matrix(1, 0, 0, 1, 198, 109)"><g clip-path="url(#29ae4715d9)"><g clip-path="url(#b00e4179d8)"><path fill="#ffffff" d="M 1.332031 0.675781 C 1.894531 0.644531 2.414062 0.773438 2.898438 1.066406 C 3.832031 3.457031 3.117188 4.238281 0.746094 3.414062 C 0.421875 2.367188 0.617188 1.457031 1.332031 0.675781 Z M 1.332031 0.675781 " fill-opacity="1" fill-rule="evenodd"/></g></g></g></g><g mask="url(#cc3dc4d52c)"><g transform="matrix(1, 0, 0, 1, 204, 109)"><g clip-path="url(#683def7443)"><g clip-path="url(#d30fe7a763)"><path fill="#ffffff" d="M 1.59375 0.675781 C 3.746094 0.871094 4.265625 1.847656 3.15625 3.609375 C 0.695312 3.800781 0.171875 2.824219 1.59375 0.675781 Z M 1.59375 0.675781 " fill-opacity="1" fill-rule="evenodd"/></g></g></g></g><g mask="url(#7c1e7bb76b)"><g transform="matrix(1, 0, 0, 1, 210, 109)"><g clip-path="url(#b6cc797beb)"><g clip-path="url(#467dc88c5f)"><path fill="#ffffff" d="M 1.851562 0.675781 C 4.003906 0.871094 4.527344 1.847656 3.417969 3.609375 C 0.953125 3.800781 0.433594 2.824219 1.851562 0.675781 Z M 1.851562 0.675781 " fill-opacity="1" fill-rule="evenodd"/></g></g></g></g><g mask="url(#0f0cf139f3)"><g transform="matrix(1, 0, 0, 1, 217, 109)"><g clip-path="url(#46f79e5fdd)"><g clip-path="url(#e9028dbbc7)"><path fill="#ffffff" d="M 1.113281 0.675781 C 3.273438 0.886719 3.792969 1.863281 2.675781 3.609375 C 0.214844 3.800781 -0.308594 2.824219 1.113281 0.675781 Z M 1.113281 0.675781 " fill-opacity="1" fill-rule="evenodd"/></g></g></g></g><g clip-path="url(#f804ac3a3d)"><g mask="url(#67dbb3a37a)"><g transform="matrix(1, 0, 0, 1, 29, 112)"><g clip-path="url(#b05fb97614)"><g clip-path="url(#678e715cf7)"><path fill="#ffffff" d="M 9.148438 1.195312 C 11.933594 0.664062 13.824219 1.707031 14.820312 4.324219 C 15.082031 6.019531 15.082031 7.714844 14.820312 9.410156 C 14.136719 11.351562 12.769531 12.394531 10.710938 12.539062 C 10.785156 11.722656 10.652344 10.941406 10.320312 10.195312 C 11.058594 9.589844 11.777344 8.9375 12.472656 8.238281 C 12.78125 7.011719 12.652344 5.835938 12.082031 4.714844 C 11.195312 4.15625 10.414062 4.285156 9.734375 5.109375 C 9.511719 6.808594 9.25 8.503906 8.953125 10.195312 C 7.851562 12.410156 6.089844 13.128906 3.671875 12.34375 C 2.867188 11.980469 2.28125 11.394531 1.910156 10.585938 C 0.972656 7.929688 1.167969 5.386719 2.496094 2.957031 C 3.257812 2.210938 4.167969 1.886719 5.234375 1.976562 C 5.136719 2.875 5.265625 3.722656 5.625 4.519531 C 3.160156 6.085938 3.03125 7.847656 5.234375 9.800781 C 5.617188 9.617188 5.945312 9.355469 6.214844 9.019531 C 6.574219 7.054688 6.964844 5.097656 7.386719 3.152344 C 7.789062 2.296875 8.375 1.644531 9.148438 1.195312 Z M 9.148438 1.195312 " fill-opacity="1" fill-rule="evenodd"/></g></g></g></g></g><g mask="url(#211d59229e)"><g transform="matrix(1, 0, 0, 1, 231, 118)"><g clip-path="url(#5026549242)"><g clip-path="url(#517d75ec29)"><path fill="#ffffff" d="M 5.890625 0.28125 C 13.210938 -0.292969 16.144531 2.964844 14.695312 10.0625 C 12.335938 13.578125 9.140625 14.554688 5.109375 12.996094 C 1.378906 10.941406 0.269531 7.875 1.785156 3.800781 C 2.757812 2.109375 4.125 0.933594 5.890625 0.28125 Z M 6.28125 3.410156 C 9.578125 2.867188 11.792969 4.105469 12.933594 7.128906 C 11.949219 10.230469 9.863281 11.273438 6.671875 10.257812 C 2.714844 8.125 2.585938 5.84375 6.28125 3.410156 Z M 6.28125 3.410156 " fill-opacity="1" fill-rule="evenodd"/></g></g></g></g><g mask="url(#1f0ab0980e)"><g transform="matrix(1, 0, 0, 1, 91, 118)"><g clip-path="url(#95471ff604)"><g clip-path="url(#2dc6c7b497)"><path fill="#ffffff" d="M 1.917969 1.0625 C 3.824219 1.136719 4.476562 2.050781 3.875 3.800781 C 2.367188 4.929688 1.324219 4.601562 0.746094 2.824219 C 0.769531 1.960938 1.160156 1.375 1.917969 1.0625 Z M 1.917969 1.0625 " fill-opacity="1" fill-rule="evenodd"/></g></g></g></g><g mask="url(#98cd78828e)"><g transform="matrix(1, 0, 0, 1, 97, 119)"><g clip-path="url(#3c7a7bfdf8)"><g clip-path="url(#f98b22edae)"><path fill="#ffffff" d="M 1.398438 0.453125 C 3.671875 0.285156 4.324219 1.261719 3.351562 3.390625 C 0.710938 3.683594 0.0585938 2.707031 1.398438 0.453125 Z M 1.398438 0.453125 " fill-opacity="1" fill-rule="evenodd"/></g></g></g></g><g mask="url(#b096aef183)"><g transform="matrix(1, 0, 0, 1, 102, 119)"><g clip-path="url(#9e7d980ba2)"><g clip-path="url(#c5ee021531)"><path fill="#ffffff" d="M 1.875 0.453125 C 4.277344 0.660156 4.800781 1.769531 3.4375 3.78125 C 0.996094 3.664062 0.472656 2.554688 1.875 0.453125 Z M 1.875 0.453125 " fill-opacity="1" fill-rule="evenodd"/></g></g></g></g><g mask="url(#d1719c17e1)"><g transform="matrix(1, 0, 0, 1, 91, 124)"><g clip-path="url(#016706ae8c)"><g clip-path="url(#27f80dfccf)"><path fill="#ffffff" d="M 1.527344 0.539062 C 3.921875 0.445312 4.574219 1.425781 3.484375 3.476562 C 0.84375 3.769531 0.191406 2.792969 1.527344 0.539062 Z M 1.527344 0.539062 " fill-opacity="1" fill-rule="evenodd"/></g></g></g></g><g mask="url(#fda25b9cbc)"><g transform="matrix(1, 0, 0, 1, 97, 124)"><g clip-path="url(#1642862a05)"><g clip-path="url(#baf581e92e)"><path fill="#ffffff" d="M 1.003906 0.933594 C 3.503906 0.429688 4.285156 1.339844 3.351562 3.671875 C 0.933594 4.25 0.152344 3.335938 1.003906 0.933594 Z M 1.003906 0.933594 " fill-opacity="1" fill-rule="evenodd"/></g></g></g></g><g mask="url(#1d6ce17f04)"><g transform="matrix(1, 0, 0, 1, 102, 124)"><g clip-path="url(#d8f8d06657)"><g clip-path="url(#84984e2cee)"><path fill="#ffffff" d="M 1.484375 1.324219 C 4.085938 0.871094 4.871094 1.847656 3.832031 4.257812 C 1.386719 4.617188 0.605469 3.640625 1.484375 1.324219 Z M 1.484375 1.324219 " fill-opacity="1" fill-rule="evenodd"/></g></g></g></g><g mask="url(#10b494599a)"><g transform="matrix(1, 0, 0, 1, 84, 136)"><g clip-path="url(#90a9a93703)"><g clip-path="url(#fa8b109eee)"><path fill="#ffffff" d="M 4.226562 1.058594 C 9.722656 1.539062 15.199219 2.191406 20.65625 3.015625 C 13.941406 4.617188 7.160156 4.945312 0.3125 3.996094 C 1.800781 3.21875 3.105469 2.242188 4.226562 1.058594 Z M 4.226562 1.058594 " fill-opacity="1" fill-rule="evenodd"/></g></g></g></g><g mask="url(#e8158ad695)"><g transform="matrix(1, 0, 0, 1, 226, 137)"><g clip-path="url(#698e5d4857)"><g clip-path="url(#23eb9bf20b)"><path fill="#ffffff" d="M 5.023438 1.234375 C 6.066406 1.234375 7.109375 1.234375 8.152344 1.234375 C 8.265625 3.40625 7.222656 4.511719 5.023438 4.558594 C 3.6875 5.917969 3.554688 7.351562 4.632812 8.863281 C 5.023438 9.125 5.414062 9.125 5.804688 8.863281 C 6.921875 7.027344 8.222656 5.332031 9.71875 3.777344 C 11.460938 2.925781 13.09375 3.121094 14.609375 4.363281 C 16.144531 8.300781 15.164062 11.367188 11.671875 13.558594 C 10.769531 13.75 9.855469 13.816406 8.933594 13.753906 C 8.820312 11.625 9.796875 10.449219 11.871094 10.230469 C 12.761719 9.148438 12.957031 7.972656 12.457031 6.710938 C 11.976562 6.273438 11.457031 6.210938 10.890625 6.515625 C 9.960938 8.046875 8.984375 9.546875 7.957031 11.015625 C 3.210938 13.136719 0.996094 11.570312 1.304688 6.320312 C 1.792969 4.023438 3.035156 2.328125 5.023438 1.234375 Z M 5.023438 1.234375 " fill-opacity="1" fill-rule="evenodd"/></g></g></g></g><g mask="url(#2293b57c8d)"><g transform="matrix(1, 0, 0, 1, 36, 139)"><g clip-path="url(#91eab5b9f2)"><g clip-path="url(#47336f29b6)"><path fill="#ffffff" d="M 11.929688 0.796875 C 12.480469 1.726562 13.003906 2.703125 13.492188 3.734375 C 12.1875 5.296875 10.886719 6.863281 9.582031 8.425781 C 9.90625 9.136719 10.230469 9.855469 10.558594 10.578125 C 12.03125 9.875 13.53125 9.226562 15.058594 8.625 C 15.839844 9.402344 16.167969 10.3125 16.035156 11.363281 C 12.011719 13.308594 7.902344 14.941406 3.710938 16.253906 C 2.46875 13.765625 1.558594 11.15625 0.972656 8.425781 C 2.09375 4.835938 4.378906 3.859375 7.820312 5.492188 C 9.285156 3.988281 10.65625 2.425781 11.929688 0.796875 Z M 5.277344 7.449219 C 6.839844 8.082031 7.75 9.257812 8.015625 10.96875 C 7.292969 11.78125 6.378906 12.304688 5.277344 12.535156 C 4.5 11.585938 3.980469 10.476562 3.710938 9.210938 C 4.042969 8.425781 4.566406 7.839844 5.277344 7.449219 Z M 5.277344 7.449219 " fill-opacity="1" fill-rule="evenodd"/></g></g></g></g><g mask="url(#6c5e5c7cb6)"><g transform="matrix(1, 0, 0, 1, 218, 155)"><g clip-path="url(#244a1d740b)"><g clip-path="url(#d8c42534a3)"><path fill="#ffffff" d="M 4.808594 0.839844 C 8.328125 0.296875 11.261719 1.339844 13.609375 3.96875 C 15.457031 7.347656 15 10.414062 12.242188 13.164062 C 10.542969 14.117188 8.78125 14.3125 6.957031 13.75 C 6.972656 12.929688 7.230469 12.144531 7.742188 11.402344 C 10.058594 11.699219 11.554688 10.65625 12.242188 8.273438 C 11.25 5.65625 9.359375 4.089844 6.566406 3.578125 C 3.414062 4.507812 2.695312 6.332031 4.414062 9.054688 C 3.359375 12.148438 2.25 12.148438 1.089844 9.054688 C 0.4375 5.40625 1.675781 2.667969 4.808594 0.839844 Z M 4.808594 0.839844 " fill-opacity="1" fill-rule="evenodd"/></g></g></g></g><g mask="url(#334b28d10a)"><g transform="matrix(1, 0, 0, 1, 43, 156)"><g clip-path="url(#09b7c125c1)"><g clip-path="url(#e33a1c3b2a)"><path fill="#ffffff" d="M 11.96875 0.621094 C 12.359375 0.585938 12.6875 0.71875 12.949219 1.011719 C 14.675781 3.554688 16.308594 6.164062 17.839844 8.835938 C 14.171875 11.457031 10.390625 13.933594 6.492188 16.269531 C 4.589844 13.519531 2.765625 10.714844 1.015625 7.859375 C 1.734375 7.402344 2.449219 6.945312 3.167969 6.488281 C 4.570312 8.378906 5.875 10.335938 7.082031 12.359375 C 7.851562 11.914062 8.570312 11.390625 9.230469 10.792969 C 8.332031 9.175781 7.351562 7.613281 6.296875 6.097656 C 6.050781 4.90625 6.570312 4.253906 7.863281 4.140625 C 9.097656 5.824219 10.335938 7.519531 11.578125 9.230469 C 12.511719 8.894531 13.292969 8.375 13.925781 7.664062 C 12.898438 5.675781 11.726562 3.785156 10.40625 1.992188 C 11.027344 1.621094 11.550781 1.164062 11.96875 0.621094 Z M 11.96875 0.621094 " fill-opacity="1" fill-rule="evenodd"/></g></g></g></g><g mask="url(#78a814d3dd)"><g transform="matrix(1, 0, 0, 1, 205, 169)"><g clip-path="url(#8f5c504265)"><g clip-path="url(#f54b96965a)"><path fill="#ffffff" d="M 7.636719 0.53125 C 11.078125 3.515625 14.46875 6.582031 17.808594 9.726562 C 15.652344 12.207031 13.433594 14.621094 11.15625 16.964844 C 10.417969 16.53125 9.765625 16.011719 9.199219 15.398438 C 10.78125 13.816406 12.214844 12.121094 13.503906 10.3125 C 12.988281 9.601562 12.402344 8.949219 11.742188 8.355469 C 10.417969 10.339844 8.789062 11.839844 6.851562 12.855469 C 6.386719 12.457031 5.996094 12 5.679688 11.488281 C 6.835938 9.808594 8.140625 8.242188 9.589844 6.792969 C 9.042969 5.773438 8.261719 5.1875 7.242188 5.03125 C 5.796875 6.347656 4.492188 7.78125 3.332031 9.335938 C 2.316406 9.511719 1.535156 9.117188 0.984375 8.160156 C 3.25 5.640625 5.46875 3.097656 7.636719 0.53125 Z M 7.636719 0.53125 " fill-opacity="1" fill-rule="evenodd"/></g></g></g></g><g mask="url(#e074c52c4f)"><g transform="matrix(1, 0, 0, 1, 56, 175)"><g clip-path="url(#2d405ee574)"><g clip-path="url(#ce20da4e71)"><path fill="#ffffff" d="M 3.664062 0.402344 C 6.703125 0.234375 9.117188 1.40625 10.902344 3.921875 C 11.839844 2.785156 12.949219 1.875 14.226562 1.183594 C 15.011719 1.703125 15.664062 2.355469 16.183594 3.140625 C 12.929688 6.328125 9.601562 9.460938 6.207031 12.527344 C 4.363281 10.554688 2.667969 8.46875 1.121094 6.269531 C 0.484375 3.636719 1.332031 1.683594 3.664062 0.402344 Z M 5.230469 3.140625 C 6.722656 3.582031 7.894531 4.492188 8.75 5.878906 C 7.925781 6.75 7.015625 7.53125 6.011719 8.226562 C 4.902344 7.503906 4.121094 6.527344 3.664062 5.289062 C 3.863281 4.296875 4.386719 3.578125 5.230469 3.140625 Z M 5.230469 3.140625 " fill-opacity="1" fill-rule="evenodd"/></g></g></g></g><g mask="url(#a4093ee86e)"><g transform="matrix(1, 0, 0, 1, 191, 181)"><g clip-path="url(#9d0b23eb30)"><g clip-path="url(#bd9a40b6ed)"><path fill="#ffffff" d="M 9.117188 1.050781 C 9.855469 0.972656 10.441406 1.234375 10.875 1.832031 C 13.363281 5.039062 15.777344 8.300781 18.113281 11.613281 C 17.203125 12.460938 16.222656 13.242188 15.179688 13.960938 C 12.320312 12.429688 9.386719 11.191406 6.378906 10.246094 C 8.101562 12.359375 9.664062 14.574219 11.070312 16.894531 C 10.488281 17.546875 9.835938 18.132812 9.117188 18.65625 C 6.28125 15.207031 3.542969 11.683594 0.898438 8.09375 C 1.621094 6.984375 2.597656 6.203125 3.835938 5.746094 C 6.875 7.171875 9.941406 8.414062 13.027344 9.460938 C 11.257812 7.546875 9.628906 5.527344 8.136719 3.398438 C 7.875 3.007812 7.875 2.617188 8.136719 2.226562 C 8.546875 1.882812 8.871094 1.492188 9.117188 1.050781 Z M 9.117188 1.050781 " fill-opacity="1" fill-rule="evenodd"/></g></g></g></g><g mask="url(#dc88788767)"><g transform="matrix(1, 0, 0, 1, 82, 188)"><g clip-path="url(#8f08a082cd)"><g clip-path="url(#1087245bd0)"><path fill="#ffffff" d="M 3.09375 0.703125 C 3.898438 1.269531 4.746094 1.789062 5.636719 2.265625 C 5.753906 2.980469 5.6875 3.699219 5.441406 4.417969 C 6.34375 5.855469 7.648438 6.835938 9.355469 7.351562 C 10.242188 6.984375 11.027344 6.464844 11.703125 5.789062 C 12.589844 6.15625 13.375 6.679688 14.050781 7.351562 C 10.621094 10.714844 6.90625 13.714844 2.898438 16.351562 C 1.554688 16.117188 0.835938 15.332031 0.746094 14.003906 C 1.445312 9.546875 2.230469 5.113281 3.09375 0.703125 Z M 4.269531 11.65625 C 4.335938 10.335938 4.53125 9.03125 4.855469 7.746094 C 5.539062 8.3125 6.253906 8.835938 7.007812 9.308594 C 6.328125 10.382812 5.414062 11.164062 4.269531 11.65625 Z M 4.269531 11.65625 " fill-opacity="1" fill-rule="evenodd"/></g></g></g></g><g mask="url(#e3f70621b7)"><g transform="matrix(1, 0, 0, 1, 175, 192)"><g clip-path="url(#541d578943)"><g clip-path="url(#2cd790b61f)"><path fill="#ffffff" d="M 10.25 0.613281 C 11.398438 1.011719 11.917969 1.859375 11.8125 3.15625 C 11.210938 6.296875 10.558594 9.425781 9.859375 12.546875 C 9.988281 12.742188 10.117188 12.9375 10.25 13.132812 C 11.855469 12.296875 13.484375 11.515625 15.140625 10.785156 C 15.785156 11.289062 16.242188 11.941406 16.507812 12.742188 C 13.570312 14.40625 10.570312 15.972656 7.511719 17.4375 C 6.96875 16.808594 6.578125 16.089844 6.335938 15.285156 C 7.0625 11.867188 7.84375 8.476562 8.683594 5.113281 C 6.640625 5.773438 4.617188 6.621094 2.621094 7.65625 C 1.976562 7.152344 1.519531 6.5 1.25 5.699219 C 4.199219 3.902344 7.195312 2.207031 10.25 0.613281 Z M 10.25 0.613281 " fill-opacity="1" fill-rule="evenodd"/></g></g></g></g><g mask="url(#f93551aa9b)"><g transform="matrix(1, 0, 0, 1, 97, 197)"><g clip-path="url(#a2330b81b1)"><g clip-path="url(#50d12d79ff)"><path fill="#ffffff" d="M 4.917969 1.089844 C 6.019531 1.109375 6.933594 1.5 7.65625 2.265625 C 6.78125 4.304688 6.191406 6.390625 5.894531 8.523438 C 7.394531 6.570312 8.894531 4.613281 10.394531 2.65625 C 11.265625 3.078125 12.179688 3.339844 13.132812 3.4375 C 13.070312 6.3125 13.132812 9.179688 13.328125 12.046875 C 14.050781 9.417969 15.027344 6.941406 16.261719 4.613281 C 17.0625 4.902344 17.84375 5.226562 18.609375 5.589844 C 17.085938 9.640625 15.71875 13.746094 14.503906 17.914062 C 13.253906 18.050781 12.015625 17.789062 10.785156 17.132812 C 10.460938 13.878906 10.265625 10.621094 10.199219 7.351562 C 8.4375 9.894531 6.679688 12.4375 4.917969 14.980469 C 3.363281 14.960938 1.929688 14.503906 0.613281 13.609375 C 2.050781 9.425781 3.488281 5.253906 4.917969 1.089844 Z M 4.917969 1.089844 " fill-opacity="1" fill-rule="evenodd"/></g></g></g></g><g mask="url(#be6c8c9b5a)"><g transform="matrix(1, 0, 0, 1, 157, 199)"><g clip-path="url(#dcac8a8d52)"><g clip-path="url(#6b187cab35)"><path fill="#ffffff" d="M 12.992188 0.65625 C 13.480469 0.984375 13.742188 1.503906 13.773438 2.222656 C 13.417969 6 13.09375 9.78125 12.796875 13.566406 C 12.53125 15.074219 11.617188 15.855469 10.058594 15.914062 C 7.074219 12.101562 4.140625 8.253906 1.253906 4.375 C 2.085938 3.871094 3 3.542969 3.992188 3.394531 C 4.824219 4.128906 5.738281 4.777344 6.730469 5.351562 C 7.894531 4.984375 9.066406 4.660156 10.253906 4.375 C 10.09375 2.269531 11.007812 1.03125 12.992188 0.65625 Z M 10.253906 6.917969 C 10.496094 7.078125 10.628906 7.339844 10.644531 7.699219 C 10.394531 8.863281 10.199219 10.035156 10.058594 11.21875 C 9.261719 10.230469 8.546875 9.1875 7.90625 8.089844 C 8.667969 7.582031 9.449219 7.191406 10.253906 6.917969 Z M 10.253906 6.917969 " fill-opacity="1" fill-rule="evenodd"/></g></g></g></g><g mask="url(#37734ae300)"><g transform="matrix(1, 0, 0, 1, 134, 209)"><g clip-path="url(#5a234775b6)"><g clip-path="url(#7bcdc6a043)"><path fill="#ffffff" d="M 2.738281 0.4375 C 6.582031 -0.214844 8.082031 1.347656 7.234375 5.132812 C 5.554688 7.066406 3.726562 7.195312 1.757812 5.523438 C 0.765625 3.542969 1.089844 1.847656 2.738281 0.4375 Z M 2.738281 0.4375 " fill-opacity="1" fill-rule="evenodd"/></g></g></g></g></svg>