<svg xmlns="http://www.w3.org/2000/svg" xmlns:xlink="http://www.w3.org/1999/xlink" width="370" zoomAndPan="magnify" viewBox="0 0 277.5 220.499993" height="294" preserveAspectRatio="xMidYMid meet" version="1.0"><defs><clipPath id="c1f6ec72a2"><path d="M 0.0664062 0 L 276.9375 0 L 276.9375 220 L 0.0664062 220 Z M 0.0664062 0 " clip-rule="nonzero"/></clipPath><clipPath id="a563843f96"><path d="M 56.851562 1.839844 L 219.984375 1.839844 L 219.984375 220 L 56.851562 220 Z M 56.851562 1.839844 " clip-rule="nonzero"/></clipPath></defs><g clip-path="url(#c1f6ec72a2)"><path fill="#ffffff" d="M 0.0664062 0 L 276.9375 0 L 276.9375 220 L 0.0664062 220 Z M 0.0664062 0 " fill-opacity="1" fill-rule="nonzero"/><path fill="#16436f" d="M 0.0664062 0 L 276.9375 0 L 276.9375 220 L 0.0664062 220 Z M 0.0664062 0 " fill-opacity="1" fill-rule="nonzero"/></g><g clip-path="url(#a563843f96)"><path fill="#ffffff" d="M 132.574219 219.921875 C 129.105469 219.785156 125.261719 219.484375 124.820312 219.320312 C 124.335938 219.136719 123.988281 218.523438 124.105469 218.058594 C 124.15625 217.84375 124.535156 217.296875 124.9375 216.84375 C 125.34375 216.390625 125.886719 215.589844 126.144531 215.066406 C 126.5625 214.21875 126.613281 213.96875 126.613281 212.851562 C 126.613281 211.730469 126.5625 211.492188 126.128906 210.613281 C 125.007812 208.335938 122.839844 207.265625 119.328125 207.265625 C 113.835938 207.257812 108.71875 209.386719 105.832031 212.875 C 105.265625 213.558594 104.722656 214.070312 104.503906 214.125 C 104.058594 214.238281 103.195312 213.902344 100.589844 212.605469 C 93.652344 209.152344 87.765625 204.070312 83.035156 197.453125 C 79.015625 191.832031 76.089844 184.585938 75.027344 177.621094 C 74.441406 173.785156 73.8125 161.5625 73.535156 148.671875 C 73.367188 140.699219 73.46875 128.980469 73.714844 128.339844 C 73.886719 127.886719 74.394531 127.625 75.09375 127.625 C 76.828125 127.625 78.921875 126.695312 80.308594 125.308594 C 82.238281 123.378906 82.945312 120.925781 82.300781 118.417969 C 81.824219 116.574219 80.183594 113.78125 78.203125 111.441406 C 74.964844 107.613281 69.722656 104.375 64.492188 102.96875 C 63.683594 102.75 62.878906 102.480469 62.699219 102.367188 C 62.128906 102.003906 60.1875 98.132812 59.105469 95.191406 C 58.859375 94.527344 58.433594 93.125 58.15625 92.074219 C 54.578125 78.4375 58.46875 64.242188 68.597656 53.980469 C 69.460938 53.105469 70.332031 52.328125 70.542969 52.25 C 71.175781 52.007812 71.59375 52.238281 72.390625 53.265625 C 74.835938 56.414062 78.5 59.019531 82.230469 60.261719 C 84.941406 61.160156 85.925781 61.304688 89.296875 61.304688 C 92.914062 61.300781 94.109375 61.066406 96.4375 59.90625 C 98.960938 58.652344 100.867188 56.769531 102.03125 54.382812 C 102.875 52.65625 103.0625 51.722656 103.058594 49.308594 C 103.050781 47.257812 103.03125 47.125 102.558594 45.851562 C 102.289062 45.121094 102.039062 44.253906 102 43.921875 C 101.898438 43.046875 102.238281 42.851562 105.375 41.96875 C 112.269531 40.03125 119.777344 38.707031 127.71875 38.027344 C 131.425781 37.710938 141.839844 37.664062 145.382812 37.949219 C 152.894531 38.550781 159.269531 39.574219 165.84375 41.226562 C 168.933594 42 172.820312 43.136719 173.339844 43.414062 C 173.898438 43.714844 173.996094 44.261719 173.660156 45.183594 C 173.128906 46.644531 172.914062 47.875 172.914062 49.472656 C 172.90625 53.984375 175.371094 57.832031 179.609375 59.917969 C 182.054688 61.125 184.023438 61.46875 187.703125 61.335938 C 191.207031 61.207031 193.8125 60.535156 196.777344 58.996094 C 199.242188 57.714844 201.726562 55.644531 203.5625 53.339844 C 204.421875 52.253906 204.859375 52.003906 205.46875 52.238281 C 205.957031 52.421875 209.300781 55.898438 210.585938 57.554688 C 215.25 63.570312 218.003906 70.148438 218.90625 77.441406 C 219.195312 79.757812 219.199219 84.15625 218.914062 86.570312 C 218.328125 91.582031 216.566406 97 214.183594 101.125 C 213.464844 102.375 213.460938 102.378906 212.582031 102.640625 C 209.742188 103.480469 208.207031 104.046875 206.523438 104.871094 C 202.027344 107.066406 198.433594 110.144531 195.917969 113.960938 C 194.882812 115.535156 193.941406 117.457031 193.683594 118.523438 C 193.460938 119.457031 193.476562 121.054688 193.722656 121.976562 C 194.550781 125.078125 197.800781 127.609375 200.980469 127.621094 C 201.417969 127.621094 201.71875 127.726562 202.011719 127.976562 L 202.425781 128.332031 L 202.46875 138.464844 C 202.539062 153.800781 201.878906 171.523438 201.015625 177.441406 C 199.027344 191.089844 190.5625 203.6875 178.503906 210.945312 C 176.980469 211.863281 173.34375 213.675781 172.300781 214.039062 C 171.53125 214.308594 171.070312 214.058594 170.203125 212.910156 C 168.210938 210.273438 164.105469 208.128906 159.808594 207.476562 C 158.1875 207.230469 155.488281 207.195312 154.34375 207.40625 C 153.109375 207.636719 151.542969 208.480469 150.785156 209.320312 C 149.820312 210.394531 149.46875 211.230469 149.390625 212.65625 C 149.300781 214.199219 149.613281 215.230469 150.523438 216.429688 C 151.527344 217.75 151.589844 217.890625 151.402344 218.433594 C 151.3125 218.6875 151.125 218.957031 150.984375 219.03125 C 150.671875 219.199219 147.257812 219.566406 144.207031 219.761719 C 140.78125 219.980469 135.800781 220.050781 132.574219 219.921875 Z M 143.617188 217.417969 C 147.628906 217.144531 147.917969 217.105469 147.828125 216.84375 C 147.785156 216.714844 147.574219 216.113281 147.359375 215.503906 C 146.851562 214.066406 146.820312 212.101562 147.28125 210.636719 C 148.132812 207.933594 150.566406 205.808594 153.582031 205.140625 C 155.125 204.796875 158.433594 204.828125 160.625 205.203125 C 164.84375 205.921875 168.640625 207.800781 171.230469 210.445312 L 172.277344 211.515625 L 174.398438 210.445312 C 178.742188 208.257812 182.042969 205.898438 185.546875 202.488281 C 192.828125 195.398438 197.425781 186.265625 198.808594 176.152344 C 198.894531 175.519531 199.09375 172.773438 199.253906 170.046875 C 199.933594 158.421875 200.140625 151.226562 200.140625 139.386719 L 200.144531 130.027344 L 198.898438 129.71875 C 195.109375 128.785156 192.300781 126.078125 191.382812 122.488281 C 191.042969 121.148438 191.074219 118.996094 191.457031 117.640625 C 192.1875 115.042969 194.355469 111.5625 196.972656 108.796875 C 200.484375 105.078125 205.996094 101.902344 211.28125 100.542969 C 211.875 100.390625 211.921875 100.332031 212.722656 98.769531 C 214.609375 95.085938 215.71875 91.664062 216.429688 87.363281 C 216.636719 86.113281 216.699219 84.921875 216.699219 82.136719 C 216.703125 78.160156 216.53125 76.613281 215.730469 73.328125 C 214.226562 67.164062 210.851562 61.027344 206.429688 56.425781 L 205.265625 55.207031 L 203.691406 56.785156 C 201.714844 58.765625 199.871094 60.09375 197.417969 61.308594 C 195.308594 62.351562 193.917969 62.84375 191.6875 63.328125 C 190.410156 63.609375 189.742188 63.652344 186.820312 63.65625 C 184.171875 63.660156 183.195312 63.609375 182.332031 63.414062 C 177.578125 62.351562 173.976562 59.628906 171.953125 55.566406 C 170.855469 53.355469 170.511719 51.882812 170.527344 49.382812 C 170.535156 48.015625 170.617188 47.144531 170.820312 46.328125 C 170.976562 45.695312 171.0625 45.160156 171.011719 45.128906 C 170.847656 45.035156 167.273438 44.039062 165.476562 43.585938 C 147.429688 39.050781 128.554688 38.898438 110.394531 43.140625 C 107.867188 43.730469 104.921875 44.53125 104.792969 44.660156 C 104.753906 44.695312 104.828125 45.046875 104.953125 45.4375 C 105.613281 47.464844 105.65625 51.042969 105.050781 53.136719 C 103.597656 58.164062 99.691406 61.847656 94.308594 63.253906 C 93.148438 63.554688 92.4375 63.632812 90.226562 63.699219 C 87.171875 63.785156 85.496094 63.625 83.015625 63 C 79 61.988281 75.378906 59.875 72.269531 56.730469 L 70.773438 55.214844 L 69.742188 56.273438 C 65.621094 60.507812 62.332031 66.175781 60.664062 71.921875 C 60.128906 73.769531 59.605469 76.476562 59.402344 78.4375 C 59.15625 80.816406 59.304688 85.695312 59.691406 87.953125 C 60.386719 91.984375 61.746094 95.972656 63.570312 99.320312 C 64.097656 100.292969 64.203125 100.398438 64.761719 100.539062 C 67.207031 101.15625 70.855469 102.726562 73.328125 104.21875 C 78.34375 107.246094 82.722656 112.34375 84.402344 117.097656 C 84.894531 118.484375 85.023438 120.945312 84.675781 122.328125 C 83.730469 126.113281 80.65625 129.019531 76.753906 129.824219 L 75.910156 129.996094 L 75.871094 135.03125 C 75.78125 146.179688 76.023438 156.539062 76.640625 167.957031 C 77.070312 175.878906 77.3125 177.835938 78.335938 181.765625 C 79.84375 187.53125 82.835938 193.476562 86.640625 198.28125 C 88.09375 200.117188 91.953125 204 93.714844 205.398438 C 96.289062 207.445312 99.539062 209.488281 102.308594 210.796875 L 103.761719 211.484375 L 104.957031 210.292969 C 107.382812 207.867188 110.28125 206.351562 114.324219 205.394531 C 115.566406 205.097656 116.402344 205.011719 118.597656 204.949219 C 121.050781 204.875 121.449219 204.898438 122.570312 205.179688 C 124.394531 205.636719 125.558594 206.277344 126.761719 207.480469 C 128.324219 209.042969 129.039062 210.734375 129.039062 212.855469 C 129.039062 214.167969 128.808594 215.105469 128.1875 216.335938 L 127.726562 217.246094 L 128.9375 217.332031 C 129.601562 217.382812 130.445312 217.441406 130.808594 217.46875 C 132.46875 217.582031 141.699219 217.546875 143.617188 217.417969 Z M 132.648438 201.800781 C 116.207031 200.449219 102.320312 191.589844 97.496094 179.367188 C 96.832031 177.679688 96.335938 175.699219 95.859375 172.816406 C 94.929688 167.179688 94.726562 164.203125 94.667969 155.371094 C 94.59375 144.953125 94.234375 139.90625 93.039062 132.703125 C 92.136719 127.253906 90.527344 120.761719 89.164062 117.054688 C 87.785156 113.320312 86.207031 106.207031 85.550781 100.757812 C 84.863281 95.066406 84.859375 88.195312 85.542969 84.878906 C 86.0625 82.375 87.367188 79.289062 88.898438 76.945312 C 95.46875 66.890625 110.148438 59.449219 127.277344 57.492188 C 134.21875 56.699219 143.496094 56.816406 150.019531 57.785156 C 166.390625 60.207031 179.84375 67.347656 186.117188 76.945312 C 187.648438 79.289062 188.953125 82.375 189.46875 84.878906 C 190.15625 88.195312 190.152344 95.066406 189.464844 100.757812 C 188.804688 106.207031 187.230469 113.320312 185.851562 117.054688 C 184.488281 120.761719 182.878906 127.253906 181.976562 132.703125 C 180.78125 139.910156 180.414062 145.042969 180.347656 155.445312 C 180.289062 164.175781 180.085938 167.175781 179.15625 172.816406 C 178.484375 176.886719 177.789062 179.148438 176.328125 181.992188 C 174.105469 186.332031 170.242188 190.589844 165.636719 193.777344 C 159.035156 198.347656 150.976562 201.097656 142.085938 201.808594 C 139.914062 201.984375 134.824219 201.976562 132.648438 201.800781 Z M 144.40625 199.171875 C 152.90625 198.0625 160.519531 194.949219 166.507812 190.136719 C 168.082031 188.867188 170.730469 186.132812 171.867188 184.597656 C 174.984375 180.390625 176.238281 176.945312 177.167969 170.042969 C 177.792969 165.410156 178.089844 159.671875 177.953125 154.929688 C 177.828125 150.605469 178.242188 142.742188 178.882812 137.414062 C 179.65625 130.949219 181.226562 123.5625 182.996094 118.078125 C 183.371094 116.914062 183.65625 115.945312 183.628906 115.917969 C 183.53125 115.820312 176.605469 114.378906 173.792969 113.867188 C 161.921875 111.710938 151.265625 110.789062 138.316406 110.796875 C 123.453125 110.804688 110.582031 111.925781 98.78125 114.234375 C 96.308594 114.714844 91.496094 115.808594 91.398438 115.90625 C 91.363281 115.9375 91.644531 116.914062 92.019531 118.078125 C 93.789062 123.5625 95.359375 130.949219 96.132812 137.414062 C 96.765625 142.695312 97.191406 150.71875 97.066406 154.929688 C 96.925781 159.59375 97.226562 165.441406 97.847656 170.042969 C 98.449219 174.507812 99.023438 176.867188 100.144531 179.496094 C 102.050781 183.972656 106.078125 188.609375 110.9375 191.9375 C 117.113281 196.167969 124.925781 198.796875 133.3125 199.460938 C 135.910156 199.667969 141.769531 199.515625 144.40625 199.171875 Z M 135.371094 194.8125 C 132.320312 194.007812 129.871094 191.597656 128.957031 188.492188 C 128.605469 187.300781 128.605469 184.972656 128.957031 183.78125 C 129.878906 180.644531 132.34375 178.242188 135.441406 177.453125 C 136.46875 177.191406 138.414062 177.164062 139.523438 177.390625 C 139.953125 177.480469 140.867188 177.820312 141.554688 178.148438 C 142.550781 178.621094 143.03125 178.96875 143.914062 179.863281 C 145.796875 181.773438 146.679688 184.082031 146.503906 186.652344 C 146.347656 189.007812 145.523438 190.808594 143.832031 192.484375 C 142.679688 193.628906 141.285156 194.421875 139.722656 194.820312 C 138.628906 195.097656 136.449219 195.09375 135.371094 194.8125 Z M 139.28125 192.460938 C 142.417969 191.648438 144.625 188.292969 144.078125 185.160156 C 143.148438 179.835938 136.839844 177.75 133.011719 181.5 C 130.417969 184.042969 130.417969 188.242188 133.011719 190.773438 C 134.722656 192.445312 136.984375 193.054688 139.28125 192.460938 Z M 112.335938 180.375 C 110.6875 180.03125 109.398438 179.464844 108.175781 178.539062 C 105.964844 176.871094 104.605469 173.789062 104.816406 170.917969 C 104.976562 168.726562 105.773438 166.945312 107.320312 165.328125 C 109.0625 163.503906 111.140625 162.628906 113.734375 162.617188 C 115.078125 162.613281 115.445312 162.667969 116.539062 163.046875 C 120.308594 164.359375 122.632812 167.609375 122.625 171.5625 C 122.625 172.546875 122.535156 173.332031 122.363281 173.917969 C 121.425781 177.058594 119.023438 179.367188 115.851562 180.179688 C 114.8125 180.445312 113.125 180.539062 112.335938 180.375 Z M 115.96875 177.675781 C 121.382812 175.621094 121.738281 168.199219 116.550781 165.632812 C 115.464844 165.097656 115.40625 165.085938 113.742188 165.085938 C 112.136719 165.085938 111.984375 165.113281 111.058594 165.550781 C 107.574219 167.203125 106.164062 171.308594 107.949219 174.617188 C 108.796875 176.1875 110.679688 177.601562 112.410156 177.960938 C 113.351562 178.160156 115.058594 178.023438 115.96875 177.675781 Z M 159.441406 180.253906 C 156.304688 179.566406 153.804688 177.199219 152.769531 173.933594 C 152.398438 172.765625 152.4375 170.214844 152.847656 168.914062 C 154.023438 165.167969 157.410156 162.640625 161.28125 162.617188 C 162.960938 162.609375 164.152344 162.894531 165.605469 163.648438 C 166.820312 164.277344 168.523438 165.886719 169.117188 166.960938 C 170.453125 169.382812 170.699219 172.039062 169.820312 174.535156 C 168.355469 178.707031 163.8125 181.210938 159.441406 180.253906 Z M 162.886719 177.886719 C 164.828125 177.429688 166.355469 176.183594 167.289062 174.296875 C 167.820312 173.222656 167.832031 173.160156 167.832031 171.496094 C 167.832031 169.886719 167.804688 169.742188 167.355469 168.796875 C 166.726562 167.464844 165.453125 166.191406 164.121094 165.5625 C 163.175781 165.113281 163.03125 165.085938 161.429688 165.085938 C 159.828125 165.085938 159.679688 165.113281 158.734375 165.558594 C 156.058594 166.828125 154.464844 169.710938 154.921875 172.464844 C 155.273438 174.585938 156.699219 176.53125 158.535156 177.386719 C 160.09375 178.117188 161.3125 178.257812 162.886719 177.886719 Z M 109.90625 149.480469 C 107.84375 148.914062 106.003906 147.609375 104.820312 145.867188 C 103.761719 144.308594 103.414062 143.230469 103.324219 141.238281 C 103.199219 138.421875 103.90625 136.5625 105.851562 134.597656 C 107.703125 132.730469 109.652344 131.898438 112.195312 131.894531 C 116.25 131.886719 119.960938 134.816406 120.886719 138.753906 C 121.210938 140.132812 121.105469 142.363281 120.660156 143.667969 C 119.777344 146.246094 117.6875 148.375 115.164062 149.269531 C 113.957031 149.695312 111.113281 149.808594 109.90625 149.480469 Z M 114.949219 146.71875 C 117.863281 145.273438 119.304688 142.222656 118.511719 139.183594 C 117.921875 136.90625 116.082031 135.066406 113.8125 134.476562 C 111.578125 133.894531 109.402344 134.472656 107.691406 136.105469 C 105.019531 138.65625 104.953125 142.820312 107.539062 145.410156 C 108.941406 146.8125 110.390625 147.371094 112.445312 147.296875 C 113.742188 147.25 113.984375 147.195312 114.949219 146.71875 Z M 160.691406 149.480469 C 157.484375 148.605469 155.082031 146.152344 154.273438 142.933594 C 153.941406 141.617188 154.058594 139.09375 154.503906 137.820312 C 155.226562 135.78125 156.820312 133.949219 158.765625 132.9375 C 160.367188 132.105469 161.582031 131.84375 163.414062 131.9375 C 165.847656 132.058594 167.777344 132.941406 169.429688 134.691406 C 173.832031 139.355469 172.066406 146.882812 166.019531 149.222656 C 165.199219 149.539062 164.738281 149.609375 163.269531 149.652344 C 162.019531 149.6875 161.265625 149.636719 160.691406 149.480469 Z M 165.609375 146.789062 C 169.722656 144.863281 170.792969 139.71875 167.761719 136.417969 C 165.683594 134.152344 162.480469 133.617188 159.785156 135.085938 C 158.765625 135.640625 157.527344 137.003906 156.980469 138.171875 C 156.179688 139.875 156.230469 141.992188 157.109375 143.742188 C 157.898438 145.3125 159.1875 146.433594 160.921875 147.046875 C 161.640625 147.300781 162.050781 147.347656 163.210938 147.304688 C 164.421875 147.257812 164.769531 147.179688 165.609375 146.789062 Z M 136.144531 131.582031 C 134.332031 131.28125 132.847656 130.535156 131.488281 129.253906 C 128.867188 126.777344 127.988281 123.128906 129.195312 119.699219 C 130.070312 117.203125 132.363281 115.011719 134.929688 114.214844 C 139.925781 112.664062 145.269531 115.804688 146.339844 120.925781 C 147.621094 127.054688 142.308594 132.609375 136.144531 131.582031 Z M 139.714844 128.945312 C 142.667969 127.9375 144.578125 124.789062 144.066406 121.773438 C 143.589844 118.933594 141.414062 116.757812 138.574219 116.277344 C 136.550781 115.9375 134.414062 116.671875 132.945312 118.214844 C 130.972656 120.28125 130.519531 123.117188 131.761719 125.648438 C 133.195312 128.574219 136.632812 130 139.714844 128.945312 Z M 97.320312 112.097656 C 105.207031 110.488281 114.050781 109.382812 123.816406 108.785156 C 125.113281 108.703125 129.011719 108.558594 132.484375 108.464844 C 149.410156 107.992188 165.476562 109.457031 181.078125 112.898438 C 182.859375 113.289062 184.367188 113.5625 184.429688 113.507812 C 184.601562 113.34375 185.675781 108.941406 186.15625 106.425781 C 187.226562 100.8125 187.554688 97.382812 187.539062 91.851562 C 187.527344 86.953125 187.390625 85.796875 186.515625 83.175781 C 185.464844 80.035156 183.636719 77.160156 180.859375 74.277344 C 176.257812 69.503906 170.035156 65.800781 162.082031 63.101562 C 156.964844 61.363281 151.5625 60.253906 145.015625 59.589844 C 142.4375 59.328125 132.578125 59.328125 130 59.589844 C 123.449219 60.253906 118.050781 61.363281 112.933594 63.101562 C 104.96875 65.804688 98.800781 69.476562 94.15625 74.285156 C 91.382812 77.148438 89.550781 80.03125 88.5 83.175781 C 87.621094 85.796875 87.484375 86.953125 87.472656 91.851562 C 87.460938 97.273438 87.777344 100.699219 88.796875 106.132812 C 89.167969 108.125 90.21875 112.59375 90.464844 113.246094 L 90.597656 113.59375 L 92.707031 113.101562 C 93.867188 112.828125 95.945312 112.378906 97.320312 112.097656 Z M 128.1875 106.230469 C 128.007812 106.042969 127.867188 105.714844 127.867188 105.496094 C 127.867188 105.277344 129.597656 100.792969 131.714844 95.527344 C 133.832031 90.265625 135.519531 85.914062 135.46875 85.863281 C 135.347656 85.742188 131.875 86.285156 128.601562 86.941406 C 116.945312 89.265625 106.445312 93.390625 97.246094 99.261719 C 95.226562 100.550781 94.695312 100.699219 94.121094 100.128906 C 93.429688 99.433594 93.519531 99.261719 97.660156 93.226562 C 99.78125 90.132812 101.515625 87.542969 101.515625 87.46875 C 101.515625 87.394531 99.761719 85.625 97.613281 83.542969 C 93.851562 79.886719 93.714844 79.734375 93.714844 79.1875 C 93.714844 78.261719 94.070312 78.09375 96.472656 77.890625 C 101.691406 77.453125 108.082031 77.84375 116.898438 79.136719 C 121.171875 79.761719 128.15625 81.027344 132.335938 81.929688 C 134.023438 82.296875 135.429688 82.570312 135.460938 82.542969 C 135.488281 82.511719 133.824219 78.269531 131.761719 73.113281 C 129.414062 67.234375 128.011719 63.546875 128.011719 63.230469 C 128.011719 62.664062 128.550781 62.117188 129.113281 62.117188 C 129.292969 62.117188 131.21875 63.222656 133.398438 64.570312 C 135.578125 65.917969 137.425781 67.023438 137.507812 67.023438 C 137.589844 67.023438 139.4375 65.917969 141.621094 64.570312 C 144.328125 62.894531 145.71875 62.117188 146.003906 62.117188 C 146.527344 62.117188 147.148438 62.707031 147.148438 63.199219 C 147.148438 63.398438 145.433594 67.820312 143.335938 73.03125 C 141.242188 78.242188 139.542969 82.523438 139.566406 82.550781 C 139.589844 82.574219 140.992188 82.300781 142.679688 81.9375 C 152.328125 79.875 161.949219 78.402344 169.304688 77.871094 C 173.550781 77.5625 180.070312 77.785156 180.828125 78.261719 C 181.351562 78.585938 181.496094 79.128906 181.210938 79.683594 C 181.082031 79.941406 179.292969 81.769531 177.238281 83.75 C 175.179688 85.730469 173.5 87.394531 173.5 87.453125 C 173.5 87.507812 175.253906 90.121094 177.398438 93.257812 C 179.710938 96.636719 181.300781 99.101562 181.300781 99.300781 C 181.300781 99.730469 180.75 100.355469 180.269531 100.464844 C 180.007812 100.527344 179.671875 100.40625 179.09375 100.050781 C 175.722656 97.976562 173.882812 96.894531 172.101562 95.933594 C 165.214844 92.234375 157.296875 89.34375 148.769531 87.425781 C 145.761719 86.75 139.695312 85.714844 139.554688 85.855469 C 139.503906 85.90625 141.191406 90.277344 143.304688 95.5625 C 145.417969 100.847656 147.148438 105.316406 147.148438 105.484375 C 147.148438 105.65625 147.011719 105.972656 146.84375 106.183594 C 146.269531 106.917969 145.925781 106.789062 141.5625 104.207031 C 139.363281 102.902344 137.484375 101.867188 137.386719 101.90625 C 137.292969 101.945312 135.460938 103.011719 133.320312 104.273438 C 129.148438 106.738281 128.789062 106.875 128.1875 106.230469 Z M 134.449219 100.832031 C 135.960938 99.941406 137.335938 99.210938 137.507812 99.210938 C 137.679688 99.210938 139.0625 99.945312 140.582031 100.84375 C 142.105469 101.738281 143.375 102.445312 143.40625 102.414062 C 143.4375 102.382812 142.132812 99.03125 140.503906 94.964844 C 138.875 90.898438 137.527344 87.589844 137.503906 87.613281 C 137.46875 87.648438 131.960938 101.28125 131.597656 102.234375 C 131.550781 102.351562 131.554688 102.453125 131.609375 102.453125 C 131.660156 102.453125 132.9375 101.722656 134.449219 100.832031 Z M 101.625 93.917969 C 109.226562 89.820312 118.570312 86.515625 127.835938 84.652344 C 129.078125 84.402344 130.230469 84.199219 130.40625 84.199219 C 132.566406 84.199219 120.28125 81.933594 113.292969 81.046875 C 107.304688 80.285156 100.261719 79.855469 98.375 80.136719 L 97.664062 80.246094 L 100.988281 83.484375 C 104.074219 86.496094 104.3125 86.765625 104.3125 87.242188 C 104.3125 87.769531 104.175781 87.988281 100.375 93.507812 C 99.777344 94.378906 99.324219 95.089844 99.371094 95.089844 C 99.414062 95.089844 100.429688 94.5625 101.625 93.917969 Z M 175.613281 94.90625 C 175.550781 94.804688 174.796875 93.695312 173.9375 92.441406 C 170.738281 87.777344 170.703125 87.714844 170.703125 87.207031 C 170.703125 86.769531 171.015625 86.421875 174.023438 83.511719 C 176.992188 80.636719 177.304688 80.285156 177.003906 80.203125 C 176.464844 80.050781 172.160156 80.066406 169.820312 80.226562 C 165.171875 80.546875 158.914062 81.34375 153.140625 82.351562 C 148.707031 83.125 144.5 83.949219 144.5 84.050781 C 144.5 84.097656 145.34375 84.292969 146.375 84.480469 C 150.636719 85.261719 157.328125 87.085938 161.5 88.613281 C 165.746094 90.164062 171.238281 92.644531 174.308594 94.398438 C 175.554688 95.113281 175.792969 95.203125 175.613281 94.90625 Z M 140.539062 73.585938 C 142.472656 68.785156 143.367188 66.394531 143.210938 66.453125 C 143.082031 66.503906 141.84375 67.25 140.460938 68.109375 C 138.71875 69.195312 137.8125 69.675781 137.507812 69.675781 C 137.203125 69.675781 136.253906 69.171875 134.425781 68.035156 C 132.972656 67.128906 131.761719 66.414062 131.730469 66.445312 C 131.703125 66.472656 132.980469 69.753906 134.574219 73.734375 C 136.167969 77.714844 137.503906 80.9375 137.550781 80.894531 C 137.59375 80.847656 138.9375 77.5625 140.539062 73.585938 Z M 245.554688 166.847656 C 244.828125 166.726562 243.734375 166.511719 243.125 166.371094 L 242.023438 166.109375 L 241.980469 164.605469 C 241.957031 163.777344 241.980469 163.097656 242.035156 163.097656 C 242.089844 163.097656 242.472656 163.292969 242.886719 163.53125 C 245.863281 165.226562 249.339844 165.757812 251.277344 164.808594 C 252.789062 164.066406 253.433594 162.878906 253.425781 160.828125 C 253.421875 158.386719 252.402344 157.230469 248.113281 154.789062 C 246.867188 154.082031 245.359375 153.128906 244.753906 152.671875 C 242.84375 151.214844 241.847656 149.484375 241.695312 147.347656 C 241.449219 143.867188 243.351562 141.359375 246.90625 140.476562 C 248.238281 140.144531 251.636719 140.152344 253.652344 140.488281 C 255.832031 140.851562 255.640625 140.679688 255.640625 142.265625 L 255.640625 143.636719 L 254.5 143.144531 C 252.71875 142.378906 251.0625 142 249.457031 141.988281 C 248.359375 141.976562 247.949219 142.035156 247.542969 142.25 C 246.167969 142.984375 245.707031 143.84375 245.703125 145.65625 C 245.703125 146.828125 245.746094 147.058594 246.097656 147.652344 C 246.816406 148.878906 247.957031 149.761719 250.929688 151.402344 C 255.824219 154.101562 257.410156 156.078125 257.402344 159.472656 C 257.394531 163.253906 255.519531 165.683594 251.859375 166.648438 C 250.324219 167.050781 247.367188 167.144531 245.554688 166.847656 Z M 268.371094 166.863281 C 265.644531 166.324219 264.085938 165.230469 263.132812 163.1875 C 262.257812 161.324219 262.230469 161.015625 262.132812 151.757812 C 262.03125 142.089844 262.113281 142.675781 260.773438 142.277344 C 260.359375 142.15625 259.695312 142.011719 259.300781 141.960938 C 258.628906 141.871094 258.582031 141.835938 258.582031 141.441406 C 258.582031 141.210938 258.660156 141.019531 258.75 141.019531 C 258.980469 141.019531 265.1875 140.296875 265.675781 140.214844 L 266.070312 140.148438 L 266.128906 150.1875 C 266.179688 158.703125 266.226562 160.378906 266.421875 161.207031 C 267.050781 163.832031 268.46875 165.117188 270.910156 165.277344 C 272.109375 165.355469 273.550781 165.117188 274.335938 164.71875 C 275.113281 164.320312 276.019531 163.257812 276.363281 162.339844 C 276.921875 160.847656 276.984375 159.609375 276.984375 149.914062 L 276.984375 140.578125 L 279.5 140.578125 L 279.449219 150.625 C 279.398438 159.484375 279.363281 160.78125 279.144531 161.601562 C 278.402344 164.378906 276.851562 165.996094 274.261719 166.699219 C 273.027344 167.035156 269.699219 167.125 268.371094 166.863281 Z M 365.527344 166.855469 C 363.457031 166.472656 362.074219 165.757812 360.839844 164.421875 C 358.835938 162.257812 357.945312 158.953125 357.945312 153.683594 C 357.949219 148.191406 358.8125 144.953125 360.859375 142.765625 C 362.554688 140.957031 364.511719 140.25 367.882812 140.230469 C 370.199219 140.21875 371.21875 140.417969 372.8125 141.195312 C 376.328125 142.902344 378.050781 147.703125 377.773438 155.003906 C 377.5625 160.519531 376.28125 163.773438 373.601562 165.617188 C 371.777344 166.871094 368.410156 167.390625 365.527344 166.855469 Z M 370.375 164.734375 C 372.910156 163.484375 373.839844 160.578125 373.84375 153.878906 C 373.84375 147.871094 373.203125 145.070312 371.40625 143.273438 C 370.410156 142.273438 369.054688 141.816406 367.492188 141.949219 C 364.394531 142.207031 362.625 144.558594 362.070312 149.152344 C 361.867188 150.824219 361.863281 156.230469 362.066406 157.898438 C 362.378906 160.453125 363.082031 162.390625 364.132812 163.585938 C 365.261719 164.867188 366.378906 165.328125 368.199219 165.261719 C 369.203125 165.222656 369.558594 165.136719 370.375 164.734375 Z M 286.40625 155 C 286.40625 142.199219 286.433594 142.625 285.507812 142.0625 C 285.246094 141.902344 284.578125 141.691406 284.023438 141.59375 C 283.058594 141.421875 283.019531 141.394531 283.019531 140.996094 L 283.019531 140.578125 L 289.015625 140.578125 C 292.410156 140.578125 295.433594 140.644531 295.972656 140.730469 C 298.089844 141.066406 300.074219 142.445312 300.871094 144.128906 C 301.433594 145.316406 301.605469 146.195312 301.609375 147.863281 C 301.609375 151.660156 300.160156 153.75 296.886719 154.652344 C 296.320312 154.8125 295.125 154.910156 293.210938 154.964844 L 290.378906 155.042969 L 290.378906 166.632812 L 286.40625 166.632812 Z M 295.015625 152.820312 C 295.960938 152.390625 296.761719 151.609375 297.132812 150.746094 C 298.117188 148.453125 297.8125 144.800781 296.523438 143.558594 C 295.640625 142.699219 294.785156 142.433594 292.921875 142.425781 C 291.308594 142.417969 291.261719 142.425781 290.863281 142.824219 L 290.453125 143.234375 L 290.410156 148.25 L 290.363281 153.265625 L 292.324219 153.210938 C 293.96875 153.164062 294.398438 153.101562 295.015625 152.820312 Z M 306.394531 154.894531 C 306.351562 143.875 306.335938 143.125 306.082031 142.664062 C 305.773438 142.09375 305.144531 141.789062 303.8125 141.558594 C 302.941406 141.410156 302.890625 141.378906 302.890625 140.988281 L 302.890625 140.578125 L 320.222656 140.578125 L 320.3125 141.128906 C 320.363281 141.433594 320.40625 142.722656 320.40625 144 L 320.410156 146.316406 L 319.980469 146.316406 C 319.578125 146.316406 319.546875 146.277344 319.449219 145.546875 C 319.253906 144.085938 318.773438 143.320312 317.6875 142.734375 C 317.136719 142.441406 316.886719 142.417969 314.105469 142.417969 L 311.109375 142.417969 L 310.753906 142.832031 L 310.398438 143.242188 L 310.398438 152.234375 L 313.085938 152.179688 C 316.027344 152.121094 316.347656 152.042969 317.070312 151.183594 C 317.273438 150.9375 317.523438 150.371094 317.625 149.925781 C 317.800781 149.140625 317.820312 149.113281 318.296875 149.113281 L 318.789062 149.113281 L 318.789062 157.210938 L 318.273438 157.210938 C 317.777344 157.210938 317.757812 157.191406 317.757812 156.660156 C 317.75 155.605469 317.007812 154.476562 316.09375 154.128906 C 315.855469 154.039062 314.550781 153.972656 313.039062 153.972656 L 310.398438 153.972656 L 310.398438 158.898438 C 310.398438 164.105469 310.433594 164.40625 311.085938 164.703125 C 311.542969 164.910156 317.332031 164.921875 318.078125 164.714844 C 319.078125 164.4375 319.96875 162.933594 319.96875 161.527344 C 319.96875 161.0625 319.996094 161.039062 320.503906 161.039062 L 321.042969 161.039062 L 320.949219 163.136719 C 320.894531 164.289062 320.851562 165.546875 320.851562 165.933594 L 320.851562 166.632812 L 306.4375 166.632812 Z M 326.558594 154.894531 C 326.519531 143.875 326.5 143.125 326.25 142.664062 C 325.941406 142.09375 325.308594 141.789062 323.980469 141.558594 C 323.105469 141.410156 323.058594 141.378906 323.058594 140.988281 L 323.058594 140.578125 L 328.320312 140.578125 C 331.214844 140.578125 334.179688 140.644531 334.910156 140.726562 C 338.386719 141.113281 340.683594 142.441406 341.726562 144.667969 C 342.097656 145.453125 342.121094 145.640625 342.121094 147.570312 C 342.121094 149.492188 342.09375 149.6875 341.730469 150.464844 C 340.960938 152.105469 339.457031 153.265625 337.554688 153.691406 C 337.109375 153.792969 336.75 153.90625 336.75 153.945312 C 336.75 154.015625 341.539062 163.1875 342.742188 165.421875 L 343.402344 166.640625 L 341.308594 166.601562 L 339.210938 166.558594 L 332.835938 154.636719 L 331.699219 154.59375 L 330.566406 154.550781 L 330.566406 166.632812 L 326.601562 166.632812 Z M 335.382812 152.394531 C 337.640625 151.503906 338.679688 149.347656 338.230469 146.476562 C 338.027344 145.148438 337.527344 144.148438 336.738281 143.472656 C 335.914062 142.765625 335.03125 142.484375 333.363281 142.398438 C 332.199219 142.335938 331.878906 142.367188 331.453125 142.589844 C 330.585938 143.042969 330.570312 143.132812 330.566406 148.210938 L 330.566406 152.828125 L 332.589844 152.761719 C 334.175781 152.710938 334.78125 152.632812 335.382812 152.394531 Z M 348.347656 155.113281 C 348.308594 144.308594 348.289062 143.566406 348.035156 143.105469 C 347.722656 142.527344 347.164062 142.265625 345.734375 142.019531 C 344.738281 141.847656 344.699219 141.824219 344.699219 141.429688 C 344.699219 141.203125 344.773438 141.019531 344.863281 141.019531 C 345.097656 141.019531 351.304688 140.296875 351.800781 140.210938 L 352.203125 140.144531 L 352.203125 166.632812 L 348.390625 166.632812 Z M 383.414062 154.964844 C 383.414062 144.15625 383.394531 143.261719 383.15625 142.785156 C 382.839844 142.152344 381.933594 141.664062 380.824219 141.527344 C 380.058594 141.429688 380.027344 141.410156 380.027344 140.988281 L 380.027344 140.550781 L 386.171875 140.621094 C 391.046875 140.675781 392.519531 140.738281 393.285156 140.921875 C 397.140625 141.835938 398.921875 143.710938 399.125 147.054688 C 399.335938 150.546875 397.707031 152.875 394.488281 153.6875 C 394.0625 153.792969 393.714844 153.9375 393.714844 154.011719 C 393.714844 154.082031 395.175781 156.914062 396.957031 160.300781 C 398.738281 163.691406 400.195312 166.503906 400.195312 166.550781 C 400.195312 166.59375 399.28125 166.632812 398.167969 166.632812 L 396.144531 166.628906 L 392.925781 160.59375 L 389.707031 154.5625 L 387.386719 154.5625 L 387.386719 166.632812 L 383.414062 166.632812 Z M 391.390625 152.628906 C 392.96875 152.292969 394.078125 151.476562 394.757812 150.144531 C 395.023438 149.625 395.113281 149.167969 395.160156 148.03125 C 395.269531 145.558594 394.644531 144.027344 393.164062 143.136719 C 391.96875 142.417969 389.859375 142.128906 388.527344 142.5 C 387.5 142.785156 387.464844 142.960938 387.414062 148.195312 L 387.371094 152.796875 L 388.992188 152.796875 C 389.882812 152.796875 390.960938 152.71875 391.390625 152.628906 Z M 404.875 154.964844 C 404.835938 144.566406 404.804688 143.242188 404.589844 142.773438 C 404.304688 142.140625 403.640625 141.789062 402.308594 141.5625 C 401.417969 141.410156 401.371094 141.378906 401.371094 140.988281 L 401.371094 140.578125 L 418.699219 140.578125 L 418.792969 141.792969 C 418.84375 142.460938 418.886719 143.75 418.886719 144.664062 L 418.890625 146.316406 L 418.464844 146.316406 C 418.03125 146.316406 417.867188 146.058594 417.859375 145.363281 C 417.851562 144.304688 417.191406 143.277344 416.183594 142.746094 C 415.640625 142.457031 415.300781 142.417969 412.9375 142.371094 C 411.292969 142.335938 410.09375 142.375 409.761719 142.472656 C 408.832031 142.753906 408.804688 142.890625 408.804688 147.773438 L 408.804688 152.132812 L 411.527344 152.132812 C 413.816406 152.128906 414.324219 152.089844 414.714844 151.878906 C 415.425781 151.492188 415.90625 150.816406 416.105469 149.925781 C 416.28125 149.140625 416.300781 149.113281 416.777344 149.113281 L 417.269531 149.113281 L 417.269531 157.210938 L 416.753906 157.210938 C 416.289062 157.210938 416.238281 157.171875 416.238281 156.804688 C 416.238281 155.679688 415.558594 154.546875 414.667969 154.171875 C 414.320312 154.027344 413.429688 153.972656 411.460938 153.972656 L 408.730469 153.972656 L 408.734375 158.277344 C 408.734375 162.714844 408.851562 164.167969 409.25 164.5625 C 409.597656 164.910156 415.742188 164.984375 416.617188 164.648438 C 417.675781 164.246094 418.210938 163.40625 418.390625 161.859375 L 418.488281 161.039062 L 419.523438 161.039062 L 419.429688 162.472656 C 419.375 163.261719 419.332031 164.523438 419.332031 165.269531 L 419.332031 166.632812 L 404.917969 166.632812 Z M 275.804688 122.832031 C 274.207031 122.488281 272.578125 121.585938 271.570312 120.484375 C 269.5 118.226562 268.679688 115.144531 268.683594 109.664062 C 268.6875 103.84375 269.613281 100.652344 271.929688 98.480469 C 273.597656 96.914062 275.542969 96.265625 278.589844 96.269531 C 281.847656 96.277344 283.683594 96.90625 285.390625 98.609375 C 287.578125 100.796875 288.464844 104 288.464844 109.738281 C 288.464844 114.132812 288.039062 116.464844 286.816406 118.824219 C 285.75 120.882812 283.867188 122.28125 281.445312 122.824219 C 280.132812 123.117188 277.152344 123.121094 275.804688 122.832031 Z M 280.296875 121.132812 C 282.421875 120.566406 283.824219 118.359375 284.355469 114.742188 C 284.605469 113.046875 284.613281 106.511719 284.363281 104.851562 C 283.789062 100.996094 282.53125 98.914062 280.339844 98.195312 C 280.039062 98.097656 279.273438 98.019531 278.632812 98.019531 C 274.410156 98.027344 272.566406 101.542969 272.566406 109.589844 C 272.566406 116.453125 273.925781 120.003906 276.964844 121.089844 C 277.617188 121.324219 279.496094 121.347656 280.296875 121.132812 Z M 245.304688 111.027344 C 245.265625 100.585938 245.238281 99.390625 245.019531 98.992188 C 244.617188 98.261719 244.257812 98.042969 242.925781 97.710938 C 241.703125 97.410156 241.65625 97.382812 241.65625 96.980469 L 241.65625 96.5625 L 249.261719 96.5625 L 254.910156 106.957031 C 258.015625 112.671875 260.644531 117.457031 260.746094 117.589844 C 260.894531 117.785156 260.929688 115.761719 260.933594 107.199219 L 260.9375 96.5625 L 263.144531 96.5625 L 263.144531 122.617188 L 259.636719 122.617188 L 253.726562 111.761719 C 250.476562 105.789062 247.753906 100.84375 247.679688 100.765625 C 247.59375 100.679688 247.542969 104.832031 247.542969 111.621094 L 247.542969 122.617188 L 245.347656 122.617188 Z M 294.175781 110.878906 C 294.132812 99.542969 294.125 99.121094 293.847656 98.664062 C 293.523438 98.132812 292.9375 97.851562 291.578125 97.585938 C 290.710938 97.414062 290.660156 97.382812 290.703125 97.019531 L 290.746094 96.636719 L 294.648438 96.59375 C 299.167969 96.546875 303.144531 96.746094 304.511719 97.089844 C 306.769531 97.660156 308.4375 98.847656 309.21875 100.4375 C 309.996094 102.023438 310.09375 104.433594 309.453125 106.246094 C 308.902344 107.808594 307.480469 109.0625 305.683594 109.574219 C 305.160156 109.722656 304.648438 109.871094 304.542969 109.898438 C 304.40625 109.9375 304.460938 110.164062 304.746094 110.726562 C 305.277344 111.785156 309.703125 120.226562 310.421875 121.554688 L 311 122.625 L 308.90625 122.585938 L 306.8125 122.542969 L 303.621094 116.582031 L 300.433594 110.621094 L 299.308594 110.578125 L 298.179688 110.535156 L 298.179688 122.617188 L 294.214844 122.617188 Z M 302.859375 108.453125 C 303.628906 108.203125 304.015625 107.964844 304.597656 107.382812 C 305.621094 106.367188 305.914062 105.503906 305.894531 103.554688 C 305.867188 100.425781 304.59375 98.878906 301.71875 98.476562 C 299.855469 98.214844 298.636719 98.539062 298.34375 99.378906 C 298.238281 99.679688 298.179688 101.449219 298.179688 104.410156 L 298.179688 108.972656 L 300.027344 108.875 C 301.300781 108.804688 302.175781 108.675781 302.859375 108.453125 Z M 315.664062 111.027344 C 315.628906 100.105469 315.609375 99.402344 315.351562 98.886719 C 315.035156 98.25 314.324219 97.867188 312.929688 97.589844 C 312.058594 97.414062 312.003906 97.378906 312.046875 97.019531 L 312.09375 96.636719 L 320.300781 96.636719 L 323.910156 107.351562 C 325.894531 113.246094 327.566406 118.015625 327.621094 117.953125 C 327.714844 117.847656 332.945312 102.085938 334.195312 98.144531 L 334.699219 96.5625 L 339.546875 96.5625 L 339.546875 122.617188 L 336.011719 122.617188 L 336.011719 111.113281 C 336.011719 104.78125 335.960938 99.652344 335.902344 99.710938 C 335.839844 99.769531 334.101562 104.929688 332.03125 111.179688 L 328.273438 122.542969 L 325.632812 122.628906 L 321.808594 111.179688 L 317.980469 99.726562 L 317.941406 111.171875 L 317.90625 122.617188 L 315.707031 122.617188 Z M 343.8125 122.492188 C 343.8125 122.417969 345.464844 117.539062 347.484375 111.65625 C 349.503906 105.769531 351.261719 100.539062 351.390625 100.027344 C 351.757812 98.554688 351.304688 97.898438 349.6875 97.578125 C 348.871094 97.417969 348.820312 97.382812 348.820312 96.984375 L 348.820312 96.5625 L 355.527344 96.5625 L 358.746094 106.019531 C 360.515625 111.222656 362.511719 117.085938 363.1875 119.046875 L 364.410156 122.617188 L 360.667969 122.617188 L 359.335938 118.679688 L 358.007812 114.742188 L 353.300781 114.707031 L 348.597656 114.667969 L 347.273438 118.605469 L 345.949219 122.546875 L 344.882812 122.589844 C 344.285156 122.613281 343.8125 122.570312 343.8125 122.492188 Z M 357.355469 112.859375 C 357.355469 112.832031 356.460938 110.367188 355.367188 107.375 C 354.269531 104.382812 353.339844 101.835938 353.296875 101.714844 C 353.222656 101.519531 353.203125 101.519531 353.097656 101.714844 C 352.96875 101.945312 349.261719 112.691406 349.261719 112.824219 C 349.261719 112.867188 351.082031 112.902344 353.308594 112.902344 C 355.535156 112.902344 357.355469 112.882812 357.355469 112.859375 Z M 368.808594 111.097656 C 368.769531 100.550781 368.746094 99.542969 368.511719 99.121094 C 368.246094 98.632812 367.550781 98.277344 366.546875 98.109375 C 365.113281 97.875 365.140625 97.886719 365.1875 97.46875 L 365.234375 97.078125 L 368.617188 96.679688 C 370.480469 96.460938 372.1875 96.28125 372.410156 96.277344 L 372.8125 96.269531 L 372.8125 108.265625 C 372.8125 122.105469 372.644531 120.746094 374.378906 120.933594 C 375.652344 121.070312 379.929688 120.917969 380.636719 120.710938 C 381.769531 120.375 382.488281 119.390625 382.636719 117.960938 C 382.71875 117.171875 382.71875 117.171875 383.230469 117.171875 C 383.6875 117.171875 383.730469 117.207031 383.652344 117.503906 C 383.605469 117.683594 383.5625 118.910156 383.5625 120.226562 L 383.558594 122.617188 L 368.847656 122.617188 Z M 388.679688 110.878906 C 388.640625 100.125 388.617188 99.101562 388.386719 98.679688 C 388.101562 98.15625 387.472656 97.859375 386.085938 97.585938 C 385.214844 97.414062 385.164062 97.382812 385.207031 97.019531 L 385.253906 96.636719 L 402.621094 96.636719 L 402.664062 99.46875 L 402.703125 102.304688 L 402.277344 102.304688 C 401.875 102.304688 401.84375 102.261719 401.75 101.542969 C 401.546875 100.007812 400.929688 99.113281 399.765625 98.664062 C 399.207031 98.449219 398.617188 98.402344 396.367188 98.402344 C 393.433594 98.402344 393.085938 98.476562 392.828125 99.15625 C 392.75 99.359375 392.6875 101.472656 392.6875 103.859375 L 392.6875 108.191406 L 395.300781 108.1875 C 397.527344 108.1875 398 108.144531 398.515625 107.910156 C 399.257812 107.574219 399.707031 106.964844 399.941406 105.988281 C 400.105469 105.285156 400.140625 105.25 400.597656 105.25 L 401.078125 105.25 L 401.078125 113.363281 L 400.597656 113.316406 C 400.140625 113.273438 400.117188 113.238281 400.03125 112.527344 C 399.878906 111.28125 399.40625 110.609375 398.390625 110.183594 C 397.972656 110.011719 397.257812 109.957031 395.265625 109.957031 L 392.6875 109.957031 L 392.6875 114.898438 C 392.6875 120.109375 392.730469 120.5 393.378906 120.785156 C 393.8125 120.972656 398.585938 121.042969 399.648438 120.878906 C 400.195312 120.792969 400.828125 120.585938 401.066406 120.417969 C 401.628906 120.019531 402.105469 119.003906 402.210938 117.988281 C 402.296875 117.175781 402.296875 117.171875 402.789062 117.171875 L 403.285156 117.171875 L 403.285156 118.902344 C 403.285156 119.851562 403.242188 121.078125 403.1875 121.625 L 403.09375 122.617188 L 388.71875 122.617188 Z M 246.363281 77.710938 C 245.234375 77.574219 243.484375 77.238281 242.5 76.976562 L 241.949219 76.828125 L 241.949219 73.792969 L 243.476562 74.558594 C 245.488281 75.566406 247.082031 76 248.792969 76.011719 C 250.902344 76.023438 252.148438 75.421875 252.914062 74.019531 C 253.273438 73.363281 253.351562 73.015625 253.40625 71.9375 C 253.535156 69.246094 252.617188 68.125 248.277344 65.648438 C 245.613281 64.128906 244.601562 63.417969 243.550781 62.3125 C 242.269531 60.96875 241.65625 59.460938 241.65625 57.675781 C 241.65625 54.472656 243.449219 52.15625 246.59375 51.304688 C 248.421875 50.808594 251.902344 50.863281 254.683594 51.425781 L 255.566406 51.601562 L 255.609375 52.960938 C 255.632812 53.707031 255.609375 54.316406 255.5625 54.316406 C 255.515625 54.316406 255.003906 54.113281 254.425781 53.867188 C 252.199219 52.921875 249.367188 52.464844 248.007812 52.835938 C 247.140625 53.070312 246.15625 54.003906 245.859375 54.867188 C 245.59375 55.652344 245.574219 57.125 245.824219 57.800781 C 246.328125 59.164062 247.589844 60.296875 250.25 61.769531 C 255.875 64.882812 257.398438 66.6875 257.402344 70.242188 C 257.410156 74.019531 255.476562 76.46875 251.742188 77.425781 C 250.425781 77.761719 247.875 77.898438 246.363281 77.710938 Z M 269.183594 77.707031 C 264.558594 77.113281 261.890625 74.042969 261.007812 68.300781 C 260.679688 66.167969 260.71875 61.6875 261.082031 59.558594 C 261.878906 54.910156 263.984375 52.273438 267.710938 51.265625 C 269.058594 50.898438 272.695312 50.902344 274.039062 51.265625 C 276.191406 51.851562 277.695312 52.957031 278.445312 54.507812 C 278.6875 55.011719 278.929688 55.667969 278.980469 55.972656 L 279.078125 56.523438 L 274.785156 56.523438 L 274.617188 55.898438 C 274.375 54.996094 273.988281 54.308594 273.425781 53.78125 C 272.527344 52.9375 272.046875 52.769531 270.507812 52.769531 C 269.273438 52.769531 269.019531 52.816406 268.355469 53.167969 C 266.882812 53.945312 265.769531 55.65625 265.214844 58.011719 C 264.605469 60.589844 264.492188 64.464844 264.933594 67.691406 C 265.722656 73.476562 268.558594 76.429688 272.953125 76.039062 C 274.773438 75.878906 276.800781 75.1875 278.050781 74.304688 L 278.457031 74.019531 L 278.457031 76.390625 L 277.941406 76.605469 C 277.050781 76.980469 274.460938 77.558594 272.976562 77.714844 C 271.367188 77.886719 270.566406 77.886719 269.183594 77.707031 Z M 290.40625 77.710938 C 286.835938 77.246094 284.824219 75.546875 283.953125 72.25 C 283.738281 71.449219 283.691406 70.109375 283.621094 62.707031 C 283.554688 56.109375 283.488281 54.015625 283.347656 53.765625 C 283.074219 53.289062 282.457031 53.015625 281.148438 52.796875 C 280.078125 52.617188 280 52.578125 279.957031 52.21875 C 279.914062 51.867188 279.964844 51.824219 280.542969 51.746094 C 281.324219 51.636719 287.320312 50.929688 287.464844 50.929688 C 287.519531 50.929688 287.589844 55.515625 287.621094 61.125 C 287.675781 71.855469 287.679688 71.894531 288.359375 73.480469 C 288.710938 74.304688 289.707031 75.292969 290.566406 75.671875 C 291.199219 75.949219 291.601562 76.011719 292.808594 76.015625 C 295.835938 76.03125 297.339844 74.945312 298.09375 72.199219 C 298.355469 71.242188 298.382812 70.476562 298.4375 61.269531 L 298.5 51.371094 L 300.996094 51.371094 L 300.9375 61.195312 C 300.875 71.714844 300.875 71.714844 300.097656 73.78125 C 299.730469 74.757812 298.605469 76.074219 297.671875 76.621094 C 295.9375 77.636719 293.113281 78.0625 290.40625 77.710938 Z M 314.542969 77.71875 C 311.921875 77.351562 309.796875 76.113281 308.546875 74.234375 C 307.207031 72.214844 306.601562 69.699219 306.472656 65.574219 C 306.136719 55.015625 309.359375 50.617188 317.171875 50.96875 C 319.988281 51.097656 321.816406 51.863281 323.417969 53.597656 C 325.34375 55.675781 326.296875 59.28125 326.296875 64.492188 C 326.296875 72.191406 324.132812 76.308594 319.460938 77.496094 C 318.367188 77.773438 315.777344 77.890625 314.542969 77.71875 Z M 318.640625 75.644531 C 319.546875 75.257812 320.671875 74.085938 321.171875 73.011719 C 322.023438 71.191406 322.320312 68.972656 322.320312 64.472656 C 322.320312 60.976562 322.171875 59.242188 321.726562 57.503906 C 321.183594 55.382812 320.171875 53.925781 318.722656 53.164062 C 318.054688 52.816406 317.820312 52.777344 316.433594 52.777344 C 315.097656 52.777344 314.789062 52.828125 314.152344 53.136719 C 312.183594 54.097656 310.988281 56.34375 310.550781 59.90625 C 310.355469 61.519531 310.355469 66.988281 310.550781 68.597656 C 311.074219 72.851562 312.519531 75.179688 315.097656 75.910156 C 316.007812 76.167969 317.726562 76.039062 318.640625 75.644531 Z M 332.183594 66.496094 C 332.183594 60.183594 332.125 55.199219 332.042969 54.699219 C 331.824219 53.375 331.480469 53.105469 329.609375 52.78125 C 328.664062 52.621094 328.574219 52.574219 328.535156 52.222656 C 328.480469 51.773438 328.316406 51.8125 332.183594 51.375 C 333.601562 51.214844 335.042969 51.042969 335.386719 50.996094 L 336.011719 50.910156 L 336.019531 62.292969 C 336.027344 68.550781 336.082031 73.992188 336.148438 74.382812 C 336.347656 75.609375 336.277344 75.585938 340.25 75.585938 C 343.449219 75.585938 343.789062 75.5625 344.320312 75.292969 C 345.246094 74.824219 345.734375 74.085938 345.921875 72.875 C 346.082031 71.871094 346.101562 71.832031 346.496094 71.832031 L 346.90625 71.832031 L 346.90625 77.425781 L 332.183594 77.425781 Z M 349.992188 75.328125 C 350.382812 74.175781 351.941406 69.621094 353.460938 65.207031 C 354.980469 60.796875 356.414062 56.589844 356.648438 55.859375 C 357.46875 53.316406 357.203125 52.691406 355.113281 52.261719 C 354.363281 52.105469 354.265625 52.046875 354.265625 51.730469 L 354.265625 51.371094 L 361.144531 51.371094 L 363.609375 58.621094 C 364.964844 62.609375 366.960938 68.472656 368.039062 71.648438 L 370.003906 77.425781 L 366.257812 77.425781 L 364.925781 73.414062 L 363.589844 69.402344 L 358.890625 69.363281 L 354.1875 69.328125 L 353.398438 71.71875 C 352.960938 73.039062 352.34375 74.859375 352.023438 75.769531 L 351.4375 77.425781 L 349.28125 77.425781 Z M 362.523438 66.421875 C 362.296875 65.796875 361.359375 63.238281 360.445312 60.746094 C 359.460938 58.066406 358.738281 56.285156 358.671875 56.402344 C 358.5625 56.605469 354.855469 67.378906 354.855469 67.496094 C 354.855469 67.535156 356.675781 67.5625 358.898438 67.5625 L 362.945312 67.5625 Z M 99.769531 38.542969 C 99.695312 38.351562 97.730469 33.527344 95.40625 27.820312 C 93.078125 22.109375 91.144531 17.335938 91.109375 17.207031 C 91.0625 17.039062 91.257812 16.894531 91.851562 16.675781 L 92.65625 16.378906 L 93.0625 17.351562 C 95.9375 24.234375 101.113281 30.835938 104.105469 31.433594 C 104.726562 31.558594 105.3125 31.035156 105.96875 29.773438 C 107.5625 26.695312 108.085938 22.136719 107.613281 15.417969 L 107.53125 14.277344 L 109.304688 14.277344 L 109.449219 14.828125 C 109.53125 15.132812 109.730469 15.914062 109.894531 16.570312 C 110.683594 19.703125 112.3125 23.746094 113.453125 25.410156 C 114.976562 27.636719 116.886719 28.945312 118.046875 28.5625 C 118.582031 28.386719 119.40625 27.59375 119.882812 26.789062 C 120.324219 26.046875 120.886719 24.273438 121.171875 22.738281 C 121.464844 21.15625 121.617188 16.027344 121.429688 14.003906 C 121.339844 13.0625 121.347656 12.605469 121.453125 12.566406 C 121.539062 12.535156 121.933594 12.492188 122.328125 12.472656 L 123.042969 12.4375 L 123.546875 14.347656 C 124.378906 17.507812 125.785156 21.535156 126.710938 23.410156 C 127.394531 24.800781 127.773438 25.375 128.496094 26.105469 C 129.730469 27.363281 130.433594 27.601562 132.476562 27.460938 C 134.269531 27.339844 134.589844 27.152344 135.214844 25.863281 C 135.789062 24.683594 136.007812 23.253906 135.890625 21.488281 C 135.707031 18.71875 135.242188 16.894531 134.0625 14.355469 C 133.726562 13.628906 133.34375 12.671875 133.214844 12.226562 C 132.773438 10.710938 133.222656 8.300781 134.417969 5.773438 C 135.382812 3.726562 136.324219 2.484375 137.375 1.867188 C 137.644531 1.710938 138.726562 2.621094 139.40625 3.582031 C 140.65625 5.34375 141.636719 7.714844 141.996094 9.839844 C 142.238281 11.292969 142.046875 12.210938 141.03125 14.425781 C 140.054688 16.566406 139.5625 18.214844 139.359375 20.066406 C 139.035156 22.96875 139.265625 24.960938 140.082031 26.246094 C 140.707031 27.234375 140.988281 27.363281 142.757812 27.472656 C 144.214844 27.558594 144.355469 27.542969 145.132812 27.1875 C 146.78125 26.433594 147.894531 24.882812 149.289062 21.414062 C 150.074219 19.457031 151.457031 15.050781 151.871094 13.195312 L 152.058594 12.335938 L 152.878906 12.4375 C 153.332031 12.492188 153.722656 12.558594 153.746094 12.582031 C 153.773438 12.609375 153.722656 13.746094 153.632812 15.109375 C 153.214844 21.582031 154.460938 27.0625 156.648438 28.34375 C 157.410156 28.789062 157.628906 28.789062 158.613281 28.328125 C 161.222656 27.117188 163.625 22.777344 165.3125 16.230469 L 165.796875 14.347656 L 166.710938 14.304688 L 167.621094 14.261719 L 167.511719 15.042969 C 167.449219 15.46875 167.398438 17.476562 167.398438 19.5 C 167.398438 24.597656 167.871094 27.410156 169.121094 29.773438 C 169.601562 30.683594 170.402344 31.5 170.816406 31.5 C 171.480469 31.5 172.953125 30.582031 174.171875 29.410156 C 177.246094 26.460938 180.15625 21.941406 182.234375 16.894531 L 182.460938 16.34375 L 183.242188 16.660156 C 183.671875 16.835938 184.042969 16.992188 184.070312 17.011719 C 184.097656 17.027344 183.875 17.628906 183.578125 18.347656 C 183.28125 19.0625 181.285156 23.953125 179.140625 29.214844 C 177 34.472656 175.234375 38.792969 175.21875 38.804688 C 175.203125 38.820312 174.03125 38.507812 172.617188 38.109375 C 160.734375 34.769531 145.324219 32.90625 133.644531 33.398438 C 122.539062 33.867188 111.410156 35.570312 102.109375 38.222656 C 101.101562 38.507812 100.191406 38.777344 100.089844 38.816406 C 99.984375 38.855469 99.839844 38.734375 99.769531 38.542969 Z M 104.019531 35.867188 C 112.699219 33.597656 123.054688 32.09375 133.164062 31.636719 C 145.082031 31.097656 160.839844 32.96875 173.035156 36.371094 C 173.628906 36.539062 174.140625 36.648438 174.171875 36.617188 C 174.242188 36.546875 177.328125 28.976562 177.328125 28.875 C 177.328125 28.835938 176.734375 29.410156 176.007812 30.152344 C 173.410156 32.804688 171.171875 33.75 169.519531 32.894531 C 168.394531 32.3125 167.199219 30.335938 166.515625 27.9375 C 166.121094 26.550781 165.699219 23.972656 165.695312 22.941406 C 165.691406 21.503906 165.550781 21.53125 164.886719 23.09375 C 163.449219 26.472656 161.652344 28.726562 159.460938 29.894531 C 158.714844 30.292969 158.390625 30.378906 157.601562 30.386719 C 154.746094 30.40625 152.78125 27.394531 152.039062 21.859375 L 151.785156 19.945312 L 150.921875 22.109375 C 149.394531 25.945312 148.03125 27.789062 146.015625 28.742188 C 145.027344 29.210938 144.992188 29.21875 142.9375 29.195312 C 141.171875 29.175781 140.777344 29.128906 140.277344 28.871094 C 139.308594 28.378906 138.269531 26.996094 137.878906 25.683594 C 137.785156 25.359375 137.671875 24.996094 137.628906 24.875 C 137.585938 24.75 137.445312 25.003906 137.296875 25.464844 C 136.789062 27.078125 136.015625 28.191406 134.988281 28.792969 C 134.375 29.152344 134.21875 29.175781 132.167969 29.195312 C 130.054688 29.214844 129.976562 29.207031 129.117188 28.789062 C 128.550781 28.511719 127.859375 27.980469 127.183594 27.300781 C 126.316406 26.425781 125.976562 25.929688 125.257812 24.488281 C 124.777344 23.527344 124.15625 22.109375 123.878906 21.339844 L 123.378906 19.941406 L 123.277344 20.53125 C 123.21875 20.855469 123.066406 21.839844 122.933594 22.71875 C 122.5 25.609375 121.574219 27.890625 120.328125 29.140625 C 119.402344 30.066406 118.695312 30.382812 117.5625 30.382812 C 116.8125 30.382812 116.417969 30.292969 115.75 29.96875 C 114.734375 29.480469 113.375 28.253906 112.375 26.933594 C 111.714844 26.0625 110.25 23.347656 109.757812 22.078125 L 109.558594 21.5625 L 109.511719 22.078125 C 109.296875 24.535156 109.085938 26.039062 108.789062 27.230469 C 107.726562 31.441406 105.980469 33.535156 103.816406 33.1875 C 102.351562 32.949219 101.09375 32.132812 99.125 30.144531 C 98.339844 29.347656 97.753906 28.847656 97.824219 29.03125 C 97.894531 29.214844 98.5625 30.855469 99.308594 32.675781 C 100.054688 34.496094 100.726562 36.144531 100.800781 36.335938 C 100.886719 36.570312 101.015625 36.660156 101.1875 36.613281 C 101.328125 36.574219 102.601562 36.238281 104.019531 35.867188 Z M 137.867188 18.15625 C 138.140625 16.8125 138.742188 15.132812 139.730469 12.949219 C 140.214844 11.882812 140.296875 11.5625 140.277344 10.742188 C 140.246094 9.132812 139.203125 6.34375 138.027344 4.730469 C 137.566406 4.101562 137.554688 4.097656 137.261719 4.363281 C 136.738281 4.835938 135.398438 7.785156 135.066406 9.199219 C 134.65625 10.929688 134.734375 11.53125 135.589844 13.398438 C 136.492188 15.363281 137.070312 17.070312 137.304688 18.464844 C 137.40625 19.070312 137.515625 19.542969 137.542969 19.515625 C 137.574219 19.484375 137.71875 18.875 137.867188 18.15625 Z M 132.363281 24.972656 C 132.074219 24.757812 132.066406 24.65625 132.214844 22.59375 C 132.355469 20.671875 131.835938 18.84375 130.90625 17.972656 C 130.558594 17.648438 130.480469 17.636719 129.867188 17.789062 C 128.769531 18.066406 127.589844 17.996094 126.75 17.605469 C 125.519531 17.03125 124.953125 16.078125 124.816406 14.339844 C 124.683594 12.609375 125.371094 11.539062 126.992188 10.957031 C 128.953125 10.253906 130.894531 11.257812 132.632812 13.882812 C 133.605469 15.34375 134.101562 16.433594 134.585938 18.175781 C 135.027344 19.777344 135.214844 22.46875 134.9375 23.308594 C 134.703125 24.023438 134.101562 24.71875 133.507812 24.96875 C 132.90625 25.21875 132.703125 25.21875 132.363281 24.972656 Z M 131.714844 15.71875 C 130.65625 13.882812 129.195312 12.507812 128.300781 12.507812 C 127.734375 12.507812 126.875 12.898438 126.691406 13.234375 C 126.289062 13.988281 126.726562 15.609375 127.433594 15.972656 C 127.941406 16.234375 128.425781 16.242188 129.789062 16.011719 C 130.761719 15.84375 130.867188 15.851562 131.371094 16.140625 C 132.167969 16.597656 132.203125 16.558594 131.714844 15.71875 Z M 141.628906 24.960938 C 140.015625 24.242188 139.625 22 140.511719 18.496094 C 141.410156 14.945312 143.265625 12.171875 145.503906 11.046875 C 147.058594 10.261719 149.414062 11.042969 150.105469 12.566406 C 150.601562 13.652344 150.378906 15.492188 149.617188 16.644531 C 149.117188 17.394531 147.90625 17.957031 146.792969 17.953125 C 146.300781 17.949219 145.601562 17.878906 145.234375 17.796875 C 144.589844 17.648438 144.5625 17.65625 144.113281 18.144531 C 143.359375 18.96875 142.984375 20.160156 142.96875 21.785156 C 142.960938 22.550781 143.011719 23.488281 143.078125 23.867188 C 143.1875 24.464844 143.164062 24.589844 142.894531 24.859375 C 142.539062 25.214844 142.25 25.238281 141.628906 24.960938 Z M 143.804688 16.121094 C 144.308594 15.863281 144.457031 15.851562 145.390625 16.011719 C 146.734375 16.242188 147.222656 16.234375 147.726562 15.972656 C 148.386719 15.632812 148.839844 14.136719 148.53125 13.324219 C 148.40625 13.003906 147.410156 12.507812 146.886719 12.507812 C 146.296875 12.507812 145.191406 13.28125 144.484375 14.1875 C 143.820312 15.039062 142.90625 16.558594 143.113281 16.464844 C 143.1875 16.429688 143.5 16.273438 143.804688 16.121094 Z M 143.804688 16.121094 " fill-opacity="1" fill-rule="nonzero"/></g></svg>