<svg xmlns="http://www.w3.org/2000/svg" xmlns:xlink="http://www.w3.org/1999/xlink" width="370" zoomAndPan="magnify" viewBox="0 0 277.5 220.499993" height="294" preserveAspectRatio="xMidYMid meet" version="1.0"><defs><filter x="0%" y="0%" width="100%" height="100%" id="f2f78121ab"><feColorMatrix values="0 0 0 0 1 0 0 0 0 1 0 0 0 0 1 0 0 0 1 0" color-interpolation-filters="sRGB"/></filter><clipPath id="a264a8cc0b"><path d="M 0.0664062 0 L 276.9375 0 L 276.9375 220 L 0.0664062 220 Z M 0.0664062 0 " clip-rule="nonzero"/></clipPath><mask id="59e12af87d"><g filter="url(#f2f78121ab)"><rect x="-27.75" width="333" fill="#000000" y="-22.049999" height="264.599992" fill-opacity="0.804"/></g></mask><clipPath id="d3758cba23"><path d="M 1 0.0703125 L 17 0.0703125 L 17 13 L 1 13 Z M 1 0.0703125 " clip-rule="nonzero"/></clipPath><clipPath id="bae6f392fa"><rect x="0" width="18" y="0" height="14"/></clipPath><mask id="88af23db97"><g filter="url(#f2f78121ab)"><rect x="-27.75" width="333" fill="#000000" y="-22.049999" height="264.599992" fill-opacity="0.798"/></g></mask><clipPath id="1909e17733"><path d="M 1 1 L 18.609375 1 L 18.609375 15.636719 L 1 15.636719 Z M 1 1 " clip-rule="nonzero"/></clipPath><clipPath id="670f52ade8"><rect x="0" width="19" y="0" height="16"/></clipPath><mask id="95f42f0d91"><g filter="url(#f2f78121ab)"><rect x="-27.75" width="333" fill="#000000" y="-22.049999" height="264.599992" fill-opacity="0.803"/></g></mask><clipPath id="15496301e3"><path d="M 0.273438 0.269531 L 12.246094 0.269531 L 12.246094 13.917969 L 0.273438 13.917969 Z M 0.273438 0.269531 " clip-rule="nonzero"/></clipPath><clipPath id="0b0a9fa0ec"><rect x="0" width="13" y="0" height="14"/></clipPath><mask id="399d77430e"><g filter="url(#f2f78121ab)"><rect x="-27.75" width="333" fill="#000000" y="-22.049999" height="264.599992" fill-opacity="0.8"/></g></mask><clipPath id="144ddd9aff"><path d="M 0.445312 1 L 12.898438 1 L 12.898438 15.75 L 0.445312 15.75 Z M 0.445312 1 " clip-rule="nonzero"/></clipPath><clipPath id="76971b735b"><rect x="0" width="13" y="0" height="16"/></clipPath><mask id="741a4ec687"><g filter="url(#f2f78121ab)"><rect x="-27.75" width="333" fill="#000000" y="-22.049999" height="264.599992" fill-opacity="0.787"/></g></mask><clipPath id="401a4c3819"><path d="M 0.480469 0.382812 L 13.410156 0.382812 L 13.410156 14.507812 L 0.480469 14.507812 Z M 0.480469 0.382812 " clip-rule="nonzero"/></clipPath><clipPath id="bbae2adee4"><rect x="0" width="14" y="0" height="15"/></clipPath><mask id="1ead2ed511"><g filter="url(#f2f78121ab)"><rect x="-27.75" width="333" fill="#000000" y="-22.049999" height="264.599992" fill-opacity="0.83"/></g></mask><clipPath id="326fa96931"><path d="M 1 0.410156 L 10.601562 0.410156 L 10.601562 13.820312 L 1 13.820312 Z M 1 0.410156 " clip-rule="nonzero"/></clipPath><clipPath id="725882985e"><rect x="0" width="11" y="0" height="14"/></clipPath><mask id="d67adacc5e"><g filter="url(#f2f78121ab)"><rect x="-27.75" width="333" fill="#000000" y="-22.049999" height="264.599992" fill-opacity="0.81"/></g></mask><clipPath id="177efe64f7"><path d="M 1 1 L 16.550781 1 L 16.550781 14.972656 L 1 14.972656 Z M 1 1 " clip-rule="nonzero"/></clipPath><clipPath id="763c6645cc"><rect x="0" width="17" y="0" height="15"/></clipPath><mask id="11b582a97a"><g filter="url(#f2f78121ab)"><rect x="-27.75" width="333" fill="#000000" y="-22.049999" height="264.599992" fill-opacity="0.786"/></g></mask><clipPath id="9c69e06793"><path d="M 1 0.523438 L 17.773438 0.523438 L 17.773438 16.804688 L 1 16.804688 Z M 1 0.523438 " clip-rule="nonzero"/></clipPath><clipPath id="85beec19a4"><rect x="0" width="18" y="0" height="17"/></clipPath><mask id="172a98bb16"><g filter="url(#f2f78121ab)"><rect x="-27.75" width="333" fill="#000000" y="-22.049999" height="264.599992" fill-opacity="0.82"/></g></mask><clipPath id="2e8b5cd9eb"><path d="M 0.453125 1 L 13 1 L 13 13.480469 L 0.453125 13.480469 Z M 0.453125 1 " clip-rule="nonzero"/></clipPath><clipPath id="bb2336216f"><rect x="0" width="14" y="0" height="14"/></clipPath><mask id="6c3e66f392"><g filter="url(#f2f78121ab)"><rect x="-27.75" width="333" fill="#000000" y="-22.049999" height="264.599992" fill-opacity="0.779"/></g></mask><clipPath id="813d67bab8"><path d="M 0.265625 0.144531 L 14.632812 0.144531 L 14.632812 15 L 0.265625 15 Z M 0.265625 0.144531 " clip-rule="nonzero"/></clipPath><clipPath id="62dc0fcc8b"><rect x="0" width="15" y="0" height="16"/></clipPath><mask id="ed9a51ce55"><g filter="url(#f2f78121ab)"><rect x="-27.75" width="333" fill="#000000" y="-22.049999" height="264.599992" fill-opacity="0.808"/></g></mask><clipPath id="55302e1cd7"><path d="M 1 1 L 12.804688 1 L 12.804688 13.425781 L 1 13.425781 Z M 1 1 " clip-rule="nonzero"/></clipPath><clipPath id="5a1f5d4f69"><rect x="0" width="13" y="0" height="14"/></clipPath><mask id="8932f2335b"><g filter="url(#f2f78121ab)"><rect x="-27.75" width="333" fill="#000000" y="-22.049999" height="264.599992" fill-opacity="0.982"/></g></mask><clipPath id="37cd548176"><path d="M 0.734375 0.046875 L 137.703125 0.046875 L 137.703125 134 L 0.734375 134 Z M 0.734375 0.046875 " clip-rule="nonzero"/></clipPath><clipPath id="a288ef8d29"><rect x="0" width="138" y="0" height="135"/></clipPath><mask id="0844471448"><g filter="url(#f2f78121ab)"><rect x="-27.75" width="333" fill="#000000" y="-22.049999" height="264.599992" fill-opacity="0.785"/></g></mask><clipPath id="6d3bb1bb32"><path d="M 0.125 0.046875 L 17 0.046875 L 17 16.566406 L 0.125 16.566406 Z M 0.125 0.046875 " clip-rule="nonzero"/></clipPath><clipPath id="66d0127c4e"><rect x="0" width="18" y="0" height="17"/></clipPath><mask id="6fb317aff9"><g filter="url(#f2f78121ab)"><rect x="-27.75" width="333" fill="#000000" y="-22.049999" height="264.599992" fill-opacity="0.818"/></g></mask><clipPath id="4b8e755398"><path d="M 0.0546875 0.398438 L 15.378906 0.398438 L 15.378906 15.722656 L 0.0546875 15.722656 Z M 0.0546875 0.398438 " clip-rule="nonzero"/></clipPath><clipPath id="ddd60367f0"><rect x="0" width="16" y="0" height="16"/></clipPath><mask id="fcf11ddaad"><g filter="url(#f2f78121ab)"><rect x="-27.75" width="333" fill="#000000" y="-22.049999" height="264.599992" fill-opacity="0.792"/></g></mask><clipPath id="1f717ce60c"><path d="M 1 0.496094 L 15.519531 0.496094 L 15.519531 14.625 L 1 14.625 Z M 1 0.496094 " clip-rule="nonzero"/></clipPath><clipPath id="d758efc46a"><rect x="0" width="16" y="0" height="15"/></clipPath><mask id="4372f90348"><g filter="url(#f2f78121ab)"><rect x="-27.75" width="333" fill="#000000" y="-22.049999" height="264.599992" fill-opacity="0.796"/></g></mask><clipPath id="7c5ab42587"><path d="M 0.460938 1 L 14 1 L 14 11.75 L 0.460938 11.75 Z M 0.460938 1 " clip-rule="nonzero"/></clipPath><clipPath id="c5cf83198d"><rect x="0" width="15" y="0" height="12"/></clipPath><mask id="9238907317"><g filter="url(#f2f78121ab)"><rect x="-27.75" width="333" fill="#000000" y="-22.049999" height="264.599992" fill-opacity="0.807"/></g></mask><clipPath id="af3a925594"><path d="M 0.492188 0.441406 L 13.421875 0.441406 L 13.421875 11.695312 L 0.492188 11.695312 Z M 0.492188 0.441406 " clip-rule="nonzero"/></clipPath><clipPath id="97036c1a31"><rect x="0" width="14" y="0" height="12"/></clipPath><mask id="2f4805a38a"><g filter="url(#f2f78121ab)"><rect x="-27.75" width="333" fill="#000000" y="-22.049999" height="264.599992" fill-opacity="0.789"/></g></mask><clipPath id="175340cef7"><path d="M 0.449219 0.230469 L 15.292969 0.230469 L 15.292969 13.640625 L 0.449219 13.640625 Z M 0.449219 0.230469 " clip-rule="nonzero"/></clipPath><clipPath id="cc1358d49c"><rect x="0" width="16" y="0" height="14"/></clipPath><mask id="9f0c35214a"><g filter="url(#f2f78121ab)"><rect x="-27.75" width="333" fill="#000000" y="-22.049999" height="264.599992" fill-opacity="0.809"/></g></mask><clipPath id="753071ca44"><path d="M 0.5625 1 L 13.972656 1 L 13.972656 10.878906 L 0.5625 10.878906 Z M 0.5625 1 " clip-rule="nonzero"/></clipPath><clipPath id="090231d64a"><rect x="0" width="14" y="0" height="11"/></clipPath><mask id="6243f837c2"><g filter="url(#f2f78121ab)"><rect x="-27.75" width="333" fill="#000000" y="-22.049999" height="264.599992" fill-opacity="0.796"/></g></mask><clipPath id="e52f936fe9"><path d="M 0.0546875 0.398438 L 12.503906 0.398438 L 12.503906 10.9375 L 0.0546875 10.9375 Z M 0.0546875 0.398438 " clip-rule="nonzero"/></clipPath><clipPath id="9e1f560ae1"><rect x="0" width="13" y="0" height="11"/></clipPath><mask id="66f8ebc43d"><g filter="url(#f2f78121ab)"><rect x="-27.75" width="333" fill="#000000" y="-22.049999" height="264.599992" fill-opacity="0.787"/></g></mask><clipPath id="e63ac0f7bf"><path d="M 0.0703125 0.191406 L 14.4375 0.191406 L 14.4375 13 L 0.0703125 13 Z M 0.0703125 0.191406 " clip-rule="nonzero"/></clipPath><clipPath id="5108899bf8"><rect x="0" width="15" y="0" height="14"/></clipPath><mask id="0a41386981"><g filter="url(#f2f78121ab)"><rect x="-27.75" width="333" fill="#000000" y="-22.049999" height="264.599992" fill-opacity="0.793"/></g></mask><clipPath id="2ad83cb7e7"><path d="M 1 0.683594 L 13.433594 0.683594 L 13.433594 9.78125 L 1 9.78125 Z M 1 0.683594 " clip-rule="nonzero"/></clipPath><clipPath id="ec3af59329"><rect x="0" width="14" y="0" height="10"/></clipPath><mask id="9ef7121f38"><g filter="url(#f2f78121ab)"><rect x="-27.75" width="333" fill="#000000" y="-22.049999" height="264.599992" fill-opacity="0.803"/></g></mask><clipPath id="95af4c0a4a"><path d="M 0.660156 0.402344 L 14.789062 0.402344 L 14.789062 12.855469 L 0.660156 12.855469 Z M 0.660156 0.402344 " clip-rule="nonzero"/></clipPath><clipPath id="f716251aec"><rect x="0" width="15" y="0" height="13"/></clipPath><mask id="0efc6ec806"><g filter="url(#f2f78121ab)"><rect x="-27.75" width="333" fill="#000000" y="-22.049999" height="264.599992" fill-opacity="0.788"/></g></mask><clipPath id="2a383b6b37"><path d="M 0.0664062 0.261719 L 13 0.261719 L 13 13.433594 L 0.0664062 13.433594 Z M 0.0664062 0.261719 " clip-rule="nonzero"/></clipPath><clipPath id="b4311ef4bb"><rect x="0" width="13" y="0" height="14"/></clipPath><mask id="8e0818f4dc"><g filter="url(#f2f78121ab)"><rect x="-27.75" width="333" fill="#000000" y="-22.049999" height="264.599992" fill-opacity="0.842"/></g></mask><clipPath id="0a02477356"><path d="M 0.0976562 0.277344 L 12.789062 0.277344 L 12.789062 12 L 0.0976562 12 Z M 0.0976562 0.277344 " clip-rule="nonzero"/></clipPath><clipPath id="29b3edda8d"><rect x="0" width="13" y="0" height="13"/></clipPath><mask id="d746a93be2"><g filter="url(#f2f78121ab)"><rect x="-27.75" width="333" fill="#000000" y="-22.049999" height="264.599992" fill-opacity="0.833"/></g></mask><clipPath id="7f0250b5a4"><path d="M 0.347656 1 L 13.757812 1 L 13.757812 12.96875 L 0.347656 12.96875 Z M 0.347656 1 " clip-rule="nonzero"/></clipPath><clipPath id="f838b41f6d"><rect x="0" width="14" y="0" height="13"/></clipPath><mask id="6e7580dcb6"><g filter="url(#f2f78121ab)"><rect x="-27.75" width="333" fill="#000000" y="-22.049999" height="264.599992" fill-opacity="0.798"/></g></mask><clipPath id="cbc4e397d5"><path d="M 0.183594 0.0117188 L 13.59375 0.0117188 L 13.59375 11.265625 L 0.183594 11.265625 Z M 0.183594 0.0117188 " clip-rule="nonzero"/></clipPath><clipPath id="ad376e56b0"><rect x="0" width="14" y="0" height="12"/></clipPath><mask id="10897e4902"><g filter="url(#f2f78121ab)"><rect x="-27.75" width="333" fill="#000000" y="-22.049999" height="264.599992" fill-opacity="0.834"/></g></mask><clipPath id="9559e911ed"><path d="M 1 0.207031 L 13.714844 0.207031 L 13.714844 7.628906 L 1 7.628906 Z M 1 0.207031 " clip-rule="nonzero"/></clipPath><clipPath id="c02b065c15"><rect x="0" width="14" y="0" height="8"/></clipPath><mask id="204a9eee27"><g filter="url(#f2f78121ab)"><rect x="-27.75" width="333" fill="#000000" y="-22.049999" height="264.599992" fill-opacity="0.795"/></g></mask><clipPath id="6feeb7b605"><path d="M 0.222656 0.390625 L 13 0.390625 L 13 9.730469 L 0.222656 9.730469 Z M 0.222656 0.390625 " clip-rule="nonzero"/></clipPath><clipPath id="2702c71c22"><rect x="0" width="14" y="0" height="10"/></clipPath><mask id="22347140a3"><g filter="url(#f2f78121ab)"><rect x="-27.75" width="333" fill="#000000" y="-22.049999" height="264.599992" fill-opacity="0.808"/></g></mask><clipPath id="26da8c12fc"><path d="M 0.308594 1 L 13.480469 1 L 13.480469 13.152344 L 0.308594 13.152344 Z M 0.308594 1 " clip-rule="nonzero"/></clipPath><clipPath id="5c6bbbb95a"><rect x="0" width="14" y="0" height="14"/></clipPath><mask id="03dbee9e60"><g filter="url(#f2f78121ab)"><rect x="-27.75" width="333" fill="#000000" y="-22.049999" height="264.599992" fill-opacity="0.824"/></g></mask><clipPath id="3a70615300"><path d="M 1 0.0546875 L 14.464844 0.0546875 L 14.464844 14.898438 L 1 14.898438 Z M 1 0.0546875 " clip-rule="nonzero"/></clipPath><clipPath id="791aa92d3f"><rect x="0" width="15" y="0" height="15"/></clipPath><mask id="5dd8733bd7"><g filter="url(#f2f78121ab)"><rect x="-27.75" width="333" fill="#000000" y="-22.049999" height="264.599992" fill-opacity="0.813"/></g></mask><clipPath id="a4209db134"><path d="M 1 0.195312 L 14 0.195312 L 14 10 L 1 10 Z M 1 0.195312 " clip-rule="nonzero"/></clipPath><clipPath id="efa19bccd9"><rect x="0" width="15" y="0" height="11"/></clipPath><mask id="5a23f08a87"><g filter="url(#f2f78121ab)"><rect x="-27.75" width="333" fill="#000000" y="-22.049999" height="264.599992" fill-opacity="0.771"/></g></mask><clipPath id="982855ee4e"><path d="M 0.644531 0.503906 L 15.492188 0.503906 L 15.492188 14.394531 L 0.644531 14.394531 Z M 0.644531 0.503906 " clip-rule="nonzero"/></clipPath><clipPath id="26388cc577"><rect x="0" width="16" y="0" height="15"/></clipPath><mask id="b655899f08"><g filter="url(#f2f78121ab)"><rect x="-27.75" width="333" fill="#000000" y="-22.049999" height="264.599992" fill-opacity="0.789"/></g></mask><clipPath id="6c60ecc146"><path d="M 0.449219 0.140625 L 15.535156 0.140625 L 15.535156 13.789062 L 0.449219 13.789062 Z M 0.449219 0.140625 " clip-rule="nonzero"/></clipPath><clipPath id="fcb44f14f2"><rect x="0" width="16" y="0" height="14"/></clipPath><mask id="469796f609"><g filter="url(#f2f78121ab)"><rect x="-27.75" width="333" fill="#000000" y="-22.049999" height="264.599992" fill-opacity="0.782"/></g></mask><clipPath id="ecc1876d28"><path d="M 0.265625 0.71875 L 17 0.71875 L 17 17.71875 L 0.265625 17.71875 Z M 0.265625 0.71875 " clip-rule="nonzero"/></clipPath><clipPath id="49bd0a2a80"><rect x="0" width="18" y="0" height="18"/></clipPath><mask id="e7b59c1210"><g filter="url(#f2f78121ab)"><rect x="-27.75" width="333" fill="#000000" y="-22.049999" height="264.599992" fill-opacity="0.794"/></g></mask><clipPath id="ca6bf7f77b"><path d="M 0.675781 0.394531 L 14.800781 0.394531 L 14.800781 12 L 0.675781 12 Z M 0.675781 0.394531 " clip-rule="nonzero"/></clipPath><clipPath id="61e6a63070"><rect x="0" width="15" y="0" height="13"/></clipPath><mask id="8c51c42cca"><g filter="url(#f2f78121ab)"><rect x="-27.75" width="333" fill="#000000" y="-22.049999" height="264.599992" fill-opacity="0.806"/></g></mask><clipPath id="27b3a3685f"><path d="M 1 0.140625 L 13.507812 0.140625 L 13.507812 12 L 1 12 Z M 1 0.140625 " clip-rule="nonzero"/></clipPath><clipPath id="da6a824921"><rect x="0" width="14" y="0" height="13"/></clipPath><mask id="ac17b03474"><g filter="url(#f2f78121ab)"><rect x="-27.75" width="333" fill="#000000" y="-22.049999" height="264.599992" fill-opacity="0.796"/></g></mask><clipPath id="f4851ee91b"><rect x="0" width="13" y="0" height="15"/></clipPath><mask id="4dfabbb4f9"><g filter="url(#f2f78121ab)"><rect x="-27.75" width="333" fill="#000000" y="-22.049999" height="264.599992" fill-opacity="0.798"/></g></mask><clipPath id="2189bc2238"><path d="M 1 0.128906 L 18 0.128906 L 18 16.890625 L 1 16.890625 Z M 1 0.128906 " clip-rule="nonzero"/></clipPath><clipPath id="7242414507"><rect x="0" width="19" y="0" height="17"/></clipPath><mask id="babf3f1b61"><g filter="url(#f2f78121ab)"><rect x="-27.75" width="333" fill="#000000" y="-22.049999" height="264.599992" fill-opacity="0.803"/></g></mask><clipPath id="aab07c1473"><path d="M 0.292969 0.199219 L 12 0.199219 L 12 12.890625 L 0.292969 12.890625 Z M 0.292969 0.199219 " clip-rule="nonzero"/></clipPath><clipPath id="a4add87f38"><rect x="0" width="13" y="0" height="13"/></clipPath><mask id="6ad4c12f1d"><g filter="url(#f2f78121ab)"><rect x="-27.75" width="333" fill="#000000" y="-22.049999" height="264.599992" fill-opacity="0.786"/></g></mask><clipPath id="c7a1744342"><path d="M 1 0.226562 L 12 0.226562 L 12 13.875 L 1 13.875 Z M 1 0.226562 " clip-rule="nonzero"/></clipPath><clipPath id="43f246ff51"><rect x="0" width="13" y="0" height="14"/></clipPath><mask id="0172aa57a3"><g filter="url(#f2f78121ab)"><rect x="-27.75" width="333" fill="#000000" y="-22.049999" height="264.599992" fill-opacity="0.779"/></g></mask><clipPath id="7bd5150d32"><path d="M 0.378906 0.425781 L 14.988281 0.425781 L 14.988281 15 L 0.378906 15 Z M 0.378906 0.425781 " clip-rule="nonzero"/></clipPath><clipPath id="36278b184f"><rect x="0" width="15" y="0" height="16"/></clipPath><mask id="c075cc408d"><g filter="url(#f2f78121ab)"><rect x="-27.75" width="333" fill="#000000" y="-22.049999" height="264.599992" fill-opacity="0.789"/></g></mask><clipPath id="ced6d2a57c"><path d="M 0.230469 1 L 10.527344 1 L 10.527344 18.667969 L 0.230469 18.667969 Z M 0.230469 1 " clip-rule="nonzero"/></clipPath><clipPath id="c9f5bc6104"><rect x="0" width="11" y="0" height="19"/></clipPath><mask id="f88f9903f9"><g filter="url(#f2f78121ab)"><rect x="-27.75" width="333" fill="#000000" y="-22.049999" height="264.599992" fill-opacity="0.799"/></g></mask><clipPath id="7881874136"><path d="M 0.289062 1 L 9 1 L 9 17.46875 L 0.289062 17.46875 Z M 0.289062 1 " clip-rule="nonzero"/></clipPath><clipPath id="d819c0cb1b"><rect x="0" width="10" y="0" height="18"/></clipPath><mask id="c7d69a2358"><g filter="url(#f2f78121ab)"><rect x="-27.75" width="333" fill="#000000" y="-22.049999" height="264.599992" fill-opacity="0.738"/></g></mask><clipPath id="8b92c67afb"><path d="M 0.230469 0.664062 L 7 0.664062 L 7 11.441406 L 0.230469 11.441406 Z M 0.230469 0.664062 " clip-rule="nonzero"/></clipPath><clipPath id="ba0eb08e71"><rect x="0" width="8" y="0" height="12"/></clipPath><mask id="417eaf8730"><g filter="url(#f2f78121ab)"><rect x="-27.75" width="333" fill="#000000" y="-22.049999" height="264.599992" fill-opacity="0.777"/></g></mask><clipPath id="127225eec5"><path d="M 0.0898438 0.664062 L 7 0.664062 L 7 11.441406 L 0.0898438 11.441406 Z M 0.0898438 0.664062 " clip-rule="nonzero"/></clipPath><clipPath id="edefaf7233"><rect x="0" width="8" y="0" height="12"/></clipPath></defs><g clip-path="url(#a264a8cc0b)"><path fill="#ffffff" d="M 0.0664062 0 L 276.9375 0 L 276.9375 220 L 0.0664062 220 Z M 0.0664062 0 " fill-opacity="1" fill-rule="nonzero"/><path fill="#16436f" d="M 0.0664062 0 L 276.9375 0 L 276.9375 220 L 0.0664062 220 Z M 0.0664062 0 " fill-opacity="1" fill-rule="nonzero"/></g><g mask="url(#59e12af87d)"><g transform="matrix(1, 0, 0, 1, 135, 4)"><g clip-path="url(#bae6f392fa)"><g clip-path="url(#d3758cba23)"><path fill="#ffffff" d="M 1.863281 0.390625 C 3.382812 0.285156 4.867188 0.402344 6.316406 0.746094 C 7.265625 3.355469 8.210938 5.96875 9.164062 8.578125 C 10.257812 6.191406 11.386719 3.816406 12.546875 1.457031 C 13.953125 1.105469 15.375 0.984375 16.816406 1.101562 C 16.816406 1.457031 16.816406 1.8125 16.816406 2.167969 C 16.34375 2.167969 15.867188 2.167969 15.394531 2.167969 C 15.449219 4.730469 15.328125 7.28125 15.039062 9.824219 C 14.761719 11.105469 15.234375 11.757812 16.460938 11.785156 C 16.460938 12.140625 16.460938 12.496094 16.460938 12.851562 C 14.695312 12.582031 12.914062 12.464844 11.121094 12.496094 C 11.121094 12.140625 11.121094 11.785156 11.121094 11.425781 C 11.707031 11.503906 12.238281 11.382812 12.722656 11.070312 C 12.894531 8.449219 13.015625 5.835938 13.078125 3.238281 C 11.652344 6.332031 10.050781 9.296875 8.273438 12.140625 C 6.792969 9.191406 5.546875 6.105469 4.535156 2.882812 C 4.105469 5.484375 3.984375 8.09375 4.179688 10.714844 C 4.539062 11.011719 4.953125 11.132812 5.425781 11.070312 C 5.425781 11.425781 5.425781 11.785156 5.425781 12.140625 C 4 12.140625 2.574219 12.140625 1.152344 12.140625 C 1.152344 11.785156 1.152344 11.425781 1.152344 11.070312 C 2.011719 11.199219 2.542969 10.84375 2.753906 10.003906 C 3.117188 7.164062 3.296875 4.316406 3.289062 1.457031 C 2.816406 1.457031 2.335938 1.457031 1.863281 1.457031 C 1.863281 1.101562 1.863281 0.746094 1.863281 0.390625 Z M 1.863281 0.390625 " fill-opacity="1" fill-rule="evenodd"/></g></g></g></g><g mask="url(#88af23db97)"><g transform="matrix(1, 0, 0, 1, 111, 4)"><g clip-path="url(#670f52ade8)"><g clip-path="url(#1909e17733)"><path fill="#ffffff" d="M 14.828125 1.101562 C 15.300781 1.101562 15.777344 1.101562 16.25 1.101562 C 16.25 1.457031 16.25 1.8125 16.25 2.167969 C 15.894531 2.167969 15.539062 2.167969 15.183594 2.167969 C 15.550781 5.476562 16.265625 8.679688 17.320312 11.785156 C 17.804688 11.292969 18.160156 11.351562 18.386719 11.960938 C 18.242188 12.296875 18.003906 12.535156 17.675781 12.671875 C 16.222656 12.855469 14.796875 13.152344 13.402344 13.5625 C 13.285156 13.386719 13.164062 13.207031 13.046875 13.03125 C 13.613281 12.570312 14.085938 12.035156 14.46875 11.425781 C 14.011719 8.917969 13.476562 6.425781 12.867188 3.949219 C 12.222656 7.363281 11.332031 10.6875 10.199219 13.917969 C 8.289062 11.238281 6.449219 8.507812 4.679688 5.730469 C 4.804688 8.363281 5.335938 10.914062 6.28125 13.386719 C 6.742188 13.558594 7.21875 13.621094 7.707031 13.5625 C 7.707031 13.917969 7.707031 14.277344 7.707031 14.632812 C 6.144531 14.777344 4.605469 15.015625 3.078125 15.34375 C 3.078125 14.988281 3.078125 14.632812 3.078125 14.277344 C 3.546875 14.335938 3.964844 14.21875 4.324219 13.917969 C 4.300781 10.925781 3.945312 7.957031 3.253906 5.019531 C 2.476562 4.84375 1.828125 4.488281 1.296875 3.949219 C 2.71875 3.59375 4.144531 3.238281 5.570312 2.882812 C 7.101562 5.304688 8.703125 7.679688 10.375 10.003906 C 11.011719 7.402344 11.609375 4.792969 12.15625 2.167969 C 13.039062 1.703125 13.929688 1.347656 14.828125 1.101562 Z M 14.828125 1.101562 " fill-opacity="1" fill-rule="evenodd"/></g></g></g></g><g mask="url(#95f42f0d91)"><g transform="matrix(1, 0, 0, 1, 154, 5)"><g clip-path="url(#0b0a9fa0ec)"><g clip-path="url(#15496301e3)"><path fill="#ffffff" d="M 0.667969 0.457031 C 2.472656 0.84375 4.253906 1.316406 6.007812 1.882812 C 5.476562 2.421875 4.824219 2.777344 4.050781 2.949219 C 3.273438 5.515625 2.917969 8.128906 2.980469 10.785156 C 3.875 12.105469 5.121094 12.519531 6.71875 12.03125 C 7.015625 11.734375 7.3125 11.4375 7.609375 11.140625 C 8.480469 8.601562 9.015625 5.988281 9.210938 3.304688 C 8.855469 3.304688 8.5 3.304688 8.144531 3.304688 C 8.144531 2.949219 8.144531 2.59375 8.144531 2.238281 C 9.34375 2.300781 10.53125 2.476562 11.703125 2.773438 C 12.066406 3.144531 12.125 3.5625 11.882812 4.019531 C 11.527344 3.542969 11.171875 3.542969 10.8125 4.019531 C 10.28125 6.683594 9.566406 9.292969 8.679688 11.851562 C 6.714844 13.808594 4.523438 14.105469 2.089844 12.742188 C 1.269531 12.160156 0.734375 11.386719 0.488281 10.425781 C 0.578125 7.722656 0.996094 5.050781 1.734375 2.417969 C 1.160156 1.886719 0.804688 1.234375 0.667969 0.457031 Z M 0.667969 0.457031 " fill-opacity="1" fill-rule="evenodd"/></g></g></g></g><g mask="url(#399d77430e)"><g transform="matrix(1, 0, 0, 1, 167, 7)"><g clip-path="url(#76971b735b)"><g clip-path="url(#144ddd9aff)"><path fill="#ffffff" d="M 2.621094 1.304688 C 5.738281 3.234375 9.0625 4.480469 12.589844 5.042969 C 12.195312 6.128906 11.957031 7.257812 11.878906 8.425781 C 11.523438 8.425781 11.167969 8.425781 10.808594 8.425781 C 11.074219 6.613281 10.304688 5.546875 8.496094 5.222656 C 8.15625 5.367188 7.921875 5.605469 7.785156 5.933594 C 6.65625 8.609375 5.820312 11.339844 5.292969 14.125 C 6.050781 14.445312 6.226562 14.917969 5.824219 15.546875 C 4.253906 15.023438 2.710938 14.429688 1.195312 13.769531 C 0.722656 13.410156 0.722656 13.054688 1.195312 12.699219 C 1.890625 13.265625 2.425781 13.144531 2.800781 12.34375 C 3.738281 9.640625 4.75 6.96875 5.824219 4.332031 C 5.054688 4.007812 4.285156 3.710938 3.511719 3.441406 C 2.789062 3.988281 2.015625 4.460938 1.195312 4.867188 C 0.8125 4.558594 0.75 4.203125 1.019531 3.796875 C 1.554688 2.957031 2.089844 2.128906 2.621094 1.304688 Z M 2.621094 1.304688 " fill-opacity="1" fill-rule="evenodd"/></g></g></g></g><g mask="url(#741a4ec687)"><g transform="matrix(1, 0, 0, 1, 98, 8)"><g clip-path="url(#bbae2adee4)"><g clip-path="url(#401a4c3819)"><path fill="#ffffff" d="M 11.089844 0.664062 C 11.449219 0.664062 11.804688 0.664062 12.160156 0.664062 C 12.136719 1.40625 11.78125 1.941406 11.089844 2.265625 C 12.636719 5.234375 13.289062 8.378906 13.050781 11.699219 C 11.066406 14.21875 8.632812 14.753906 5.75 13.300781 C 4.441406 10.859375 3.371094 8.304688 2.546875 5.648438 C 1.953125 5.410156 1.359375 5.171875 0.765625 4.933594 C 0.839844 4.726562 0.957031 4.546875 1.121094 4.402344 C 2.761719 3.757812 4.417969 3.226562 6.105469 2.796875 C 6.121094 3.460938 5.824219 3.933594 5.214844 4.222656 C 5.488281 6.699219 6.199219 9.074219 7.351562 11.34375 C 8.960938 13.113281 10.507812 12.996094 11.980469 10.988281 C 11.859375 8.242188 11.148438 5.628906 9.84375 3.15625 C 9.359375 2.839844 8.828125 2.722656 8.242188 2.796875 C 8.242188 2.441406 8.242188 2.085938 8.242188 1.730469 C 9.289062 1.558594 10.242188 1.203125 11.089844 0.664062 Z M 11.089844 0.664062 " fill-opacity="1" fill-rule="evenodd"/></g></g></g></g><g mask="url(#1ead2ed511)"><g transform="matrix(1, 0, 0, 1, 176, 13)"><g clip-path="url(#725882985e)"><g clip-path="url(#326fa96931)"><path fill="#ffffff" d="M 5.726562 0.648438 C 7.234375 1.339844 8.777344 1.933594 10.355469 2.425781 C 10.355469 2.785156 10.355469 3.140625 10.355469 3.496094 C 9.886719 3.554688 9.46875 3.4375 9.109375 3.140625 C 7.644531 5.945312 6.28125 8.792969 5.015625 11.683594 C 5.285156 12.117188 5.640625 12.476562 6.082031 12.753906 C 5.972656 13.039062 5.792969 13.277344 5.550781 13.464844 C 4.253906 12.667969 2.890625 12.015625 1.453125 11.507812 C 1.015625 11.085938 1.015625 10.671875 1.453125 10.261719 C 1.949219 10.667969 2.421875 10.667969 2.878906 10.261719 C 4.222656 7.597656 5.523438 4.929688 6.796875 2.25 C 5.699219 2.0625 5.34375 1.53125 5.726562 0.648438 Z M 5.726562 0.648438 " fill-opacity="1" fill-rule="evenodd"/></g></g></g></g><g mask="url(#d67adacc5e)"><g transform="matrix(1, 0, 0, 1, 86, 14)"><g clip-path="url(#763c6645cc)"><g clip-path="url(#177efe64f7)"><path fill="#ffffff" d="M 7.78125 1.070312 C 11.464844 1.609375 12.292969 3.449219 10.273438 6.589844 C 11.875 7.480469 13.476562 8.371094 15.082031 9.261719 C 15.441406 8.960938 15.855469 8.84375 16.328125 8.90625 C 15.832031 10.113281 14.882812 10.824219 13.476562 11.039062 C 11.667969 9.898438 9.769531 8.949219 7.78125 8.191406 C 7.941406 10.3125 9.007812 11.617188 10.984375 12.109375 C 9.691406 13.113281 8.265625 13.945312 6.714844 14.601562 C 6.296875 13.9375 6.417969 13.34375 7.070312 12.820312 C 5.824219 10.328125 4.578125 7.835938 3.332031 5.34375 C 2.671875 5.035156 2.015625 4.679688 1.371094 4.277344 C 3.445312 3 5.582031 1.933594 7.78125 1.070312 Z M 6 2.851562 C 7.8125 2.585938 8.882812 3.359375 9.207031 5.164062 C 8.945312 6.195312 8.355469 6.96875 7.425781 7.480469 C 6.492188 6.386719 5.78125 5.140625 5.289062 3.742188 C 5.488281 3.382812 5.722656 3.085938 6 2.851562 Z M 6 2.851562 " fill-opacity="1" fill-rule="evenodd"/></g></g></g></g><g mask="url(#11b582a97a)"><g transform="matrix(1, 0, 0, 1, 182, 16)"><g clip-path="url(#85beec19a4)"><g clip-path="url(#9c69e06793)"><path fill="#ffffff" d="M 6.847656 0.851562 C 8.152344 1.46875 9.277344 2.300781 10.230469 3.34375 C 10.5 6.492188 10.976562 9.578125 11.65625 12.601562 C 12.734375 10.867188 13.746094 9.085938 14.679688 7.261719 C 14.03125 6.738281 13.910156 6.144531 14.324219 5.480469 C 15.46875 6.109375 16.535156 6.820312 17.53125 7.617188 C 17.3125 8.320312 16.957031 8.441406 16.460938 7.972656 C 16.113281 8.140625 15.816406 8.378906 15.570312 8.683594 C 13.789062 11.304688 12.007812 13.917969 10.230469 16.519531 C 9.957031 16.464844 9.71875 16.347656 9.519531 16.160156 C 9.054688 12.449219 8.460938 8.769531 7.738281 5.125 C 6.671875 7.023438 5.601562 8.921875 4.535156 10.820312 C 4.28125 11.484375 4.457031 12.019531 5.066406 12.421875 C 4.949219 12.542969 4.828125 12.660156 4.710938 12.78125 C 3.476562 12.398438 2.289062 11.804688 1.152344 11 C 2.175781 10.695312 3.066406 10.164062 3.820312 9.398438 C 5.113281 7.34375 6.359375 5.265625 7.558594 3.164062 C 7.277344 2.585938 6.921875 2.054688 6.492188 1.5625 C 6.621094 1.320312 6.742188 1.082031 6.847656 0.851562 Z M 6.847656 0.851562 " fill-opacity="1" fill-rule="evenodd"/></g></g></g></g><g mask="url(#172a98bb16)"><g transform="matrix(1, 0, 0, 1, 76, 21)"><g clip-path="url(#bb2336216f)"><g clip-path="url(#2e8b5cd9eb)"><path fill="#ffffff" d="M 4.605469 1.191406 C 10.410156 0.648438 13.082031 3.257812 12.617188 9.027344 C 10.566406 13.113281 7.421875 14.238281 3.183594 12.40625 C 0.546875 9.902344 0.015625 6.996094 1.582031 3.683594 C 2.449219 2.632812 3.457031 1.800781 4.605469 1.191406 Z M 4.964844 2.617188 C 8.4375 3.066406 10.457031 5.023438 11.015625 8.492188 C 10.570312 11.148438 9.027344 12.101562 6.386719 11.339844 C 3.601562 9.984375 2.355469 7.789062 2.648438 4.753906 C 3.160156 3.707031 3.929688 2.992188 4.964844 2.617188 Z M 4.964844 2.617188 " fill-opacity="1" fill-rule="evenodd"/></g></g></g></g><g mask="url(#6c3e66f392)"><g transform="matrix(1, 0, 0, 1, 194, 25)"><g clip-path="url(#62dc0fcc8b)"><g clip-path="url(#813d67bab8)"><path fill="#ffffff" d="M 7.664062 0.398438 C 10.121094 1.957031 12.433594 3.734375 14.609375 5.738281 C 14.5 6.566406 14.261719 7.394531 13.898438 8.230469 C 13.539062 8.527344 13.121094 8.648438 12.652344 8.585938 C 13.121094 6.320312 12.347656 4.660156 10.335938 3.601562 C 9.320312 4.511719 8.429688 5.519531 7.664062 6.628906 C 8.230469 7 8.765625 7.414062 9.269531 7.875 C 11.207031 6.828125 11.5625 7.183594 10.335938 8.941406 C 9.734375 9.480469 9.199219 10.074219 8.734375 10.722656 C 8.378906 10.605469 8.140625 10.367188 8.023438 10.011719 C 8.550781 8.925781 8.253906 8.09375 7.132812 7.519531 C 6.300781 8.46875 5.46875 9.417969 4.640625 10.367188 C 5.417969 12.773438 7.078125 13.605469 9.625 12.859375 C 10 12.90625 10.296875 13.082031 10.515625 13.394531 C 9.488281 14.910156 8.1875 15.265625 6.597656 14.460938 C 4.632812 12.671875 2.613281 10.953125 0.542969 9.296875 C 1.039062 8.378906 1.574219 8.378906 2.148438 9.296875 C 4.351562 6.964844 6.425781 4.53125 8.378906 2 C 7.613281 1.574219 7.375 1.039062 7.664062 0.398438 Z M 7.664062 0.398438 " fill-opacity="1" fill-rule="evenodd"/></g></g></g></g><g mask="url(#ed9a51ce55)"><g transform="matrix(1, 0, 0, 1, 67, 28)"><g clip-path="url(#5a1f5d4f69)"><g clip-path="url(#55302e1cd7)"><path fill="#ffffff" d="M 4.351562 1.3125 C 5.644531 1.367188 5.761719 1.785156 4.707031 2.558594 C 6.65625 5.09375 8.734375 7.523438 10.9375 9.859375 C 11.332031 9.3125 11.867188 9.074219 12.539062 9.148438 C 12.609375 9.820312 12.375 10.355469 11.828125 10.75 C 10.890625 11.328125 10.0625 12.039062 9.335938 12.886719 C 8.996094 13.058594 8.640625 13.117188 8.265625 13.0625 C 8.195312 12.390625 8.429688 11.855469 8.980469 11.460938 C 6.941406 9.113281 4.867188 6.800781 2.746094 4.519531 C 2.167969 5.164062 1.632812 5.222656 1.144531 4.695312 C 2.203125 3.570312 3.269531 2.441406 4.351562 1.3125 Z M 4.351562 1.3125 " fill-opacity="1" fill-rule="evenodd"/></g></g></g></g><g mask="url(#8932f2335b)"><g transform="matrix(1, 0, 0, 1, 75, 33)"><g clip-path="url(#a288ef8d29)"><g clip-path="url(#37cd548176)"><path fill="#ffffff" d="M 67.203125 0.230469 C 68.625 7.984375 69.871094 15.816406 70.941406 23.730469 C 75.976562 26.417969 77.222656 30.335938 74.683594 35.480469 C 76.136719 46.761719 77.621094 58.035156 79.132812 69.304688 C 79.664062 69.839844 80.316406 70.136719 81.089844 70.195312 C 87.761719 71.164062 94.402344 72.230469 101.03125 73.398438 C 103.824219 74.890625 106.316406 76.789062 108.507812 79.097656 C 110.882812 80.757812 113.253906 80.757812 115.628906 79.097656 C 117.832031 76.234375 120.207031 73.503906 122.75 70.90625 C 127.992188 67.667969 132.203125 68.679688 135.390625 73.933594 C 136 75.253906 136 76.558594 135.390625 77.851562 C 133.359375 80.371094 131.992188 83.21875 131.292969 86.394531 C 131.625 88.347656 132.8125 89.296875 134.855469 89.242188 C 135.683594 89.003906 136.519531 88.945312 137.347656 89.066406 C 134.632812 91.929688 131.546875 92.40625 128.089844 90.488281 C 127.421875 89.941406 126.886719 89.289062 126.488281 88.53125 C 126.132812 86.394531 125.777344 84.257812 125.417969 82.121094 C 124.632812 81.128906 123.625 80.832031 122.394531 81.234375 C 120.257812 82.480469 118.003906 83.429688 115.628906 84.082031 C 113.914062 84.359375 112.257812 84.179688 110.644531 83.546875 C 110.527344 83.664062 110.40625 83.785156 110.289062 83.902344 C 110.8125 85.152344 111.046875 86.457031 111 87.820312 C 110.625 91.164062 110.089844 94.488281 109.398438 97.789062 C 109.109375 100.5625 109.347656 103.292969 110.109375 105.976562 C 112.246094 111.382812 114.203125 116.84375 115.984375 122.355469 C 113.964844 122.355469 111.949219 122.355469 109.929688 122.355469 C 109.988281 123.3125 109.929688 124.261719 109.753906 125.207031 C 108.554688 126.285156 107.484375 127.472656 106.546875 128.765625 C 106.082031 130.390625 105.90625 132.054688 106.015625 133.75 C 102.804688 133.867188 99.597656 133.75 96.402344 133.394531 C 97.605469 130.230469 99.5625 127.617188 102.277344 125.5625 C 102.898438 124.667969 103.433594 123.71875 103.878906 122.714844 C 98.902344 122.355469 93.914062 122.238281 88.925781 122.355469 C 89.234375 124.589844 88.402344 126.25 86.433594 127.339844 C 85.140625 129.265625 84.664062 131.402344 85.007812 133.75 C 81.796875 133.867188 78.589844 133.75 75.394531 133.394531 C 75.9375 131.84375 76.710938 130.417969 77.707031 129.121094 C 79.199219 127.898438 80.625 126.59375 81.980469 125.207031 C 82.3125 124.507812 82.609375 123.796875 82.871094 123.070312 C 82.632812 122.949219 82.398438 122.832031 82.160156 122.714844 C 79.078125 123.472656 75.992188 124.183594 72.902344 124.847656 C 72.808594 124.03125 72.929688 123.261719 73.257812 122.535156 C 72.457031 122.042969 71.683594 121.511719 70.941406 120.933594 C 70.882812 120.578125 70.824219 120.21875 70.765625 119.863281 C 71.40625 118.339844 72.0625 116.796875 72.722656 115.234375 C 73.332031 113.355469 73.394531 111.457031 72.902344 109.539062 C 69.683594 109.542969 66.476562 109.484375 63.289062 109.359375 C 62.746094 110.625 62.152344 111.871094 61.507812 113.097656 C 62.234375 115.28125 62.945312 117.476562 63.644531 119.6875 C 56.121094 123.824219 48.289062 124.59375 40.144531 122 C 39.863281 123.191406 39.566406 124.378906 39.253906 125.5625 C 36.339844 127.632812 35.328125 130.359375 36.226562 133.75 C 32.902344 133.808594 29.582031 133.75 26.257812 133.574219 C 26.769531 132.035156 27.421875 130.550781 28.214844 129.121094 C 31.230469 127.179688 33.304688 124.507812 34.449219 121.109375 C 30.464844 117.007812 26.605469 112.796875 22.875 108.472656 C 20.242188 104.507812 18.28125 100.234375 17 95.652344 C 14.578125 95.0625 12.203125 94.289062 9.878906 93.339844 C 9.167969 93.101562 8.457031 93.101562 7.742188 93.339844 C 8.261719 95.335938 8.910156 97.296875 9.703125 99.214844 C 10.777344 100.226562 11.785156 101.296875 12.726562 102.417969 C 12.308594 103.023438 12.308594 103.617188 12.726562 104.199219 C 13.617188 104.820312 14.570312 105.355469 15.578125 105.800781 C 15.761719 106 15.882812 106.238281 15.933594 106.511719 C 15.039062 108.898438 14.328125 111.332031 13.796875 113.8125 C 12.203125 113.113281 10.835938 112.046875 9.703125 110.605469 C 6.945312 106.875 5.046875 102.722656 4.003906 98.144531 C 3.15625 95.414062 2.625 92.625 2.402344 89.777344 C 2.335938 88.625 2.570312 87.554688 3.113281 86.574219 C 6.460938 86.609375 9.785156 86.847656 13.085938 87.285156 C 14.6875 84.972656 16.289062 82.65625 17.890625 80.34375 C 18.914062 78.28125 19.03125 76.144531 18.246094 73.933594 C 17.746094 72.066406 17.03125 70.289062 16.109375 68.59375 C 15.714844 68.046875 15.179688 67.808594 14.507812 67.878906 C 15.101562 68.972656 15.582031 70.160156 15.933594 71.441406 C 15.929688 72.632812 15.335938 73.226562 14.152344 73.222656 C 14.214844 74.652344 14.152344 76.074219 13.972656 77.492188 C 9.539062 79.914062 6.570312 78.726562 5.074219 73.933594 C 3.261719 68.578125 1.894531 63.121094 0.980469 57.554688 C 1.125 55.515625 1.597656 53.558594 2.402344 51.679688 C 2.144531 49.933594 1.785156 48.214844 1.335938 46.515625 C 1.453125 46.398438 1.574219 46.28125 1.691406 46.160156 C 2.710938 46.910156 3.78125 47.441406 4.894531 47.761719 C 4.300781 46.695312 3.710938 45.628906 3.113281 44.558594 C 5.222656 45.195312 7.238281 46.144531 9.167969 47.40625 C 16.566406 46.585938 23.449219 48.128906 29.820312 52.035156 C 33.675781 54.5 37.589844 56.871094 41.570312 59.15625 C 44.191406 60.289062 46.925781 60.941406 49.757812 61.117188 C 50.453125 57.902344 50.273438 54.695312 49.222656 51.503906 C 48.039062 51.027344 46.847656 50.550781 45.664062 50.078125 C 45.425781 48.417969 45.425781 46.753906 45.664062 45.09375 C 46.1875 44.207031 46.957031 43.613281 47.976562 43.3125 C 47.183594 39.523438 46.414062 35.726562 45.664062 31.917969 C 44.269531 31.296875 43.5 30.230469 43.347656 28.714844 C 43.703125 27.605469 43.996094 26.539062 44.238281 25.511719 C 42.578125 24.085938 40.917969 24.085938 39.253906 25.511719 C 38.355469 27.339844 38.710938 28.878906 40.324219 30.136719 C 40.769531 32.125 40 32.777344 38.007812 32.097656 C 35.214844 28.996094 35.214844 25.910156 38.007812 22.839844 C 40.007812 21.484375 42.085938 21.304688 44.238281 22.304688 C 44.296875 20.980469 44.117188 19.675781 43.707031 18.390625 C 44.242188 17.945312 44.777344 17.945312 45.308594 18.390625 C 46.296875 20.539062 46.949219 22.792969 47.265625 25.152344 C 47.953125 25.828125 48.609375 26.539062 49.222656 27.289062 C 49.539062 28.855469 49.359375 30.339844 48.691406 31.742188 C 49.589844 36.066406 50.421875 40.398438 51.183594 44.738281 C 51.894531 44.855469 52.605469 44.972656 53.320312 45.09375 C 54.511719 40.574219 56.46875 36.417969 59.195312 32.632812 C 59.195312 31.238281 59.496094 29.929688 60.082031 28.714844 C 59.398438 28.175781 58.984375 27.464844 58.835938 26.578125 C 58.476562 26.28125 58.0625 26.160156 57.589844 26.222656 C 57.929688 24.574219 58.402344 22.972656 59.015625 21.414062 C 58.835938 21.238281 58.660156 21.058594 58.480469 20.882812 C 58.390625 13.976562 59.28125 7.214844 61.152344 0.585938 C 62.25 3.574219 63.375 6.542969 64.535156 9.488281 C 65.390625 6.378906 66.28125 3.292969 67.203125 0.230469 Z M 67.203125 0.230469 " fill-opacity="1" fill-rule="evenodd"/></g></g></g></g><g mask="url(#0844471448)"><g transform="matrix(1, 0, 0, 1, 203, 33)"><g clip-path="url(#66d0127c4e)"><g clip-path="url(#6d3bb1bb32)"><path fill="#ffffff" d="M 7.921875 0.230469 C 8.953125 0.722656 9.84375 1.433594 10.59375 2.367188 C 10.390625 5.8125 10.152344 9.253906 9.882812 12.691406 C 11.496094 11.195312 12.980469 9.59375 14.332031 7.886719 C 13.519531 7.398438 13.460938 6.867188 14.15625 6.28125 C 15.109375 7.179688 16 8.128906 16.824219 9.132812 C 16.503906 9.886719 16.027344 10.003906 15.402344 9.488281 C 12.582031 11.476562 9.96875 13.730469 7.566406 16.253906 C 7.035156 15.949219 6.796875 15.476562 6.855469 14.828125 C 7.390625 11.378906 7.804688 7.9375 8.101562 4.503906 C 6.453125 5.796875 4.90625 7.21875 3.472656 8.773438 C 3.207031 9.550781 3.027344 10.382812 2.9375 11.269531 C 1.84375 10.527344 1.011719 9.578125 0.445312 8.417969 C 0.753906 7.574219 1.167969 7.574219 1.691406 8.417969 C 4.039062 6.785156 6.175781 4.886719 8.101562 2.722656 C 8.21875 1.886719 8.160156 1.054688 7.921875 0.230469 Z M 7.921875 0.230469 " fill-opacity="1" fill-rule="evenodd"/></g></g></g></g><g mask="url(#6fb317aff9)"><g transform="matrix(1, 0, 0, 1, 57, 36)"><g clip-path="url(#ddd60367f0)"><g clip-path="url(#4b8e755398)"><path fill="#ffffff" d="M 7.585938 0.789062 C 12.023438 0.308594 14.515625 2.269531 15.0625 6.664062 C 15.003906 8.023438 14.59375 9.269531 13.816406 10.402344 C 12.140625 12.019531 10.535156 13.683594 9.007812 15.390625 C 8.8125 14.707031 8.753906 13.996094 8.832031 13.253906 C 6.800781 11.105469 4.664062 9.085938 2.421875 7.199219 C 1.867188 7.917969 1.214844 8.035156 0.464844 7.554688 C 2.191406 5.769531 3.851562 3.929688 5.449219 2.035156 C 6.242188 1.703125 6.953125 1.285156 7.585938 0.789062 Z M 6.515625 2.925781 C 10.179688 2.675781 12.433594 4.335938 13.28125 7.910156 C 13.128906 9.523438 12.359375 10.710938 10.96875 11.472656 C 8.652344 9.394531 6.339844 7.316406 4.023438 5.242188 C 4.734375 4.300781 5.5625 3.53125 6.515625 2.925781 Z M 6.515625 2.925781 " fill-opacity="1" fill-rule="evenodd"/></g></g></g></g><g mask="url(#fcf11ddaad)"><g transform="matrix(1, 0, 0, 1, 48, 45)"><g clip-path="url(#d758efc46a)"><g clip-path="url(#1f717ce60c)"><path fill="#ffffff" d="M 7.683594 0.691406 C 8.105469 0.613281 8.460938 0.734375 8.75 1.046875 C 8.304688 1.597656 8.304688 2.132812 8.75 2.648438 C 11.03125 3.980469 13.109375 5.582031 14.984375 7.457031 C 15.984375 11.152344 14.621094 13.410156 10.886719 14.222656 C 9.84375 14.234375 8.894531 13.9375 8.039062 13.332031 C 6.425781 12.136719 4.765625 11.007812 3.054688 9.949219 C 2.488281 10.71875 1.894531 10.777344 1.273438 10.128906 C 2.21875 8.652344 3.285156 7.285156 4.480469 6.03125 C 4.886719 6.488281 4.886719 6.960938 4.480469 7.457031 C 6.335938 9.136719 8.355469 10.621094 10.53125 11.90625 C 13.257812 12.144531 14.386719 10.898438 13.914062 8.167969 C 11.867188 6.417969 9.671875 4.875 7.328125 3.539062 C 6.964844 4.023438 6.488281 4.257812 5.902344 4.253906 C 6.300781 2.980469 6.898438 1.792969 7.683594 0.691406 Z M 7.683594 0.691406 " fill-opacity="1" fill-rule="evenodd"/></g></g></g></g><g mask="url(#4372f90348)"><g transform="matrix(1, 0, 0, 1, 212, 45)"><g clip-path="url(#c5cf83198d)"><g clip-path="url(#7c5ab42587)"><path fill="#ffffff" d="M 7.824219 1.046875 C 9.0625 0.933594 10.25 1.113281 11.386719 1.582031 C 12.25 2.714844 13.082031 3.839844 13.878906 4.964844 C 13.046875 5.675781 12.214844 6.390625 11.386719 7.101562 C 11.269531 6.863281 11.148438 6.625 11.027344 6.390625 C 12.09375 5.019531 11.976562 3.773438 10.671875 2.648438 C 9.429688 2.34375 8.597656 2.816406 8.179688 4.074219 C 9.09375 5.867188 9.269531 7.707031 8.714844 9.59375 C 6.894531 11.617188 4.875 11.855469 2.660156 10.304688 C 1.976562 9.011719 1.324219 7.707031 0.703125 6.390625 C 1.621094 5.515625 2.691406 4.921875 3.90625 4.609375 C 3.867188 5.421875 3.574219 6.132812 3.019531 6.746094 C 2.578125 9.152344 3.464844 10.042969 5.6875 9.414062 C 6.128906 9.003906 6.484375 8.53125 6.757812 7.992188 C 6.136719 6.324219 5.960938 4.605469 6.222656 2.828125 C 6.585938 2.050781 7.121094 1.457031 7.824219 1.046875 Z M 7.824219 1.046875 " fill-opacity="1" fill-rule="evenodd"/></g></g></g></g><g mask="url(#9238907317)"><g transform="matrix(1, 0, 0, 1, 217, 52)"><g clip-path="url(#97036c1a31)"><g clip-path="url(#af3a925594)"><path fill="#ffffff" d="M 10.300781 0.8125 C 11.617188 2.253906 12.566406 3.917969 13.148438 5.796875 C 12.566406 5.804688 12.089844 5.566406 11.726562 5.085938 C 8.878906 6.507812 6.148438 8.109375 3.535156 9.890625 C 4.300781 10.539062 4.300781 11.074219 3.535156 11.496094 C 2.589844 10.246094 1.699219 8.941406 0.867188 7.578125 C 0.652344 7.054688 0.832031 6.699219 1.402344 6.511719 C 1.695312 6.867188 1.996094 7.222656 2.289062 7.578125 C 5.101562 6.128906 7.773438 4.464844 10.300781 2.59375 C 9.835938 1.988281 9.835938 1.394531 10.300781 0.8125 Z M 10.300781 0.8125 " fill-opacity="1" fill-rule="evenodd"/></g></g></g></g><g mask="url(#2f4805a38a)"><g transform="matrix(1, 0, 0, 1, 42, 57)"><g clip-path="url(#cc1358d49c)"><g clip-path="url(#175340cef7)"><path fill="#ffffff" d="M 5.136719 0.441406 C 6.449219 0.703125 7.632812 1.179688 8.699219 1.867188 C 6.988281 2.148438 5.804688 3.097656 5.136719 4.714844 C 7.8125 6.230469 10.542969 7.652344 13.328125 8.988281 C 13.753906 8.347656 14.347656 7.992188 15.109375 7.917969 C 14.570312 9.828125 13.738281 11.605469 12.617188 13.257812 C 12.257812 13.140625 12.019531 12.902344 11.902344 12.546875 C 12.308594 12.050781 12.308594 11.578125 11.902344 11.125 C 9.292969 9.816406 6.679688 8.511719 4.070312 7.207031 C 2.71875 8.648438 2.71875 10.074219 4.070312 11.480469 C 3.742188 12.304688 3.269531 12.363281 2.644531 11.65625 C 1.988281 11.058594 1.390625 10.40625 0.867188 9.699219 C 3.066406 6.964844 4.488281 3.878906 5.136719 0.441406 Z M 5.136719 0.441406 " fill-opacity="1" fill-rule="evenodd"/></g></g></g></g><g mask="url(#9f0c35214a)"><g transform="matrix(1, 0, 0, 1, 221, 60)"><g clip-path="url(#090231d64a)"><g clip-path="url(#753071ca44)"><path fill="#ffffff" d="M 8.792969 1.003906 C 10.355469 0.949219 11.601562 1.542969 12.53125 2.78125 C 12.761719 3.871094 13.175781 4.878906 13.777344 5.808594 C 12.902344 6.890625 11.835938 7.308594 10.574219 7.054688 C 12.074219 5.738281 12.195312 4.371094 10.929688 2.960938 C 9.535156 2.6875 8.707031 3.28125 8.4375 4.742188 C 9.398438 9.59375 7.5 11.375 2.742188 10.082031 C 2.191406 9.519531 1.777344 8.867188 1.496094 8.125 C 1.335938 6.980469 1.097656 5.914062 0.78125 4.917969 C 1.84375 4.167969 2.972656 3.929688 4.164062 4.207031 C 2.578125 5.457031 2.222656 6.941406 3.097656 8.65625 C 4.417969 9.445312 5.425781 9.148438 6.125 7.765625 C 6.242188 6.105469 6.363281 4.445312 6.480469 2.78125 C 7.121094 1.953125 7.894531 1.359375 8.792969 1.003906 Z M 8.792969 1.003906 " fill-opacity="1" fill-rule="evenodd"/></g></g></g></g><g mask="url(#6243f837c2)"><g transform="matrix(1, 0, 0, 1, 40, 70)"><g clip-path="url(#9e1f560ae1)"><g clip-path="url(#e52f936fe9)"><path fill="#ffffff" d="M 1.441406 0.617188 C 2.613281 0.699219 3.679688 1.054688 4.644531 1.683594 C 3.929688 2.253906 3.097656 2.671875 2.152344 2.929688 C 1.078125 4.335938 1.378906 5.347656 3.042969 5.957031 C 3.476562 5.828125 3.894531 5.648438 4.289062 5.421875 C 6.136719 2.089844 8.570312 1.558594 11.589844 3.820312 C 12.550781 5.988281 12.195312 7.886719 10.519531 9.515625 C 10.351562 9.855469 10.289062 10.210938 10.34375 10.585938 C 9 10.507812 7.816406 10.035156 6.78125 9.160156 C 7.207031 8.351562 7.800781 8.234375 8.5625 8.804688 C 10.386719 8.46875 11.15625 7.402344 10.875 5.601562 C 10.433594 5.113281 9.902344 4.757812 9.273438 4.53125 C 7.800781 5.59375 6.375 6.71875 5 7.914062 C 0.761719 8.289062 -0.601562 6.449219 0.90625 2.394531 C 1.785156 1.953125 1.964844 1.359375 1.441406 0.617188 Z M 1.441406 0.617188 " fill-opacity="1" fill-rule="evenodd"/></g></g></g></g><g mask="url(#66f8ebc43d)"><g transform="matrix(1, 0, 0, 1, 227, 75)"><g clip-path="url(#5108899bf8)"><g clip-path="url(#e63ac0f7bf)"><path fill="#ffffff" d="M 10.628906 0.601562 C 11.203125 0.550781 11.621094 0.789062 11.875 1.3125 C 12.589844 3.824219 13.363281 6.316406 14.1875 8.789062 C 13.269531 9.664062 12.203125 10.257812 10.984375 10.570312 C 11.445312 9.402344 11.921875 8.214844 12.40625 7.007812 C 12.316406 6.027344 11.960938 5.195312 11.339844 4.515625 C 10.058594 4.785156 8.871094 5.261719 7.777344 5.941406 C 8.070312 7.113281 8.726562 7.589844 9.738281 7.367188 C 9.984375 7.550781 10.160156 7.789062 10.269531 8.078125 C 9.226562 8.722656 8.097656 9.199219 6.890625 9.5 C 5.722656 9.054688 5.722656 8.582031 6.890625 8.078125 C 7.152344 7.386719 7.09375 6.734375 6.710938 6.121094 C 5.425781 6.367188 4.117188 6.664062 2.792969 7.007812 C 2.546875 9.734375 3.734375 11.511719 6.355469 12.351562 C 5.191406 12.703125 4.003906 12.820312 2.792969 12.707031 C 2.15625 9.738281 1.328125 6.832031 0.300781 3.984375 C 0.492188 3.738281 0.726562 3.558594 1.015625 3.449219 C 1.398438 3.863281 1.699219 4.339844 1.902344 4.875 C 4.890625 3.996094 7.859375 3.046875 10.804688 2.023438 C 10.875 1.554688 10.816406 1.082031 10.628906 0.601562 Z M 10.628906 0.601562 " fill-opacity="1" fill-rule="evenodd"/></g></g></g></g><g mask="url(#0a41386981)"><g transform="matrix(1, 0, 0, 1, 35, 86)"><g clip-path="url(#ec3af59329)"><g clip-path="url(#2ad83cb7e7)"><path fill="#ffffff" d="M 1.457031 0.996094 C 2.640625 0.996094 3.832031 0.996094 5.015625 0.996094 C 5.015625 1.351562 5.015625 1.707031 5.015625 2.0625 C 2.871094 2.128906 1.980469 3.195312 2.347656 5.265625 C 2.769531 5.597656 3.246094 5.835938 3.769531 5.980469 C 5.125 4.742188 6.371094 3.378906 7.507812 1.882812 C 10.550781 0.914062 12.449219 1.980469 13.207031 5.089844 C 12.765625 6.613281 12.292969 8.097656 11.78125 9.539062 C 10.597656 9.300781 9.40625 9.066406 8.222656 8.828125 C 8.222656 8.472656 8.222656 8.117188 8.222656 7.757812 C 10.820312 8.160156 11.949219 7.09375 11.605469 4.554688 C 10.535156 3.128906 9.46875 3.128906 8.398438 4.554688 C 6.699219 8.332031 4.324219 8.925781 1.277344 6.335938 C 0.929688 4.769531 1.109375 3.285156 1.8125 1.882812 C 1.546875 1.644531 1.425781 1.347656 1.457031 0.996094 Z M 1.457031 0.996094 " fill-opacity="1" fill-rule="evenodd"/></g></g></g></g><g mask="url(#9ef7121f38)"><g transform="matrix(1, 0, 0, 1, 230, 87)"><g clip-path="url(#f716251aec)"><g clip-path="url(#95af4c0a4a)"><path fill="#ffffff" d="M 9.050781 0.707031 C 10.246094 0.746094 11.433594 0.867188 12.613281 1.0625 C 12.492188 3.910156 12.789062 6.757812 13.503906 9.609375 C 13.730469 10.128906 14.027344 10.605469 14.390625 11.03125 C 13.265625 11.613281 12.078125 12.085938 10.832031 12.457031 C 10.476562 11.480469 10.832031 10.769531 11.898438 10.320312 C 12.472656 9.207031 12.296875 8.257812 11.367188 7.472656 C 8.476562 8.082031 5.570312 8.554688 2.644531 8.894531 C 2.644531 9.488281 2.644531 10.082031 2.644531 10.675781 C 2.285156 10.675781 1.929688 10.675781 1.574219 10.675781 C 1.414062 8.765625 1.175781 6.867188 0.863281 4.980469 C 1.21875 4.980469 1.574219 4.980469 1.929688 4.980469 C 1.929688 5.453125 1.929688 5.929688 1.929688 6.402344 C 5.027344 6.105469 8.117188 5.6875 11.1875 5.15625 C 11.535156 4.394531 11.476562 3.621094 11.011719 2.84375 C 10.269531 2.265625 9.496094 1.730469 8.695312 1.242188 C 8.894531 1.105469 9.011719 0.925781 9.050781 0.707031 Z M 9.050781 0.707031 " fill-opacity="1" fill-rule="evenodd"/></g></g></g></g><g mask="url(#0efc6ec806)"><g transform="matrix(1, 0, 0, 1, 34, 96)"><g clip-path="url(#b4311ef4bb)"><g clip-path="url(#2a383b6b37)"><path fill="#ffffff" d="M 11.714844 0.609375 C 12.070312 0.609375 12.425781 0.609375 12.78125 0.609375 C 12.585938 2.382812 12.464844 4.160156 12.425781 5.949219 C 12.070312 5.949219 11.714844 5.949219 11.359375 5.949219 C 11.359375 5.59375 11.359375 5.238281 11.359375 4.878906 C 8.359375 4.613281 7.234375 5.917969 7.976562 8.796875 C 8.878906 9.367188 9.832031 9.84375 10.824219 10.222656 C 11 9.761719 11.058594 9.285156 11 8.796875 C 11.359375 8.796875 11.714844 8.796875 12.070312 8.796875 C 12.070312 10.222656 12.070312 11.644531 12.070312 13.070312 C 11.714844 13.070312 11.359375 13.070312 11 13.070312 C 11.074219 12.398438 10.839844 11.863281 10.289062 11.46875 C 7.246094 9.886719 4.160156 8.402344 1.03125 7.015625 C 0.585938 6.367188 0.351562 5.65625 0.320312 4.878906 C 3.90625 4.101562 7.464844 3.214844 11 2.210938 C 11.550781 1.816406 11.785156 1.28125 11.714844 0.609375 Z M 5.304688 5.949219 C 5.941406 5.847656 6.535156 5.964844 7.085938 6.304688 C 6.839844 6.996094 6.660156 7.707031 6.550781 8.441406 C 5.429688 7.910156 4.300781 7.375 3.167969 6.839844 C 3.917969 6.539062 4.632812 6.242188 5.304688 5.949219 Z M 5.304688 5.949219 " fill-opacity="1" fill-rule="evenodd"/></g></g></g></g><g mask="url(#8e0818f4dc)"><g transform="matrix(1, 0, 0, 1, 232, 107)"><g clip-path="url(#29b3edda8d)"><g clip-path="url(#0a02477356)"><path fill="#ffffff" d="M 0.644531 0.644531 C 1 0.644531 1.355469 0.644531 1.710938 0.644531 C 1.648438 1.117188 1.769531 1.53125 2.066406 1.890625 C 5.148438 2.070312 8.238281 2.128906 11.324219 2.070312 C 11.324219 1.714844 11.324219 1.359375 11.324219 1 C 11.746094 0.921875 12.101562 1.042969 12.390625 1.359375 C 12.109375 3.476562 11.933594 5.613281 11.859375 7.765625 C 10.65625 10.34375 8.875 10.816406 6.519531 9.191406 C 6.210938 8.625 5.972656 8.03125 5.804688 7.410156 C 3.910156 8.65625 2.191406 10.078125 0.644531 11.683594 C 0.230469 10.515625 0.171875 9.328125 0.464844 8.121094 C 2.476562 7.328125 4.199219 6.140625 5.628906 4.5625 C 4.339844 4.148438 3.03125 4.089844 1.710938 4.382812 C 1.410156 4.742188 1.292969 5.160156 1.355469 5.628906 C 1 5.628906 0.644531 5.628906 0.285156 5.628906 C 0.546875 3.980469 0.664062 2.320312 0.644531 0.644531 Z M 6.339844 4.207031 C 7.863281 4.457031 9.410156 4.636719 10.96875 4.738281 C 11.363281 6.433594 10.652344 7.441406 8.832031 7.765625 C 6.945312 7.320312 6.117188 6.132812 6.339844 4.207031 Z M 6.339844 4.207031 " fill-opacity="1" fill-rule="evenodd"/></g></g></g></g><g mask="url(#d746a93be2)"><g transform="matrix(1, 0, 0, 1, 33, 107)"><g clip-path="url(#f838b41f6d)"><g clip-path="url(#7f0250b5a4)"><path fill="#ffffff" d="M 2.746094 1 C 4.960938 1.125 5.019531 1.71875 2.921875 2.78125 C 2.476562 3.675781 2.300781 4.625 2.386719 5.628906 C 5.597656 5.558594 8.800781 5.441406 12 5.273438 C 12 4.800781 12 4.324219 12 3.851562 C 12.359375 3.851562 12.714844 3.851562 13.070312 3.851562 C 12.96875 5.535156 13.089844 7.195312 13.425781 8.835938 C 13.132812 9.148438 12.777344 9.269531 12.359375 9.191406 C 12.417969 8.71875 12.300781 8.304688 12 7.945312 C 8.910156 7.753906 5.824219 7.8125 2.746094 8.121094 C 2.320312 9.863281 2.914062 11.050781 4.523438 11.683594 C 4.839844 11.976562 4.960938 12.332031 4.878906 12.75 C 3.496094 12.671875 2.191406 12.316406 0.964844 11.683594 C 1.496094 10.6875 1.730469 9.621094 1.675781 8.480469 C 1.523438 6.578125 1.34375 4.679688 1.140625 2.78125 C 0.894531 2.59375 0.71875 2.359375 0.609375 2.070312 C 1.242188 1.542969 1.953125 1.183594 2.746094 1 Z M 2.746094 1 " fill-opacity="1" fill-rule="evenodd"/></g></g></g></g><g mask="url(#6e7580dcb6)"><g transform="matrix(1, 0, 0, 1, 230, 119)"><g clip-path="url(#ad376e56b0)"><g clip-path="url(#cbc4e397d5)"><path fill="#ffffff" d="M 1.929688 0.394531 C 2.285156 0.394531 2.644531 0.394531 3 0.394531 C 2.902344 1.089844 3.136719 1.625 3.710938 1.996094 C 6.554688 2.523438 9.402344 2.878906 12.257812 3.066406 C 12.460938 2.636719 12.699219 2.222656 12.96875 1.820312 C 13.179688 1.894531 13.355469 2.011719 13.503906 2.175781 C 13.226562 5.039062 12.753906 7.886719 12.078125 10.722656 C 11.085938 11.175781 10.074219 11.175781 9.050781 10.722656 C 9.773438 9.972656 10.546875 9.257812 11.367188 8.585938 C 11.8125 7.691406 11.988281 6.738281 11.898438 5.734375 C 10.695312 5.574219 9.511719 5.339844 8.339844 5.023438 C 8.035156 5.464844 7.796875 5.9375 7.628906 6.449219 C 8.339844 7.03125 8.816406 7.742188 9.050781 8.585938 C 7.753906 8.425781 6.445312 8.308594 5.136719 8.230469 C 5.136719 7.871094 5.136719 7.515625 5.136719 7.160156 C 6.4375 7.046875 6.972656 6.335938 6.738281 5.023438 C 5.511719 4.644531 4.265625 4.46875 3 4.488281 C 2.402344 5.265625 2.042969 6.152344 1.929688 7.160156 C 2.367188 8.3125 2.960938 9.378906 3.710938 10.363281 C 2.433594 10.738281 1.363281 10.382812 0.507812 9.296875 C 1.171875 6.363281 1.648438 3.394531 1.929688 0.394531 Z M 1.929688 0.394531 " fill-opacity="1" fill-rule="evenodd"/></g></g></g></g><g mask="url(#10897e4902)"><g transform="matrix(1, 0, 0, 1, 34, 120)"><g clip-path="url(#c02b065c15)"><g clip-path="url(#9559e911ed)"><path fill="#ffffff" d="M 11.714844 0.464844 C 12.070312 0.464844 12.425781 0.464844 12.78125 0.464844 C 12.902344 2.261719 13.140625 4.042969 13.496094 5.804688 C 13.136719 5.804688 12.78125 5.804688 12.425781 5.804688 C 12.550781 4.742188 12.074219 4.265625 11 4.378906 C 8.28125 4.835938 5.554688 5.191406 2.8125 5.449219 C 2.8125 6.042969 2.8125 6.636719 2.8125 7.230469 C 2.457031 7.230469 2.101562 7.230469 1.746094 7.230469 C 1.574219 5.4375 1.335938 3.65625 1.03125 1.886719 C 1.386719 1.886719 1.746094 1.886719 2.101562 1.886719 C 2.101562 2.242188 2.101562 2.601562 2.101562 2.957031 C 5.324219 2.765625 8.527344 2.410156 11.714844 1.886719 C 11.714844 1.414062 11.714844 0.9375 11.714844 0.464844 Z M 11.714844 0.464844 " fill-opacity="1" fill-rule="evenodd"/></g></g></g></g><g mask="url(#204a9eee27)"><g transform="matrix(1, 0, 0, 1, 36, 127)"><g clip-path="url(#2702c71c22)"><g clip-path="url(#6feeb7b605)"><path fill="#ffffff" d="M 7.578125 0.941406 C 10.246094 0.285156 11.972656 1.234375 12.742188 3.789062 C 12.75 5.003906 12.808594 6.191406 12.917969 7.351562 C 11.796875 7.894531 10.609375 8.128906 9.359375 8.0625 C 9.359375 7.707031 9.359375 7.351562 9.359375 6.992188 C 11.820312 6.285156 12.296875 4.917969 10.78125 2.898438 C 9.476562 2.445312 8.585938 2.863281 8.113281 4.144531 C 7.921875 5.5 7.566406 6.804688 7.042969 8.0625 C 5.363281 9.792969 3.582031 9.914062 1.703125 8.417969 C 0.976562 6.839844 0.558594 5.179688 0.457031 3.433594 C 1.523438 3.195312 2.59375 2.957031 3.660156 2.722656 C 2.953125 3.683594 2.359375 4.75 1.878906 5.925781 C 2.542969 7.910156 3.554688 8.148438 4.90625 6.636719 C 5.261719 5.214844 5.621094 3.789062 5.976562 2.363281 C 6.472656 1.804688 7.007812 1.332031 7.578125 0.941406 Z M 7.578125 0.941406 " fill-opacity="1" fill-rule="evenodd"/></g></g></g></g><g mask="url(#22347140a3)"><g transform="matrix(1, 0, 0, 1, 227, 131)"><g clip-path="url(#5c6bbbb95a)"><g clip-path="url(#26da8c12fc)"><path fill="#ffffff" d="M 4.929688 1.214844 C 12.382812 1.164062 14.695312 4.605469 11.875 11.539062 C 11.167969 11.910156 10.992188 12.386719 11.339844 12.964844 C 10.289062 13.222656 9.222656 13.160156 8.136719 12.785156 C 7.613281 12.53125 7.375 12.117188 7.421875 11.539062 C 11.289062 11.269531 12.535156 9.371094 11.160156 5.84375 C 8.796875 3.546875 6.125 3.128906 3.148438 4.597656 C 2.144531 5.785156 1.902344 7.089844 2.4375 8.511719 C 3.023438 8.726562 3.613281 8.90625 4.21875 9.046875 C 4.765625 8.78125 5.242188 8.421875 5.644531 7.976562 C 5.890625 9.730469 5.535156 11.390625 4.574219 12.964844 C 3.867188 12.683594 3.75 12.265625 4.21875 11.71875 C 3.175781 11.308594 2.105469 11.011719 1.015625 10.828125 C 0.171875 6.6875 1.480469 3.480469 4.929688 1.214844 Z M 4.929688 1.214844 " fill-opacity="1" fill-rule="evenodd"/></g></g></g></g><g mask="url(#03dbee9e60)"><g transform="matrix(1, 0, 0, 1, 39, 135)"><g clip-path="url(#791aa92d3f)"><g clip-path="url(#3a70615300)"><path fill="#ffffff" d="M 9.917969 0.417969 C 10.230469 0.371094 10.464844 0.488281 10.628906 0.773438 C 10.988281 1.722656 11.34375 2.671875 11.699219 3.621094 C 10.636719 5.097656 9.511719 6.523438 8.316406 7.894531 C 8.078125 8.371094 8.078125 8.84375 8.316406 9.320312 C 9.453125 8.878906 10.582031 8.40625 11.699219 7.894531 C 12.085938 7.578125 12.085938 7.222656 11.699219 6.828125 C 12.234375 6.386719 12.648438 6.503906 12.945312 7.183594 C 13.402344 8.488281 13.8125 9.792969 14.191406 11.097656 C 13.398438 10.699219 12.566406 10.519531 11.699219 10.566406 C 9.207031 11.457031 6.714844 12.34375 4.222656 13.234375 C 3.832031 13.554688 3.832031 13.910156 4.222656 14.304688 C 3.8125 14.742188 3.394531 14.742188 2.976562 14.304688 C 2.25 12.246094 1.597656 10.167969 1.015625 8.074219 C 1.359375 5.246094 2.902344 4.296875 5.644531 5.222656 C 5.949219 5.589844 6.304688 5.886719 6.714844 6.113281 C 7.722656 4.808594 8.734375 3.503906 9.742188 2.199219 C 9.714844 1.542969 9.777344 0.949219 9.917969 0.417969 Z M 4.222656 7.183594 C 5.828125 7.09375 6.894531 7.808594 7.425781 9.320312 C 6.003906 9.910156 4.582031 10.503906 3.152344 11.097656 C 2.011719 9.375 2.367188 8.066406 4.222656 7.183594 Z M 4.222656 7.183594 " fill-opacity="1" fill-rule="evenodd"/></g></g></g></g><g mask="url(#5dd8733bd7)"><g transform="matrix(1, 0, 0, 1, 223, 143)"><g clip-path="url(#efa19bccd9)"><g clip-path="url(#a4209db134)"><path fill="#ffffff" d="M 2.878906 0.605469 C 3.234375 0.578125 3.527344 0.695312 3.769531 0.964844 C 3.632812 1.523438 3.691406 2.058594 3.945312 2.566406 C 6.558594 3.832031 9.230469 4.960938 11.957031 5.949219 C 12.375 5.765625 12.667969 5.46875 12.847656 5.058594 C 13.253906 4.792969 13.609375 4.851562 13.914062 5.234375 C 13.105469 6.707031 12.515625 8.25 12.136719 9.863281 C 11.777344 9.863281 11.421875 9.863281 11.066406 9.863281 C 11.007812 9.394531 11.125 8.976562 11.421875 8.617188 C 8.589844 7.335938 5.742188 6.089844 2.878906 4.878906 C 2.449219 5.519531 1.859375 5.875 1.097656 5.949219 C 1.621094 4.144531 2.210938 2.367188 2.878906 0.605469 Z M 2.878906 0.605469 " fill-opacity="1" fill-rule="evenodd"/></g></g></g></g><g mask="url(#5a23f08a87)"><g transform="matrix(1, 0, 0, 1, 43, 147)"><g clip-path="url(#26388cc577)"><g clip-path="url(#982855ee4e)"><path fill="#ffffff" d="M 8.410156 0.878906 C 9.460938 0.78125 10.46875 0.898438 11.4375 1.234375 C 12.886719 3.890625 14.132812 6.621094 15.175781 9.425781 C 14.433594 9.402344 13.898438 9.046875 13.574219 8.355469 C 10.933594 9.765625 8.261719 11.132812 5.5625 12.453125 C 5.394531 12.914062 5.394531 13.449219 5.5625 14.054688 C 5.140625 14.132812 4.785156 14.011719 4.496094 13.699219 C 3.308594 11.324219 2.121094 8.949219 0.933594 6.578125 C 3.585938 3.539062 4.175781 3.835938 2.714844 7.464844 C 3.175781 8.449219 3.589844 9.457031 3.960938 10.492188 C 5.179688 9.796875 6.425781 9.140625 7.699219 8.535156 C 7.175781 7.277344 6.226562 6.625 4.851562 6.578125 C 5.726562 5.839844 6.671875 5.1875 7.699219 4.617188 C 8.222656 4.402344 8.578125 4.582031 8.765625 5.152344 C 7.816406 6.101562 7.816406 7.050781 8.765625 8 C 10.167969 7.484375 11.355469 6.710938 12.328125 5.6875 C 11.777344 3.652344 10.46875 2.40625 8.410156 1.949219 C 8.035156 1.617188 8.035156 1.261719 8.410156 0.878906 Z M 8.410156 0.878906 " fill-opacity="1" fill-rule="evenodd"/></g></g></g></g><g mask="url(#b655899f08)"><g transform="matrix(1, 0, 0, 1, 218, 150)"><g clip-path="url(#fcb44f14f2)"><g clip-path="url(#6c60ecc146)"><path fill="#ffffff" d="M 5.027344 0.371094 C 5.386719 0.371094 5.742188 0.371094 6.097656 0.371094 C 6.125 0.882812 6.007812 1.355469 5.742188 1.796875 C 8.410156 3.429688 11.144531 4.972656 13.929688 6.425781 C 14.207031 5.984375 14.5625 5.628906 15 5.355469 C 15.117188 5.59375 15.238281 5.832031 15.355469 6.070312 C 14.222656 8.816406 12.738281 11.308594 10.902344 13.546875 C 7.394531 12.761719 7.453125 11.988281 11.082031 11.230469 C 11.851562 10.527344 12.441406 9.695312 12.863281 8.738281 C 11.765625 8.042969 10.636719 7.390625 9.480469 6.78125 C 8.402344 7.75 8.34375 8.757812 9.300781 9.808594 C 9.183594 9.984375 9.0625 10.164062 8.945312 10.339844 C 7.878906 9.808594 6.808594 9.273438 5.742188 8.738281 C 5.269531 8.5 5.269531 8.265625 5.742188 8.027344 C 6.917969 8 7.75 7.464844 8.234375 6.425781 C 7.097656 5.382812 5.792969 4.730469 4.316406 4.464844 C 2.742188 6.125 2.507812 7.964844 3.605469 9.984375 C 3.496094 10.273438 3.316406 10.511719 3.070312 10.699219 C 2.296875 9.925781 1.527344 9.15625 0.757812 8.382812 C 2.328125 5.777344 3.75 3.109375 5.027344 0.371094 Z M 5.027344 0.371094 " fill-opacity="1" fill-rule="evenodd"/></g></g></g></g><g mask="url(#469796f609)"><g transform="matrix(1, 0, 0, 1, 211, 159)"><g clip-path="url(#49bd0a2a80)"><g clip-path="url(#ecc1876d28)"><path fill="#ffffff" d="M 6.6875 0.984375 C 7.691406 1.09375 7.925781 1.566406 7.402344 2.410156 C 9.394531 4.710938 11.765625 6.492188 14.523438 7.75 C 15.078125 7.671875 15.550781 7.433594 15.945312 7.039062 C 16.234375 7.148438 16.46875 7.328125 16.65625 7.574219 C 15.945312 8.523438 15.234375 9.472656 14.523438 10.421875 C 11.1875 10.535156 7.867188 10.769531 4.550781 11.132812 C 6.035156 12.289062 7.574219 13.355469 9.179688 14.335938 C 9.878906 14.558594 10.472656 14.382812 10.960938 13.804688 C 11.25 13.914062 11.484375 14.089844 11.671875 14.335938 C 10.902344 15.40625 10.066406 16.414062 9.179688 17.363281 C 9.042969 16.351562 8.449219 15.460938 7.402344 14.695312 C 5.132812 12.96875 2.875 11.246094 0.636719 9.53125 C 0.710938 9.320312 0.828125 9.144531 0.992188 8.996094 C 4.800781 8.703125 8.601562 8.347656 12.386719 7.929688 C 10.367188 6.5625 8.351562 5.199219 6.332031 3.835938 C 5.976562 4.070312 5.621094 4.308594 5.265625 4.546875 C 4.878906 4.238281 4.820312 3.882812 5.085938 3.476562 C 5.699219 2.6875 6.234375 1.859375 6.6875 0.984375 Z M 6.6875 0.984375 " fill-opacity="1" fill-rule="evenodd"/></g></g></g></g><g mask="url(#e7b59c1210)"><g transform="matrix(1, 0, 0, 1, 48, 161)"><g clip-path="url(#61e6a63070)"><g clip-path="url(#ca6bf7f77b)"><path fill="#ffffff" d="M 11.957031 0.765625 C 12.785156 0.765625 13.617188 0.765625 14.449219 0.765625 C 12.652344 4 10.570312 7.085938 8.21875 10.023438 C 8.144531 10.648438 7.96875 11.242188 7.683594 11.804688 C 6.492188 10.550781 5.421875 9.183594 4.480469 7.707031 C 5.273438 7.054688 5.925781 7.234375 6.4375 8.242188 C 8.144531 6.34375 9.570312 4.324219 10.710938 2.191406 C 8.4375 2.921875 6.125 3.515625 3.765625 3.96875 C 3.707031 4.441406 3.824219 4.855469 4.121094 5.214844 C 3.84375 5.65625 3.488281 5.773438 3.054688 5.574219 C 2.300781 4.476562 1.585938 3.347656 0.917969 2.191406 C 1.097656 2.070312 1.273438 1.953125 1.453125 1.835938 C 2.125 2.34375 2.898438 2.582031 3.765625 2.546875 C 6.589844 2.171875 9.320312 1.578125 11.957031 0.765625 Z M 11.957031 0.765625 " fill-opacity="1" fill-rule="evenodd"/></g></g></g></g><g mask="url(#8c51c42cca)"><g transform="matrix(1, 0, 0, 1, 56, 167)"><g clip-path="url(#da6a824921)"><g clip-path="url(#27b3a3685f)"><path fill="#ffffff" d="M 9.296875 0.460938 C 9.96875 0.390625 10.503906 0.628906 10.898438 1.175781 C 11.480469 2.109375 12.191406 2.941406 13.035156 3.667969 C 13.074219 5.394531 12.601562 5.515625 11.609375 4.023438 C 9.078125 5.972656 6.644531 8.050781 4.3125 10.253906 C 4.996094 10.695312 5.113281 11.230469 4.667969 11.855469 C 3.402344 10.632812 2.214844 9.328125 1.109375 7.941406 C 1.226562 7.582031 1.464844 7.347656 1.820312 7.226562 C 2.21875 7.703125 2.691406 7.878906 3.242188 7.761719 C 5.433594 5.777344 7.6875 3.878906 10.007812 2.066406 C 9.625 1.589844 9.386719 1.058594 9.296875 0.460938 Z M 9.296875 0.460938 " fill-opacity="1" fill-rule="evenodd"/></g></g></g></g><g mask="url(#ac17b03474)"><g transform="matrix(1, 0, 0, 1, 205, 170)"><g clip-path="url(#f4851ee91b)"><path fill="#ffffff" d="M 4.5 1.023438 C 5.757812 1.628906 6.707031 2.578125 7.347656 3.871094 C 7.167969 3.992188 6.992188 4.109375 6.8125 4.226562 C 5.25 3.167969 3.828125 3.285156 2.539062 4.582031 C 2.011719 6.125 2.542969 6.957031 4.144531 7.078125 C 5.121094 6.882812 6.070312 6.585938 6.992188 6.1875 C 9.703125 5.34375 11.363281 6.292969 11.976562 9.035156 C 11.871094 9.707031 11.691406 10.359375 11.441406 10.992188 C 10.480469 11.894531 9.589844 12.84375 8.773438 13.839844 C 7.648438 13.371094 6.820312 12.601562 6.28125 11.527344 C 6.398438 11.347656 6.519531 11.171875 6.636719 10.992188 C 8.484375 12.175781 9.785156 11.761719 10.550781 9.746094 C 10.339844 9.175781 9.980469 8.699219 9.484375 8.324219 C 8.203125 8.3125 7.015625 8.667969 5.921875 9.390625 C 2.203125 9.945312 0.601562 8.339844 1.117188 4.582031 C 1.800781 3.125 2.929688 2.292969 4.5 2.089844 C 4.5 1.734375 4.5 1.378906 4.5 1.023438 Z M 4.5 1.023438 " fill-opacity="1" fill-rule="evenodd"/></g></g></g><g mask="url(#4dfabbb4f9)"><g transform="matrix(1, 0, 0, 1, 61, 173)"><g clip-path="url(#7242414507)"><g clip-path="url(#2189bc2238)"><path fill="#ffffff" d="M 9.992188 0.515625 C 10.457031 1.191406 10.695312 2.023438 10.707031 3.007812 C 10.410156 6.097656 10.230469 9.183594 10.171875 12.265625 C 11.84375 10.710938 13.386719 9.050781 14.800781 7.28125 C 15.011719 6.78125 14.953125 6.308594 14.621094 5.855469 C 14.734375 5.570312 14.910156 5.332031 15.15625 5.144531 C 16.109375 6.039062 17 6.988281 17.828125 7.992188 C 17.371094 8.402344 16.898438 8.402344 16.402344 7.992188 C 14.035156 9.707031 11.960938 11.722656 10.171875 14.046875 C 9.949219 14.746094 10.128906 15.339844 10.707031 15.824219 C 10.589844 16.183594 10.351562 16.417969 9.992188 16.539062 C 9.167969 15.890625 8.398438 15.179688 7.679688 14.402344 C 7.777344 10.957031 7.894531 7.515625 8.035156 4.078125 C 6.859375 5.605469 5.558594 7.03125 4.117188 8.347656 C 3.867188 9.011719 4.042969 9.546875 4.652344 9.949219 C 4.375 10.390625 4.019531 10.507812 3.585938 10.308594 C 2.796875 9.460938 1.96875 8.6875 1.09375 7.992188 C 2.238281 7.894531 3.308594 7.359375 4.296875 6.390625 C 6.269531 4.480469 8.167969 2.519531 9.992188 0.515625 Z M 9.992188 0.515625 " fill-opacity="1" fill-rule="evenodd"/></g></g></g></g><g mask="url(#babf3f1b61)"><g transform="matrix(1, 0, 0, 1, 199, 177)"><g clip-path="url(#a4add87f38)"><g clip-path="url(#aab07c1473)"><path fill="#ffffff" d="M 4.089844 0.433594 C 4.445312 0.421875 4.679688 0.597656 4.800781 0.964844 C 4.402344 1.460938 4.226562 1.996094 4.269531 2.570312 C 6.09375 4.753906 8.054688 6.832031 10.144531 8.800781 C 10.695312 8.917969 11.167969 8.738281 11.566406 8.265625 C 11.683594 8.503906 11.804688 8.738281 11.921875 8.976562 C 10.867188 10.273438 9.675781 11.460938 8.363281 12.539062 C 7.445312 12.042969 7.445312 11.511719 8.363281 10.9375 C 6.34375 8.679688 4.328125 6.425781 2.308594 4.171875 C 1.777344 3.992188 1.363281 4.167969 1.0625 4.703125 C 0.816406 4.519531 0.640625 4.28125 0.53125 3.992188 C 1.617188 2.671875 2.800781 1.484375 4.089844 0.433594 Z M 4.089844 0.433594 " fill-opacity="1" fill-rule="evenodd"/></g></g></g></g><g mask="url(#6ad4c12f1d)"><g transform="matrix(1, 0, 0, 1, 192, 182)"><g clip-path="url(#43f246ff51)"><g clip-path="url(#c7a1744342)"><path fill="#ffffff" d="M 5.75 0.417969 C 7.117188 1.25 7.707031 2.4375 7.53125 3.976562 C 5.601562 1.914062 3.941406 2.089844 2.542969 4.511719 C 2.984375 5.484375 3.695312 6.136719 4.679688 6.46875 C 6.304688 5.882812 7.96875 5.703125 9.664062 5.9375 C 11.621094 7.054688 12.15625 8.65625 11.269531 10.742188 C 10.277344 11.910156 9.148438 12.859375 7.886719 13.589844 C 6.742188 12.925781 6.03125 11.976562 5.75 10.742188 C 6.789062 11.148438 7.855469 11.328125 8.953125 11.277344 C 9.953125 10.8125 10.25 10.039062 9.84375 8.960938 C 9.441406 8.449219 8.90625 8.210938 8.242188 8.25 C 6.738281 8.8125 5.195312 8.992188 3.613281 8.785156 C 0.628906 6.800781 0.390625 4.542969 2.902344 2.019531 C 3.6875 1.648438 4.519531 1.410156 5.394531 1.308594 C 5.660156 1.066406 5.78125 0.773438 5.75 0.417969 Z M 5.75 0.417969 " fill-opacity="1" fill-rule="evenodd"/></g></g></g></g><g mask="url(#0172aa57a3)"><g transform="matrix(1, 0, 0, 1, 72, 183)"><g clip-path="url(#36278b184f)"><g clip-path="url(#7bd5150d32)"><path fill="#ffffff" d="M 8.605469 0.839844 C 11.253906 0.652344 13.210938 1.71875 14.480469 4.046875 C 14.722656 4.875 14.722656 5.707031 14.480469 6.539062 C 13.175781 8.914062 11.691406 11.171875 10.03125 13.304688 C 10.269531 13.660156 10.503906 14.015625 10.742188 14.371094 C 10.566406 14.488281 10.386719 14.609375 10.210938 14.726562 C 8.917969 13.972656 7.671875 13.140625 6.472656 12.234375 C 6.152344 11.941406 6.035156 11.585938 6.113281 11.167969 C 6.832031 11.351562 7.542969 11.410156 8.25 11.34375 C 9.496094 9.625 10.742188 7.902344 11.988281 6.183594 C 12.917969 4.007812 12.207031 2.582031 9.851562 1.910156 C 9.089844 2.171875 8.378906 2.527344 7.71875 2.976562 C 6.53125 4.640625 5.34375 6.300781 4.15625 7.960938 C 3.9375 8.660156 4.113281 9.253906 4.691406 9.742188 C 4.503906 10.3125 4.144531 10.492188 3.621094 10.277344 C 2.738281 9.421875 1.789062 8.648438 0.773438 7.960938 C 0.890625 7.605469 1.128906 7.367188 1.484375 7.25 C 1.824219 7.542969 2.179688 7.601562 2.554688 7.429688 C 3.820312 6.046875 4.945312 4.5625 5.9375 2.976562 C 6.6875 2.042969 7.578125 1.332031 8.605469 0.839844 Z M 8.605469 0.839844 " fill-opacity="1" fill-rule="evenodd"/></g></g></g></g><g mask="url(#c075cc408d)"><g transform="matrix(1, 0, 0, 1, 138, 199)"><g clip-path="url(#c9f5bc6104)"><g clip-path="url(#ced6d2a57c)"><path fill="#ffffff" d="M 2.425781 1.21875 C 3.113281 1.300781 3.707031 1.597656 4.203125 2.109375 C 6.234375 2.171875 8.25 2.347656 10.257812 2.644531 C 7.652344 7.5 5.335938 12.484375 3.316406 17.597656 C 2.917969 18.144531 2.386719 18.382812 1.710938 18.308594 C 1.660156 17.203125 1.835938 16.136719 2.246094 15.105469 C 4.175781 11.601562 6.015625 8.039062 7.765625 4.425781 C 5.351562 3.707031 3.15625 4.0625 1.179688 5.492188 C 1 5.375 0.824219 5.253906 0.644531 5.136719 C 1.339844 3.867188 1.933594 2.558594 2.425781 1.21875 Z M 2.425781 1.21875 " fill-opacity="1" fill-rule="evenodd"/></g></g></g></g><g mask="url(#f88f9903f9)"><g transform="matrix(1, 0, 0, 1, 148, 199)"><g clip-path="url(#d819c0cb1b)"><g clip-path="url(#7881874136)"><path fill="#ffffff" d="M 7.734375 1.21875 C 8.15625 1.140625 8.511719 1.261719 8.804688 1.574219 C 8.417969 2.371094 8.183594 3.199219 8.089844 4.066406 C 6.785156 4.066406 5.480469 4.066406 4.175781 4.066406 C 3.9375 4.894531 3.878906 5.726562 3.996094 6.5625 C 8.1875 8.109375 9.371094 10.957031 7.558594 15.105469 C 5.449219 17.527344 3.132812 17.824219 0.613281 15.996094 C 0.824219 15.535156 1.179688 15.238281 1.683594 15.105469 C 3.570312 16.324219 5.054688 15.96875 6.132812 14.039062 C 6.667969 10.828125 5.304688 8.929688 2.039062 8.339844 C 2.585938 6.359375 2.941406 4.339844 3.105469 2.289062 C 4.300781 2.347656 5.484375 2.289062 6.667969 2.109375 C 7.179688 1.976562 7.535156 1.679688 7.734375 1.21875 Z M 7.734375 1.21875 " fill-opacity="1" fill-rule="evenodd"/></g></g></g></g><g mask="url(#c7d69a2358)"><g transform="matrix(1, 0, 0, 1, 121, 200)"><g clip-path="url(#ba0eb08e71)"><g clip-path="url(#8b92c67afb)"><path fill="#ffffff" d="M 0.554688 0.933594 C 2.691406 0.933594 4.828125 0.933594 6.960938 0.933594 C 6.960938 1.40625 6.960938 1.882812 6.960938 2.355469 C 6.25 2.355469 5.539062 2.355469 4.828125 2.355469 C 4.828125 4.847656 4.828125 7.339844 4.828125 9.832031 C 5.539062 9.832031 6.25 9.832031 6.960938 9.832031 C 6.960938 10.308594 6.960938 10.78125 6.960938 11.257812 C 4.863281 10.949219 2.726562 10.949219 0.554688 11.257812 C 0.554688 10.78125 0.554688 10.308594 0.554688 9.832031 C 1.253906 9.917969 1.90625 9.800781 2.511719 9.476562 C 2.691406 7.105469 2.75 4.734375 2.691406 2.355469 C 1.976562 2.355469 1.265625 2.355469 0.554688 2.355469 C 0.554688 1.882812 0.554688 1.40625 0.554688 0.933594 Z M 0.554688 0.933594 " fill-opacity="1" fill-rule="evenodd"/></g></g></g></g><g mask="url(#417eaf8730)"><g transform="matrix(1, 0, 0, 1, 130, 200)"><g clip-path="url(#edefaf7233)"><g clip-path="url(#127225eec5)"><path fill="#ffffff" d="M 0.453125 0.933594 C 2.589844 0.933594 4.726562 0.933594 6.863281 0.933594 C 6.769531 2.203125 6.058594 2.675781 4.726562 2.355469 C 4.375 4.601562 4.316406 6.855469 4.550781 9.121094 C 5.171875 9.746094 5.945312 9.980469 6.863281 9.832031 C 6.863281 10.308594 6.863281 10.78125 6.863281 11.257812 C 4.691406 10.949219 2.554688 10.949219 0.453125 11.257812 C 0.453125 10.78125 0.453125 10.308594 0.453125 9.832031 C 1.09375 9.933594 1.683594 9.816406 2.234375 9.476562 C 2.636719 7.242188 2.695312 4.984375 2.414062 2.710938 C 1.808594 2.390625 1.15625 2.269531 0.453125 2.355469 C 0.453125 1.882812 0.453125 1.40625 0.453125 0.933594 Z M 0.453125 0.933594 " fill-opacity="1" fill-rule="evenodd"/></g></g></g></g></svg>