<svg xmlns="http://www.w3.org/2000/svg" xmlns:xlink="http://www.w3.org/1999/xlink" width="370" zoomAndPan="magnify" viewBox="0 0 277.5 277.500005" height="370" preserveAspectRatio="xMidYMid meet" version="1.0"><path fill="#ffffff" d="M 0 0 L 277 0 L 277 277 L 0 277 Z M 0 0 " fill-opacity="1" fill-rule="nonzero"/><path fill="#ffffff" d="M 0 0 L 277 0 L 277 277 L 0 277 Z M 0 0 " fill-opacity="1" fill-rule="nonzero"/><path fill="#10b1b4" d="M 136.96875 5.78125 C 137.835938 6.050781 138.101562 6.847656 138.234375 9.835938 L 138.300781 13.625 L 138.765625 10.304688 C 139.230469 6.515625 139.230469 6.515625 142.15625 14.757812 C 143.019531 17.28125 143.882812 19.277344 144.082031 19.277344 C 144.28125 19.277344 145.878906 16.484375 147.605469 13.09375 L 150.730469 6.980469 L 150.597656 13.625 L 150.398438 20.273438 L 152.390625 20.40625 C 153.523438 20.472656 153.988281 20.40625 153.589844 20.207031 C 152.988281 19.941406 152.722656 17.945312 152.722656 13.625 C 152.722656 8.375 152.921875 7.246094 153.921875 6.714844 C 154.851562 6.117188 154.652344 6.050781 152.722656 5.980469 C 150.464844 5.980469 150.265625 6.183594 147.804688 11.101562 C 145.011719 16.816406 144.945312 16.816406 142.753906 10.238281 C 141.355469 6.050781 140.359375 5.25 137.101562 5.382812 C 135.972656 5.449219 135.972656 5.515625 136.96875 5.78125 Z M 136.96875 5.78125 " fill-opacity="1" fill-rule="nonzero"/><path fill="#10b1b4" d="M 119.222656 7.710938 C 118.625 8.242188 118.160156 9.371094 118.226562 10.171875 C 118.292969 11.5 118.359375 11.5 118.757812 9.96875 C 119.355469 7.710938 119.820312 8.707031 120.816406 14.824219 C 121.550781 19.277344 121.550781 20.140625 120.75 20.738281 C 120.085938 21.203125 120.285156 21.269531 121.484375 21.003906 C 122.414062 20.804688 123.742188 20.605469 124.472656 20.605469 C 125.472656 20.605469 125.605469 20.472656 124.871094 20.007812 C 124.007812 19.476562 121.351562 8.109375 121.949219 7.113281 C 122.480469 6.183594 120.21875 6.648438 119.222656 7.710938 Z M 119.222656 7.710938 " fill-opacity="1" fill-rule="nonzero"/><path fill="#10b1b4" d="M 159.636719 10.105469 C 159.636719 11.699219 159.371094 14.492188 159.039062 16.351562 C 158.574219 19.542969 158.640625 19.808594 160.367188 21.136719 C 161.429688 22 163.160156 22.601562 164.421875 22.601562 C 167.347656 22.601562 169.007812 20.40625 170.273438 14.625 C 171.535156 9.039062 171.535156 9.304688 170.273438 9.304688 C 169.742188 9.304688 169.472656 9.570312 169.675781 9.96875 C 170.273438 10.902344 168.742188 18.679688 167.613281 20.40625 C 166.417969 22.269531 163.359375 22.46875 161.832031 20.738281 C 160.433594 19.210938 160.433594 19.011719 161.765625 13.226562 C 162.496094 9.902344 163.09375 8.640625 163.890625 8.574219 C 164.554688 8.507812 164.355469 8.308594 163.359375 7.976562 C 160.101562 6.914062 159.703125 7.113281 159.636719 10.105469 Z M 159.636719 10.105469 " fill-opacity="1" fill-rule="nonzero"/><path fill="#10b1b4" d="M 107.257812 9.105469 C 105.796875 9.371094 105.53125 9.570312 106.261719 9.96875 C 106.792969 10.304688 107.523438 12.164062 107.988281 14.09375 L 108.785156 17.613281 L 108.453125 13.957031 L 108.121094 10.304688 L 112.042969 16.152344 C 115.699219 21.601562 116.03125 21.867188 116.429688 20.339844 C 116.695312 19.144531 116.496094 18.28125 115.699219 17.480469 C 115.035156 16.816406 113.441406 14.558594 112.175781 12.429688 C 110.914062 10.371094 109.71875 8.707031 109.519531 8.707031 C 109.320312 8.773438 108.320312 8.972656 107.257812 9.105469 Z M 107.257812 9.105469 " fill-opacity="1" fill-rule="nonzero"/><path fill="#10b1b4" d="M 177.515625 11.433594 C 175.855469 13.558594 175.789062 14.09375 177.183594 13.359375 C 178.847656 12.496094 179.976562 12.429688 181.238281 13.226562 C 182.570312 14.09375 178.914062 24.660156 177.117188 25.125 C 176.054688 25.390625 176.253906 25.589844 177.984375 26.324219 C 180.640625 27.453125 180.640625 27.453125 180.640625 26.121094 C 180.640625 24.195312 184.230469 14.625 184.960938 14.625 C 186.226562 14.625 188.617188 16.683594 188.683594 17.8125 C 188.683594 18.746094 188.816406 18.679688 189.28125 17.613281 C 190.214844 15.421875 190.015625 14.890625 188.351562 14.757812 C 186.558594 14.625 180.042969 12.164062 178.914062 11.234375 C 178.449219 10.835938 177.917969 10.902344 177.515625 11.433594 Z M 177.515625 11.433594 " fill-opacity="1" fill-rule="nonzero"/><path fill="#10b1b4" d="M 98.21875 11.964844 C 97.289062 12.296875 97.019531 12.496094 97.621094 12.5625 C 98.949219 12.628906 101.742188 18.746094 101.808594 21.867188 C 101.875 23.53125 101.410156 24.394531 100.078125 25.457031 C 98.417969 26.722656 98.21875 26.722656 96.6875 25.722656 C 94.894531 24.527344 91.835938 16.683594 92.5 14.957031 C 92.699219 14.425781 92.765625 13.957031 92.699219 13.957031 C 92.632812 13.957031 91.4375 14.359375 89.976562 14.890625 C 88.046875 15.554688 87.78125 15.820312 88.710938 16.085938 C 89.511719 16.285156 90.308594 17.679688 91.105469 20.074219 C 92.699219 25.257812 94.429688 27.253906 97.289062 27.253906 C 99.878906 27.253906 102.871094 24.859375 102.871094 22.734375 C 102.871094 22 102.273438 19.410156 101.542969 17.015625 C 100.742188 14.558594 100.34375 12.296875 100.542969 11.964844 C 101.007812 11.234375 100.542969 11.234375 98.21875 11.964844 Z M 98.21875 11.964844 " fill-opacity="1" fill-rule="nonzero"/><path fill="#10b1b4" d="M 117.5625 13.027344 C 117.5625 13.757812 117.761719 13.957031 117.960938 13.425781 C 118.160156 12.960938 118.09375 12.363281 117.894531 12.164062 C 117.695312 11.898438 117.496094 12.296875 117.5625 13.027344 Z M 117.5625 13.027344 " fill-opacity="1" fill-rule="nonzero"/><path fill="#10b1b4" d="M 137.503906 16.085938 C 137.503906 17.480469 137.4375 18.746094 137.4375 18.945312 C 137.4375 19.144531 138.101562 19.410156 138.964844 19.609375 C 140.027344 19.875 140.160156 19.808594 139.496094 19.34375 C 138.964844 19.011719 138.367188 17.613281 138.101562 16.21875 L 137.570312 13.625 Z M 137.503906 16.085938 " fill-opacity="1" fill-rule="nonzero"/><path fill="#10b1b4" d="M 116.894531 15.6875 C 116.894531 16.417969 117.09375 16.617188 117.292969 16.085938 C 117.496094 15.621094 117.429688 15.023438 117.226562 14.824219 C 117.027344 14.558594 116.828125 14.957031 116.894531 15.6875 Z M 116.894531 15.6875 " fill-opacity="1" fill-rule="nonzero"/><path fill="#10b1b4" d="M 108.785156 20.40625 C 108.519531 23.066406 108.585938 23.265625 110.050781 23.265625 C 111.378906 23.265625 111.511719 23.066406 110.914062 22.335938 C 110.449219 21.800781 109.851562 20.539062 109.585938 19.476562 C 109.050781 17.746094 109.050781 17.746094 108.785156 20.40625 Z M 108.785156 20.40625 " fill-opacity="1" fill-rule="nonzero"/><path fill="#10b1b4" d="M 194.601562 18.945312 C 194.601562 20.804688 189.683594 29.910156 188.617188 29.910156 C 188.085938 29.976562 188.683594 30.511719 189.949219 31.242188 C 192.273438 32.503906 194.46875 33.101562 192.671875 31.972656 C 191.941406 31.507812 192.207031 30.378906 194.269531 25.921875 C 195.664062 23 197.257812 20.273438 197.792969 20.007812 C 198.523438 19.609375 198.257812 19.277344 196.660156 18.746094 C 195 18.148438 194.601562 18.214844 194.601562 18.945312 Z M 194.601562 18.945312 " fill-opacity="1" fill-rule="nonzero"/><path fill="#10b1b4" d="M 78.941406 19.941406 C 78.144531 20.472656 78.210938 20.605469 79.40625 20.605469 C 81.203125 20.605469 82.929688 22.269531 82.929688 23.929688 C 82.929688 24.660156 82.265625 25.855469 81.46875 26.589844 L 80.003906 27.984375 L 78.410156 24.925781 C 77.613281 23.265625 77.078125 21.601562 77.28125 21.203125 C 77.546875 20.871094 76.613281 21.070312 75.285156 21.734375 C 73.292969 22.667969 73.09375 22.933594 74.089844 23.332031 C 75.550781 23.863281 80.535156 33.566406 79.9375 34.566406 C 79.40625 35.496094 79.738281 35.429688 82.132812 34.164062 C 84.257812 33.101562 84.921875 32.4375 83.527344 32.703125 C 82.332031 32.96875 79.9375 28.648438 80.800781 27.785156 C 81.335938 27.253906 82.398438 27.652344 84.65625 29.113281 C 87.25 30.777344 88.046875 30.976562 89.3125 30.445312 C 90.839844 29.710938 90.707031 29.644531 87.25 28.050781 C 84.390625 26.789062 83.660156 26.121094 83.992188 25.324219 C 84.988281 22.933594 84.988281 21.402344 83.925781 20.40625 C 82.730469 19.144531 80.46875 18.945312 78.941406 19.941406 Z M 78.941406 19.941406 " fill-opacity="1" fill-rule="nonzero"/><path fill="#10b1b4" d="M 203.242188 22.933594 C 203.90625 23.730469 203.507812 24.792969 200.980469 28.847656 C 199.253906 31.574219 197.390625 33.898438 196.792969 34.03125 C 195.996094 34.164062 196.128906 34.433594 197.523438 35.097656 C 198.523438 35.5625 199.1875 35.628906 198.921875 35.230469 C 198.457031 34.5 202.976562 25.921875 203.839844 25.921875 C 204.105469 25.921875 204.703125 29.179688 205.234375 33.234375 C 205.699219 37.222656 206.300781 40.546875 206.5 40.546875 C 206.765625 40.546875 207.496094 39.617188 208.160156 38.488281 C 208.890625 37.289062 209.089844 36.558594 208.757812 36.757812 C 207.828125 37.355469 207.429688 35.5625 206.832031 29.113281 C 206.433594 24.726562 206.167969 23.796875 204.835938 22.933594 C 202.84375 21.667969 202.179688 21.667969 203.242188 22.933594 Z M 203.242188 22.933594 " fill-opacity="1" fill-rule="nonzero"/><path fill="#10b1b4" d="M 212.347656 28.582031 C 212.546875 29.3125 211.882812 31.308594 210.953125 33.035156 C 209.957031 34.832031 209.6875 35.496094 210.355469 34.566406 C 211.019531 33.632812 212.347656 32.105469 213.277344 31.109375 L 215.074219 29.3125 L 213.542969 28.316406 C 212.148438 27.386719 212.015625 27.386719 212.347656 28.582031 Z M 212.347656 28.582031 " fill-opacity="1" fill-rule="nonzero"/><path fill="#10b1b4" d="M 62.921875 29.445312 C 58.269531 32.570312 58.070312 37.820312 62.457031 41.542969 C 64.183594 43.007812 65.046875 43.273438 66.910156 42.941406 C 72.09375 42.140625 75.152344 37.289062 73.359375 32.902344 C 72.292969 30.445312 68.902344 27.917969 66.578125 27.917969 C 65.78125 27.917969 64.183594 28.582031 62.921875 29.445312 Z M 67.707031 30.246094 C 72.824219 32.902344 73.890625 40.347656 69.304688 41.476562 C 63.851562 42.875 58.070312 33.367188 62.457031 30.3125 C 64.316406 28.980469 65.183594 28.980469 67.707031 30.246094 Z M 67.707031 30.246094 " fill-opacity="1" fill-rule="nonzero"/><path fill="#10b1b4" d="M 219.59375 33.433594 C 220.058594 34.632812 212.746094 43.605469 211.417969 43.40625 C 210.886719 43.40625 210.6875 43.539062 210.953125 43.804688 C 211.285156 44.003906 212.613281 45.132812 213.878906 46.195312 C 215.140625 47.261719 215.804688 47.726562 215.40625 47.195312 C 214.144531 45.796875 214.410156 44.402344 216.269531 42.34375 C 217.597656 40.8125 218.132812 40.546875 218.863281 41.210938 C 219.328125 41.609375 219.859375 42.609375 219.992188 43.40625 C 220.191406 44.734375 220.257812 44.734375 221.453125 42.941406 C 222.453125 41.410156 222.453125 41.078125 221.652344 41.410156 C 221.121094 41.609375 220.125 41.410156 219.460938 40.878906 C 218.332031 40.082031 218.332031 39.882812 220.191406 37.554688 L 222.054688 35.03125 L 223.980469 37.15625 C 224.976562 38.289062 225.84375 39.882812 225.84375 40.746094 C 225.84375 41.941406 225.976562 42.007812 226.507812 41.210938 C 227.636719 39.484375 227.238281 38.820312 223.183594 35.628906 C 220.988281 33.898438 219.394531 32.902344 219.59375 33.433594 Z M 219.59375 33.433594 " fill-opacity="1" fill-rule="nonzero"/><path fill="#10b1b4" d="M 50.359375 39.285156 C 49.097656 40.347656 48.496094 41.078125 49.097656 40.878906 C 50.425781 40.414062 58.535156 49.054688 58.003906 50.320312 C 57.472656 51.847656 58.734375 51.25 60.726562 49.054688 C 61.792969 47.859375 62.191406 47.261719 61.59375 47.726562 C 60.660156 48.457031 59.929688 47.925781 56.40625 43.804688 C 54.082031 41.144531 52.417969 38.621094 52.617188 38.152344 C 53.085938 36.957031 53.085938 36.957031 50.359375 39.285156 Z M 50.359375 39.285156 " fill-opacity="1" fill-rule="nonzero"/><path fill="#10b1b4" d="M 231.558594 43.671875 C 231.824219 44.667969 230.894531 45.929688 227.835938 48.722656 C 225.574219 50.785156 223.316406 52.511719 222.785156 52.511719 C 221.988281 52.511719 221.988281 52.710938 222.652344 53.839844 C 223.117188 54.574219 223.714844 55.171875 224.046875 55.171875 C 224.3125 55.171875 224.378906 54.839844 224.113281 54.441406 C 223.714844 53.773438 230.230469 46.53125 231.226562 46.53125 C 231.425781 46.53125 231.226562 49.320312 230.761719 52.644531 C 229.296875 62.816406 229.164062 62.550781 234.351562 58.027344 C 236.808594 55.835938 239.335938 53.773438 240 53.375 C 241.128906 52.777344 241.128906 52.710938 239.800781 51.515625 C 238.804688 50.585938 238.539062 50.519531 238.804688 51.25 C 239.203125 52.246094 233.285156 58.828125 232.621094 58.160156 C 232.421875 58.027344 232.6875 55.039062 233.21875 51.515625 C 234.019531 45.332031 234.019531 45.132812 232.621094 43.738281 C 231.292969 42.34375 231.226562 42.34375 231.558594 43.671875 Z M 231.558594 43.671875 " fill-opacity="1" fill-rule="nonzero"/><path fill="#10b1b4" d="M 134.578125 44.933594 C 132.980469 50.320312 131.253906 66.203125 132.117188 67.734375 C 132.582031 68.664062 132.449219 69.859375 131.785156 71.789062 C 130.589844 75.179688 130.589844 75.113281 131.652344 75.113281 C 132.847656 75.113281 134.3125 78.503906 133.449219 79.367188 C 133.113281 79.699219 132.78125 80.828125 132.78125 81.824219 C 132.78125 82.890625 131.785156 85.28125 130.65625 87.277344 C 129.460938 89.269531 127.730469 92.859375 126.800781 95.320312 C 125.472656 98.84375 124.871094 99.707031 123.875 99.574219 C 123.210938 99.441406 122.414062 98.910156 122.082031 98.375 C 121.015625 96.25 118.292969 81.425781 118.890625 80.828125 C 119.953125 79.632812 119.554688 76.574219 118.160156 75.578125 C 117.363281 74.980469 116.5625 73.382812 116.164062 71.191406 C 115.101562 65.671875 112.90625 62.550781 113.773438 67.800781 L 114.171875 70.460938 L 111.644531 70.058594 C 106.128906 69.195312 102.007812 73.78125 103.734375 78.835938 C 104.730469 81.824219 107.257812 83.886719 107.921875 82.15625 C 108.121094 81.625 107.722656 80.363281 106.925781 79.367188 C 105.195312 77.171875 105.195312 76.375 106.925781 74.179688 C 108.585938 72.054688 111.445312 71.855469 113.171875 73.78125 C 114.105469 74.847656 114.238281 75.3125 113.640625 75.910156 C 112.441406 77.105469 112.707031 79.566406 114.171875 80.960938 C 115.101562 81.824219 115.964844 84.484375 117.027344 89.867188 L 118.625 97.578125 L 117.160156 98.242188 C 116.097656 98.777344 115.566406 99.707031 115.367188 101.5 C 114.902344 104.890625 115.234375 105.488281 117.828125 106.351562 C 119.820312 107.019531 120.152344 107.484375 120.75 110.40625 C 122.082031 116.589844 121.351562 120.3125 118.890625 120.3125 C 115.832031 120.3125 108.71875 117.386719 103.203125 113.929688 C 89.3125 105.15625 80.335938 101.832031 72.691406 102.632812 C 69.171875 102.964844 68.371094 102.832031 65.183594 101.035156 C 61.992188 99.242188 60.726562 99.109375 62.257812 100.703125 C 62.589844 101.101562 63.054688 102.097656 63.320312 102.964844 L 63.785156 104.558594 L 61.726562 103.03125 C 60.527344 102.230469 59.464844 101.699219 59.332031 101.832031 C 59.199219 101.964844 59.398438 103.363281 59.730469 104.957031 C 60.261719 107.285156 60.128906 108.480469 59.332031 110.472656 C 58.800781 111.871094 58.335938 113.996094 58.335938 115.195312 C 58.335938 118.183594 62.65625 133.871094 64.515625 137.527344 C 66.445312 141.449219 67.839844 142.246094 71.496094 141.449219 C 74.15625 140.851562 74.289062 140.71875 74.289062 138.390625 C 74.289062 136.730469 74.753906 135.535156 75.617188 134.738281 C 77.214844 133.40625 77.28125 132.675781 75.949219 131.347656 C 74.820312 130.28125 74.621094 128.554688 75.550781 127.957031 C 76.546875 127.359375 78.875 130.816406 79.9375 134.46875 C 81.734375 140.585938 81.335938 142.644531 77.28125 148.695312 L 73.625 154.144531 L 71.164062 153.679688 C 69.769531 153.414062 66.84375 153.214844 64.648438 153.214844 L 60.660156 153.214844 L 60.460938 156.007812 C 60.195312 159.53125 63.054688 170.832031 65.515625 176.28125 C 67.574219 180.734375 72.824219 187.25 73.625 186.316406 C 73.890625 186.050781 74.6875 183.992188 75.417969 181.730469 L 76.746094 177.742188 L 74.222656 176.28125 C 72.425781 175.285156 71.828125 174.484375 72.09375 173.753906 C 72.292969 173.15625 71.628906 171.894531 70.367188 170.5625 C 68.105469 168.171875 65.847656 161.722656 66.976562 160.59375 C 67.308594 160.261719 69.636719 160.726562 72.957031 161.921875 L 78.34375 163.851562 L 80.601562 169.167969 C 84.058594 177.078125 86.519531 180.667969 94.363281 188.976562 L 101.410156 196.554688 L 100.210938 199.28125 C 99.480469 200.808594 97.488281 203.402344 95.691406 205.0625 C 93.832031 206.789062 92.167969 209.050781 91.769531 210.378906 L 91.039062 212.707031 L 102.007812 212.707031 L 102.339844 209.316406 C 102.605469 206.789062 103.136719 205.460938 104.730469 203.867188 C 105.796875 202.667969 106.925781 200.742188 107.191406 199.546875 C 107.457031 198.414062 107.855469 197.417969 108.054688 197.417969 C 108.320312 197.484375 110.316406 197.882812 112.507812 198.414062 C 114.703125 198.949219 117.894531 199.414062 119.554688 199.414062 C 122.8125 199.414062 130.855469 197.550781 134.910156 195.824219 C 137.503906 194.691406 137.503906 194.757812 135.507812 188.113281 C 135.175781 186.984375 135.441406 185.519531 136.171875 183.792969 L 137.367188 181.132812 L 143.550781 181.398438 C 147.140625 181.53125 149.933594 181.929688 150.265625 182.394531 C 151.195312 183.660156 150.265625 189.773438 148.734375 192.832031 C 147.339844 195.558594 147.339844 195.691406 148.46875 196.554688 C 149.132812 197.019531 149.933594 197.417969 150.265625 197.417969 C 150.597656 197.417969 150.730469 198.148438 150.597656 199.082031 C 150.199219 201.074219 150.132812 201.074219 157.175781 199.347656 C 160.300781 198.613281 162.960938 198.148438 163.160156 198.28125 C 163.824219 198.949219 161.429688 203.203125 159.769531 204.265625 C 157.777344 205.59375 154.054688 210.445312 154.054688 211.84375 C 154.054688 212.507812 155.382812 212.707031 159.703125 212.707031 L 165.351562 212.707031 L 165.351562 209.449219 C 165.351562 206.722656 165.6875 205.925781 167.679688 203.800781 C 169.007812 202.335938 170.007812 200.609375 170.007812 199.679688 L 170.007812 198.082031 L 179.976562 198.082031 C 188.019531 198.082031 189.949219 198.28125 189.949219 199.015625 C 189.949219 199.480469 188.285156 201.738281 186.292969 204 C 183.101562 207.589844 180.640625 211.179688 180.640625 212.375 C 180.640625 212.574219 183.167969 212.707031 186.292969 212.707031 L 191.941406 212.707031 L 191.941406 210.378906 C 191.941406 207.589844 193.136719 204.996094 195.53125 202.800781 C 196.460938 201.871094 197.257812 200.476562 197.257812 199.613281 C 197.257812 198.214844 197.523438 198.082031 200.914062 198.082031 C 202.910156 198.082031 204.570312 197.816406 204.570312 197.550781 C 204.570312 197.285156 202.910156 192.699219 200.914062 187.449219 C 195.664062 173.6875 195.398438 171.496094 197.191406 161.65625 C 198.058594 157.203125 198.523438 153.015625 198.324219 152.285156 C 197.125 148.03125 196.859375 148.296875 201.046875 148.695312 C 204.371094 148.960938 205.5 148.761719 209.421875 146.96875 C 216.46875 143.710938 217.332031 144.109375 218.398438 151.15625 C 218.730469 153.214844 219.527344 155.476562 220.191406 156.207031 C 221.855469 158 224.976562 158.800781 227.835938 158 C 231.027344 157.203125 231.890625 156.207031 229.429688 156.207031 C 226.574219 156.207031 224.511719 154.542969 224.511719 152.21875 C 224.511719 149.957031 225.375 147.832031 228.035156 143.378906 C 230.363281 139.523438 230.164062 136.398438 227.4375 133.539062 C 222.121094 127.957031 215.207031 129.949219 208.625 138.925781 C 205.96875 142.578125 204.769531 143.644531 202.644531 144.308594 C 199.1875 145.371094 197.390625 144.773438 193.269531 141.449219 C 186.226562 135.667969 186.691406 135.800781 172.066406 133.671875 C 164.621094 132.609375 158.242188 131.414062 157.910156 131.082031 C 157.175781 130.347656 152.65625 94.1875 152.589844 88.738281 C 152.589844 86.546875 152.789062 83.488281 153.054688 82.023438 C 153.65625 78.636719 152.257812 75.710938 149.199219 73.714844 C 147.074219 72.253906 147.074219 72.253906 145.480469 61.550781 C 144.613281 55.703125 143.75 49.453125 143.617188 47.660156 C 143.417969 45.929688 143.019531 44.535156 142.753906 44.535156 C 142.488281 44.535156 141.691406 46.664062 141.089844 49.1875 C 140.492188 51.78125 139.695312 53.972656 139.429688 54.171875 C 139.097656 54.375 138.367188 52.910156 137.703125 51.050781 C 137.101562 49.121094 136.171875 46.664062 135.773438 45.597656 C 135.042969 43.9375 134.910156 43.804688 134.578125 44.933594 Z M 134.578125 44.933594 " fill-opacity="1" fill-rule="nonzero"/><path fill="#10b1b4" d="M 40.71875 48.921875 L 38.726562 50.652344 L 40.851562 49.585938 C 43.511719 48.257812 43.976562 48.257812 46.703125 49.585938 C 49.296875 50.785156 51.355469 54.507812 50.757812 56.832031 C 50.359375 58.496094 48.628906 60.488281 47.699219 60.488281 C 46.503906 60.488281 38.394531 52.378906 38.859375 51.582031 C 39.058594 51.183594 38.328125 51.714844 37.199219 52.777344 C 34.804688 54.972656 34.671875 55.304688 36.066406 54.773438 C 37.398438 54.238281 45.375 61.683594 45.308594 63.28125 C 45.242188 64.34375 45.441406 64.34375 46.902344 63.015625 C 50.292969 59.824219 52.351562 56.367188 52.351562 53.707031 C 52.351562 47.925781 45.308594 45 40.71875 48.921875 Z M 40.71875 48.921875 " fill-opacity="1" fill-rule="nonzero"/><path fill="#10b1b4" d="M 217.664062 49.320312 C 218.464844 50.183594 218.996094 50.320312 219.925781 49.785156 C 221.652344 48.855469 221.519531 48.722656 218.863281 48.390625 C 216.734375 48.125 216.667969 48.191406 217.664062 49.320312 Z M 217.664062 49.320312 " fill-opacity="1" fill-rule="nonzero"/><path fill="#10b1b4" d="M 31.214844 59.824219 C 30.21875 61.417969 30.21875 62.015625 31.148438 61.484375 C 32.078125 60.886719 38.726562 65.339844 40.121094 67.46875 C 41.1875 69.128906 41.1875 69.328125 39.921875 70.992188 C 39.191406 71.988281 38.0625 72.917969 37.464844 72.984375 C 35.933594 73.316406 27.757812 67.933594 27.757812 66.539062 C 27.757812 65.738281 27.425781 65.871094 26.496094 67.070312 L 25.234375 68.730469 L 30.285156 71.921875 C 33.078125 73.648438 35.800781 75.113281 36.398438 75.113281 C 37.597656 75.113281 40.652344 72.121094 41.253906 70.257812 C 41.984375 68.199219 40.519531 66.003906 36.597656 63.148438 C 34.472656 61.683594 32.609375 59.957031 32.410156 59.425781 C 32.144531 58.695312 31.878906 58.761719 31.214844 59.824219 Z M 31.214844 59.824219 " fill-opacity="1" fill-rule="nonzero"/><path fill="#10b1b4" d="M 241.527344 59.492188 C 240.53125 60.289062 240.265625 61.351562 240.199219 64.941406 C 240.132812 69.128906 240 69.460938 238.605469 69.660156 C 235.679688 70.125 233.953125 66.671875 236.011719 64.542969 C 236.675781 63.8125 236.609375 63.679688 235.613281 64.078125 C 234.949219 64.277344 234.21875 64.476562 234.085938 64.476562 C 233.351562 64.476562 234.816406 68.265625 236.011719 69.59375 C 237.605469 71.390625 239.601562 71.523438 241.726562 70.058594 C 243.125 69.0625 243.257812 68.664062 242.792969 64.742188 C 242.394531 61.085938 242.527344 60.421875 243.523438 60.023438 C 245.25 59.359375 246.78125 60.753906 246.78125 63.082031 C 246.78125 65.273438 247.113281 65.539062 248.242188 64.410156 C 248.839844 63.8125 248.773438 63.214844 247.976562 61.882812 C 245.78125 58.429688 243.855469 57.695312 241.527344 59.492188 Z M 241.527344 59.492188 " fill-opacity="1" fill-rule="nonzero"/><path fill="#10b1b4" d="M 251.765625 68.863281 C 251.765625 70.394531 242.726562 75.976562 241.0625 75.578125 C 240.066406 75.3125 240.132812 75.578125 241.261719 77.503906 C 242.59375 79.832031 243.257812 80.363281 242.992188 79.035156 C 242.859375 78.570312 245.183594 76.839844 248.042969 75.046875 C 252.363281 72.453125 253.558594 71.988281 254.359375 72.652344 C 254.957031 73.117188 254.691406 72.253906 253.757812 70.792969 C 251.699219 67.335938 251.765625 67.402344 251.765625 68.863281 Z M 251.765625 68.863281 " fill-opacity="1" fill-rule="nonzero"/><path fill="#10b1b4" d="M 21.179688 75.511719 C 20.246094 77.636719 20.710938 78.4375 21.777344 76.507812 C 22.175781 75.710938 23.171875 75.113281 23.96875 75.113281 C 25.167969 75.113281 25.234375 74.980469 24.433594 74.449219 C 22.839844 73.382812 22.042969 73.648438 21.179688 75.511719 Z M 21.179688 75.511719 " fill-opacity="1" fill-rule="nonzero"/><path fill="#10b1b4" d="M 254.09375 78.570312 C 252.097656 79.699219 251.765625 80.429688 251.765625 83.820312 C 251.765625 87.078125 250.703125 88.671875 248.707031 88.273438 C 246.78125 87.941406 246.050781 86.011719 246.914062 83.6875 C 247.578125 81.957031 247.578125 81.691406 246.714844 82.023438 C 246.117188 82.222656 245.582031 82.425781 245.515625 82.425781 C 245.382812 82.425781 245.515625 83.6875 245.78125 85.214844 C 246.515625 89.203125 248.839844 90.601562 251.964844 89.003906 C 254.09375 87.875 254.425781 87.144531 254.425781 83.621094 C 254.425781 80.097656 255.753906 78.769531 258.082031 79.832031 C 259.210938 80.363281 259.144531 80.296875 257.8125 79.167969 C 256.019531 77.570312 255.886719 77.570312 254.09375 78.570312 Z M 254.09375 78.570312 " fill-opacity="1" fill-rule="nonzero"/><path fill="#10b1b4" d="M 18.386719 81.425781 C 17.589844 83.089844 16.589844 84.417969 16.324219 84.417969 C 15.394531 84.417969 16.390625 85.679688 17.855469 86.480469 C 19.117188 87.078125 19.117188 87.078125 18.519531 85.8125 C 17.855469 84.550781 18.519531 81.09375 19.449219 81.09375 C 20.84375 81.09375 30.351562 86.613281 30.550781 87.476562 C 30.683594 88.207031 31.148438 87.808594 31.945312 86.144531 C 32.542969 84.75 32.808594 83.820312 32.476562 84.085938 C 32.078125 84.285156 29.089844 83.089844 25.832031 81.492188 L 19.847656 78.4375 Z M 18.386719 81.425781 " fill-opacity="1" fill-rule="nonzero"/><path fill="#10b1b4" d="M 259.144531 82.089844 C 259.078125 82.890625 258.746094 83.820312 258.28125 84.285156 C 257.347656 85.214844 258.28125 85.347656 259.609375 84.550781 C 260.207031 84.152344 260.273438 83.554688 259.808594 82.355469 C 259.210938 80.960938 259.144531 80.894531 259.144531 82.089844 Z M 259.144531 82.089844 " fill-opacity="1" fill-rule="nonzero"/><path fill="#10b1b4" d="M 13.46875 92.792969 C 12.070312 95.71875 12.871094 98.109375 15.460938 98.777344 C 17.125 99.175781 17.988281 98.777344 21.84375 95.652344 C 23.238281 94.523438 23.835938 94.386719 24.96875 94.988281 C 25.699219 95.386719 26.496094 96.382812 26.628906 97.179688 C 26.894531 98.578125 26.894531 98.578125 27.027344 96.980469 C 27.09375 94.855469 25.898438 93.257812 23.636719 92.726562 C 22.242188 92.394531 21.378906 92.726562 19.25 94.65625 C 16.390625 97.246094 14.863281 97.644531 13.933594 95.984375 C 12.871094 94.121094 13.800781 92.328125 15.992188 91.929688 C 17.789062 91.597656 17.855469 91.464844 16.789062 91 C 14.730469 90.199219 14.664062 90.265625 13.46875 92.792969 Z M 13.46875 92.792969 " fill-opacity="1" fill-rule="nonzero"/><path fill="#10b1b4" d="M 265.390625 98.242188 C 264.261719 99.242188 254.425781 101.832031 253.359375 101.433594 C 252.628906 101.167969 252.429688 101.367188 252.695312 102.230469 C 252.894531 102.832031 253.226562 104.226562 253.492188 105.355469 C 254.027344 107.351562 254.027344 107.351562 254.425781 105.6875 C 254.757812 104.292969 255.6875 103.761719 260.40625 102.296875 C 263.53125 101.367188 266.257812 100.703125 266.589844 100.835938 C 267.121094 101.167969 267.121094 100.4375 266.523438 98.84375 C 266.191406 98.175781 265.789062 97.910156 265.390625 98.242188 Z M 265.390625 98.242188 " fill-opacity="1" fill-rule="nonzero"/><path fill="#10b1b4" d="M 25.433594 99.640625 C 25.035156 99.972656 23.902344 100.371094 22.773438 100.503906 L 20.777344 100.703125 L 22.441406 101.433594 C 23.902344 102.097656 24.300781 101.964844 25.300781 100.636719 C 26.496094 99.042969 26.5625 98.511719 25.433594 99.640625 Z M 25.433594 99.640625 " fill-opacity="1" fill-rule="nonzero"/><path fill="#10b1b4" d="M 266.855469 106.152344 C 266.191406 107.351562 265.992188 108.347656 266.324219 108.347656 C 267.320312 108.347656 268.515625 106.484375 268.25 105.222656 C 268.050781 104.292969 267.71875 104.492188 266.855469 106.152344 Z M 266.855469 106.152344 " fill-opacity="1" fill-rule="nonzero"/><path fill="#10b1b4" d="M 260.339844 106.152344 C 259.542969 107.152344 259.542969 107.21875 260.605469 106.820312 C 261.269531 106.554688 262.136719 106.351562 262.46875 106.351562 C 262.867188 106.351562 262.933594 106.019531 262.734375 105.6875 C 262.136719 104.691406 261.335938 104.890625 260.339844 106.152344 Z M 260.339844 106.152344 " fill-opacity="1" fill-rule="nonzero"/><path fill="#10b1b4" d="M 254.492188 107.816406 C 254.425781 108.082031 254.691406 109.011719 255.089844 109.941406 C 255.554688 111.207031 256.21875 111.671875 257.546875 111.671875 L 259.410156 111.671875 L 257.347656 110.40625 C 256.152344 109.675781 255.089844 108.746094 254.890625 108.214844 C 254.691406 107.75 254.492188 107.550781 254.492188 107.816406 Z M 254.492188 107.816406 " fill-opacity="1" fill-rule="nonzero"/><path fill="#10b1b4" d="M 7.949219 111.472656 C 8.015625 111.804688 7.816406 112.867188 7.484375 113.863281 C 6.6875 116.855469 8.015625 118.984375 10.742188 118.984375 C 12.601562 118.984375 13.402344 118.515625 15.128906 116.324219 C 16.257812 114.863281 17.789062 113.664062 18.453125 113.664062 C 21.976562 113.664062 21.710938 118.984375 18.121094 119.648438 C 16.125 120.046875 16.125 120.046875 17.722656 120.578125 C 18.984375 121.042969 19.582031 120.84375 20.511719 119.582031 C 22.90625 116.457031 21.710938 112.867188 17.921875 111.871094 C 16.457031 111.539062 15.792969 111.9375 13.402344 114.730469 C 10.941406 117.453125 10.34375 117.851562 9.347656 117.253906 C 7.417969 116.058594 7.484375 114.195312 9.546875 112.535156 L 11.472656 111.007812 L 9.679688 111.007812 C 8.613281 111.007812 7.882812 111.207031 7.949219 111.472656 Z M 7.949219 111.472656 " fill-opacity="1" fill-rule="nonzero"/><path fill="#10b1b4" d="M 267.984375 112.933594 C 268.714844 113.199219 269.511719 113.996094 269.710938 114.664062 C 270.113281 115.792969 270.246094 115.660156 270.511719 114.128906 C 270.84375 112.46875 270.710938 112.335938 268.78125 112.402344 C 267.121094 112.402344 266.988281 112.535156 267.984375 112.933594 Z M 267.984375 112.933594 " fill-opacity="1" fill-rule="nonzero"/><path fill="#10b1b4" d="M 270.3125 116.855469 C 270.179688 117.320312 267.453125 118.050781 264.0625 118.652344 C 258.480469 119.582031 258.015625 119.515625 257.148438 118.449219 C 256.285156 117.386719 256.285156 117.386719 256.683594 118.515625 C 256.882812 119.183594 257.082031 120.378906 257.082031 121.109375 C 257.082031 122.105469 257.347656 122.304688 258.214844 122.039062 C 258.8125 121.773438 261.601562 121.308594 264.328125 120.910156 C 267.121094 120.511719 269.710938 120.179688 270.046875 120.113281 C 271.242188 119.914062 271.175781 123.703125 269.976562 125.03125 C 268.847656 126.292969 268.914062 126.292969 270.910156 125.5625 C 272.570312 124.964844 272.835938 124.632812 272.371094 123.769531 C 271.972656 123.171875 271.441406 121.109375 271.175781 119.316406 C 270.910156 117.453125 270.511719 116.390625 270.3125 116.855469 Z M 270.3125 116.855469 " fill-opacity="1" fill-rule="nonzero"/><path fill="#10b1b4" d="M 19.050781 125.296875 C 18.851562 125.429688 15.792969 126.292969 12.203125 127.226562 C 8.613281 128.15625 5.558594 129.019531 5.425781 129.152344 C 4.492188 130.082031 6.488281 131.546875 11.273438 133.539062 C 14.265625 134.804688 17.257812 136.398438 17.921875 137.0625 C 19.050781 138.191406 19.117188 138.191406 19.117188 136.53125 C 19.117188 135.601562 18.851562 135.003906 18.519531 135.203125 C 18.1875 135.402344 16.992188 135.269531 15.859375 134.871094 C 14.464844 134.335938 13.800781 133.671875 13.734375 132.742188 C 13.734375 131.546875 13.601562 131.480469 13.269531 132.410156 C 12.871094 133.472656 12.601562 133.472656 9.8125 132.144531 L 6.820312 130.816406 L 8.816406 130.214844 C 9.878906 129.882812 11.539062 129.484375 12.46875 129.351562 C 13.402344 129.21875 15.128906 128.820312 16.390625 128.554688 C 17.988281 128.222656 18.785156 128.355469 19.183594 129.019531 C 19.582031 129.683594 19.78125 129.152344 19.78125 127.425781 C 19.78125 125.03125 19.648438 124.632812 19.050781 125.296875 Z M 19.050781 125.296875 " fill-opacity="1" fill-rule="nonzero"/><path fill="#10b1b4" d="M 258.480469 140.253906 C 258.480469 141.914062 258.679688 142.847656 258.878906 142.378906 C 259.078125 141.914062 260.40625 141.582031 262.203125 141.582031 C 265.921875 141.582031 265.789062 142.511719 261.535156 145.238281 C 258.945312 146.902344 258.414062 147.566406 258.480469 149.226562 C 258.480469 150.289062 258.679688 150.824219 258.878906 150.355469 C 259.144531 149.625 264.527344 145.570312 265.257812 145.570312 C 265.457031 145.570312 265.722656 146.167969 265.921875 146.902344 C 266.390625 148.761719 269.445312 149.359375 271.042969 147.898438 C 271.773438 147.234375 272.371094 146.167969 272.371094 145.4375 C 272.371094 144.308594 272.304688 144.308594 271.042969 145.570312 C 269.445312 147.167969 269.113281 147.167969 267.1875 145.835938 C 266.390625 145.304688 265.722656 144.109375 265.722656 143.179688 C 265.722656 141.714844 265.992188 141.582031 268.714844 141.582031 C 270.777344 141.582031 271.839844 141.914062 272.304688 142.714844 C 272.835938 143.644531 272.96875 143.246094 273.035156 140.917969 C 273.035156 138.925781 272.835938 138.257812 272.4375 138.859375 C 271.640625 140.121094 259.808594 139.457031 259.011719 138.125 C 258.679688 137.59375 258.480469 138.457031 258.480469 140.253906 Z M 258.480469 140.253906 " fill-opacity="1" fill-rule="nonzero"/><path fill="#10b1b4" d="M 5.09375 138.726562 C 5.027344 139.523438 5.292969 151.222656 5.359375 151.289062 C 5.425781 151.355469 6.222656 151.621094 7.152344 151.886719 L 8.816406 152.351562 L 7.351562 150.957031 C 6.488281 150.15625 5.824219 148.761719 5.824219 147.898438 C 5.824219 146.234375 5.824219 146.234375 12.46875 146.234375 C 17.125 146.234375 19.117188 146.5 19.117188 147.035156 C 19.117188 147.433594 19.25 147.632812 19.449219 147.433594 C 19.648438 147.234375 19.582031 146.234375 19.382812 145.105469 C 19.050781 143.445312 18.71875 143.179688 17.257812 143.3125 C 16.257812 143.445312 13.269531 143.644531 10.675781 143.777344 L 5.824219 144.042969 L 5.824219 142.046875 C 5.824219 140.917969 6.355469 139.65625 7.019531 139.191406 C 8.082031 138.390625 8.015625 138.324219 6.6875 138.257812 C 5.824219 138.257812 5.160156 138.457031 5.09375 138.726562 Z M 5.09375 138.726562 " fill-opacity="1" fill-rule="nonzero"/><path fill="#10b1b4" d="M 257.746094 154.011719 C 257.746094 154.746094 257.613281 156.40625 257.414062 157.601562 C 257.082031 159.597656 257.148438 159.664062 257.746094 158.332031 C 258.347656 156.9375 258.679688 156.804688 261.269531 157.203125 C 262.800781 157.46875 264.261719 158.066406 264.527344 158.464844 C 264.925781 159 265.058594 159 265.058594 158.464844 C 265.058594 157.933594 265.921875 157.867188 267.917969 158.265625 C 271.839844 159 271.707031 159.066406 271.707031 157.136719 C 271.707031 156.140625 271.441406 155.609375 270.976562 155.941406 C 269.777344 156.671875 259.476562 154.8125 258.613281 153.679688 C 257.8125 152.75 257.746094 152.816406 257.746094 154.011719 Z M 257.746094 154.011719 " fill-opacity="1" fill-rule="nonzero"/><path fill="#10b1b4" d="M 19.648438 154.945312 C 19.382812 155.742188 7.949219 157.734375 7.019531 157.136719 C 6.753906 156.9375 6.488281 157.734375 6.488281 158.933594 C 6.488281 160.59375 6.6875 160.859375 7.351562 160.328125 C 7.816406 159.929688 10.941406 159.265625 14.332031 158.800781 C 20.445312 158 20.445312 158 20.445312 156.140625 C 20.445312 154.144531 20.113281 153.613281 19.648438 154.945312 Z M 19.648438 154.945312 " fill-opacity="1" fill-rule="nonzero"/><path fill="#10b1b4" d="M 263 160.859375 C 261.734375 161.65625 262.601562 162.320312 264.660156 162.054688 C 266.324219 161.855469 266.324219 161.789062 265.191406 161.058594 C 264.460938 160.660156 263.597656 160.527344 263 160.859375 Z M 263 160.859375 " fill-opacity="1" fill-rule="nonzero"/><path fill="#10b1b4" d="M 270.378906 161.390625 C 270.378906 162.121094 269.578125 163.386719 268.648438 164.117188 L 266.855469 165.511719 L 268.582031 165.511719 C 269.976562 165.511719 270.3125 165.113281 270.710938 163.121094 C 270.910156 161.789062 270.976562 160.527344 270.777344 160.328125 C 270.578125 160.128906 270.378906 160.59375 270.378906 161.390625 Z M 270.378906 161.390625 " fill-opacity="1" fill-rule="nonzero"/><path fill="#10b1b4" d="M 256.417969 162.253906 C 256.417969 163.320312 256.882812 164.25 257.480469 164.449219 C 259.078125 165.046875 259.078125 164.78125 257.679688 162.519531 L 256.417969 160.527344 Z M 256.417969 162.253906 " fill-opacity="1" fill-rule="nonzero"/><path fill="#10b1b4" d="M 15.726562 164.582031 C 15.195312 165.179688 14.464844 166.910156 14.132812 168.371094 C 13.402344 171.296875 11.9375 172.625 10.210938 171.960938 C 8.949219 171.429688 8.746094 168.171875 10.011719 166.910156 C 10.675781 166.175781 10.609375 166.042969 9.613281 166.441406 C 8.949219 166.640625 8.28125 166.84375 8.214844 166.84375 C 8.148438 166.84375 8.148438 167.839844 8.347656 168.96875 C 9.148438 174.816406 15.328125 175.152344 16.191406 169.433594 C 16.859375 165.246094 19.183594 163.652344 21.378906 165.910156 C 22.839844 167.375 22.707031 168.636719 20.777344 170.429688 L 19.183594 171.894531 L 20.980469 171.628906 C 22.90625 171.363281 23.304688 170.230469 22.707031 167.042969 C 22.109375 163.785156 17.722656 162.253906 15.726562 164.582031 Z M 15.726562 164.582031 " fill-opacity="1" fill-rule="nonzero"/><path fill="#10b1b4" d="M 255.355469 171.097656 C 254.027344 172.425781 253.09375 174.019531 253.09375 174.886719 C 253.160156 176.347656 253.226562 176.28125 254.027344 174.417969 C 255.023438 172.09375 256.152344 171.496094 259.410156 171.496094 C 262.867188 171.496094 265.125 172.890625 266.523438 175.816406 L 267.785156 178.472656 L 267.386719 175.484375 C 266.921875 172.160156 266.257812 171.164062 263.664062 169.765625 C 260.472656 168.171875 257.878906 168.570312 255.355469 171.097656 Z M 255.355469 171.097656 " fill-opacity="1" fill-rule="nonzero"/><path fill="#10b1b4" d="M 21.578125 177.941406 C 19.914062 180.46875 19.316406 181.929688 19.78125 182.394531 C 20.113281 182.726562 20.511719 182.929688 20.578125 182.726562 C 20.710938 182.59375 21.777344 181.199219 22.972656 179.671875 C 24.566406 177.609375 24.96875 176.546875 24.566406 175.550781 C 24.101562 174.285156 23.769531 174.550781 21.578125 177.941406 Z M 21.578125 177.941406 " fill-opacity="1" fill-rule="nonzero"/><path fill="#10b1b4" d="M 252.429688 177.675781 C 252.429688 179.539062 253.226562 180.800781 254.492188 180.800781 C 255.15625 180.800781 255.953125 181.265625 256.285156 181.863281 C 257.015625 183.128906 257.347656 182.660156 258.015625 179.804688 C 258.28125 178.605469 258.214844 178.140625 257.878906 178.671875 C 257.214844 179.605469 255.421875 179.140625 253.625 177.609375 C 252.5625 176.746094 252.429688 176.746094 252.429688 177.675781 Z M 252.429688 177.675781 " fill-opacity="1" fill-rule="nonzero"/><path fill="#10b1b4" d="M 13.601562 180.003906 C 12.335938 181.398438 12.136719 183.925781 13.136719 185.453125 C 13.601562 186.183594 13.800781 185.917969 13.800781 184.324219 C 13.800781 181.929688 15.660156 180.46875 17.789062 181.132812 C 19.515625 181.664062 19.515625 180.402344 17.855469 179.472656 C 15.992188 178.472656 14.796875 178.671875 13.601562 180.003906 Z M 13.601562 180.003906 " fill-opacity="1" fill-rule="nonzero"/><path fill="#10b1b4" d="M 265.855469 180.203125 C 265.390625 180.933594 264.128906 181.664062 263 181.929688 C 261.535156 182.195312 261.203125 182.460938 261.867188 182.859375 C 263.464844 183.925781 264.792969 183.460938 265.992188 181.398438 C 267.320312 179.207031 267.1875 178.074219 265.855469 180.203125 Z M 265.855469 180.203125 " fill-opacity="1" fill-rule="nonzero"/><path fill="#10b1b4" d="M 26.496094 181.929688 C 26.429688 182.527344 22.972656 184.191406 21.113281 184.457031 C 20.777344 184.523438 14.265625 186.917969 13.933594 187.117188 C 13.867188 187.183594 14.066406 187.980469 14.398438 188.84375 C 14.730469 189.707031 15.0625 190.105469 15.0625 189.707031 C 15.128906 189.308594 17.921875 187.980469 21.3125 186.78125 C 24.632812 185.519531 27.492188 184.523438 27.625 184.457031 C 27.691406 184.390625 27.492188 183.59375 27.160156 182.726562 C 26.828125 181.863281 26.496094 181.464844 26.496094 181.929688 Z M 26.496094 181.929688 " fill-opacity="1" fill-rule="nonzero"/><path fill="#10b1b4" d="M 248.972656 186.714844 C 248.175781 188.777344 248.109375 189.375 248.707031 188.84375 C 249.4375 188.246094 251.035156 188.710938 255.488281 190.703125 C 261.402344 193.296875 261.402344 193.296875 262.203125 191.835938 C 263.132812 190.304688 263.398438 188.578125 262.535156 189.972656 C 261.800781 191.105469 250.636719 186.515625 250.304688 184.921875 C 250.171875 184.257812 249.636719 184.988281 248.972656 186.714844 Z M 248.972656 186.714844 " fill-opacity="1" fill-rule="nonzero"/><path fill="#10b1b4" d="M 27.425781 189.441406 C 26.164062 189.972656 26.164062 190.039062 27.558594 190.039062 C 29.15625 190.105469 31.746094 192.964844 31.746094 194.691406 C 31.746094 196.089844 28.023438 198.347656 26.628906 197.816406 C 25.964844 197.550781 25.699219 196.820312 25.898438 195.757812 C 26.296875 193.828125 26.03125 193.761719 23.769531 195.09375 C 22.175781 196.023438 22.175781 196.023438 23.503906 196.089844 C 24.765625 196.089844 25.765625 197.21875 25.765625 198.679688 C 25.765625 199.082031 21.578125 201.40625 20.84375 201.40625 C 20.046875 201.40625 19.050781 197.152344 19.449219 195.625 C 19.847656 193.828125 19.78125 193.828125 18.71875 194.890625 C 17.589844 196.023438 17.65625 196.289062 19.78125 200.742188 C 21.644531 204.597656 22.175781 205.195312 22.574219 204.132812 C 23.105469 202.535156 32.078125 197.816406 33.476562 198.347656 C 34.738281 198.8125 34.738281 198.613281 32.078125 193.429688 C 29.621094 188.578125 29.554688 188.511719 27.425781 189.441406 Z M 27.425781 189.441406 " fill-opacity="1" fill-rule="nonzero"/><path fill="#10b1b4" d="M 244.917969 195.425781 C 243.855469 197.21875 243.855469 197.285156 245.050781 196.953125 C 246.382812 196.621094 256.417969 201.671875 256.417969 202.667969 C 256.417969 203.867188 253.558594 206.722656 252.363281 206.722656 C 251.699219 206.722656 251.101562 206.992188 251.101562 207.390625 C 251.101562 207.722656 251.765625 208.054688 252.628906 208.054688 C 253.824219 208.054688 254.691406 207.058594 256.683594 203.203125 C 258.148438 200.609375 258.878906 198.746094 258.414062 199.214844 C 257.746094 199.8125 256.683594 199.546875 253.492188 197.949219 C 251.234375 196.820312 248.640625 195.359375 247.710938 194.691406 C 246.050781 193.496094 245.984375 193.496094 244.917969 195.425781 Z M 244.917969 195.425781 " fill-opacity="1" fill-rule="nonzero"/><path fill="#10b1b4" d="M 241.996094 200.675781 C 241.460938 201.539062 241.527344 202.203125 242.527344 203.46875 L 243.722656 205.0625 L 243.324219 202.402344 C 242.859375 199.148438 242.925781 199.214844 241.996094 200.675781 Z M 241.996094 200.675781 " fill-opacity="1" fill-rule="nonzero"/><path fill="#10b1b4" d="M 249.371094 201.074219 L 247.976562 202.601562 L 249.371094 203.269531 C 250.636719 203.800781 250.769531 203.667969 250.835938 201.671875 C 250.835938 200.410156 250.835938 199.414062 250.835938 199.480469 C 250.769531 199.546875 250.105469 200.210938 249.371094 201.074219 Z M 249.371094 201.074219 " fill-opacity="1" fill-rule="nonzero"/><path fill="#10b1b4" d="M 238.207031 206.589844 C 237.140625 207.988281 237.074219 208.1875 238.007812 207.855469 C 239.136719 207.457031 247.113281 212.308594 247.113281 213.4375 C 247.113281 213.769531 245.25 214.035156 242.992188 214.035156 C 240.664062 214.035156 237.273438 214.234375 235.347656 214.433594 L 231.890625 214.898438 L 237.007812 218.820312 C 239.800781 220.949219 242.261719 223.144531 242.460938 223.609375 C 242.726562 224.273438 243.125 224.140625 243.988281 222.941406 C 244.984375 221.613281 244.984375 221.414062 244.121094 221.746094 C 243.523438 222.011719 241.527344 221.148438 239.269531 219.621094 C 235.679688 217.226562 235.546875 217.09375 237.140625 216.628906 C 238.074219 216.363281 241.0625 216.164062 243.855469 216.097656 C 248.441406 216.03125 249.039062 215.898438 249.972656 214.433594 C 250.96875 212.972656 250.96875 212.839844 249.769531 213.171875 C 248.375 213.570312 240.664062 207.988281 239.933594 206.058594 C 239.535156 204.996094 239.335938 205.0625 238.207031 206.589844 Z M 238.207031 206.589844 " fill-opacity="1" fill-rule="nonzero"/><path fill="#10b1b4" d="M 32.078125 208.1875 C 27.558594 209.183594 25.832031 209.316406 24.902344 208.71875 C 23.769531 208.054688 23.769531 208.121094 24.765625 209.648438 C 25.765625 211.179688 26.03125 211.246094 27.292969 210.445312 C 28.820312 209.515625 36.332031 207.722656 36.730469 208.1875 C 36.933594 208.320312 35.667969 210.179688 34.007812 212.308594 C 31.746094 215.167969 30.617188 216.097656 29.6875 215.832031 C 28.621094 215.566406 28.6875 215.832031 30.152344 217.757812 C 31.746094 219.753906 33.078125 220.949219 32.144531 219.421875 C 31.945312 219.089844 32.277344 218.15625 32.945312 217.292969 C 33.609375 216.429688 35.601562 213.703125 37.332031 211.179688 C 40.988281 206.058594 41.1875 206.191406 32.078125 208.1875 Z M 32.078125 208.1875 " fill-opacity="1" fill-rule="nonzero"/><path fill="#10b1b4" d="M 45.242188 214.832031 C 45.773438 216.363281 36.664062 224.273438 35.070312 223.675781 C 34.539062 223.410156 35.003906 224.273438 36.066406 225.46875 C 37.199219 226.664062 38.195312 227.796875 38.328125 227.996094 C 38.460938 228.195312 38.394531 227.730469 38.128906 226.996094 C 37.796875 225.867188 38.660156 224.871094 42.382812 221.746094 C 45.640625 219.089844 47.433594 218.023438 48.230469 218.355469 C 48.894531 218.621094 48.628906 217.957031 47.367188 216.5625 C 46.238281 215.367188 45.242188 214.234375 45.109375 214.035156 C 44.976562 213.835938 45.042969 214.234375 45.242188 214.832031 Z M 45.242188 214.832031 " fill-opacity="1" fill-rule="nonzero"/><path fill="#10b1b4" d="M 227.105469 220.882812 C 224.511719 222.609375 223.980469 224.738281 225.507812 227.132812 C 226.640625 228.859375 227.4375 228.925781 233.550781 227.664062 C 236.144531 227.0625 237.605469 228.527344 236.476562 230.585938 C 236.011719 231.585938 235.082031 231.984375 233.617188 231.984375 C 231.558594 232.050781 231.558594 232.050781 232.820312 233.046875 C 234.085938 233.976562 234.285156 233.910156 236.011719 231.984375 C 238.140625 229.589844 238.273438 227.796875 236.476562 226 C 234.882812 224.40625 234.484375 224.40625 231.292969 225.667969 C 227.835938 227.132812 225.84375 226.53125 225.84375 224.007812 C 225.84375 221.414062 228.167969 220.152344 230.5625 221.347656 C 232.15625 222.210938 232.15625 222.210938 230.894531 220.75 C 230.164062 220.019531 229.5625 219.355469 229.496094 219.355469 C 229.429688 219.355469 228.367188 220.019531 227.105469 220.882812 Z M 227.105469 220.882812 " fill-opacity="1" fill-rule="nonzero"/><path fill="#10b1b4" d="M 47.234375 226.730469 C 44.109375 229.789062 42.117188 231.253906 41.585938 230.917969 C 41.121094 230.652344 41.320312 231.121094 42.050781 231.917969 C 43.3125 233.378906 43.378906 233.378906 43.578125 232.183594 C 43.710938 231.453125 45.109375 229.523438 46.769531 227.929688 L 49.761719 225.003906 L 49.363281 231.984375 C 48.894531 238.496094 48.960938 239.027344 50.226562 240.160156 C 51.554688 241.355469 51.554688 241.355469 51.289062 240.160156 C 50.890625 238.5625 58.800781 230.453125 60.261719 230.984375 C 60.859375 231.253906 60.59375 230.652344 59.730469 229.722656 C 57.804688 227.664062 57.871094 227.664062 57.9375 229.257812 C 58.003906 230.320312 51.886719 237.699219 51.355469 237.167969 C 51.222656 237.035156 51.421875 233.710938 51.6875 229.65625 C 52.019531 225.667969 52.21875 222.34375 52.152344 222.277344 C 52.085938 222.144531 49.828125 224.207031 47.234375 226.730469 Z M 47.234375 226.730469 " fill-opacity="1" fill-rule="nonzero"/><path fill="#10b1b4" d="M 218.132812 229.390625 C 217.066406 230.453125 216.667969 231.1875 217.265625 230.984375 C 218.066406 230.71875 219.460938 231.851562 222.253906 235.039062 C 224.445312 237.433594 226.109375 239.894531 226.042969 240.425781 C 225.976562 241.089844 226.707031 240.757812 228.035156 239.496094 C 229.230469 238.496094 230.296875 237.5 230.496094 237.367188 C 230.695312 237.234375 230.230469 237.300781 229.429688 237.566406 C 228.300781 237.898438 227.304688 237.167969 224.179688 233.644531 C 221.855469 230.984375 220.523438 228.925781 220.789062 228.328125 C 221.386719 226.730469 220.257812 227.199219 218.132812 229.390625 Z M 218.132812 229.390625 " fill-opacity="1" fill-rule="nonzero"/><path fill="#10b1b4" d="M 213.878906 233.710938 C 213.878906 234.042969 212.878906 234.640625 211.75 234.972656 C 208.890625 235.839844 207.828125 238.5625 209.289062 241.15625 C 210.222656 242.816406 210.621094 242.949219 214.875 242.949219 C 218.796875 242.949219 219.527344 243.152344 219.726562 244.148438 C 220.125 246.207031 218.53125 247.472656 216.003906 247.003906 C 213.8125 246.671875 213.742188 246.671875 214.875 247.9375 C 216.003906 249.199219 216.070312 249.199219 217.933594 247.871094 C 219.792969 246.539062 221.1875 244.679688 221.1875 243.484375 C 221.1875 243.152344 220.589844 242.21875 219.792969 241.355469 C 218.597656 240.09375 218 239.960938 214.542969 240.359375 C 211.152344 240.757812 210.621094 240.625 209.957031 239.496094 C 208.492188 236.769531 212.878906 233.910156 215.074219 236.105469 C 215.539062 236.570312 215.871094 236.636719 215.871094 236.238281 C 215.804688 235.441406 213.878906 232.914062 213.878906 233.710938 Z M 213.878906 233.710938 " fill-opacity="1" fill-rule="nonzero"/><path fill="#10b1b4" d="M 59.597656 239.695312 C 57.207031 242.75 55.875 243.882812 55.078125 243.617188 C 54.480469 243.417969 54.746094 243.882812 55.675781 244.546875 C 57.207031 245.808594 57.339844 245.808594 57.539062 244.746094 C 57.738281 243.351562 62.191406 237.367188 63.71875 236.4375 C 65.183594 235.507812 68.105469 236.371094 68.96875 238.03125 C 69.570312 239.09375 69.371094 239.894531 68.039062 242.285156 C 65.582031 246.472656 62.988281 249.332031 62.125 248.867188 C 61.660156 248.667969 62.257812 249.199219 63.320312 250.195312 C 64.449219 251.125 65.648438 251.859375 65.980469 251.859375 C 66.378906 251.925781 66.246094 251.660156 65.78125 251.328125 C 65.046875 250.925781 65.582031 249.796875 67.90625 246.605469 C 71.429688 241.820312 71.828125 239.429688 69.304688 236.96875 C 68.238281 235.839844 66.976562 235.308594 65.382812 235.308594 C 63.253906 235.308594 62.65625 235.773438 59.597656 239.695312 Z M 59.597656 239.695312 " fill-opacity="1" fill-rule="nonzero"/><path fill="#10b1b4" d="M 139.894531 258.238281 L 138.765625 260.632812 L 140.226562 259.636719 C 141.625 258.636719 148.070312 258.105469 148.070312 258.902344 C 148.070312 259.101562 146.277344 262.824219 144.082031 267.078125 C 140.09375 274.921875 139.496094 276.519531 140.757812 276.519531 C 141.15625 276.519531 141.425781 276.1875 141.425781 275.789062 C 141.425781 275.390625 143.351562 271 145.679688 266.148438 L 150 257.242188 L 145.746094 257.242188 C 143.351562 257.242188 141.425781 256.910156 141.289062 256.511719 C 141.15625 256.113281 140.558594 256.910156 139.894531 258.238281 Z M 139.894531 258.238281 " fill-opacity="1" fill-rule="nonzero"/><path fill="#10b1b4" d="M 160.035156 256.445312 C 160.035156 256.910156 158.972656 257.242188 157.441406 257.242188 C 154.851562 257.242188 154.851562 257.242188 154.121094 260.632812 C 153.320312 264.15625 153.523438 265.21875 154.984375 265.21875 C 156.644531 265.21875 158.707031 267.878906 158.707031 270.070312 C 158.707031 273.925781 156.710938 275.390625 152.921875 274.191406 C 151.992188 273.859375 151.394531 273.992188 151.394531 274.457031 C 151.394531 275.589844 154.585938 276.054688 156.644531 275.1875 C 158.507812 274.457031 160.699219 271.132812 160.699219 269.074219 C 160.699219 267.347656 158.042969 263.890625 156.378906 263.492188 C 154.917969 263.15625 154.652344 262.757812 154.851562 260.964844 C 155.050781 259.101562 155.316406 258.902344 157.578125 258.703125 C 159.902344 258.503906 161.429688 257.109375 160.433594 256.113281 C 160.234375 255.847656 160.035156 256.046875 160.035156 256.445312 Z M 160.035156 256.445312 " fill-opacity="1" fill-rule="nonzero"/><path fill="#10b1b4" d="M 118.027344 257.90625 C 119.355469 258.4375 119.488281 258.96875 119.488281 263.222656 C 119.488281 267.480469 119.355469 268.011719 118.027344 268.542969 C 116.894531 268.941406 117.496094 269.140625 120.484375 269.074219 C 122.679688 269.074219 123.808594 268.875 123.011719 268.742188 C 121.550781 268.476562 121.484375 268.144531 121.484375 263.222656 C 121.484375 258.304688 121.550781 257.972656 123.011719 257.707031 C 123.808594 257.574219 122.679688 257.375 120.484375 257.375 C 117.496094 257.308594 116.894531 257.507812 118.027344 257.90625 Z M 118.027344 257.90625 " fill-opacity="1" fill-rule="nonzero"/><path fill="#10b1b4" d="M 129.324219 257.90625 C 130.65625 258.4375 130.789062 258.96875 130.789062 263.222656 C 130.789062 267.480469 130.65625 268.011719 129.324219 268.542969 C 128.195312 269.007812 128.792969 269.140625 131.785156 269.074219 C 133.980469 269.074219 135.175781 268.875 134.445312 268.742188 C 132.648438 268.277344 132.117188 267.347656 132.117188 264.488281 C 132.117188 260.167969 132.847656 257.972656 134.378906 257.707031 C 135.109375 257.574219 133.980469 257.375 131.785156 257.375 C 128.792969 257.308594 128.195312 257.507812 129.324219 257.90625 Z M 129.324219 257.90625 " fill-opacity="1" fill-rule="nonzero"/></svg>