<svg xmlns="http://www.w3.org/2000/svg" xmlns:xlink="http://www.w3.org/1999/xlink" width="370" zoomAndPan="magnify" viewBox="0 0 277.5 220.499993" height="294" preserveAspectRatio="xMidYMid meet" version="1.0"><defs><clipPath id="841feaa5ec"><path d="M 0.0664062 0 L 276.9375 0 L 276.9375 220 L 0.0664062 220 Z M 0.0664062 0 " clip-rule="nonzero"/></clipPath><clipPath id="04ff9e4064"><path d="M 136 3.398438 L 230 3.398438 L 230 216.507812 L 136 216.507812 Z M 136 3.398438 " clip-rule="nonzero"/></clipPath></defs><g clip-path="url(#841feaa5ec)"><path fill="#ffffff" d="M 0.0664062 0 L 276.9375 0 L 276.9375 220 L 0.0664062 220 Z M 0.0664062 0 " fill-opacity="1" fill-rule="nonzero"/><path fill="#16436f" d="M 0.0664062 0 L 276.9375 0 L 276.9375 220 L 0.0664062 220 Z M 0.0664062 0 " fill-opacity="1" fill-rule="nonzero"/></g><path fill="#ffffff" d="M 134.003906 153.71875 L 133.972656 129.792969 C 133.535156 128.167969 130.972656 121.011719 119.445312 116.421875 C 114.417969 114.390625 108.542969 113.234375 103.390625 112.203125 C 98.296875 111.171875 93.519531 110.203125 90.050781 108.582031 C 75.023438 101.582031 66.902344 84.152344 63.121094 73.21875 C 56.375 89.804688 53.46875 103.082031 54.15625 107.332031 C 54.28125 108.175781 54.6875 109.859375 54.9375 110.828125 C 55.21875 111.953125 55.28125 112.234375 55.21875 112.796875 C 55.03125 113.796875 54.78125 114.578125 54.53125 115.296875 C 59.03125 114.890625 65.683594 115.859375 73.554688 121.917969 C 78.554688 125.792969 81.054688 130.167969 83.273438 134.039062 C 85.957031 138.789062 88.269531 142.878906 94.859375 146.035156 C 98.078125 147.566406 102.109375 147.285156 106.761719 146.941406 C 108.824219 146.785156 111.011719 146.628906 113.324219 146.628906 C 119.664062 146.628906 126.753906 147.847656 134.003906 153.71875 Z M 134.003906 153.71875 " fill-opacity="1" fill-rule="evenodd"/><path fill="#ffffff" d="M 107.230469 153.4375 C 101.859375 153.8125 96.828125 154.1875 92.050781 151.90625 C 83.648438 147.910156 80.585938 142.503906 77.617188 137.320312 C 75.523438 133.632812 73.554688 130.167969 69.589844 127.105469 C 61.90625 121.230469 56.25 121.324219 53.3125 122.074219 C 52.875 129.636719 53.03125 148.347656 62.09375 169.902344 C 68.996094 186.300781 79.992188 198.390625 94.796875 205.792969 C 91.363281 195.015625 87.988281 177.648438 98.640625 170.527344 C 102.265625 168.121094 105.980469 167.308594 109.699219 168.089844 C 116.757812 169.558594 121.101562 176.304688 121.132812 176.367188 C 121.601562 177.117188 121.757812 177.960938 121.570312 178.835938 C 121.382812 179.679688 120.882812 180.398438 120.164062 180.867188 C 118.664062 181.835938 116.632812 181.398438 115.664062 179.898438 C 115.542969 179.742188 112.574219 175.304688 108.355469 174.460938 C 106.355469 174.085938 104.359375 174.554688 102.296875 175.929688 C 94.234375 181.304688 99.109375 199.890625 102.953125 209.230469 C 104.203125 209.667969 105.542969 210.074219 107.011719 210.511719 C 115.664062 212.699219 123.539062 213.136719 128.628906 213.136719 C 129.785156 213.136719 130.878906 213.105469 131.847656 213.074219 L 132.410156 213.074219 C 132.972656 213.074219 133.503906 212.980469 134.035156 212.792969 C 134.035156 206.574219 134.035156 189.519531 134.003906 162.777344 C 124.570312 152.15625 115.757812 152.8125 107.230469 153.4375 Z M 107.230469 153.4375 " fill-opacity="1" fill-rule="evenodd"/><path fill="#ffffff" d="M 85.113281 97.460938 C 97.734375 82.808594 99.796875 72 94.300781 49.320312 C 92.050781 39.949219 91.894531 31.265625 93.832031 23.394531 C 81.679688 35.699219 72.683594 52.101562 67.152344 64.035156 C 68.246094 68.3125 73.523438 86.839844 85.113281 97.460938 Z M 85.113281 97.460938 " fill-opacity="1" fill-rule="evenodd"/><path fill="#ffffff" d="M 104.609375 105.863281 C 110.105469 106.957031 116.257812 108.207031 121.882812 110.453125 C 126.722656 112.390625 130.785156 114.953125 133.972656 118.078125 L 133.910156 57.503906 C 131.691406 58.597656 129.347656 59.128906 126.941406 59.128906 C 120.007812 59.128906 113.667969 54.664062 110.324219 50.820312 C 109.167969 49.476562 109.324219 47.414062 110.667969 46.226562 C 112.011719 45.074219 114.074219 45.199219 115.261719 46.539062 C 115.636719 46.976562 124.820312 57.222656 133.628906 50.007812 C 133.722656 49.945312 133.816406 49.882812 133.910156 49.851562 L 133.878906 8.460938 C 129.878906 6.117188 125.445312 5.429688 120.320312 6.398438 C 116.945312 7.523438 112.792969 9.523438 107.761719 12.429688 C 106.855469 12.929688 105.980469 13.492188 105.109375 14.054688 C 103.328125 16.269531 95.671875 27.234375 100.640625 47.789062 C 106.605469 72.5625 104.203125 85.183594 90.332031 101.425781 C 91.175781 101.925781 91.988281 102.363281 92.800781 102.738281 C 95.546875 104.050781 99.984375 104.925781 104.609375 105.863281 Z M 104.609375 105.863281 " fill-opacity="1" fill-rule="evenodd"/><g clip-path="url(#04ff9e4064)"><path fill="#ffffff" d="M 209.414062 166.714844 C 208.726562 166.402344 207.945312 166.152344 207.132812 166.058594 C 206.507812 166.027344 205.945312 166.058594 205.351562 166.152344 L 192.824219 115.984375 C 195.292969 115.234375 197.355469 113.578125 198.730469 111.390625 L 221.40625 123.886719 C 221.285156 124.199219 221.15625 124.511719 221.128906 124.886719 C 220.96875 126.511719 221.84375 128.011719 223.21875 128.761719 Z M 185.015625 206.199219 C 184.640625 206.042969 184.234375 205.886719 183.796875 205.824219 C 183.078125 205.761719 182.421875 205.949219 181.796875 206.230469 L 156.464844 164.183594 C 158.242188 162.996094 159.617188 161.28125 160.398438 159.25 L 199.480469 172.214844 C 199.449219 172.308594 199.417969 172.402344 199.417969 172.496094 C 199.136719 175.429688 200.695312 178.085938 203.101562 179.398438 Z M 144.75 211.574219 C 144.46875 210.324219 143.65625 209.292969 142.5 208.792969 L 149.308594 166.027344 C 149.371094 166.027344 149.402344 166.058594 149.433594 166.058594 C 151.589844 166.246094 153.652344 165.777344 155.464844 164.839844 L 180.765625 206.886719 C 180.046875 207.542969 179.546875 208.417969 179.453125 209.480469 Z M 143.40625 97.648438 C 144.8125 97.492188 146 96.679688 146.59375 95.429688 L 179.082031 103.519531 C 178.988281 103.925781 178.894531 104.300781 178.859375 104.707031 C 178.519531 108.269531 179.984375 111.546875 182.453125 113.734375 L 156.589844 146.503906 C 155.089844 145.441406 153.339844 144.722656 151.402344 144.535156 C 150.777344 144.503906 150.183594 144.535156 149.621094 144.566406 Z M 142.25 14.679688 C 143.65625 14.148438 144.75 12.867188 144.875 11.273438 C 144.90625 11.210938 144.84375 11.117188 144.875 11.054688 L 161.242188 11.085938 C 161.523438 14.460938 164.179688 17.238281 167.648438 17.550781 C 167.992188 17.582031 168.332031 17.550781 168.675781 17.550781 L 176.238281 56.570312 C 174.488281 57.253906 173.050781 58.660156 172.300781 60.441406 L 152.652344 54.320312 C 152.683594 54.257812 152.714844 54.195312 152.746094 54.101562 C 152.933594 51.882812 151.308594 49.914062 149.089844 49.726562 C 148.933594 49.695312 148.777344 49.757812 148.621094 49.757812 Z M 204.414062 53.601562 L 185.296875 60.253906 C 184.296875 57.972656 182.140625 56.320312 179.484375 56.070312 C 178.765625 56.007812 178.082031 56.070312 177.425781 56.226562 L 169.894531 17.363281 C 170.957031 17.113281 171.957031 16.644531 172.769531 15.957031 L 205.695312 47.539062 C 204.882812 48.570312 204.320312 49.820312 204.195312 51.226562 C 204.132812 52.070312 204.226562 52.851562 204.414062 53.601562 Z M 208.070312 58.191406 L 193.074219 95.429688 C 192.261719 95.179688 191.449219 94.960938 190.574219 94.898438 C 189.515625 94.804688 188.484375 94.898438 187.453125 95.117188 L 180.828125 69.9375 C 183.546875 69.15625 185.640625 66.785156 185.921875 63.785156 C 185.984375 62.941406 185.890625 62.160156 185.703125 61.410156 L 204.820312 54.757812 C 205.476562 56.226562 206.601562 57.472656 208.070312 58.191406 Z M 143.46875 89.773438 L 148.683594 57.722656 C 150.277344 57.722656 151.652344 56.851562 152.308594 55.507812 L 171.957031 61.628906 C 171.894531 61.910156 171.800781 62.191406 171.769531 62.503906 C 171.425781 66.410156 174.300781 69.84375 178.207031 70.1875 C 178.671875 70.25 179.175781 70.25 179.609375 70.1875 L 186.265625 95.367188 C 183.015625 96.429688 180.421875 98.988281 179.359375 102.332031 L 146.9375 94.273438 C 146.9375 94.210938 146.96875 94.148438 146.96875 94.085938 C 147.183594 91.929688 145.625 90.054688 143.46875 89.773438 Z M 199.730469 171.027344 L 160.804688 158.125 C 160.992188 157.53125 161.117188 156.90625 161.179688 156.28125 C 161.492188 152.71875 160.023438 149.441406 157.558594 147.253906 L 183.421875 114.484375 C 184.921875 115.546875 186.671875 116.265625 188.640625 116.421875 C 189.667969 116.515625 190.636719 116.421875 191.605469 116.234375 L 204.164062 166.433594 C 202.070312 167.152344 200.382812 168.839844 199.730469 171.027344 Z M 223.8125 121.449219 C 223.09375 121.730469 222.46875 122.199219 222 122.824219 L 199.324219 110.328125 C 199.855469 109.207031 200.230469 107.988281 200.351562 106.644531 C 200.789062 102.019531 198.167969 97.804688 194.199219 95.898438 L 209.195312 58.660156 C 209.664062 58.816406 210.132812 58.910156 210.628906 58.941406 C 211.066406 59.003906 211.535156 58.972656 211.972656 58.941406 Z M 225.53125 121.230469 C 225.34375 121.199219 225.21875 121.261719 225.03125 121.292969 L 213.160156 58.691406 C 215.910156 57.941406 218.066406 55.539062 218.347656 52.539062 C 218.691406 48.632812 215.816406 45.167969 211.910156 44.824219 C 209.851562 44.636719 207.945312 45.355469 206.539062 46.632812 L 173.644531 15.113281 C 174.582031 14.023438 175.238281 12.679688 175.363281 11.117188 C 175.707031 7.210938 172.832031 3.777344 168.925781 3.433594 C 165.023438 3.058594 161.585938 5.929688 161.242188 9.835938 C 161.210938 9.835938 161.242188 9.867188 161.242188 9.867188 L 144.71875 9.804688 C 144.28125 8.273438 142.9375 7.054688 141.25 6.898438 C 139.03125 6.710938 137.0625 8.335938 136.847656 10.554688 C 136.660156 12.773438 138.28125 14.742188 140.5 14.925781 C 140.6875 14.957031 140.875 14.863281 141.0625 14.863281 L 147.40625 49.945312 C 145.96875 50.445312 144.84375 51.726562 144.71875 53.382812 C 144.53125 55.289062 145.75 56.914062 147.5 57.503906 L 142.21875 89.835938 C 140.5 90.179688 139.125 91.523438 138.9375 93.367188 C 138.75 95.429688 140.1875 97.210938 142.15625 97.617188 L 148.402344 144.753906 C 143.78125 145.628906 140.09375 149.410156 139.65625 154.3125 C 139.15625 159.8125 142.875 164.652344 148.121094 165.808594 L 141.3125 208.449219 C 141.28125 208.417969 141.25 208.417969 141.25 208.417969 C 139.03125 208.199219 137.0625 209.855469 136.847656 212.074219 C 136.660156 214.292969 138.28125 216.226562 140.5 216.445312 C 142.71875 216.632812 144.6875 215.007812 144.875 212.792969 L 179.578125 210.699219 C 179.953125 212.355469 181.296875 213.667969 183.078125 213.824219 C 185.296875 214.042969 187.234375 212.417969 187.453125 210.199219 C 187.578125 208.855469 186.984375 207.699219 186.046875 206.855469 L 204.257812 179.867188 C 204.757812 180.023438 205.289062 180.148438 205.851562 180.210938 C 209.726562 180.554688 213.191406 177.679688 213.535156 173.773438 C 213.785156 171.152344 212.535156 168.746094 210.507812 167.339844 L 224.40625 129.136719 C 224.53125 129.167969 224.65625 129.230469 224.8125 129.261719 C 227.03125 129.449219 228.96875 127.824219 229.1875 125.605469 C 229.375 123.386719 227.75 121.417969 225.53125 121.230469 Z M 225.53125 121.230469 " fill-opacity="1" fill-rule="evenodd"/></g></svg>