<svg xmlns="http://www.w3.org/2000/svg" xmlns:xlink="http://www.w3.org/1999/xlink" width="370" zoomAndPan="magnify" viewBox="0 0 277.5 277.500005" height="370" preserveAspectRatio="xMidYMid meet" version="1.0"><defs><clipPath id="c123a69777"><path d="M 134 5.371094 L 250 5.371094 L 250 270.875 L 134 270.875 Z M 134 5.371094 " clip-rule="nonzero"/></clipPath></defs><path fill="#ffffff" d="M 0 0 L 277 0 L 277 277 L 0 277 Z M 0 0 " fill-opacity="1" fill-rule="nonzero"/><path fill="#ffffff" d="M 0 0 L 277 0 L 277 277 L 0 277 Z M 0 0 " fill-opacity="1" fill-rule="nonzero"/><path fill="#10b1b4" d="M 130.667969 192.648438 L 130.628906 162.835938 C 130.085938 160.8125 126.890625 151.898438 112.507812 146.179688 C 106.234375 143.648438 98.90625 142.210938 92.476562 140.925781 C 86.125 139.640625 80.160156 138.433594 75.835938 136.410156 C 57.089844 127.691406 46.957031 105.976562 42.242188 92.355469 C 33.824219 113.019531 30.199219 129.5625 31.058594 134.855469 C 31.214844 135.90625 31.71875 138.007812 32.03125 139.210938 C 32.382812 140.613281 32.460938 140.964844 32.382812 141.664062 C 32.148438 142.910156 31.835938 143.882812 31.527344 144.777344 C 37.136719 144.273438 45.4375 145.480469 55.257812 153.027344 C 61.496094 157.855469 64.613281 163.304688 67.378906 168.128906 C 70.730469 174.042969 73.613281 179.144531 81.835938 183.074219 C 85.851562 184.980469 90.878906 184.628906 96.6875 184.203125 C 99.257812 184.007812 101.984375 183.8125 104.871094 183.8125 C 112.78125 183.8125 121.628906 185.332031 130.667969 192.648438 Z M 130.667969 192.648438 " fill-opacity="1" fill-rule="evenodd"/><path fill="#10b1b4" d="M 97.269531 192.296875 C 90.566406 192.765625 84.292969 193.230469 78.332031 190.390625 C 67.847656 185.410156 64.027344 178.675781 60.324219 172.214844 C 57.714844 167.625 55.257812 163.304688 50.308594 159.488281 C 40.722656 152.171875 33.667969 152.289062 30.003906 153.222656 C 29.460938 162.640625 29.65625 185.953125 40.957031 212.808594 C 49.570312 233.238281 63.285156 248.300781 81.761719 257.523438 C 77.472656 244.097656 73.265625 222.460938 86.554688 213.585938 C 91.074219 210.589844 95.710938 209.578125 100.347656 210.550781 C 109.15625 212.378906 114.574219 220.785156 114.613281 220.863281 C 115.195312 221.796875 115.390625 222.847656 115.160156 223.9375 C 114.925781 224.988281 114.300781 225.882812 113.40625 226.46875 C 111.535156 227.675781 109 227.128906 107.792969 225.261719 C 107.636719 225.066406 103.933594 219.539062 98.671875 218.488281 C 96.179688 218.023438 93.683594 218.605469 91.113281 220.320312 C 81.058594 227.011719 87.136719 250.167969 91.929688 261.804688 C 93.488281 262.351562 95.164062 262.855469 96.996094 263.402344 C 107.792969 266.125 117.613281 266.671875 123.964844 266.671875 C 125.40625 266.671875 126.773438 266.632812 127.980469 266.59375 L 128.679688 266.59375 C 129.382812 266.59375 130.046875 266.476562 130.707031 266.242188 C 130.707031 258.496094 130.707031 237.25 130.667969 203.933594 C 118.898438 190.703125 107.910156 191.519531 97.269531 192.296875 Z M 97.269531 192.296875 " fill-opacity="1" fill-rule="evenodd"/><path fill="#10b1b4" d="M 69.679688 122.554688 C 85.421875 104.304688 87.996094 90.835938 81.136719 62.582031 C 78.332031 50.90625 78.136719 40.089844 80.550781 30.28125 C 65.390625 45.613281 54.167969 66.046875 47.269531 80.914062 C 48.632812 86.246094 55.21875 109.324219 69.679688 122.554688 Z M 69.679688 122.554688 " fill-opacity="1" fill-rule="evenodd"/><path fill="#10b1b4" d="M 93.996094 133.023438 C 100.855469 134.386719 108.53125 135.945312 115.546875 138.746094 C 121.589844 141.160156 126.65625 144.351562 130.628906 148.242188 L 130.550781 72.78125 C 127.785156 74.140625 124.863281 74.804688 121.863281 74.804688 C 113.210938 74.804688 105.296875 69.238281 101.128906 64.449219 C 99.6875 62.777344 99.882812 60.207031 101.558594 58.730469 C 103.234375 57.289062 105.804688 57.445312 107.285156 59.121094 C 107.753906 59.664062 119.210938 72.429688 130.199219 63.4375 C 130.316406 63.359375 130.433594 63.285156 130.550781 63.246094 L 130.511719 11.675781 C 125.523438 8.757812 119.992188 7.902344 113.597656 9.109375 C 109.390625 10.511719 104.207031 13 97.933594 16.621094 C 96.800781 17.242188 95.710938 17.945312 94.621094 18.644531 C 92.398438 21.40625 82.851562 35.066406 89.046875 60.675781 C 96.492188 91.539062 93.488281 107.261719 76.1875 127.5 C 77.238281 128.121094 78.253906 128.664062 79.265625 129.132812 C 82.695312 130.769531 88.230469 131.855469 93.996094 133.023438 Z M 93.996094 133.023438 " fill-opacity="1" fill-rule="evenodd"/><g clip-path="url(#c123a69777)"><path fill="#10b1b4" d="M 224.746094 208.835938 C 223.886719 208.449219 222.914062 208.136719 221.902344 208.019531 C 221.121094 207.980469 220.421875 208.019531 219.679688 208.136719 L 204.050781 145.632812 C 207.132812 144.699219 209.703125 142.636719 211.417969 139.914062 L 239.710938 155.480469 C 239.554688 155.871094 239.398438 156.257812 239.359375 156.726562 C 239.164062 158.75 240.257812 160.617188 241.972656 161.550781 Z M 194.308594 258.03125 C 193.839844 257.835938 193.335938 257.640625 192.789062 257.5625 C 191.894531 257.484375 191.074219 257.71875 190.296875 258.070312 L 158.691406 205.683594 C 160.910156 204.207031 162.625 202.066406 163.601562 199.535156 L 212.351562 215.6875 C 212.3125 215.804688 212.273438 215.921875 212.273438 216.039062 C 211.925781 219.695312 213.871094 223.003906 216.875 224.636719 Z M 144.074219 264.722656 C 143.722656 263.167969 142.710938 261.882812 141.269531 261.261719 L 149.765625 207.980469 C 149.84375 207.980469 149.882812 208.019531 149.921875 208.019531 C 152.609375 208.253906 155.183594 207.671875 157.441406 206.503906 L 189.007812 258.886719 C 188.113281 259.703125 187.488281 260.792969 187.371094 262.117188 Z M 142.398438 122.789062 C 144.152344 122.59375 145.632812 121.582031 146.375 120.027344 L 186.90625 130.105469 C 186.789062 130.613281 186.671875 131.078125 186.632812 131.585938 C 186.203125 136.023438 188.035156 140.109375 191.113281 142.832031 L 158.84375 183.65625 C 156.976562 182.335938 154.792969 181.441406 152.375 181.207031 C 151.597656 181.167969 150.855469 181.207031 150.15625 181.246094 Z M 140.957031 19.421875 C 142.710938 18.761719 144.074219 17.164062 144.230469 15.179688 C 144.269531 15.101562 144.191406 14.984375 144.230469 14.90625 L 164.652344 14.945312 C 165.003906 19.148438 168.316406 22.613281 172.640625 23.003906 C 173.070312 23.042969 173.5 23.003906 173.925781 23.003906 L 183.359375 71.613281 C 181.175781 72.46875 179.382812 74.21875 178.449219 76.4375 L 153.933594 68.808594 C 153.972656 68.730469 154.011719 68.652344 154.050781 68.539062 C 154.285156 65.773438 152.257812 63.324219 149.492188 63.089844 C 149.296875 63.050781 149.101562 63.128906 148.90625 63.128906 Z M 218.511719 67.914062 L 194.660156 76.203125 C 193.414062 73.363281 190.722656 71.300781 187.410156 70.988281 C 186.515625 70.910156 185.65625 70.988281 184.839844 71.183594 L 175.445312 22.769531 C 176.773438 22.457031 178.019531 21.875 179.03125 21.019531 L 220.109375 60.363281 C 219.09375 61.648438 218.394531 63.207031 218.238281 64.957031 C 218.160156 66.007812 218.277344 66.980469 218.511719 67.914062 Z M 223.070312 73.636719 L 204.363281 120.027344 C 203.351562 119.714844 202.335938 119.441406 201.246094 119.363281 C 199.921875 119.246094 198.636719 119.363281 197.347656 119.636719 L 189.085938 88.269531 C 192.476562 87.296875 195.089844 84.339844 195.4375 80.601562 C 195.515625 79.550781 195.402344 78.578125 195.167969 77.644531 L 219.015625 69.355469 C 219.835938 71.183594 221.238281 72.742188 223.070312 73.636719 Z M 142.476562 112.980469 L 148.984375 73.050781 C 150.972656 73.050781 152.6875 71.960938 153.507812 70.289062 L 178.019531 77.917969 C 177.941406 78.265625 177.824219 78.617188 177.785156 79.007812 C 177.355469 83.871094 180.941406 88.152344 185.8125 88.582031 C 186.398438 88.65625 187.023438 88.65625 187.566406 88.582031 L 195.867188 119.949219 C 191.816406 121.273438 188.582031 124.460938 187.253906 128.628906 L 146.804688 118.585938 C 146.804688 118.507812 146.84375 118.429688 146.84375 118.351562 C 147.113281 115.667969 145.167969 113.332031 142.476562 112.980469 Z M 212.664062 214.207031 L 164.105469 198.136719 C 164.339844 197.394531 164.496094 196.617188 164.574219 195.839844 C 164.964844 191.402344 163.132812 187.316406 160.054688 184.589844 L 192.320312 143.765625 C 194.191406 145.089844 196.375 145.984375 198.828125 146.179688 C 200.117188 146.296875 201.324219 146.179688 202.53125 145.945312 L 218.199219 208.488281 C 215.585938 209.382812 213.484375 211.484375 212.664062 214.207031 Z M 242.710938 152.445312 C 241.816406 152.796875 241.035156 153.378906 240.453125 154.15625 L 212.15625 138.589844 C 212.820312 137.1875 213.289062 135.671875 213.445312 134 C 213.988281 128.238281 210.714844 122.984375 205.765625 120.609375 L 224.472656 74.21875 C 225.058594 74.414062 225.640625 74.53125 226.265625 74.570312 C 226.8125 74.648438 227.394531 74.609375 227.941406 74.570312 Z M 244.855469 152.171875 C 244.621094 152.132812 244.464844 152.210938 244.230469 152.25 L 229.421875 74.257812 C 232.851562 73.324219 235.542969 70.328125 235.890625 66.589844 C 236.320312 61.726562 232.734375 57.40625 227.863281 56.980469 C 225.292969 56.746094 222.914062 57.640625 221.160156 59.234375 L 180.125 19.96875 C 181.292969 18.605469 182.109375 16.933594 182.265625 14.984375 C 182.695312 10.121094 179.109375 5.839844 174.238281 5.410156 C 169.367188 4.945312 165.082031 8.523438 164.652344 13.390625 C 164.613281 13.390625 164.652344 13.429688 164.652344 13.429688 L 144.035156 13.351562 C 143.492188 11.445312 141.816406 9.925781 139.710938 9.730469 C 136.945312 9.5 134.488281 11.523438 134.214844 14.285156 C 133.980469 17.046875 136.007812 19.5 138.773438 19.734375 C 139.007812 19.773438 139.242188 19.65625 139.476562 19.65625 L 147.386719 63.359375 C 145.59375 63.984375 144.191406 65.578125 144.035156 67.640625 C 143.800781 70.015625 145.324219 72.039062 147.503906 72.78125 L 140.917969 113.058594 C 138.773438 113.488281 137.058594 115.160156 136.828125 117.457031 C 136.59375 120.027344 138.386719 122.246094 140.839844 122.75 L 148.632812 181.476562 C 142.867188 182.566406 138.269531 187.277344 137.722656 193.386719 C 137.097656 200.238281 141.738281 206.269531 148.285156 207.707031 L 139.789062 260.832031 C 139.75 260.792969 139.710938 260.792969 139.710938 260.792969 C 136.945312 260.519531 134.488281 262.582031 134.214844 265.347656 C 133.980469 268.109375 136.007812 270.523438 138.773438 270.796875 C 141.542969 271.03125 143.996094 269.003906 144.230469 266.242188 L 187.527344 263.632812 C 187.996094 265.695312 189.671875 267.332031 191.894531 267.527344 C 194.660156 267.800781 197.074219 265.773438 197.347656 263.011719 C 197.503906 261.339844 196.765625 259.898438 195.59375 258.847656 L 218.316406 225.222656 C 218.9375 225.417969 219.601562 225.574219 220.304688 225.652344 C 225.136719 226.078125 229.460938 222.5 229.890625 217.632812 C 230.203125 214.363281 228.644531 211.367188 226.109375 209.617188 L 243.453125 162.019531 C 243.609375 162.058594 243.765625 162.136719 243.957031 162.175781 C 246.726562 162.410156 249.140625 160.382812 249.414062 157.621094 C 249.648438 154.859375 247.621094 152.40625 244.855469 152.171875 Z M 244.855469 152.171875 " fill-opacity="1" fill-rule="evenodd"/></g></svg>