<svg xmlns="http://www.w3.org/2000/svg" xmlns:xlink="http://www.w3.org/1999/xlink" width="48" zoomAndPan="magnify" viewBox="0 0 36 48" height="64" preserveAspectRatio="xMidYMid meet" version="1.0"><defs><clipPath id="a287cdeac9"><path d="M 2 6.429688 L 35 6.429688 L 35 39 L 2 39 Z M 2 6.429688 " clip-rule="nonzero"/></clipPath><clipPath id="e62ff4bed2"><path d="M 0.367188 35 L 5 35 L 5 40.960938 L 0.367188 40.960938 Z M 0.367188 35 " clip-rule="nonzero"/></clipPath><clipPath id="5056c399d5"><path d="M 21 21 L 24.613281 21 L 24.613281 24.882812 L 21 24.882812 Z M 21 21 " clip-rule="nonzero"/></clipPath><clipPath id="7a9128a4ae"><path d="M 22 16.066406 L 24.613281 16.066406 L 24.613281 20 L 22 20 Z M 22 16.066406 " clip-rule="nonzero"/></clipPath><clipPath id="d14be8c5ca"><path d="M 23.398438 32.960938 L 32.214844 32.960938 L 32.214844 40.308594 L 23.398438 40.308594 Z M 23.398438 32.960938 " clip-rule="nonzero"/></clipPath></defs><g clip-path="url(#a287cdeac9)"><path fill="#10b1b4" d="M 30.898438 10.027344 C 28.597656 7.726562 25.539062 6.460938 22.285156 6.460938 C 19.03125 6.460938 15.972656 7.726562 13.667969 10.027344 C 11.367188 12.328125 10.097656 15.390625 10.097656 18.644531 C 10.097656 21.476562 11.058594 24.15625 12.824219 26.320312 L 10.46875 28.671875 L 9.933594 28.136719 L 2.800781 35.269531 L 5.65625 38.125 L 12.789062 30.992188 L 12.253906 30.457031 L 14.605469 28.105469 C 16.773438 29.871094 19.453125 30.828125 22.28125 30.828125 C 25.539062 30.828125 28.597656 29.5625 30.898438 27.257812 C 35.652344 22.507812 35.652344 14.777344 30.898438 10.027344 Z M 29.585938 25.941406 C 27.632812 27.890625 25.042969 28.964844 22.28125 28.964844 C 19.523438 28.964844 16.933594 27.890625 14.984375 25.941406 C 13.035156 23.992188 11.960938 21.402344 11.960938 18.644531 C 11.960938 15.886719 13.035156 13.292969 14.984375 11.34375 C 16.933594 9.394531 19.523438 8.320312 22.285156 8.320312 C 25.042969 8.320312 27.632812 9.394531 29.582031 11.34375 C 33.609375 15.371094 33.609375 21.917969 29.585938 25.941406 Z M 29.585938 25.941406 " fill-opacity="1" fill-rule="nonzero"/></g><path fill="#10b1b4" d="M 22.285156 9.710938 C 19.898438 9.710938 17.65625 10.640625 15.964844 12.324219 C 15.710938 12.578125 15.710938 12.996094 15.964844 13.25 C 16.222656 13.503906 16.636719 13.503906 16.890625 13.25 C 18.332031 11.808594 20.246094 11.015625 22.285156 11.015625 C 24.324219 11.015625 26.238281 11.808594 27.679688 13.25 C 27.804688 13.375 27.972656 13.4375 28.140625 13.4375 C 28.308594 13.4375 28.476562 13.375 28.605469 13.25 C 28.859375 12.996094 28.859375 12.578125 28.605469 12.324219 C 26.914062 10.640625 24.671875 9.710938 22.285156 9.710938 Z M 22.285156 9.710938 " fill-opacity="1" fill-rule="nonzero"/><g clip-path="url(#e62ff4bed2)"><path fill="#10b1b4" d="M 1.125 36.945312 C 0.398438 37.671875 0.398438 38.851562 1.125 39.578125 L 1.347656 39.800781 C 2.074219 40.527344 3.253906 40.527344 3.980469 39.800781 L 4.960938 38.820312 L 2.105469 35.964844 Z M 1.125 36.945312 " fill-opacity="1" fill-rule="nonzero"/></g><path fill="#10b1b4" d="M 19.953125 22.386719 C 19.875 22.386719 19.804688 22.332031 19.785156 22.253906 C 19.761719 22.164062 19.75 22.074219 19.742188 21.980469 C 19.644531 21.65625 19.371094 21.242188 19.113281 20.960938 C 18.820312 20.648438 18.53125 20.496094 18.175781 20.476562 C 18.089844 20.46875 18.023438 20.40625 18.011719 20.320312 C 18 20.238281 18.054688 20.15625 18.132812 20.132812 C 18.523438 20.011719 18.867188 19.761719 19.097656 19.425781 C 19.316406 19.109375 19.433594 18.726562 19.425781 18.34375 C 19.421875 18.332031 19.417969 18.316406 19.417969 18.304688 C 19.414062 18.273438 19.414062 18.214844 19.464844 18.152344 C 19.511719 18.097656 19.585938 18.078125 19.652344 18.101562 C 19.707031 18.117188 19.746094 18.160156 19.765625 18.210938 C 19.777344 18.230469 19.789062 18.25 19.792969 18.277344 C 19.988281 18.980469 20.625 19.550781 21.347656 19.664062 C 21.421875 19.675781 21.480469 19.734375 21.492188 19.808594 C 21.503906 19.886719 21.464844 19.960938 21.394531 19.996094 C 21.292969 20.042969 21.214844 20.113281 21.121094 20.191406 C 21.078125 20.234375 21.027344 20.277344 20.972656 20.316406 C 20.652344 20.566406 20.414062 20.847656 20.265625 21.144531 C 20.136719 21.398438 20.078125 21.667969 20.089844 21.921875 C 20.117188 22.027344 20.132812 22.125 20.128906 22.214844 C 20.128906 22.304688 20.0625 22.378906 19.972656 22.386719 C 19.964844 22.386719 19.960938 22.386719 19.953125 22.386719 Z M 18.722656 20.246094 C 18.953125 20.34375 19.164062 20.503906 19.367188 20.722656 C 19.527344 20.894531 19.691406 21.109375 19.820312 21.320312 C 19.851562 21.210938 19.894531 21.097656 19.949219 20.988281 C 20.121094 20.640625 20.394531 20.324219 20.757812 20.039062 C 20.804688 20.003906 20.847656 19.964844 20.890625 19.925781 C 20.898438 19.921875 20.902344 19.917969 20.910156 19.910156 C 20.828125 19.882812 20.75 19.851562 20.671875 19.8125 C 20.480469 19.71875 20.300781 19.597656 20.136719 19.453125 C 19.976562 19.308594 19.835938 19.144531 19.71875 18.960938 C 19.714844 18.953125 19.707031 18.945312 19.703125 18.9375 C 19.636719 19.179688 19.53125 19.414062 19.386719 19.625 C 19.210938 19.878906 18.984375 20.089844 18.722656 20.246094 Z M 18.722656 20.246094 " fill-opacity="1" fill-rule="nonzero"/><g clip-path="url(#5056c399d5)"><path fill="#10b1b4" d="M 23.0625 24.847656 C 23.058594 24.847656 23.054688 24.847656 23.050781 24.847656 C 22.957031 24.84375 22.882812 24.761719 22.886719 24.667969 C 22.90625 24.203125 22.609375 23.628906 22.226562 23.390625 C 22.128906 23.328125 22.046875 23.300781 21.984375 23.308594 C 21.976562 23.3125 21.964844 23.3125 21.957031 23.3125 C 21.859375 23.3125 21.777344 23.238281 21.75 23.128906 C 21.726562 23.023438 21.789062 22.9375 21.863281 22.914062 C 21.886719 22.90625 21.910156 22.902344 21.9375 22.902344 C 22.085938 22.867188 22.242188 22.777344 22.40625 22.628906 C 22.554688 22.492188 22.65625 22.355469 22.707031 22.222656 C 22.738281 22.140625 22.753906 22.058594 22.75 21.984375 C 22.71875 21.898438 22.695312 21.816406 22.6875 21.730469 C 22.675781 21.648438 22.730469 21.570312 22.808594 21.542969 C 22.890625 21.519531 22.976562 21.554688 23.015625 21.632812 C 23.058594 21.710938 23.085938 21.800781 23.097656 21.894531 C 23.164062 22.027344 23.28125 22.164062 23.453125 22.308594 C 23.648438 22.46875 23.902344 22.550781 24.15625 22.535156 C 24.25 22.527344 24.335938 22.601562 24.339844 22.695312 C 24.347656 22.792969 24.277344 22.875 24.183594 22.886719 C 24.042969 22.898438 23.910156 22.972656 23.78125 23.105469 C 23.671875 23.222656 23.566406 23.382812 23.472656 23.578125 C 23.3125 23.917969 23.273438 24.308594 23.238281 24.691406 C 23.230469 24.78125 23.152344 24.847656 23.0625 24.847656 Z M 22.394531 23.082031 C 22.402344 23.085938 22.40625 23.089844 22.414062 23.09375 C 22.660156 23.246094 22.875 23.503906 23.023438 23.792969 C 23.058594 23.667969 23.097656 23.546875 23.15625 23.429688 C 23.285156 23.15625 23.433594 22.945312 23.597656 22.796875 C 23.464844 22.742188 23.339844 22.667969 23.230469 22.578125 C 23.152344 22.511719 23.082031 22.449219 23.019531 22.382812 C 22.945312 22.554688 22.820312 22.722656 22.640625 22.886719 C 22.558594 22.964844 22.476562 23.027344 22.394531 23.082031 Z M 22.394531 23.082031 " fill-opacity="1" fill-rule="nonzero"/></g><g clip-path="url(#7a9128a4ae)"><path fill="#10b1b4" d="M 23.390625 19.378906 C 23.296875 19.378906 23.222656 19.308594 23.214844 19.21875 C 23.199219 19.035156 23.203125 18.855469 23.230469 18.679688 C 23.195312 18.378906 23.070312 18.089844 22.867188 17.863281 C 22.832031 17.824219 22.785156 17.773438 22.730469 17.753906 C 22.726562 17.75 22.714844 17.75 22.703125 17.753906 C 22.644531 17.78125 22.582031 17.800781 22.519531 17.8125 C 22.4375 17.828125 22.355469 17.785156 22.324219 17.710938 C 22.292969 17.632812 22.320312 17.542969 22.386719 17.496094 C 22.4375 17.464844 22.511719 17.433594 22.59375 17.414062 C 22.683594 17.363281 22.773438 17.28125 22.863281 17.167969 C 23.011719 16.972656 23.121094 16.757812 23.179688 16.539062 C 23.1875 16.507812 23.195312 16.464844 23.199219 16.425781 C 23.183594 16.378906 23.175781 16.332031 23.167969 16.289062 C 23.152344 16.203125 23.203125 16.121094 23.285156 16.09375 C 23.367188 16.066406 23.457031 16.101562 23.496094 16.179688 C 23.503906 16.191406 23.507812 16.207031 23.511719 16.21875 C 23.535156 16.269531 23.542969 16.320312 23.546875 16.367188 C 23.609375 16.546875 23.738281 16.730469 23.910156 16.878906 C 24.089844 17.035156 24.316406 17.15625 24.609375 17.246094 C 24.6875 17.273438 24.738281 17.347656 24.730469 17.429688 C 24.722656 17.507812 24.664062 17.574219 24.582031 17.589844 C 24.230469 17.640625 23.964844 17.824219 23.785156 18.125 C 23.609375 18.417969 23.53125 18.796875 23.566406 19.191406 C 23.574219 19.285156 23.5 19.371094 23.40625 19.378906 C 23.398438 19.378906 23.394531 19.378906 23.390625 19.378906 Z M 23.015625 17.523438 C 23.0625 17.558594 23.097656 17.597656 23.128906 17.632812 C 23.246094 17.761719 23.34375 17.90625 23.417969 18.066406 C 23.4375 18.023438 23.457031 17.984375 23.480469 17.945312 C 23.625 17.703125 23.816406 17.519531 24.050781 17.394531 C 23.914062 17.320312 23.789062 17.238281 23.679688 17.144531 C 23.589844 17.0625 23.507812 16.972656 23.433594 16.878906 C 23.359375 17.054688 23.261719 17.226562 23.140625 17.382812 C 23.101562 17.433594 23.058594 17.480469 23.015625 17.523438 Z M 23.015625 17.523438 " fill-opacity="1" fill-rule="nonzero"/></g><g clip-path="url(#d14be8c5ca)"><path fill="#10b1b4" d="M 28.417969 34.25 C 28.429688 34.273438 28.488281 34.398438 28.582031 34.582031 C 28.710938 34.84375 28.867188 35.148438 29.003906 35.425781 C 29.625 36.652344 29.792969 36.6875 30.527344 36.839844 C 30.839844 36.902344 31.238281 36.984375 31.789062 37.160156 C 32.019531 37.234375 32.101562 37.332031 32.054688 37.46875 C 32.011719 37.609375 31.84375 37.625 31.582031 37.652344 C 30.976562 37.714844 29.621094 37.851562 29.136719 38.769531 C 28.707031 39.582031 28.640625 40.144531 28.617188 40.324219 C 28.597656 40.492188 28.585938 40.582031 28.390625 40.546875 C 28.261719 40.523438 28.25 40.460938 28.222656 40.324219 C 28.179688 40.136719 28.058594 39.582031 27.632812 38.554688 C 27.378906 37.953125 26.3125 37.910156 25.773438 37.890625 C 25.5 37.878906 25.316406 37.871094 25.269531 37.71875 C 25.199219 37.507812 25.613281 37.355469 26.828125 36.96875 C 27.21875 36.847656 27.375 36.304688 27.570312 35.640625 C 27.699219 35.199219 27.84375 34.710938 28.082031 34.234375 C 28.125 34.144531 28.238281 34.105469 28.328125 34.152344 C 28.371094 34.175781 28.402344 34.210938 28.417969 34.25 Z M 25.117188 33.117188 C 25.125 33.136719 25.152344 33.195312 25.1875 33.277344 C 25.246094 33.40625 25.316406 33.5625 25.382812 33.710938 C 25.652344 34.300781 25.722656 34.316406 26.023438 34.386719 C 26.171875 34.417969 26.363281 34.460938 26.621094 34.554688 C 26.792969 34.617188 26.847656 34.699219 26.800781 34.832031 C 26.757812 34.953125 26.660156 34.964844 26.5 34.980469 C 26.238281 35.011719 25.644531 35.078125 25.445312 35.503906 C 25.25 35.910156 25.222656 36.1875 25.210938 36.277344 C 25.195312 36.429688 25.179688 36.507812 24.988281 36.472656 C 24.859375 36.449219 24.851562 36.394531 24.828125 36.285156 C 24.8125 36.191406 24.753906 35.90625 24.558594 35.386719 C 24.464844 35.132812 24.015625 35.113281 23.789062 35.105469 C 23.621094 35.097656 23.511719 35.09375 23.464844 34.960938 C 23.398438 34.773438 23.609375 34.679688 24.246094 34.457031 C 24.378906 34.410156 24.445312 34.152344 24.527344 33.835938 C 24.589844 33.605469 24.65625 33.347656 24.769531 33.097656 C 24.8125 33.003906 24.921875 32.964844 25.015625 33.003906 C 25.066406 33.027344 25.101562 33.066406 25.117188 33.117188 Z M 25.046875 33.863281 L 24.957031 33.671875 C 24.933594 33.757812 24.910156 33.847656 24.886719 33.929688 C 24.777344 34.351562 24.6875 34.695312 24.367188 34.808594 C 24.59375 34.875 24.8125 35 24.90625 35.257812 C 24.949219 35.367188 24.984375 35.46875 25.015625 35.558594 C 25.042969 35.492188 25.074219 35.417969 25.109375 35.34375 C 25.269531 35 25.574219 34.824219 25.863281 34.730469 C 25.480469 34.640625 25.371094 34.574219 25.046875 33.863281 Z M 23.8125 34.835938 C 23.835938 34.902344 23.824219 34.851562 23.8125 34.800781 C 23.804688 34.808594 23.808594 34.816406 23.8125 34.835938 Z M 28.675781 35.59375 C 28.511719 35.269531 28.351562 34.953125 28.253906 34.757812 C 28.117188 35.089844 28.019531 35.429688 27.925781 35.742188 C 27.703125 36.511719 27.519531 37.140625 26.9375 37.324219 C 26.527344 37.457031 26.21875 37.503906 26.003906 37.527344 C 26.65625 37.5625 27.667969 37.679688 27.972656 38.414062 C 28.171875 38.894531 28.308594 39.273438 28.402344 39.566406 C 28.480469 39.296875 28.609375 38.96875 28.808594 38.59375 C 29.269531 37.71875 30.324219 37.449219 31.070312 37.339844 C 30.828125 37.277344 30.625 37.238281 30.453125 37.203125 C 29.574219 37.019531 29.375 36.980469 28.675781 35.59375 Z M 28.675781 35.59375 " fill-opacity="1" fill-rule="nonzero"/></g></svg>