<svg xmlns="http://www.w3.org/2000/svg" xmlns:xlink="http://www.w3.org/1999/xlink" width="48" zoomAndPan="magnify" viewBox="0 0 36 48" height="64" preserveAspectRatio="xMidYMid meet" version="1.0"><defs><clipPath id="508025fbc0"><path d="M 12.109375 1.707031 L 34.882812 1.707031 L 34.882812 24.480469 L 12.109375 24.480469 Z M 12.109375 1.707031 " clip-rule="nonzero"/></clipPath><clipPath id="3fb86dca88"><path d="M 0.367188 24.890625 L 35.632812 24.890625 L 35.632812 40.320312 L 0.367188 40.320312 Z M 0.367188 24.890625 " clip-rule="nonzero"/></clipPath><clipPath id="5f52ffada8"><path d="M 14 24.890625 L 35.632812 24.890625 L 35.632812 25 L 14 25 Z M 14 24.890625 " clip-rule="nonzero"/></clipPath><clipPath id="b101d51fa8"><path d="M 6.257812 5 L 10 5 L 10 10 L 6.257812 10 Z M 6.257812 5 " clip-rule="nonzero"/></clipPath><clipPath id="ef0d14599f"><path d="M 10 8 L 12.871094 8 L 12.871094 12.34375 L 10 12.34375 Z M 10 8 " clip-rule="nonzero"/></clipPath><clipPath id="496d884ae8"><path d="M 10 3.527344 L 12.871094 3.527344 L 12.871094 7 L 10 7 Z M 10 3.527344 " clip-rule="nonzero"/></clipPath><clipPath id="12fb9eef95"><path d="M 23.398438 18.769531 L 32.214844 18.769531 L 32.214844 26.117188 L 23.398438 26.117188 Z M 23.398438 18.769531 " clip-rule="nonzero"/></clipPath></defs><path fill="#10b1b4" d="M 17.546875 16.078125 C 17.082031 15.667969 16.460938 15.476562 15.84375 15.550781 C 14.847656 15.671875 14.058594 16.484375 13.960938 17.476562 C 13.910156 17.984375 14.03125 18.472656 14.308594 18.894531 C 14.710938 19.5 15.382812 19.863281 16.113281 19.863281 C 16.84375 19.863281 17.515625 19.5 17.917969 18.894531 C 18.152344 18.535156 18.277344 18.125 18.277344 17.699219 C 18.277344 17.078125 18.011719 16.488281 17.546875 16.078125 Z M 17.324219 18.5 C 17.050781 18.90625 16.601562 19.148438 16.113281 19.148438 C 15.625 19.148438 15.171875 18.90625 14.902344 18.5 C 14.714844 18.21875 14.632812 17.886719 14.667969 17.546875 C 14.734375 16.882812 15.265625 16.339844 15.929688 16.261719 C 15.992188 16.25 16.054688 16.25 16.113281 16.25 C 16.46875 16.25 16.804688 16.375 17.074219 16.613281 C 17.386719 16.886719 17.5625 17.28125 17.5625 17.699219 C 17.5625 17.984375 17.480469 18.261719 17.324219 18.5 Z M 17.324219 18.5 " fill-opacity="1" fill-rule="nonzero"/><g clip-path="url(#508025fbc0)"><path fill="#10b1b4" d="M 34.25 11.570312 L 32.457031 9.78125 C 32.132812 9.453125 31.636719 9.371094 31.222656 9.566406 L 30.207031 10.050781 C 30.066406 10.117188 29.894531 10.085938 29.785156 9.976562 L 26.386719 6.578125 C 26.277344 6.46875 26.246094 6.296875 26.3125 6.15625 L 26.796875 5.140625 C 26.992188 4.722656 26.910156 4.226562 26.582031 3.902344 L 24.792969 2.113281 C 24.382812 1.703125 23.667969 1.703125 23.257812 2.113281 L 22.96875 2.402344 C 22.21875 3.152344 21.808594 4.148438 21.808594 5.207031 C 21.808594 6.265625 22.21875 7.257812 22.96875 8.007812 L 23.351562 8.390625 L 16.472656 8.390625 C 16.273438 8.390625 16.113281 8.550781 16.113281 8.746094 L 16.113281 13.761719 C 15.964844 13.761719 15.8125 13.765625 15.664062 13.785156 C 13.796875 13.992188 12.332031 15.503906 12.1875 17.378906 C 12.109375 18.378906 12.40625 19.359375 13.023438 20.140625 C 14.042969 21.425781 14.761719 22.679688 15.234375 23.996094 C 15.328125 24.257812 15.53125 24.464844 15.800781 24.5625 C 15.902344 24.597656 16.007812 24.617188 16.109375 24.617188 C 16.496094 24.617188 16.855469 24.375 16.996094 23.984375 C 17.460938 22.695312 18.199219 21.402344 19.199219 20.144531 C 19.757812 19.441406 20.050781 18.597656 20.050781 17.699219 C 20.050781 17.601562 20.042969 17.507812 20.039062 17.414062 L 28.003906 17.414062 C 28.199219 17.414062 28.359375 17.253906 28.359375 17.058594 L 28.359375 13.398438 C 29.105469 14.144531 30.101562 14.554688 31.160156 14.554688 C 32.214844 14.554688 33.214844 14.144531 33.960938 13.394531 L 34.25 13.105469 C 34.671875 12.683594 34.671875 11.992188 34.25 11.570312 Z M 24.0625 9.101562 L 25.457031 10.496094 L 22.238281 13.316406 L 17.421875 9.101562 Z M 18.640625 19.699219 C 17.59375 21.019531 16.8125 22.378906 16.320312 23.757812 C 16.277344 23.871094 16.152344 23.929688 16.039062 23.890625 C 15.976562 23.867188 15.925781 23.816406 15.898438 23.742188 C 15.40625 22.367188 14.648438 21.042969 13.582031 19.699219 C 13.074219 19.058594 12.832031 18.257812 12.894531 17.4375 C 13.015625 15.902344 14.214844 14.664062 15.742188 14.492188 C 15.867188 14.476562 15.992188 14.472656 16.117188 14.472656 C 16.910156 14.472656 17.664062 14.757812 18.261719 15.292969 C 18.945312 15.902344 19.335938 16.78125 19.335938 17.695312 C 19.335938 18.433594 19.097656 19.125 18.636719 19.699219 Z M 27.644531 16.699219 L 19.917969 16.699219 C 19.722656 15.960938 19.320312 15.28125 18.738281 14.761719 C 18.199219 14.277344 17.535156 13.957031 16.828125 13.828125 L 16.828125 9.527344 L 22 14.058594 C 22.070312 14.117188 22.152344 14.144531 22.238281 14.144531 C 22.320312 14.144531 22.40625 14.117188 22.472656 14.058594 L 25.964844 11 L 27.644531 12.683594 Z M 33.742188 12.601562 L 33.457031 12.890625 C 32.84375 13.503906 32.027344 13.839844 31.15625 13.839844 C 30.289062 13.839844 29.472656 13.503906 28.859375 12.890625 L 23.472656 7.503906 C 22.859375 6.890625 22.519531 6.074219 22.519531 5.207031 C 22.519531 4.335938 22.859375 3.519531 23.472656 2.90625 L 23.761719 2.621094 C 23.832031 2.550781 23.925781 2.511719 24.023438 2.511719 C 24.125 2.511719 24.21875 2.550781 24.289062 2.621094 L 26.078125 4.410156 C 26.191406 4.519531 26.21875 4.691406 26.152344 4.832031 L 25.667969 5.851562 C 25.472656 6.265625 25.558594 6.761719 25.882812 7.085938 L 29.28125 10.480469 C 29.605469 10.804688 30.101562 10.890625 30.515625 10.695312 L 31.53125 10.210938 C 31.671875 10.144531 31.84375 10.175781 31.953125 10.285156 L 33.742188 12.074219 C 33.8125 12.144531 33.851562 12.238281 33.851562 12.339844 C 33.851562 12.4375 33.8125 12.53125 33.742188 12.601562 Z M 33.742188 12.601562 " fill-opacity="1" fill-rule="nonzero"/></g><g clip-path="url(#3fb86dca88)"><path fill="#10b1b4" d="M 33.964844 27.824219 C 32.964844 27.332031 31.792969 27.433594 30.894531 28.089844 L 25.378906 31.246094 C 25.078125 31.417969 24.738281 31.515625 24.394531 31.542969 C 24.5625 31.1875 24.65625 30.796875 24.65625 30.382812 C 24.65625 28.871094 23.425781 27.640625 21.914062 27.640625 L 14.738281 27.640625 L 13.820312 26.949219 C 12.066406 25.632812 9.953125 24.90625 7.832031 24.902344 L 2.730469 24.902344 C 1.433594 24.902344 0.382812 25.953125 0.382812 27.25 L 0.382812 36.644531 C 0.382812 37.941406 1.433594 38.996094 2.730469 38.996094 L 3.515625 38.996094 C 4.621094 38.996094 5.550781 38.222656 5.796875 37.191406 L 10.605469 40.019531 C 11.203125 40.371094 11.890625 40.5625 12.589844 40.5625 L 21.746094 40.5625 C 22.527344 40.5625 23.277344 40.328125 23.921875 39.898438 L 34.425781 32.863281 C 34.441406 32.851562 34.457031 32.839844 34.472656 32.828125 C 35.199219 32.265625 35.617188 31.410156 35.617188 30.488281 C 35.617188 29.351562 34.988281 28.332031 33.964844 27.824219 Z M 4.296875 36.644531 C 4.296875 37.078125 3.945312 37.429688 3.515625 37.429688 L 2.730469 37.429688 C 2.300781 37.429688 1.949219 37.078125 1.949219 36.644531 L 1.949219 27.25 C 1.949219 26.820312 2.300781 26.464844 2.730469 26.464844 L 4.296875 26.464844 Z M 33.53125 31.578125 L 23.054688 38.59375 C 22.667969 38.859375 22.210938 38.996094 21.746094 38.996094 L 12.589844 38.996094 C 12.171875 38.996094 11.757812 38.882812 11.398438 38.667969 L 5.863281 35.414062 L 5.863281 26.464844 L 7.867188 26.464844 C 9.613281 26.46875 11.394531 27.085938 12.875 28.199219 L 14.007812 29.050781 C 14.144531 29.152344 14.308594 29.207031 14.476562 29.207031 L 21.914062 29.207031 C 22.5625 29.207031 23.089844 29.730469 23.089844 30.382812 C 23.089844 31.027344 22.5625 31.554688 21.914062 31.554688 L 12.128906 31.554688 C 11.902344 31.554688 11.699219 31.648438 11.558594 31.804688 C 11.425781 31.945312 11.34375 32.132812 11.34375 32.339844 C 11.34375 32.769531 11.695312 33.121094 12.128906 33.121094 L 24.214844 33.121094 C 24.894531 33.121094 25.566406 32.941406 26.160156 32.605469 L 31.714844 29.425781 C 31.742188 29.410156 31.773438 29.390625 31.800781 29.371094 C 32.234375 29.039062 32.785156 28.988281 33.273438 29.230469 C 33.761719 29.472656 34.050781 29.941406 34.050781 30.488281 C 34.050781 30.914062 33.859375 31.308594 33.53125 31.578125 Z M 33.53125 31.578125 " fill-opacity="1" fill-rule="nonzero"/></g><g clip-path="url(#5f52ffada8)"><path fill="#10b1b4" d="M 33.269531 6.890625 L 16.824219 6.890625 C 15.53125 6.890625 14.476562 7.945312 14.476562 9.242188 L 14.476562 18.636719 C 14.476562 19.933594 15.53125 20.984375 16.824219 20.984375 L 17.609375 20.984375 L 17.609375 24.117188 C 17.609375 24.433594 17.800781 24.71875 18.089844 24.84375 C 18.1875 24.882812 18.289062 24.902344 18.390625 24.902344 C 18.59375 24.902344 18.792969 24.816406 18.945312 24.667969 L 22.632812 20.984375 L 33.269531 20.984375 C 34.566406 20.984375 35.617188 19.933594 35.617188 18.636719 L 35.617188 9.242188 C 35.617188 7.945312 34.566406 6.890625 33.269531 6.890625 Z M 34.050781 18.636719 C 34.050781 19.066406 33.699219 19.417969 33.269531 19.417969 L 22.304688 19.417969 C 22.097656 19.417969 21.898438 19.5 21.753906 19.648438 L 19.175781 22.226562 L 19.175781 20.203125 C 19.175781 19.769531 18.820312 19.417969 18.390625 19.417969 L 16.824219 19.417969 C 16.394531 19.417969 16.042969 19.066406 16.042969 18.636719 L 16.042969 9.242188 C 16.042969 8.808594 16.394531 8.457031 16.824219 8.457031 L 33.269531 8.457031 C 33.699219 8.457031 34.050781 8.808594 34.050781 9.242188 Z M 34.050781 18.636719 " fill-opacity="1" fill-rule="nonzero"/></g><g clip-path="url(#b101d51fa8)"><path fill="#10b1b4" d="M 8.214844 9.847656 C 8.132812 9.847656 8.0625 9.789062 8.042969 9.710938 C 8.019531 9.625 8.007812 9.53125 8 9.441406 C 7.902344 9.113281 7.632812 8.703125 7.371094 8.421875 C 7.078125 8.105469 6.789062 7.957031 6.433594 7.933594 C 6.351562 7.929688 6.28125 7.863281 6.269531 7.78125 C 6.261719 7.695312 6.3125 7.617188 6.394531 7.59375 C 6.78125 7.472656 7.125 7.222656 7.355469 6.886719 C 7.578125 6.570312 7.691406 6.1875 7.683594 5.800781 C 7.679688 5.789062 7.675781 5.777344 7.675781 5.765625 C 7.671875 5.734375 7.671875 5.671875 7.722656 5.613281 C 7.769531 5.558594 7.84375 5.539062 7.914062 5.558594 C 7.964844 5.578125 8.003906 5.621094 8.023438 5.671875 C 8.035156 5.6875 8.046875 5.710938 8.054688 5.738281 C 8.246094 6.441406 8.882812 7.011719 9.605469 7.121094 C 9.683594 7.132812 9.742188 7.195312 9.753906 7.269531 C 9.761719 7.347656 9.722656 7.421875 9.65625 7.453125 C 9.550781 7.503906 9.472656 7.570312 9.382812 7.652344 C 9.335938 7.691406 9.289062 7.734375 9.234375 7.777344 C 8.910156 8.027344 8.671875 8.304688 8.523438 8.605469 C 8.398438 8.859375 8.339844 9.128906 8.347656 9.382812 C 8.378906 9.488281 8.390625 9.585938 8.390625 9.675781 C 8.386719 9.761719 8.320312 9.835938 8.234375 9.847656 C 8.226562 9.847656 8.21875 9.847656 8.214844 9.847656 Z M 6.984375 7.707031 C 7.210938 7.804688 7.421875 7.960938 7.628906 8.183594 C 7.789062 8.355469 7.949219 8.570312 8.078125 8.78125 C 8.113281 8.667969 8.15625 8.558594 8.210938 8.449219 C 8.382812 8.101562 8.652344 7.78125 9.019531 7.5 C 9.0625 7.460938 9.109375 7.425781 9.152344 7.386719 C 9.15625 7.382812 9.164062 7.375 9.167969 7.371094 C 9.089844 7.34375 9.011719 7.308594 8.933594 7.273438 C 8.738281 7.179688 8.558594 7.058594 8.398438 6.914062 C 8.234375 6.769531 8.09375 6.601562 7.976562 6.421875 C 7.972656 6.414062 7.96875 6.402344 7.960938 6.394531 C 7.898438 6.640625 7.789062 6.875 7.644531 7.085938 C 7.46875 7.335938 7.242188 7.550781 6.984375 7.707031 Z M 6.984375 7.707031 " fill-opacity="1" fill-rule="nonzero"/></g><g clip-path="url(#ef0d14599f)"><path fill="#10b1b4" d="M 11.324219 12.308594 C 11.320312 12.308594 11.3125 12.308594 11.308594 12.308594 C 11.214844 12.300781 11.144531 12.222656 11.148438 12.125 C 11.164062 11.664062 10.871094 11.089844 10.488281 10.847656 C 10.386719 10.785156 10.308594 10.761719 10.242188 10.769531 C 10.234375 10.769531 10.226562 10.769531 10.214844 10.769531 C 10.121094 10.769531 10.035156 10.699219 10.011719 10.589844 C 9.984375 10.480469 10.046875 10.398438 10.121094 10.371094 C 10.144531 10.363281 10.171875 10.359375 10.195312 10.363281 C 10.347656 10.328125 10.5 10.238281 10.664062 10.085938 C 10.816406 9.949219 10.914062 9.816406 10.96875 9.679688 C 11 9.601562 11.011719 9.519531 11.011719 9.441406 C 10.976562 9.359375 10.953125 9.277344 10.945312 9.191406 C 10.9375 9.105469 10.988281 9.027344 11.066406 9.003906 C 11.148438 8.980469 11.234375 9.015625 11.273438 9.089844 C 11.316406 9.171875 11.34375 9.261719 11.355469 9.351562 C 11.421875 9.484375 11.539062 9.625 11.714844 9.765625 C 11.90625 9.929688 12.160156 10.011719 12.414062 9.996094 C 12.507812 9.988281 12.59375 10.058594 12.601562 10.15625 C 12.609375 10.25 12.539062 10.335938 12.441406 10.34375 C 12.304688 10.355469 12.167969 10.429688 12.042969 10.5625 C 11.929688 10.683594 11.824219 10.839844 11.734375 11.035156 C 11.570312 11.375 11.535156 11.769531 11.496094 12.148438 C 11.488281 12.242188 11.410156 12.308594 11.324219 12.308594 Z M 10.652344 10.539062 C 10.660156 10.542969 10.667969 10.546875 10.671875 10.550781 C 10.917969 10.707031 11.132812 10.960938 11.28125 11.253906 C 11.316406 11.128906 11.359375 11.003906 11.414062 10.886719 C 11.542969 10.617188 11.691406 10.40625 11.855469 10.253906 C 11.722656 10.203125 11.597656 10.128906 11.488281 10.039062 C 11.410156 9.972656 11.339844 9.90625 11.28125 9.839844 C 11.203125 10.015625 11.078125 10.179688 10.902344 10.347656 C 10.816406 10.421875 10.734375 10.488281 10.652344 10.539062 Z M 10.652344 10.539062 " fill-opacity="1" fill-rule="nonzero"/></g><g clip-path="url(#496d884ae8)"><path fill="#10b1b4" d="M 11.648438 6.835938 C 11.558594 6.835938 11.480469 6.769531 11.472656 6.675781 C 11.457031 6.492188 11.464844 6.3125 11.488281 6.140625 C 11.457031 5.839844 11.328125 5.550781 11.125 5.324219 C 11.089844 5.285156 11.042969 5.234375 10.992188 5.210938 C 10.984375 5.210938 10.972656 5.210938 10.960938 5.210938 C 10.902344 5.238281 10.839844 5.261719 10.78125 5.273438 C 10.699219 5.289062 10.617188 5.246094 10.582031 5.167969 C 10.550781 5.089844 10.578125 5.003906 10.648438 4.957031 C 10.695312 4.921875 10.769531 4.890625 10.851562 4.875 C 10.941406 4.824219 11.035156 4.738281 11.125 4.625 C 11.273438 4.433594 11.382812 4.21875 11.4375 4 C 11.445312 3.964844 11.457031 3.925781 11.457031 3.882812 C 11.445312 3.839844 11.433594 3.792969 11.425781 3.746094 C 11.414062 3.664062 11.460938 3.582031 11.542969 3.554688 C 11.625 3.527344 11.714844 3.5625 11.753906 3.640625 C 11.761719 3.652344 11.765625 3.664062 11.773438 3.679688 C 11.792969 3.726562 11.800781 3.777344 11.808594 3.828125 C 11.871094 4.007812 12 4.191406 12.167969 4.339844 C 12.347656 4.496094 12.578125 4.613281 12.867188 4.707031 C 12.945312 4.730469 12.996094 4.804688 12.988281 4.886719 C 12.984375 4.96875 12.921875 5.035156 12.839844 5.046875 C 12.492188 5.101562 12.222656 5.28125 12.042969 5.585938 C 11.871094 5.878906 11.792969 6.253906 11.824219 6.648438 C 11.832031 6.746094 11.761719 6.832031 11.664062 6.839844 C 11.660156 6.835938 11.652344 6.835938 11.648438 6.835938 Z M 11.277344 4.980469 C 11.320312 5.015625 11.355469 5.054688 11.386719 5.089844 C 11.503906 5.222656 11.601562 5.367188 11.675781 5.523438 C 11.695312 5.484375 11.71875 5.445312 11.742188 5.40625 C 11.882812 5.164062 12.078125 4.976562 12.308594 4.855469 C 12.171875 4.78125 12.046875 4.695312 11.9375 4.601562 C 11.847656 4.523438 11.765625 4.433594 11.691406 4.339844 C 11.621094 4.515625 11.519531 4.683594 11.398438 4.839844 C 11.359375 4.890625 11.320312 4.9375 11.277344 4.980469 Z M 11.277344 4.980469 " fill-opacity="1" fill-rule="nonzero"/></g><g clip-path="url(#12fb9eef95)"><path fill="#10b1b4" d="M 28.417969 20.058594 C 28.429688 20.082031 28.488281 20.210938 28.582031 20.390625 C 28.710938 20.65625 28.867188 20.957031 29.003906 21.234375 C 29.625 22.464844 29.792969 22.496094 30.527344 22.648438 C 30.839844 22.710938 31.238281 22.792969 31.789062 22.972656 C 32.019531 23.046875 32.101562 23.140625 32.054688 23.277344 C 32.011719 23.417969 31.84375 23.4375 31.582031 23.464844 C 30.976562 23.523438 29.621094 23.664062 29.136719 24.578125 C 28.707031 25.390625 28.640625 25.957031 28.617188 26.132812 C 28.597656 26.304688 28.585938 26.390625 28.390625 26.355469 C 28.261719 26.335938 28.25 26.269531 28.222656 26.136719 C 28.179688 25.949219 28.058594 25.394531 27.632812 24.367188 C 27.378906 23.761719 26.3125 23.722656 25.773438 23.699219 C 25.5 23.6875 25.316406 23.683594 25.269531 23.53125 C 25.199219 23.320312 25.613281 23.164062 26.828125 22.78125 C 27.21875 22.65625 27.375 22.113281 27.570312 21.449219 C 27.699219 21.011719 27.84375 20.523438 28.082031 20.046875 C 28.125 19.953125 28.238281 19.917969 28.328125 19.960938 C 28.371094 19.984375 28.402344 20.019531 28.417969 20.058594 Z M 25.117188 18.925781 C 25.125 18.945312 25.152344 19.003906 25.1875 19.089844 C 25.246094 19.214844 25.316406 19.371094 25.382812 19.519531 C 25.652344 20.109375 25.722656 20.125 26.023438 20.195312 C 26.171875 20.230469 26.363281 20.273438 26.621094 20.363281 C 26.792969 20.425781 26.847656 20.511719 26.800781 20.640625 C 26.757812 20.761719 26.660156 20.773438 26.5 20.792969 C 26.238281 20.820312 25.644531 20.886719 25.445312 21.3125 C 25.25 21.71875 25.222656 22 25.210938 22.085938 C 25.195312 22.242188 25.179688 22.316406 24.988281 22.28125 C 24.859375 22.257812 24.851562 22.203125 24.828125 22.09375 C 24.8125 22 24.753906 21.71875 24.558594 21.195312 C 24.464844 20.945312 24.015625 20.925781 23.789062 20.914062 C 23.621094 20.90625 23.511719 20.902344 23.464844 20.769531 C 23.398438 20.585938 23.609375 20.492188 24.246094 20.265625 C 24.378906 20.222656 24.445312 19.960938 24.527344 19.644531 C 24.589844 19.414062 24.65625 19.160156 24.769531 18.910156 C 24.8125 18.816406 24.921875 18.773438 25.015625 18.816406 C 25.066406 18.835938 25.101562 18.878906 25.117188 18.925781 Z M 25.046875 19.675781 L 24.957031 19.480469 C 24.933594 19.570312 24.910156 19.65625 24.886719 19.738281 C 24.777344 20.160156 24.6875 20.503906 24.367188 20.617188 C 24.59375 20.683594 24.8125 20.8125 24.90625 21.066406 C 24.949219 21.175781 24.984375 21.277344 25.015625 21.367188 C 25.042969 21.300781 25.074219 21.226562 25.109375 21.152344 C 25.269531 20.8125 25.574219 20.632812 25.863281 20.539062 C 25.480469 20.449219 25.371094 20.386719 25.046875 19.675781 Z M 23.8125 20.648438 C 23.835938 20.710938 23.824219 20.660156 23.8125 20.609375 C 23.804688 20.617188 23.808594 20.628906 23.8125 20.648438 Z M 28.675781 21.402344 C 28.511719 21.078125 28.351562 20.761719 28.253906 20.566406 C 28.117188 20.902344 28.019531 21.238281 27.925781 21.554688 C 27.703125 22.324219 27.519531 22.953125 26.9375 23.136719 C 26.527344 23.265625 26.21875 23.316406 26.003906 23.339844 C 26.65625 23.371094 27.667969 23.488281 27.972656 24.222656 C 28.171875 24.703125 28.308594 25.082031 28.402344 25.375 C 28.480469 25.109375 28.609375 24.78125 28.808594 24.40625 C 29.269531 23.527344 30.324219 23.257812 31.070312 23.148438 C 30.828125 23.089844 30.625 23.046875 30.453125 23.011719 C 29.574219 22.832031 29.375 22.789062 28.675781 21.402344 Z M 28.675781 21.402344 " fill-opacity="1" fill-rule="nonzero"/></g></svg>