<svg xmlns="http://www.w3.org/2000/svg" xmlns:xlink="http://www.w3.org/1999/xlink" width="48" zoomAndPan="magnify" viewBox="0 0 36 48" height="64" preserveAspectRatio="xMidYMid meet" version="1.0"><defs><clipPath id="81c336932a"><path d="M 0.367188 5.878906 L 35.632812 5.878906 L 35.632812 41.144531 L 0.367188 41.144531 Z M 0.367188 5.878906 " clip-rule="nonzero"/></clipPath></defs><path fill="#10b1b4" d="M 16.867188 12.792969 L 25.9375 12.792969 L 25.9375 21.867188 L 25.285156 21.867188 L 24.992188 20.125 C 24.84375 19.21875 24.316406 18.402344 23.550781 17.894531 C 23.414062 17.800781 23.269531 17.722656 23.125 17.652344 C 23.460938 17.257812 23.667969 16.753906 23.667969 16.195312 C 23.667969 14.945312 22.652344 13.929688 21.402344 13.929688 C 20.152344 13.929688 19.132812 14.945312 19.132812 16.195312 C 19.132812 16.753906 19.34375 17.257812 19.679688 17.652344 C 19.53125 17.722656 19.390625 17.800781 19.253906 17.894531 C 18.488281 18.402344 17.960938 19.21875 17.808594 20.125 L 17.519531 21.867188 L 16.867188 21.867188 Z M 19.882812 18.835938 C 20.246094 18.59375 20.671875 18.464844 21.109375 18.464844 L 21.695312 18.464844 C 22.132812 18.464844 22.554688 18.59375 22.921875 18.835938 C 23.429688 19.171875 23.773438 19.710938 23.875 20.3125 L 24.132812 21.867188 L 18.667969 21.867188 L 18.929688 20.3125 C 19.03125 19.710938 19.375 19.171875 19.882812 18.835938 Z M 21.402344 17.332031 C 20.777344 17.332031 20.269531 16.820312 20.269531 16.195312 C 20.269531 15.570312 20.777344 15.0625 21.402344 15.0625 C 22.027344 15.0625 22.535156 15.570312 22.535156 16.195312 C 22.535156 16.820312 22.027344 17.332031 21.402344 17.332031 Z M 27.070312 23 L 27.070312 11.660156 L 15.730469 11.660156 L 15.730469 23 L 27.070312 23 " fill-opacity="1" fill-rule="nonzero"/><path fill="#10b1b4" d="M 14.597656 15.0625 L 7.792969 15.0625 L 7.792969 16.195312 L 14.597656 16.195312 L 14.597656 15.0625 " fill-opacity="1" fill-rule="nonzero"/><path fill="#10b1b4" d="M 14.597656 17.332031 L 7.792969 17.332031 L 7.792969 18.464844 L 14.597656 18.464844 L 14.597656 17.332031 " fill-opacity="1" fill-rule="nonzero"/><path fill="#10b1b4" d="M 14.597656 19.597656 L 7.792969 19.597656 L 7.792969 20.730469 L 14.597656 20.730469 L 14.597656 19.597656 " fill-opacity="1" fill-rule="nonzero"/><path fill="#10b1b4" d="M 14.597656 21.867188 L 7.792969 21.867188 L 7.792969 23 L 14.597656 23 L 14.597656 21.867188 " fill-opacity="1" fill-rule="nonzero"/><path fill="#10b1b4" d="M 7.792969 25.269531 L 27.070312 25.269531 L 27.070312 24.132812 L 7.792969 24.132812 L 7.792969 25.269531 " fill-opacity="1" fill-rule="nonzero"/><path fill="#10b1b4" d="M 20.269531 35.472656 L 25.9375 35.472656 L 25.9375 37.742188 L 20.269531 37.742188 Z M 19.132812 38.875 L 27.070312 38.875 L 27.070312 34.339844 L 19.132812 34.339844 L 19.132812 38.875 " fill-opacity="1" fill-rule="nonzero"/><path fill="#10b1b4" d="M 13.464844 38.875 L 18 38.875 L 18 37.742188 L 13.464844 37.742188 L 13.464844 38.875 " fill-opacity="1" fill-rule="nonzero"/><path fill="#10b1b4" d="M 13.464844 36.605469 L 18 36.605469 L 18 35.472656 L 13.464844 35.472656 L 13.464844 36.605469 " fill-opacity="1" fill-rule="nonzero"/><g clip-path="url(#81c336932a)"><path fill="#10b1b4" d="M 33.863281 36.238281 L 29.339844 37.0625 L 29.339844 10.527344 C 29.339844 9.902344 28.828125 9.394531 28.207031 9.394531 L 14.597656 9.394531 L 14.597656 9.320312 L 30.472656 7.132812 C 30.8125 7.085938 31.125 7.332031 31.160156 7.671875 L 34.4375 35.46875 C 34.441406 35.496094 34.441406 35.523438 34.441406 35.546875 C 34.441406 35.886719 34.199219 36.175781 33.863281 36.238281 Z M 28.207031 40.007812 L 6.660156 40.007812 L 6.660156 39.109375 L 13.394531 32.378906 L 15.003906 27.535156 L 27.070312 27.535156 L 27.070312 26.402344 L 14.507812 26.402344 L 9.191406 28.171875 L 6.660156 30.703125 L 6.660156 10.527344 L 8.929688 10.527344 L 8.929688 12.226562 C 8.929688 13.167969 9.691406 13.929688 10.628906 13.929688 C 11.570312 13.929688 12.332031 13.167969 12.332031 12.226562 L 12.332031 10.527344 L 13.464844 10.527344 L 13.464844 12.792969 L 14.597656 12.792969 L 14.597656 10.527344 L 28.207031 10.527344 Z M 3.394531 40.007812 C 2.382812 40.007812 1.558594 39.183594 1.558594 38.171875 C 1.558594 37.679688 1.75 37.21875 2.097656 36.871094 L 2.691406 36.273438 L 5.292969 38.875 L 4.695312 39.472656 C 4.347656 39.820312 3.886719 40.007812 3.394531 40.007812 Z M 9.496094 29.472656 L 12.09375 32.070312 L 6.09375 38.074219 L 3.492188 35.472656 Z M 11.46875 28.609375 L 12.957031 30.097656 L 12.648438 31.023438 L 10.546875 28.917969 Z M 13.359375 28.894531 L 12.671875 28.207031 L 13.703125 27.867188 Z M 10.0625 10.527344 L 11.195312 10.527344 L 11.195312 12.226562 C 11.195312 12.539062 10.941406 12.792969 10.628906 12.792969 C 10.316406 12.792969 10.0625 12.539062 10.0625 12.226562 Z M 10.0625 8.257812 C 10.0625 7.632812 10.570312 7.125 11.195312 7.125 L 12.332031 7.125 C 12.953125 7.125 13.464844 7.632812 13.464844 8.257812 L 13.464844 9.394531 L 12.332031 9.394531 L 12.332031 8.257812 L 11.195312 8.257812 L 11.195312 9.394531 L 10.0625 9.394531 Z M 35.5625 35.332031 L 32.289062 7.542969 C 32.179688 6.578125 31.277344 5.871094 30.316406 6.007812 L 14.589844 8.175781 C 14.546875 6.964844 13.554688 5.992188 12.332031 5.992188 L 11.195312 5.992188 C 9.945312 5.992188 8.929688 7.007812 8.929688 8.257812 L 8.929688 9.394531 L 6.660156 9.394531 C 6.035156 9.394531 5.527344 9.902344 5.527344 10.527344 L 5.527344 31.835938 L 1.292969 36.070312 C 0.734375 36.632812 0.425781 37.378906 0.425781 38.171875 C 0.425781 39.808594 1.757812 41.144531 3.394531 41.144531 C 4.191406 41.144531 4.9375 40.832031 5.496094 40.273438 L 5.550781 40.222656 C 5.648438 40.746094 6.109375 41.144531 6.660156 41.144531 L 28.207031 41.144531 C 28.828125 41.144531 29.339844 40.632812 29.339844 40.007812 L 29.339844 38.214844 L 34.066406 37.355469 C 34.941406 37.195312 35.574219 36.4375 35.574219 35.546875 C 35.574219 35.476562 35.570312 35.402344 35.5625 35.332031 " fill-opacity="1" fill-rule="nonzero"/></g></svg>