<svg xmlns="http://www.w3.org/2000/svg" xmlns:xlink="http://www.w3.org/1999/xlink" width="48" zoomAndPan="magnify" viewBox="0 0 36 40.499999" height="54" preserveAspectRatio="xMidYMid meet" version="1.0"><defs><clipPath id="159414e336"><path d="M 0.21875 1.871094 L 35.78125 1.871094 L 35.78125 35.207031 L 0.21875 35.207031 Z M 0.21875 1.871094 " clip-rule="nonzero"/></clipPath></defs><g clip-path="url(#159414e336)"><path fill="#ffffff" d="M 34.390625 7.105469 L 30.546875 3.265625 C 29.667969 2.378906 28.445312 1.875 27.195312 1.875 L 15.628906 1.875 C 13.667969 1.875 12.074219 3.46875 12.074219 5.429688 L 12.074219 11.355469 L 3.777344 11.355469 C 1.816406 11.355469 0.21875 12.953125 0.21875 14.914062 L 0.21875 26.765625 C 0.21875 28.726562 1.816406 30.324219 3.777344 30.324219 L 12.074219 30.324219 L 12.074219 31.507812 C 12.074219 33.46875 13.667969 35.066406 15.628906 35.066406 L 32.222656 35.066406 C 34.183594 35.066406 35.78125 33.46875 35.78125 31.507812 L 35.78125 10.457031 C 35.78125 9.210938 35.273438 7.988281 34.390625 7.105469 Z M 29.855469 5.921875 L 31.734375 7.800781 L 29.855469 7.800781 Z M 3.777344 27.953125 C 3.121094 27.953125 2.589844 27.421875 2.589844 26.765625 L 2.589844 14.914062 C 2.589844 14.257812 3.121094 13.726562 3.777344 13.726562 L 26.296875 13.726562 C 26.953125 13.726562 27.484375 14.257812 27.484375 14.914062 L 27.484375 26.765625 C 27.484375 27.421875 26.953125 27.953125 26.296875 27.953125 Z M 33.410156 31.507812 C 33.410156 32.164062 32.878906 32.695312 32.222656 32.695312 L 15.628906 32.695312 C 14.976562 32.695312 14.445312 32.164062 14.445312 31.507812 L 14.445312 30.324219 L 26.296875 30.324219 C 28.257812 30.324219 29.855469 28.726562 29.855469 26.765625 L 29.855469 14.914062 C 29.855469 12.953125 28.257812 11.355469 26.296875 11.355469 L 14.445312 11.355469 L 14.445312 5.429688 C 14.445312 4.777344 14.976562 4.246094 15.628906 4.246094 L 27.195312 4.246094 C 27.292969 4.246094 27.386719 4.261719 27.484375 4.273438 L 27.484375 8.988281 C 27.484375 9.640625 28.011719 10.171875 28.667969 10.171875 L 33.382812 10.171875 C 33.394531 10.269531 33.410156 10.363281 33.410156 10.457031 Z M 21.554688 19.65625 L 21.554688 22.027344 C 21.554688 22.679688 22.085938 23.210938 22.742188 23.210938 L 23.925781 23.210938 C 24.582031 23.210938 25.113281 23.742188 25.113281 24.394531 C 25.113281 25.050781 24.582031 25.582031 23.925781 25.582031 L 22.742188 25.582031 C 20.78125 25.582031 19.183594 23.984375 19.183594 22.027344 L 19.183594 19.65625 C 19.183594 17.695312 20.78125 16.097656 22.742188 16.097656 L 23.925781 16.097656 C 24.582031 16.097656 25.113281 16.628906 25.113281 17.285156 C 25.113281 17.941406 24.582031 18.46875 23.925781 18.46875 L 22.742188 18.46875 C 22.085938 18.46875 21.554688 19 21.554688 19.65625 Z M 15.035156 16.097656 C 13.402344 16.097656 12.074219 17.425781 12.074219 19.0625 L 12.074219 22.617188 C 12.074219 24.253906 13.402344 25.582031 15.035156 25.582031 C 16.671875 25.582031 18 24.253906 18 22.617188 L 18 19.0625 C 18 17.425781 16.671875 16.097656 15.035156 16.097656 Z M 15.628906 22.617188 C 15.628906 22.945312 15.363281 23.210938 15.035156 23.210938 C 14.710938 23.210938 14.445312 22.945312 14.445312 22.617188 L 14.445312 19.0625 C 14.445312 18.734375 14.710938 18.46875 15.035156 18.46875 C 15.363281 18.46875 15.628906 18.734375 15.628906 19.0625 Z M 7.332031 16.097656 L 6.144531 16.097656 C 5.492188 16.097656 4.960938 16.628906 4.960938 17.285156 L 4.960938 24.394531 C 4.960938 25.050781 5.492188 25.582031 6.144531 25.582031 L 7.332031 25.582031 C 9.292969 25.582031 10.886719 23.984375 10.886719 22.027344 L 10.886719 19.65625 C 10.886719 17.695312 9.292969 16.097656 7.332031 16.097656 Z M 8.515625 22.027344 C 8.515625 22.679688 7.984375 23.210938 7.332031 23.210938 L 7.332031 18.46875 C 7.984375 18.46875 8.515625 19 8.515625 19.65625 Z M 8.515625 22.027344 " fill-opacity="1" fill-rule="nonzero"/></g></svg>