<svg xmlns="http://www.w3.org/2000/svg" xmlns:xlink="http://www.w3.org/1999/xlink" width="300" zoomAndPan="magnify" viewBox="0 0 224.87999 225" height="300" preserveAspectRatio="xMidYMid meet" version="1.0"><defs><clipPath id="a676aa5e9e"><path d="M 1.511719 40 L 176 40 L 176 221.507812 L 1.511719 221.507812 Z M 1.511719 40 " clip-rule="nonzero"/></clipPath><clipPath id="6331013ef2"><path d="M 160 3.375 L 170 3.375 L 170 13 L 160 13 Z M 160 3.375 " clip-rule="nonzero"/></clipPath><clipPath id="aa5fecafe1"><path d="M 119 3.375 L 128 3.375 L 128 12 L 119 12 Z M 119 3.375 " clip-rule="nonzero"/></clipPath><clipPath id="12fa85fea1"><path d="M 214 73 L 223.394531 73 L 223.394531 82 L 214 82 Z M 214 73 " clip-rule="nonzero"/></clipPath></defs><path fill="#16436f" d="M 83.914062 83.507812 C 84.378906 78.636719 83.101562 73.808594 80.246094 69.773438 C 79.140625 68.214844 76.984375 67.84375 75.425781 68.945312 C 73.867188 70.050781 73.496094 72.207031 74.601562 73.765625 C 76.695312 76.726562 77.511719 80.324219 76.898438 83.898438 C 76.289062 87.472656 74.320312 90.59375 71.359375 92.6875 C 68.789062 94.507812 65.648438 95.378906 62.515625 95.148438 C 60.609375 95.003906 58.953125 96.433594 58.808594 98.335938 C 58.664062 100.238281 60.09375 101.898438 61.996094 102.042969 C 62.503906 102.078125 63.007812 102.097656 63.515625 102.097656 C 67.734375 102.097656 71.886719 100.785156 75.351562 98.332031 C 78.226562 96.300781 80.472656 93.628906 81.960938 90.546875 C 84.625 92.128906 87.632812 93.105469 90.757812 93.363281 C 91.332031 93.410156 91.902344 93.433594 92.472656 93.433594 C 92.554688 93.433594 92.636719 93.425781 92.71875 93.425781 C 99.046875 101.019531 94.941406 108.292969 94.730469 108.652344 C 93.753906 110.28125 94.269531 112.394531 95.894531 113.382812 C 96.453125 113.726562 97.074219 113.890625 97.691406 113.890625 C 98.855469 113.890625 99.992188 113.300781 100.644531 112.234375 C 100.839844 111.914062 102.574219 108.964844 103.042969 104.59375 C 103.394531 101.324219 103.0625 96.742188 100.144531 91.9375 C 102.949219 90.796875 105.503906 89.03125 107.617188 86.703125 C 108.898438 85.289062 108.792969 83.101562 107.378906 81.820312 C 105.964844 80.539062 103.777344 80.644531 102.496094 82.058594 C 99.632812 85.210938 95.5625 86.820312 91.320312 86.472656 C 88.605469 86.25 86.019531 85.207031 83.914062 83.507812 Z M 83.914062 83.507812 " fill-opacity="1" fill-rule="nonzero"/><path fill="#16436f" d="M 107.117188 136.574219 C 105.214844 136.410156 103.542969 137.832031 103.386719 139.734375 C 102.773438 147.195312 96.199219 152.769531 88.746094 152.15625 C 85.605469 151.898438 82.640625 150.546875 80.390625 148.355469 C 79.019531 147.019531 76.832031 147.050781 75.5 148.417969 C 74.167969 149.785156 74.195312 151.972656 75.5625 153.304688 C 78.960938 156.617188 83.441406 158.65625 88.179688 159.046875 C 88.75 159.09375 89.3125 159.113281 89.871094 159.113281 C 95.714844 159.113281 101.078125 156.617188 104.847656 152.574219 C 106.101562 153.035156 109.964844 154.800781 110.984375 159.367188 C 111.339844 160.976562 112.769531 162.074219 114.355469 162.074219 C 114.601562 162.074219 114.855469 162.046875 115.109375 161.992188 C 116.972656 161.574219 118.148438 159.730469 117.730469 157.863281 C 116.277344 151.335938 111.601562 148.121094 108.683594 146.710938 C 109.535156 144.726562 110.09375 142.570312 110.277344 140.300781 C 110.433594 138.398438 109.019531 136.730469 107.117188 136.574219 Z M 107.117188 136.574219 " fill-opacity="1" fill-rule="nonzero"/><path fill="#16436f" d="M 194.082031 118.265625 C 192.503906 119.34375 192.101562 121.496094 193.175781 123.070312 C 196.722656 128.257812 198.035156 134.515625 196.875 140.691406 C 195.710938 146.867188 192.214844 152.21875 187.027344 155.761719 C 176.320312 163.078125 161.652344 160.320312 154.335938 149.613281 C 153.257812 148.035156 151.105469 147.628906 149.53125 148.707031 C 147.953125 149.785156 147.550781 151.9375 148.625 153.511719 C 154.515625 162.128906 164.078125 166.769531 173.800781 166.769531 C 176.742188 166.769531 179.695312 166.34375 182.570312 165.476562 C 179.175781 171.660156 172.363281 179.546875 159.449219 180.601562 C 157.546875 180.757812 156.128906 182.425781 156.285156 184.328125 C 156.433594 186.136719 157.945312 187.503906 159.726562 187.503906 C 159.824219 187.503906 159.917969 187.5 160.015625 187.492188 C 161.980469 187.332031 163.824219 187.039062 165.5625 186.640625 C 165.628906 186.699219 165.691406 186.753906 165.761719 186.808594 C 165.902344 186.914062 179.800781 197.667969 179.453125 215.65625 C 179.417969 217.566406 180.933594 219.144531 182.84375 219.179688 C 182.867188 219.179688 182.886719 219.179688 182.910156 219.179688 C 184.789062 219.179688 186.328125 217.675781 186.367188 215.789062 C 186.671875 199.785156 177.882812 188.847656 173.019531 184.039062 C 179.316406 180.984375 183.574219 176.488281 186.3125 172.566406 C 189.722656 167.6875 191.359375 162.953125 192.007812 160.691406 C 198.125 156.117188 202.246094 149.519531 203.667969 141.96875 C 205.171875 133.980469 203.472656 125.882812 198.886719 119.167969 C 197.808594 117.59375 195.65625 117.1875 194.082031 118.265625 Z M 194.082031 118.265625 " fill-opacity="1" fill-rule="nonzero"/><g clip-path="url(#a676aa5e9e)"><path fill="#16436f" d="M 140.132812 188.042969 C 132.464844 186.035156 128.621094 182.464844 126.714844 179.675781 C 126.734375 179.675781 126.753906 179.675781 126.773438 179.675781 C 131.941406 179.675781 137.78125 179.097656 144.035156 177.496094 C 145.882812 177.019531 147 175.136719 146.523438 173.289062 C 146.050781 171.4375 144.171875 170.324219 142.316406 170.796875 C 122.882812 175.777344 107.617188 169.601562 107.375 169.503906 C 105.882812 168.875 104.195312 169.378906 103.265625 170.625 C 103.160156 170.710938 103.050781 170.796875 102.953125 170.898438 C 97.957031 175.792969 90.777344 178.601562 83.257812 178.601562 C 68.753906 178.601562 56.957031 168.367188 56.957031 155.789062 C 56.957031 150.078125 59.378906 144.671875 63.792969 140.464844 C 71.644531 139.347656 78.1875 133.730469 80.496094 126.175781 C 87.738281 128.9375 103.300781 133.058594 120.152344 126.285156 C 121.753906 128.082031 125.582031 133.257812 124.054688 140.386719 C 123.652344 142.253906 124.84375 144.089844 126.710938 144.492188 C 126.953125 144.542969 127.199219 144.570312 127.4375 144.570312 C 129.03125 144.570312 130.464844 143.457031 130.816406 141.835938 C 132.65625 133.238281 129.136719 126.671875 126.539062 123.203125 C 128.136719 122.238281 128.6875 120.175781 127.761719 118.542969 C 126.820312 116.882812 124.710938 116.296875 123.050781 117.238281 C 101.390625 129.503906 79.738281 118.328125 79.527344 118.214844 C 78.492188 117.660156 77.246094 117.671875 76.21875 118.246094 C 75.191406 118.816406 74.523438 119.871094 74.449219 121.042969 C 73.972656 128.515625 67.515625 134.207031 60.039062 133.730469 C 56.417969 133.5 53.105469 131.871094 50.710938 129.152344 C 48.3125 126.429688 47.121094 122.9375 47.351562 119.316406 C 47.472656 117.410156 46.027344 115.769531 44.121094 115.648438 C 42.207031 115.523438 40.574219 116.972656 40.453125 118.875 C 40.210938 122.65625 41 126.347656 42.707031 129.621094 C 34.679688 132.195312 29.542969 126.996094 29.269531 126.714844 C 27.976562 125.328125 25.800781 125.25 24.402344 126.539062 C 23 127.832031 22.914062 130.019531 24.207031 131.421875 C 24.464844 131.699219 26.824219 134.175781 30.898438 135.824219 C 32.832031 136.605469 35.347656 137.269531 38.3125 137.269531 C 40.929688 137.269531 43.894531 136.75 47.117188 135.339844 C 49.445312 137.464844 52.199219 139 55.199219 139.863281 C 51.847656 144.578125 50.042969 150.050781 50.042969 155.789062 C 50.042969 157.242188 50.164062 158.667969 50.390625 160.066406 C 48.289062 160.265625 46.253906 160.367188 44.292969 160.367188 C 29.535156 160.367188 18.851562 154.761719 13.15625 143.929688 C 7.132812 132.464844 8.328125 118.023438 11.914062 110.445312 C 12.070312 110.609375 12.222656 110.777344 12.386719 110.9375 C 13.058594 111.605469 13.9375 111.9375 14.820312 111.9375 C 15.707031 111.9375 16.597656 111.597656 17.273438 110.914062 C 18.617188 109.558594 18.609375 107.371094 17.253906 106.027344 C 11.933594 100.757812 11.894531 92.144531 17.164062 86.828125 C 22.433594 81.507812 31.046875 81.46875 36.363281 86.738281 C 37.71875 88.082031 39.90625 88.074219 41.253906 86.714844 C 42.597656 85.359375 42.585938 83.171875 41.230469 81.828125 C 37.613281 78.242188 32.984375 76.292969 28.261719 75.960938 C 29.015625 72.59375 30.835938 67.476562 35.21875 63.707031 C 39.117188 60.351562 44.382812 58.605469 50.910156 58.476562 C 50.582031 59.0625 50.402344 59.441406 50.355469 59.542969 C 49.5625 61.273438 50.320312 63.308594 52.042969 64.109375 C 52.515625 64.328125 53.007812 64.429688 53.492188 64.429688 C 54.792969 64.429688 56.042969 63.691406 56.632812 62.4375 C 56.738281 62.214844 57.675781 60.304688 59.761719 57.910156 C 59.945312 57.746094 60.113281 57.5625 60.257812 57.359375 C 64.527344 52.710938 72.984375 46.664062 87.820312 47.285156 C 89.710938 47.367188 91.335938 45.882812 91.417969 43.976562 C 91.5 42.070312 90.015625 40.457031 88.109375 40.378906 C 71.585938 39.679688 61.578125 46.132812 56.054688 51.742188 C 45.421875 50.84375 36.875 53.121094 30.636719 58.527344 C 23.746094 64.503906 21.695312 72.636719 21.085938 76.714844 C 17.847656 77.652344 14.792969 79.398438 12.253906 81.960938 C 6.363281 87.902344 4.875 96.574219 7.753906 103.902344 C 4.683594 108.183594 2.601562 114.839844 2.105469 122.148438 C 1.5 131.066406 3.25 139.941406 7.035156 147.144531 C 10.757812 154.226562 16.25 159.554688 23.359375 162.972656 C 29.328125 165.839844 36.332031 167.28125 44.261719 167.28125 C 46.878906 167.28125 49.601562 167.121094 52.417969 166.804688 C 57.320312 177.753906 69.289062 185.511719 83.257812 185.511719 C 92.136719 185.511719 100.671875 182.300781 106.890625 176.671875 C 109.242188 177.441406 113.367188 178.578125 118.761719 179.207031 C 120.261719 183.28125 124.855469 191.1875 138.382812 194.730469 C 154.648438 198.992188 166.394531 208.34375 168.308594 218.5625 C 168.621094 220.222656 170.070312 221.382812 171.703125 221.382812 C 171.914062 221.382812 172.128906 221.363281 172.34375 221.320312 C 174.21875 220.96875 175.457031 219.164062 175.105469 217.285156 C 172.699219 204.457031 158.972656 192.976562 140.132812 188.042969 Z M 140.132812 188.042969 " fill-opacity="1" fill-rule="nonzero"/></g><g clip-path="url(#6331013ef2)"><path fill="#16436f" d="M 164.136719 12.421875 C 165.023438 12.421875 165.90625 12.085938 166.582031 11.410156 L 168.167969 9.828125 C 169.515625 8.476562 169.515625 6.289062 168.167969 4.9375 C 166.816406 3.589844 164.628906 3.585938 163.277344 4.9375 L 161.695312 6.523438 C 160.34375 7.871094 160.34375 10.0625 161.695312 11.410156 C 162.367188 12.085938 163.253906 12.421875 164.136719 12.421875 Z M 164.136719 12.421875 " fill-opacity="1" fill-rule="nonzero"/></g><path fill="#16436f" d="M 121.84375 54.71875 C 122.726562 54.71875 123.613281 54.382812 124.285156 53.707031 L 125.636719 52.359375 C 126.984375 51.007812 126.984375 48.820312 125.636719 47.46875 C 124.285156 46.121094 122.097656 46.121094 120.746094 47.46875 L 119.398438 48.816406 C 118.046875 50.167969 118.046875 52.355469 119.398438 53.707031 C 120.074219 54.382812 120.957031 54.71875 121.84375 54.71875 Z M 121.84375 54.71875 " fill-opacity="1" fill-rule="nonzero"/><path fill="#16436f" d="M 133.9375 42.625 C 134.824219 42.625 135.707031 42.285156 136.382812 41.609375 L 145.085938 32.90625 C 146.4375 31.554688 146.4375 29.367188 145.085938 28.019531 C 143.738281 26.667969 141.546875 26.667969 140.199219 28.019531 L 131.492188 36.722656 C 130.144531 38.070312 130.144531 40.261719 131.492188 41.609375 C 132.167969 42.285156 133.054688 42.625 133.9375 42.625 Z M 133.9375 42.625 " fill-opacity="1" fill-rule="nonzero"/><path fill="#16436f" d="M 107.117188 61.097656 L 105.222656 62.992188 C 103.875 64.339844 103.875 66.53125 105.226562 67.878906 C 105.898438 68.554688 106.785156 68.890625 107.667969 68.890625 C 108.554688 68.890625 109.4375 68.554688 110.113281 67.878906 L 112.007812 65.984375 C 113.359375 64.636719 113.359375 62.445312 112.007812 61.097656 C 110.65625 59.746094 108.46875 59.746094 107.117188 61.097656 Z M 107.117188 61.097656 " fill-opacity="1" fill-rule="nonzero"/><g clip-path="url(#aa5fecafe1)"><path fill="#16436f" d="M 122.964844 11.652344 C 123.847656 11.652344 124.734375 11.316406 125.40625 10.640625 L 126.222656 9.828125 C 127.570312 8.476562 127.570312 6.289062 126.222656 4.9375 C 124.871094 3.585938 122.679688 3.585938 121.332031 4.9375 L 120.519531 5.75 C 119.167969 7.101562 119.167969 9.289062 120.519531 10.640625 C 121.195312 11.316406 122.078125 11.652344 122.964844 11.652344 Z M 122.964844 11.652344 " fill-opacity="1" fill-rule="nonzero"/></g><path fill="#16436f" d="M 100.695312 33.917969 C 101.582031 33.917969 102.464844 33.582031 103.140625 32.90625 L 113.578125 22.46875 C 114.929688 21.117188 114.929688 18.929688 113.578125 17.578125 C 112.230469 16.230469 110.039062 16.230469 108.691406 17.578125 L 98.253906 28.019531 C 96.902344 29.367188 96.902344 31.558594 98.253906 32.90625 C 98.925781 33.582031 99.8125 33.917969 100.695312 33.917969 Z M 100.695312 33.917969 " fill-opacity="1" fill-rule="nonzero"/><path fill="#16436f" d="M 207.457031 13.027344 C 208.34375 13.027344 209.226562 12.691406 209.902344 12.015625 L 210.96875 10.949219 C 212.316406 9.601562 212.316406 7.410156 210.96875 6.0625 C 209.617188 4.710938 207.425781 4.710938 206.078125 6.0625 L 205.011719 7.128906 C 203.664062 8.476562 203.664062 10.667969 205.011719 12.015625 C 205.6875 12.691406 206.574219 13.027344 207.457031 13.027344 Z M 207.457031 13.027344 " fill-opacity="1" fill-rule="nonzero"/><path fill="#16436f" d="M 179.527344 40.960938 C 180.410156 40.960938 181.296875 40.621094 181.96875 39.945312 L 183.035156 38.882812 C 184.386719 37.53125 184.386719 35.34375 183.035156 33.992188 C 181.683594 32.644531 179.496094 32.644531 178.144531 33.992188 L 177.082031 35.058594 C 175.730469 36.40625 175.730469 38.597656 177.082031 39.945312 C 177.757812 40.621094 178.640625 40.960938 179.527344 40.960938 Z M 179.527344 40.960938 " fill-opacity="1" fill-rule="nonzero"/><path fill="#16436f" d="M 166.0625 46.078125 C 164.710938 47.429688 164.710938 49.617188 166.0625 50.964844 C 166.734375 51.640625 167.621094 51.980469 168.503906 51.980469 C 169.390625 51.980469 170.273438 51.640625 170.949219 50.964844 L 171.992188 49.925781 C 173.34375 48.574219 173.34375 46.386719 171.992188 45.035156 C 170.640625 43.6875 168.453125 43.6875 167.101562 45.035156 Z M 166.0625 46.078125 " fill-opacity="1" fill-rule="nonzero"/><path fill="#16436f" d="M 142.253906 79.664062 C 143.605469 78.3125 143.605469 76.125 142.253906 74.773438 C 140.90625 73.421875 138.714844 73.421875 137.367188 74.773438 L 136.324219 75.816406 C 134.972656 77.164062 134.972656 79.355469 136.324219 80.703125 C 137 81.378906 137.882812 81.714844 138.769531 81.714844 C 139.652344 81.714844 140.539062 81.378906 141.210938 80.703125 Z M 142.253906 79.664062 " fill-opacity="1" fill-rule="nonzero"/><path fill="#16436f" d="M 120.03125 96.996094 C 120.707031 97.671875 121.59375 98.007812 122.476562 98.007812 C 123.359375 98.007812 124.246094 97.671875 124.921875 96.996094 L 132.972656 88.945312 C 134.320312 87.597656 134.320312 85.40625 132.972656 84.058594 C 131.621094 82.707031 129.433594 82.707031 128.082031 84.058594 L 120.03125 92.109375 C 118.679688 93.457031 118.679688 95.648438 120.03125 96.996094 Z M 120.03125 96.996094 " fill-opacity="1" fill-rule="nonzero"/><path fill="#16436f" d="M 146.066406 70.960938 C 146.742188 71.636719 147.625 71.976562 148.511719 71.976562 C 149.394531 71.976562 150.277344 71.636719 150.953125 70.960938 L 161.085938 60.832031 C 162.4375 59.480469 162.4375 57.292969 161.085938 55.941406 C 159.738281 54.589844 157.546875 54.589844 156.199219 55.941406 L 146.066406 66.074219 C 144.714844 67.421875 144.714844 69.613281 146.066406 70.960938 Z M 146.066406 70.960938 " fill-opacity="1" fill-rule="nonzero"/><path fill="#16436f" d="M 215.695312 49.773438 C 215.902344 49.6875 216.105469 49.582031 216.292969 49.457031 C 216.484375 49.328125 216.65625 49.183594 216.820312 49.023438 C 217.460938 48.382812 217.828125 47.492188 217.828125 46.578125 C 217.828125 46.355469 217.804688 46.128906 217.757812 45.90625 C 217.71875 45.683594 217.648438 45.464844 217.566406 45.257812 C 217.476562 45.050781 217.371094 44.847656 217.246094 44.660156 C 217.125 44.472656 216.976562 44.292969 216.820312 44.136719 C 216.65625 43.976562 216.484375 43.832031 216.292969 43.703125 C 216.105469 43.578125 215.902344 43.472656 215.695312 43.390625 C 215.488281 43.300781 215.265625 43.234375 215.050781 43.191406 C 214.601562 43.097656 214.140625 43.097656 213.699219 43.191406 C 213.476562 43.234375 213.261719 43.300781 213.046875 43.390625 C 212.839844 43.472656 212.636719 43.578125 212.453125 43.703125 C 212.265625 43.832031 212.085938 43.976562 211.929688 44.136719 C 211.765625 44.292969 211.625 44.472656 211.5 44.660156 C 211.375 44.847656 211.265625 45.050781 211.183594 45.257812 C 211.09375 45.464844 211.023438 45.683594 210.984375 45.90625 C 210.9375 46.128906 210.914062 46.355469 210.914062 46.578125 C 210.914062 46.804688 210.9375 47.03125 210.984375 47.257812 C 211.023438 47.472656 211.09375 47.695312 211.183594 47.902344 C 211.265625 48.109375 211.375 48.3125 211.5 48.496094 C 211.625 48.6875 211.765625 48.867188 211.929688 49.023438 C 212.085938 49.183594 212.265625 49.328125 212.453125 49.457031 C 212.636719 49.582031 212.839844 49.6875 213.046875 49.773438 C 213.261719 49.855469 213.476562 49.925781 213.699219 49.96875 C 213.917969 50.011719 214.144531 50.035156 214.371094 50.035156 C 214.597656 50.035156 214.824219 50.011719 215.050781 49.96875 C 215.265625 49.925781 215.488281 49.855469 215.695312 49.773438 Z M 215.695312 49.773438 " fill-opacity="1" fill-rule="nonzero"/><path fill="#16436f" d="M 169.671875 86.390625 C 168.320312 87.742188 168.320312 89.929688 169.671875 91.28125 C 170.347656 91.953125 171.230469 92.292969 172.117188 92.292969 C 173 92.292969 173.886719 91.953125 174.5625 91.28125 L 188.828125 77.011719 C 190.179688 75.660156 190.179688 73.472656 188.828125 72.121094 C 187.476562 70.773438 185.289062 70.773438 183.941406 72.121094 Z M 169.671875 86.390625 " fill-opacity="1" fill-rule="nonzero"/><path fill="#16436f" d="M 159.058594 97.003906 L 157.792969 98.265625 C 156.445312 99.617188 156.445312 101.804688 157.792969 103.15625 C 158.46875 103.832031 159.355469 104.167969 160.238281 104.167969 C 161.125 104.167969 162.007812 103.832031 162.683594 103.15625 L 163.945312 101.894531 C 165.296875 100.546875 165.296875 98.355469 163.949219 97.007812 C 162.597656 95.65625 160.410156 95.65625 159.058594 97.003906 Z M 159.058594 97.003906 " fill-opacity="1" fill-rule="nonzero"/><path fill="#16436f" d="M 142.113281 122.292969 C 143 122.292969 143.882812 121.957031 144.558594 121.28125 L 146.160156 119.679688 C 147.511719 118.328125 147.511719 116.140625 146.160156 114.792969 C 144.808594 113.441406 142.621094 113.441406 141.273438 114.792969 L 139.671875 116.394531 C 138.320312 117.742188 138.320312 119.933594 139.671875 121.28125 C 140.34375 121.957031 141.230469 122.292969 142.113281 122.292969 Z M 142.113281 122.292969 " fill-opacity="1" fill-rule="nonzero"/><path fill="#16436f" d="M 184.449219 111.992188 C 185.125 112.667969 186.011719 113.003906 186.894531 113.003906 C 187.78125 113.003906 188.664062 112.667969 189.339844 111.992188 L 198.175781 103.15625 C 199.523438 101.808594 199.523438 99.617188 198.175781 98.269531 C 196.824219 96.917969 194.636719 96.917969 193.285156 98.269531 L 184.449219 107.105469 C 183.101562 108.453125 183.101562 110.644531 184.449219 111.992188 Z M 184.449219 111.992188 " fill-opacity="1" fill-rule="nonzero"/><g clip-path="url(#12fa85fea1)"><path fill="#16436f" d="M 221.996094 74.445312 C 220.648438 73.09375 218.457031 73.09375 217.109375 74.445312 L 215.992188 75.5625 C 214.644531 76.910156 214.644531 79.101562 215.992188 80.449219 C 216.667969 81.125 217.554688 81.460938 218.4375 81.460938 C 219.324219 81.460938 220.207031 81.125 220.882812 80.449219 L 222 79.332031 C 223.347656 77.984375 223.347656 75.792969 221.996094 74.445312 Z M 221.996094 74.445312 " fill-opacity="1" fill-rule="nonzero"/></g><path fill="#16436f" d="M 206.277344 85.273438 L 205.164062 86.390625 C 203.8125 87.742188 203.8125 89.929688 205.164062 91.28125 C 205.835938 91.953125 206.722656 92.292969 207.605469 92.292969 C 208.492188 92.292969 209.375 91.953125 210.050781 91.28125 L 211.167969 90.164062 C 212.519531 88.8125 212.519531 86.625 211.167969 85.273438 C 209.816406 83.925781 207.628906 83.925781 206.277344 85.273438 Z M 206.277344 85.273438 " fill-opacity="1" fill-rule="nonzero"/><path fill="#16436f" d="M 171.148438 120.40625 L 170.03125 121.519531 C 168.683594 122.871094 168.683594 125.058594 170.035156 126.410156 C 170.707031 127.085938 171.59375 127.421875 172.476562 127.421875 C 173.363281 127.421875 174.246094 127.085938 174.921875 126.410156 L 176.039062 125.292969 C 177.386719 123.941406 177.386719 121.753906 176.039062 120.402344 C 174.6875 119.054688 172.5 119.054688 171.148438 120.40625 Z M 171.148438 120.40625 " fill-opacity="1" fill-rule="nonzero"/></svg>