<svg xmlns="http://www.w3.org/2000/svg" xmlns:xlink="http://www.w3.org/1999/xlink" width="300" zoomAndPan="magnify" viewBox="0 0 224.87999 225" height="300" preserveAspectRatio="xMidYMid meet" version="1.0"><defs><clipPath id="79eee538a7"><path d="M 6.5625 13 L 82 13 L 82 126 L 6.5625 126 Z M 6.5625 13 " clip-rule="nonzero"/></clipPath><clipPath id="34f0804a9b"><path d="M 40 186 L 171 186 L 171 214.972656 L 40 214.972656 Z M 40 186 " clip-rule="nonzero"/></clipPath><clipPath id="538f47ab62"><path d="M 69 10.332031 L 155 10.332031 L 155 96 L 69 96 Z M 69 10.332031 " clip-rule="nonzero"/></clipPath></defs><g clip-path="url(#79eee538a7)"><path fill="#16436f" d="M 8.457031 125.996094 C 7.925781 125.996094 7.46875 125.601562 7.398438 125.0625 C 6.847656 120.746094 6.566406 116.332031 6.566406 111.949219 C 6.566406 111.359375 7.042969 110.882812 7.632812 110.882812 C 8.222656 110.882812 8.699219 111.359375 8.699219 111.949219 C 8.703125 116.242188 8.976562 120.566406 9.515625 124.792969 C 9.589844 125.378906 9.175781 125.914062 8.59375 125.988281 C 8.546875 125.992188 8.5 125.996094 8.457031 125.996094 Z M 8.453125 100.039062 C 8.40625 100.039062 8.363281 100.035156 8.316406 100.03125 C 7.730469 99.957031 7.316406 99.421875 7.390625 98.839844 C 7.945312 94.5 8.78125 90.15625 9.882812 85.9375 C 10.03125 85.367188 10.613281 85.023438 11.183594 85.171875 C 11.753906 85.320312 12.09375 85.90625 11.945312 86.472656 C 10.867188 90.609375 10.050781 94.859375 9.507812 99.105469 C 9.441406 99.644531 8.980469 100.039062 8.453125 100.039062 Z M 15 74.917969 C 14.867188 74.917969 14.730469 74.894531 14.601562 74.84375 C 14.054688 74.621094 13.789062 74 14.011719 73.453125 C 15.648438 69.40625 17.5625 65.417969 19.710938 61.605469 C 19.996094 61.09375 20.648438 60.910156 21.160156 61.199219 C 21.675781 61.488281 21.855469 62.140625 21.570312 62.652344 C 19.46875 66.386719 17.589844 70.289062 15.988281 74.253906 C 15.820312 74.667969 15.421875 74.917969 15 74.917969 Z M 27.726562 52.292969 C 27.507812 52.292969 27.28125 52.222656 27.089844 52.082031 C 26.617188 51.730469 26.519531 51.0625 26.875 50.589844 C 29.484375 47.085938 32.34375 43.71875 35.378906 40.570312 C 35.789062 40.148438 36.464844 40.136719 36.886719 40.546875 C 37.3125 40.953125 37.324219 41.628906 36.914062 42.054688 C 33.941406 45.132812 31.140625 48.433594 28.585938 51.863281 C 28.375 52.144531 28.054688 52.292969 27.726562 52.292969 Z M 45.753906 33.617188 C 45.441406 33.617188 45.132812 33.480469 44.921875 33.21875 C 44.554688 32.757812 44.625 32.085938 45.085938 31.71875 C 48.496094 28.984375 52.113281 26.445312 55.839844 24.167969 C 56.339844 23.863281 56.996094 24.019531 57.304688 24.523438 C 57.613281 25.027344 57.453125 25.683594 56.949219 25.988281 C 53.304688 28.21875 49.761719 30.703125 46.421875 33.382812 C 46.222656 33.539062 45.988281 33.617188 45.753906 33.617188 Z M 67.898438 20.097656 C 67.488281 20.097656 67.101562 19.859375 66.921875 19.464844 C 66.683594 18.925781 66.925781 18.296875 67.460938 18.054688 C 71.449219 16.273438 75.59375 14.734375 79.773438 13.484375 C 80.335938 13.3125 80.929688 13.632812 81.101562 14.199219 C 81.269531 14.761719 80.949219 15.359375 80.382812 15.527344 C 76.292969 16.753906 72.238281 18.257812 68.332031 20.003906 C 68.191406 20.066406 68.042969 20.097656 67.898438 20.097656 Z M 67.898438 20.097656 " fill-opacity="1" fill-rule="nonzero"/></g><g clip-path="url(#34f0804a9b)"><path fill="#16436f" d="M 110.699219 214.667969 C 110.117188 214.667969 109.640625 214.199219 109.632812 213.613281 C 109.625 213.023438 110.09375 212.539062 110.683594 212.53125 C 114.859375 212.476562 119.058594 212.164062 123.167969 211.597656 C 123.753906 211.515625 124.289062 211.925781 124.371094 212.507812 C 124.449219 213.09375 124.042969 213.628906 123.457031 213.710938 C 119.261719 214.289062 114.976562 214.609375 110.710938 214.667969 C 110.707031 214.667969 110.703125 214.667969 110.699219 214.667969 Z M 98.058594 214.058594 C 98.019531 214.058594 97.980469 214.058594 97.941406 214.050781 C 93.710938 213.585938 89.472656 212.851562 85.34375 211.863281 C 84.769531 211.726562 84.417969 211.152344 84.554688 210.578125 C 84.691406 210.003906 85.265625 209.652344 85.839844 209.789062 C 89.882812 210.753906 94.03125 211.476562 98.175781 211.933594 C 98.761719 211.996094 99.183594 212.523438 99.117188 213.109375 C 99.058594 213.65625 98.597656 214.058594 98.058594 214.058594 Z M 135.710938 211.21875 C 135.238281 211.21875 134.808594 210.902344 134.679688 210.425781 C 134.527344 209.855469 134.867188 209.273438 135.4375 209.121094 C 139.453125 208.042969 143.445312 206.699219 147.296875 205.128906 C 147.84375 204.90625 148.464844 205.167969 148.6875 205.714844 C 148.910156 206.257812 148.648438 206.882812 148.101562 207.105469 C 144.167969 208.707031 140.09375 210.082031 135.988281 211.179688 C 135.894531 211.207031 135.800781 211.21875 135.710938 211.21875 Z M 73.496094 208.1875 C 73.371094 208.1875 73.242188 208.164062 73.117188 208.117188 C 69.144531 206.621094 65.222656 204.855469 61.460938 202.871094 C 60.9375 202.597656 60.738281 201.953125 61.011719 201.429688 C 61.289062 200.910156 61.933594 200.710938 62.453125 200.984375 C 66.136719 202.925781 69.980469 204.65625 73.871094 206.121094 C 74.421875 206.328125 74.699219 206.941406 74.492188 207.496094 C 74.332031 207.921875 73.925781 208.1875 73.496094 208.1875 Z M 159.09375 201.683594 C 158.71875 201.683594 158.355469 201.488281 158.160156 201.136719 C 157.871094 200.625 158.054688 199.972656 158.566406 199.6875 C 162.191406 197.648438 165.726562 195.359375 169.074219 192.882812 C 169.550781 192.53125 170.21875 192.632812 170.566406 193.105469 C 170.917969 193.582031 170.816406 194.25 170.34375 194.597656 C 166.925781 197.128906 163.316406 199.464844 159.613281 201.546875 C 159.449219 201.636719 159.269531 201.683594 159.09375 201.683594 Z M 51.152344 196.410156 C 50.941406 196.410156 50.730469 196.347656 50.542969 196.214844 C 47.0625 193.785156 43.695312 191.109375 40.539062 188.261719 C 40.101562 187.867188 40.066406 187.191406 40.460938 186.753906 C 40.855469 186.316406 41.53125 186.28125 41.96875 186.675781 C 45.058594 189.464844 48.355469 192.085938 51.765625 194.46875 C 52.25 194.804688 52.367188 195.46875 52.03125 195.953125 C 51.820312 196.25 51.492188 196.410156 51.152344 196.410156 Z M 51.152344 196.410156 " fill-opacity="1" fill-rule="nonzero"/></g><path fill="#16436f" d="M 209.675781 129.488281 C 209.617188 129.488281 209.558594 129.484375 209.5 129.476562 C 208.917969 129.378906 208.523438 128.832031 208.621094 128.25 C 209.28125 124.199219 209.699219 120.058594 209.859375 115.933594 C 209.882812 115.347656 210.378906 114.886719 210.96875 114.910156 C 211.554688 114.933594 212.015625 115.429688 211.992188 116.019531 C 211.824219 120.226562 211.398438 124.460938 210.726562 128.59375 C 210.640625 129.117188 210.1875 129.488281 209.675781 129.488281 Z M 210.65625 104.539062 C 210.109375 104.539062 209.640625 104.117188 209.59375 103.558594 C 209.257812 99.453125 208.660156 95.332031 207.824219 91.3125 C 207.703125 90.734375 208.074219 90.171875 208.652344 90.050781 C 209.230469 89.929688 209.792969 90.300781 209.914062 90.875 C 210.769531 94.980469 211.375 99.191406 211.722656 103.382812 C 211.769531 103.972656 211.332031 104.488281 210.746094 104.535156 C 210.714844 104.539062 210.6875 104.539062 210.65625 104.539062 Z M 205.566406 80.097656 C 205.125 80.097656 204.707031 79.820312 204.558594 79.375 C 203.230469 75.488281 201.644531 71.640625 199.84375 67.941406 C 199.585938 67.414062 199.804688 66.773438 200.335938 66.515625 C 200.863281 66.257812 201.503906 66.476562 201.761719 67.007812 C 203.597656 70.785156 205.21875 74.714844 206.578125 78.6875 C 206.765625 79.242188 206.46875 79.851562 205.910156 80.039062 C 205.796875 80.078125 205.679688 80.097656 205.566406 80.097656 Z M 194.648438 57.660156 C 194.296875 57.660156 193.957031 57.488281 193.75 57.171875 C 191.511719 53.726562 189.035156 50.378906 186.386719 47.230469 C 186.007812 46.777344 186.066406 46.105469 186.515625 45.726562 C 186.964844 45.347656 187.640625 45.40625 188.019531 45.855469 C 190.722656 49.074219 193.253906 52.492188 195.539062 56.011719 C 195.863281 56.503906 195.722656 57.164062 195.226562 57.484375 C 195.046875 57.601562 194.847656 57.660156 194.648438 57.660156 Z M 178.585938 38.542969 C 178.324219 38.542969 178.0625 38.449219 177.859375 38.257812 C 174.84375 35.453125 171.628906 32.808594 168.300781 30.394531 C 167.824219 30.050781 167.714844 29.382812 168.0625 28.90625 C 168.40625 28.429688 169.074219 28.320312 169.550781 28.667969 C 172.953125 31.132812 176.234375 33.832031 179.3125 36.695312 C 179.742188 37.097656 179.769531 37.773438 179.367188 38.203125 C 179.15625 38.429688 178.871094 38.542969 178.585938 38.542969 Z M 158.363281 23.894531 C 158.1875 23.894531 158.011719 23.851562 157.847656 23.761719 C 154.242188 21.769531 150.480469 19.988281 146.660156 18.460938 C 146.113281 18.242188 145.847656 17.621094 146.066406 17.074219 C 146.285156 16.527344 146.90625 16.261719 147.453125 16.480469 C 151.351562 18.039062 155.195312 19.859375 158.878906 21.890625 C 159.394531 22.175781 159.582031 22.824219 159.296875 23.339844 C 159.105469 23.695312 158.738281 23.894531 158.363281 23.894531 Z M 158.363281 23.894531 " fill-opacity="1" fill-rule="nonzero"/><path fill="#16436f" d="M 183.976562 111.921875 C 183.976562 113.144531 183.949219 114.367188 183.886719 115.585938 C 183.828125 116.808594 183.738281 118.023438 183.617188 119.242188 C 183.5 120.457031 183.347656 121.667969 183.167969 122.878906 C 182.992188 124.085938 182.78125 125.289062 182.542969 126.488281 C 182.304688 127.6875 182.039062 128.878906 181.742188 130.0625 C 181.445312 131.25 181.117188 132.425781 180.761719 133.59375 C 180.410156 134.765625 180.023438 135.925781 179.613281 137.074219 C 179.203125 138.226562 178.761719 139.363281 178.292969 140.492188 C 177.828125 141.621094 177.332031 142.738281 176.808594 143.84375 C 176.289062 144.949219 175.738281 146.039062 175.164062 147.117188 C 174.585938 148.195312 173.984375 149.257812 173.355469 150.304688 C 172.726562 151.355469 172.074219 152.386719 171.394531 153.402344 C 170.71875 154.417969 170.011719 155.417969 169.285156 156.398438 C 168.558594 157.378906 167.804688 158.34375 167.03125 159.285156 C 166.257812 160.230469 165.457031 161.15625 164.636719 162.0625 C 163.816406 162.964844 162.976562 163.851562 162.109375 164.714844 C 161.246094 165.578125 160.363281 166.421875 159.457031 167.242188 C 158.550781 168.0625 157.625 168.859375 156.683594 169.636719 C 155.738281 170.410156 154.773438 171.164062 153.792969 171.890625 C 152.8125 172.617188 151.8125 173.320312 150.796875 174 C 149.78125 174.679688 148.75 175.332031 147.703125 175.960938 C 146.652344 176.589844 145.589844 177.191406 144.511719 177.765625 C 143.433594 178.34375 142.34375 178.890625 141.238281 179.414062 C 140.136719 179.9375 139.019531 180.429688 137.890625 180.898438 C 136.761719 181.367188 135.621094 181.804688 134.472656 182.21875 C 133.320312 182.628906 132.160156 183.011719 130.992188 183.367188 C 129.820312 183.722656 128.644531 184.046875 127.460938 184.34375 C 126.273438 184.640625 125.082031 184.910156 123.882812 185.148438 C 122.6875 185.386719 121.480469 185.59375 120.273438 185.773438 C 119.066406 185.953125 117.851562 186.101562 116.636719 186.222656 C 115.421875 186.34375 114.203125 186.433594 112.980469 186.492188 C 111.761719 186.550781 110.539062 186.582031 109.320312 186.582031 C 108.097656 186.582031 106.875 186.550781 105.65625 186.492188 C 104.433594 186.433594 103.21875 186.34375 102 186.222656 C 100.785156 186.101562 99.574219 185.953125 98.363281 185.773438 C 97.15625 185.59375 95.953125 185.386719 94.753906 185.148438 C 93.554688 184.910156 92.363281 184.640625 91.179688 184.34375 C 89.992188 184.046875 88.816406 183.722656 87.648438 183.367188 C 86.476562 183.011719 85.316406 182.628906 84.167969 182.21875 C 83.015625 181.804688 81.878906 181.367188 80.75 180.898438 C 79.621094 180.433594 78.503906 179.9375 77.398438 179.414062 C 76.292969 178.890625 75.203125 178.34375 74.125 177.765625 C 73.046875 177.191406 71.984375 176.589844 70.9375 175.960938 C 69.886719 175.332031 68.855469 174.679688 67.839844 174 C 66.824219 173.320312 65.824219 172.617188 64.84375 171.890625 C 63.863281 171.164062 62.898438 170.410156 61.957031 169.636719 C 61.011719 168.859375 60.085938 168.0625 59.179688 167.242188 C 58.277344 166.421875 57.390625 165.578125 56.527344 164.714844 C 55.664062 163.851562 54.820312 162.964844 54 162.0625 C 53.179688 161.15625 52.382812 160.230469 51.605469 159.285156 C 50.832031 158.34375 50.082031 157.378906 49.351562 156.398438 C 48.625 155.417969 47.921875 154.417969 47.242188 153.402344 C 46.5625 152.386719 45.910156 151.355469 45.28125 150.304688 C 44.652344 149.257812 44.050781 148.195312 43.476562 147.117188 C 42.898438 146.039062 42.351562 144.949219 41.828125 143.84375 C 41.304688 142.738281 40.8125 141.621094 40.34375 140.492188 C 39.875 139.363281 39.4375 138.226562 39.023438 137.074219 C 38.613281 135.925781 38.230469 134.765625 37.875 133.59375 C 37.519531 132.425781 37.195312 131.25 36.898438 130.0625 C 36.601562 128.878906 36.332031 127.6875 36.09375 126.488281 C 35.855469 125.289062 35.648438 124.085938 35.46875 122.878906 C 35.289062 121.667969 35.140625 120.457031 35.019531 119.242188 C 34.898438 118.023438 34.808594 116.808594 34.75 115.585938 C 34.691406 114.367188 34.660156 113.144531 34.660156 111.921875 C 34.660156 110.703125 34.691406 109.480469 34.75 108.261719 C 34.808594 107.039062 34.898438 105.820312 35.019531 104.605469 C 35.140625 103.390625 35.289062 102.175781 35.46875 100.96875 C 35.648438 99.761719 35.855469 98.554688 36.09375 97.359375 C 36.332031 96.160156 36.601562 94.96875 36.898438 93.78125 C 37.195312 92.597656 37.519531 91.421875 37.875 90.25 C 38.230469 89.082031 38.613281 87.921875 39.023438 86.769531 C 39.4375 85.621094 39.875 84.480469 40.34375 83.351562 C 40.8125 82.222656 41.304688 81.105469 41.828125 80.003906 C 42.351562 78.898438 42.898438 77.808594 43.476562 76.730469 C 44.050781 75.652344 44.652344 74.589844 45.28125 73.539062 C 45.910156 72.492188 46.5625 71.460938 47.242188 70.445312 C 47.921875 69.429688 48.625 68.429688 49.351562 67.449219 C 50.082031 66.46875 50.832031 65.503906 51.605469 64.558594 C 52.382812 63.617188 53.179688 62.691406 54 61.785156 C 54.820312 60.878906 55.664062 59.996094 56.527344 59.132812 C 57.390625 58.265625 58.277344 57.425781 59.179688 56.605469 C 60.085938 55.785156 61.011719 54.984375 61.957031 54.210938 C 62.898438 53.4375 63.863281 52.683594 64.84375 51.957031 C 65.824219 51.230469 66.824219 50.527344 67.839844 49.847656 C 68.855469 49.167969 69.886719 48.515625 70.9375 47.886719 C 71.984375 47.257812 73.046875 46.65625 74.125 46.078125 C 75.203125 45.503906 76.292969 44.953125 77.398438 44.433594 C 78.503906 43.910156 79.621094 43.414062 80.75 42.949219 C 81.878906 42.480469 83.015625 42.039062 84.167969 41.628906 C 85.316406 41.21875 86.476562 40.832031 87.648438 40.480469 C 88.816406 40.125 89.992188 39.796875 91.179688 39.5 C 92.363281 39.203125 93.554688 38.9375 94.753906 38.699219 C 95.953125 38.460938 97.15625 38.25 98.363281 38.074219 C 99.574219 37.894531 100.785156 37.742188 102 37.625 C 103.21875 37.503906 104.433594 37.414062 105.65625 37.355469 C 106.875 37.292969 108.097656 37.265625 109.320312 37.265625 C 110.539062 37.265625 111.761719 37.292969 112.980469 37.355469 C 114.203125 37.414062 115.421875 37.503906 116.636719 37.625 C 117.851562 37.742188 119.066406 37.894531 120.273438 38.074219 C 121.480469 38.25 122.6875 38.460938 123.882812 38.699219 C 125.082031 38.9375 126.273438 39.203125 127.460938 39.5 C 128.644531 39.796875 129.820312 40.125 130.992188 40.480469 C 132.160156 40.832031 133.320312 41.21875 134.472656 41.628906 C 135.621094 42.039062 136.761719 42.480469 137.890625 42.949219 C 139.019531 43.414062 140.136719 43.910156 141.238281 44.433594 C 142.34375 44.953125 143.433594 45.503906 144.511719 46.078125 C 145.589844 46.65625 146.652344 47.257812 147.703125 47.886719 C 148.75 48.515625 149.78125 49.167969 150.796875 49.847656 C 151.8125 50.527344 152.8125 51.230469 153.792969 51.957031 C 154.773438 52.683594 155.738281 53.4375 156.683594 54.210938 C 157.625 54.984375 158.550781 55.785156 159.457031 56.605469 C 160.363281 57.425781 161.246094 58.265625 162.109375 59.132812 C 162.976562 59.996094 163.816406 60.878906 164.636719 61.785156 C 165.457031 62.691406 166.257812 63.617188 167.03125 64.558594 C 167.804688 65.503906 168.558594 66.46875 169.285156 67.449219 C 170.011719 68.429688 170.71875 69.429688 171.394531 70.445312 C 172.074219 71.460938 172.726562 72.492188 173.355469 73.539062 C 173.984375 74.589844 174.585938 75.652344 175.164062 76.730469 C 175.738281 77.808594 176.289062 78.898438 176.808594 80.003906 C 177.332031 81.105469 177.828125 82.222656 178.292969 83.351562 C 178.761719 84.480469 179.203125 85.621094 179.613281 86.769531 C 180.023438 87.921875 180.410156 89.082031 180.761719 90.25 C 181.117188 91.421875 181.445312 92.597656 181.742188 93.78125 C 182.039062 94.96875 182.304688 96.160156 182.542969 97.359375 C 182.78125 98.554688 182.992188 99.761719 183.171875 100.96875 C 183.347656 102.175781 183.5 103.390625 183.617188 104.605469 C 183.738281 105.820312 183.828125 107.039062 183.886719 108.261719 C 183.949219 109.480469 183.976562 110.703125 183.976562 111.921875 Z M 183.976562 111.921875 " fill-opacity="1" fill-rule="nonzero"/><path fill="#ffffff" d="M 153.640625 52.984375 C 153.640625 54.347656 153.574219 55.707031 153.441406 57.0625 C 153.304688 58.417969 153.105469 59.761719 152.839844 61.097656 C 152.574219 62.433594 152.246094 63.753906 151.847656 65.058594 C 151.453125 66.359375 150.996094 67.640625 150.472656 68.902344 C 149.953125 70.160156 149.371094 71.390625 148.730469 72.589844 C 148.085938 73.792969 147.386719 74.957031 146.632812 76.089844 C 145.875 77.222656 145.0625 78.316406 144.199219 79.367188 C 143.335938 80.421875 142.421875 81.429688 141.460938 82.394531 C 140.496094 83.355469 139.488281 84.269531 138.433594 85.132812 C 137.382812 85.996094 136.289062 86.808594 135.15625 87.566406 C 134.023438 88.320312 132.859375 89.019531 131.65625 89.664062 C 130.457031 90.304688 129.226562 90.886719 127.96875 91.40625 C 126.707031 91.929688 125.429688 92.386719 124.125 92.78125 C 122.820312 93.179688 121.5 93.507812 120.164062 93.773438 C 118.828125 94.039062 117.484375 94.238281 116.128906 94.375 C 114.773438 94.507812 113.414062 94.574219 112.050781 94.574219 C 110.691406 94.574219 109.332031 94.507812 107.976562 94.375 C 106.621094 94.238281 105.273438 94.039062 103.9375 93.773438 C 102.601562 93.507812 101.28125 93.179688 99.980469 92.78125 C 98.675781 92.386719 97.394531 91.929688 96.136719 91.40625 C 94.878906 90.886719 93.648438 90.304688 92.445312 89.664062 C 91.246094 89.019531 90.078125 88.320312 88.945312 87.566406 C 87.8125 86.808594 86.722656 85.996094 85.667969 85.132812 C 84.617188 84.269531 83.609375 83.355469 82.644531 82.394531 C 81.679688 81.429688 80.769531 80.421875 79.902344 79.367188 C 79.039062 78.316406 78.230469 77.222656 77.472656 76.089844 C 76.714844 74.957031 76.015625 73.792969 75.375 72.589844 C 74.730469 71.390625 74.148438 70.160156 73.628906 68.902344 C 73.109375 67.640625 72.648438 66.359375 72.253906 65.058594 C 71.859375 63.753906 71.527344 62.433594 71.261719 61.097656 C 70.996094 59.761719 70.796875 58.417969 70.664062 57.0625 C 70.53125 55.707031 70.464844 54.347656 70.464844 52.984375 C 70.464844 51.625 70.53125 50.265625 70.664062 48.910156 C 70.796875 47.554688 70.996094 46.207031 71.261719 44.871094 C 71.527344 43.535156 71.859375 42.214844 72.253906 40.914062 C 72.648438 39.609375 73.109375 38.328125 73.628906 37.070312 C 74.148438 35.8125 74.730469 34.582031 75.375 33.378906 C 76.015625 32.179688 76.714844 31.011719 77.472656 29.878906 C 78.230469 28.746094 79.039062 27.65625 79.902344 26.601562 C 80.769531 25.550781 81.679688 24.539062 82.644531 23.578125 C 83.609375 22.613281 84.617188 21.699219 85.667969 20.835938 C 86.722656 19.972656 87.8125 19.164062 88.945312 18.40625 C 90.078125 17.648438 91.246094 16.949219 92.445312 16.308594 C 93.648438 15.664062 94.878906 15.082031 96.136719 14.5625 C 97.394531 14.042969 98.675781 13.582031 99.980469 13.1875 C 101.28125 12.792969 102.601562 12.460938 103.9375 12.195312 C 105.273438 11.929688 106.621094 11.730469 107.976562 11.597656 C 109.332031 11.464844 110.691406 11.398438 112.050781 11.398438 C 113.414062 11.398438 114.773438 11.464844 116.128906 11.597656 C 117.484375 11.730469 118.828125 11.929688 120.164062 12.195312 C 121.5 12.460938 122.820312 12.792969 124.125 13.1875 C 125.429688 13.582031 126.707031 14.042969 127.96875 14.5625 C 129.226562 15.082031 130.457031 15.664062 131.65625 16.308594 C 132.859375 16.949219 134.023438 17.648438 135.15625 18.40625 C 136.289062 19.164062 137.382812 19.972656 138.433594 20.835938 C 139.488281 21.699219 140.496094 22.613281 141.460938 23.578125 C 142.421875 24.539062 143.335938 25.550781 144.199219 26.601562 C 145.0625 27.65625 145.875 28.746094 146.632812 29.878906 C 147.386719 31.011719 148.085938 32.179688 148.730469 33.378906 C 149.371094 34.582031 149.953125 35.8125 150.472656 37.070312 C 150.996094 38.328125 151.453125 39.609375 151.847656 40.914062 C 152.246094 42.214844 152.574219 43.535156 152.839844 44.871094 C 153.105469 46.207031 153.304688 47.554688 153.441406 48.910156 C 153.574219 50.265625 153.640625 51.625 153.640625 52.984375 Z M 153.640625 52.984375 " fill-opacity="1" fill-rule="nonzero"/><g clip-path="url(#538f47ab62)"><path fill="#16436f" d="M 112.050781 95.640625 C 106.292969 95.640625 100.707031 94.511719 95.449219 92.289062 C 90.367188 90.140625 85.808594 87.0625 81.890625 83.148438 C 77.972656 79.230469 74.898438 74.667969 72.75 69.589844 C 70.523438 64.328125 69.398438 58.742188 69.398438 52.984375 C 69.398438 47.226562 70.523438 41.640625 72.75 36.382812 C 74.898438 31.300781 77.972656 26.742188 81.890625 22.824219 C 85.808594 18.90625 90.367188 15.832031 95.449219 13.683594 C 100.707031 11.457031 106.292969 10.332031 112.050781 10.332031 C 117.808594 10.332031 123.394531 11.457031 128.65625 13.683594 C 133.734375 15.832031 138.296875 18.90625 142.214844 22.824219 C 146.128906 26.742188 149.207031 31.300781 151.355469 36.382812 C 153.578125 41.640625 154.707031 47.226562 154.707031 52.984375 C 154.707031 58.742188 153.578125 64.328125 151.355469 69.589844 C 149.207031 74.667969 146.128906 79.230469 142.214844 83.148438 C 138.296875 87.0625 133.734375 90.140625 128.65625 92.289062 C 123.394531 94.511719 117.808594 95.640625 112.050781 95.640625 Z M 112.050781 12.464844 C 89.707031 12.464844 71.53125 30.640625 71.53125 52.984375 C 71.53125 75.328125 89.707031 93.507812 112.050781 93.507812 C 134.394531 93.507812 152.574219 75.328125 152.574219 52.984375 C 152.574219 30.640625 134.394531 12.464844 112.050781 12.464844 Z M 112.050781 12.464844 " fill-opacity="1" fill-rule="nonzero"/></g><path fill="#e7e6e6" d="M 138.882812 53.964844 C 138.882812 50.363281 136.464844 47.308594 133.183594 46.363281 C 132.59375 46.191406 132.300781 45.554688 132.5625 44.996094 C 133.949219 42.058594 133.441406 38.425781 131.039062 36.003906 C 128.335938 33.277344 124.109375 32.972656 121.054688 35.082031 C 121.035156 35.097656 121.011719 35.085938 121.007812 35.058594 C 120.542969 31.152344 117.21875 28.09375 113.222656 28.09375 C 109.277344 28.09375 105.992188 31.074219 105.460938 34.914062 C 105.457031 34.941406 105.429688 34.949219 105.410156 34.933594 C 102.339844 32.132812 97.566406 32.21875 94.609375 35.199219 C 91.945312 37.886719 91.613281 42.0625 93.609375 45.128906 C 93.90625 45.582031 93.675781 46.175781 93.152344 46.316406 C 89.792969 47.210938 87.296875 50.308594 87.296875 53.964844 C 87.296875 58.015625 90.355469 61.378906 94.261719 61.824219 C 94.289062 61.828125 94.28125 61.878906 94.28125 61.878906 C 91.652344 64.527344 90.972656 68.710938 92.96875 71.871094 C 95.757812 76.289062 101.714844 76.753906 105.171875 73.269531 L 105.394531 73.042969 C 105.558594 77.25 109.011719 80.640625 113.222656 80.640625 C 117.011719 80.640625 120.191406 77.894531 120.910156 74.28125 C 121.035156 73.648438 121.742188 73.359375 122.324219 73.628906 C 125.222656 74.984375 128.789062 74.464844 131.171875 72.0625 C 133.5625 69.652344 134.074219 66.039062 132.714844 63.109375 C 132.421875 62.480469 132.746094 61.710938 133.40625 61.5 C 136.574219 60.480469 138.882812 57.484375 138.882812 53.964844 Z M 138.882812 53.964844 " fill-opacity="1" fill-rule="nonzero"/><path fill="#16436f" d="M 113.222656 81.707031 C 110.914062 81.707031 108.71875 80.8125 107.046875 79.183594 C 105.878906 78.046875 105.054688 76.636719 104.636719 75.097656 C 102.902344 76.285156 100.796875 76.824219 98.652344 76.589844 C 95.945312 76.292969 93.542969 74.78125 92.066406 72.441406 C 90.171875 69.441406 90.359375 65.5 92.394531 62.5 C 90.917969 62.015625 89.578125 61.144531 88.519531 59.957031 C 87.042969 58.304688 86.230469 56.175781 86.230469 53.964844 C 86.230469 50.023438 88.796875 46.550781 92.515625 45.390625 C 90.441406 41.890625 90.976562 37.34375 93.851562 34.449219 C 95.472656 32.8125 97.636719 31.882812 99.945312 31.832031 C 101.671875 31.792969 103.347656 32.25 104.789062 33.136719 C 105.992188 29.5625 109.371094 27.027344 113.222656 27.027344 C 117.21875 27.027344 120.660156 29.703125 121.761719 33.453125 C 125.105469 31.898438 129.128906 32.558594 131.796875 35.253906 C 134.425781 37.902344 135.132812 41.953125 133.570312 45.363281 C 137.332031 46.492188 139.949219 50.015625 139.949219 53.964844 C 139.949219 55.902344 139.34375 57.746094 138.191406 59.304688 C 137.078125 60.808594 135.492188 61.949219 133.730469 62.515625 C 133.707031 62.523438 133.691406 62.550781 133.6875 62.566406 C 133.679688 62.582031 133.664062 62.621094 133.683594 62.660156 C 135.269531 66.078125 134.5625 70.160156 131.929688 72.8125 C 129.316406 75.445312 125.304688 76.167969 121.929688 74.621094 C 121.046875 78.734375 117.40625 81.707031 113.222656 81.707031 Z M 105.394531 71.976562 C 105.523438 71.976562 105.65625 72 105.78125 72.046875 C 106.175781 72.203125 106.445312 72.578125 106.460938 73 C 106.601562 76.625 109.636719 79.574219 113.222656 79.574219 C 116.4375 79.574219 119.230469 77.261719 119.863281 74.074219 C 119.980469 73.472656 120.367188 72.964844 120.917969 72.6875 C 121.492188 72.398438 122.183594 72.386719 122.773438 72.664062 C 123.6875 73.089844 124.660156 73.296875 125.625 73.296875 C 127.390625 73.296875 129.125 72.609375 130.414062 71.308594 C 132.421875 69.285156 132.957031 66.171875 131.746094 63.558594 C 131.476562 62.976562 131.472656 62.304688 131.730469 61.707031 C 131.988281 61.121094 132.480469 60.675781 133.078125 60.484375 C 135.914062 59.574219 137.816406 56.953125 137.816406 53.964844 C 137.816406 50.929688 135.789062 48.226562 132.886719 47.386719 C 132.304688 47.21875 131.828125 46.808594 131.582031 46.261719 C 131.335938 45.714844 131.339844 45.089844 131.597656 44.542969 C 132.832031 41.921875 132.304688 38.792969 130.28125 36.753906 C 127.980469 34.433594 124.355469 34.097656 121.664062 35.960938 C 121.351562 36.175781 120.945312 36.214844 120.601562 36.0625 C 120.25 35.910156 120 35.578125 119.949219 35.199219 C 119.949219 35.195312 119.949219 35.191406 119.949219 35.1875 C 119.539062 31.75 116.648438 29.160156 113.222656 29.160156 C 109.867188 29.160156 106.984375 31.695312 106.519531 35.058594 C 106.460938 35.464844 106.1875 35.800781 105.808594 35.941406 C 105.429688 36.078125 105.007812 36 104.703125 35.730469 C 104.699219 35.726562 104.695312 35.722656 104.691406 35.71875 C 102.011719 33.277344 97.917969 33.378906 95.367188 35.949219 C 93.105469 38.226562 92.742188 41.84375 94.503906 44.546875 C 94.828125 45.046875 94.894531 45.671875 94.683594 46.222656 C 94.472656 46.773438 94.003906 47.195312 93.425781 47.347656 C 90.445312 48.140625 88.363281 50.863281 88.363281 53.964844 C 88.363281 57.449219 90.949219 60.375 94.382812 60.765625 C 94.675781 60.800781 94.945312 60.953125 95.121094 61.183594 C 95.304688 61.421875 95.382812 61.722656 95.335938 62.027344 C 95.304688 62.253906 95.199219 62.464844 95.039062 62.628906 C 92.683594 65.003906 92.195312 68.648438 93.871094 71.300781 C 95 73.089844 96.828125 74.242188 98.882812 74.46875 C 100.945312 74.695312 102.960938 73.984375 104.414062 72.515625 L 104.636719 72.292969 C 104.839844 72.085938 105.117188 71.976562 105.394531 71.976562 Z M 105.394531 71.976562 " fill-opacity="1" fill-rule="nonzero"/><path fill="#16436f" d="M 99.765625 76.535156 C 94.875 76.535156 90.894531 72.527344 90.894531 67.597656 C 90.894531 62.671875 94.875 58.664062 99.765625 58.664062 C 100.355469 58.664062 100.832031 59.140625 100.832031 59.730469 C 100.832031 60.320312 100.355469 60.796875 99.765625 60.796875 C 96.050781 60.796875 93.027344 63.847656 93.027344 67.597656 C 93.027344 71.351562 96.050781 74.402344 99.765625 74.402344 C 103.480469 74.402344 106.503906 71.351562 106.503906 67.597656 C 106.503906 67.011719 106.980469 66.53125 107.570312 66.53125 C 108.160156 66.53125 108.636719 67.011719 108.636719 67.597656 C 108.636719 72.527344 104.65625 76.535156 99.765625 76.535156 Z M 99.765625 76.535156 " fill-opacity="1" fill-rule="nonzero"/><path fill="#16436f" d="M 107.996094 41.972656 C 107.40625 41.972656 106.929688 41.496094 106.929688 40.90625 C 106.929688 37.15625 103.90625 34.101562 100.191406 34.101562 C 96.476562 34.101562 93.453125 37.15625 93.453125 40.90625 C 93.453125 41.496094 92.972656 41.972656 92.386719 41.972656 C 91.796875 41.972656 91.316406 41.496094 91.316406 40.90625 C 91.316406 35.976562 95.296875 31.96875 100.191406 31.96875 C 105.082031 31.96875 109.0625 35.976562 109.0625 40.90625 C 109.0625 41.496094 108.585938 41.972656 107.996094 41.972656 Z M 107.996094 41.972656 " fill-opacity="1" fill-rule="nonzero"/><path fill="#16436f" d="M 130.296875 49.140625 C 129.96875 49.140625 129.644531 48.988281 129.433594 48.703125 C 129.085938 48.230469 129.191406 47.5625 129.664062 47.214844 C 131.40625 45.9375 132.449219 43.878906 132.449219 41.707031 C 132.449219 37.957031 129.425781 34.90625 125.710938 34.90625 C 121.992188 34.90625 118.96875 37.957031 118.96875 41.707031 C 118.96875 43.054688 119.363281 44.359375 120.101562 45.476562 C 120.425781 45.96875 120.292969 46.628906 119.800781 46.957031 C 119.308594 47.28125 118.648438 47.144531 118.320312 46.65625 C 117.351562 45.1875 116.835938 43.476562 116.835938 41.707031 C 116.835938 36.777344 120.816406 32.769531 125.710938 32.769531 C 130.601562 32.769531 134.582031 36.777344 134.582031 41.707031 C 134.582031 44.554688 133.214844 47.257812 130.925781 48.933594 C 130.734375 49.074219 130.515625 49.140625 130.296875 49.140625 Z M 130.296875 49.140625 " fill-opacity="1" fill-rule="nonzero"/><path fill="#ffffff" d="M 126.023438 49.378906 C 125.78125 49.398438 125.535156 49.410156 125.289062 49.410156 C 124.511719 49.410156 123.765625 49.296875 123.054688 49.085938 Z M 126.023438 49.378906 " fill-opacity="1" fill-rule="nonzero"/><path fill="#16436f" d="M 125.289062 50.480469 C 124.425781 50.480469 123.570312 50.355469 122.75 50.109375 C 122.1875 49.9375 121.867188 49.34375 122.035156 48.78125 C 122.203125 48.214844 122.796875 47.894531 123.363281 48.0625 C 123.984375 48.25 124.632812 48.34375 125.289062 48.34375 C 125.496094 48.34375 125.710938 48.335938 125.925781 48.316406 C 126.515625 48.261719 127.03125 48.691406 127.085938 49.28125 C 127.140625 49.867188 126.710938 50.386719 126.121094 50.441406 C 125.84375 50.464844 125.5625 50.480469 125.289062 50.480469 Z M 125.289062 50.480469 " fill-opacity="1" fill-rule="nonzero"/><path fill="#16436f" d="M 103.414062 63.363281 C 102.847656 63.363281 102.277344 63.265625 101.730469 63.0625 C 100.5 62.605469 99.519531 61.695312 98.96875 60.496094 C 97.84375 58.035156 98.917969 55.109375 101.363281 53.972656 C 101.898438 53.722656 102.53125 53.953125 102.78125 54.488281 C 103.027344 55.023438 102.796875 55.65625 102.261719 55.90625 C 100.878906 56.550781 100.273438 58.210938 100.910156 59.609375 C 101.222656 60.289062 101.773438 60.804688 102.46875 61.058594 C 103.15625 61.3125 103.898438 61.28125 104.5625 60.972656 C 105.097656 60.726562 105.734375 60.957031 105.980469 61.492188 C 106.230469 62.027344 105.996094 62.660156 105.464844 62.910156 C 104.8125 63.210938 104.113281 63.363281 103.414062 63.363281 Z M 103.414062 63.363281 " fill-opacity="1" fill-rule="nonzero"/><path fill="#ffffff" d="M 90.960938 30.625 C 92.160156 32.023438 93.359375 33.421875 94.558594 34.816406 Z M 90.960938 30.625 " fill-opacity="1" fill-rule="nonzero"/><path fill="#16436f" d="M 94.5625 35.882812 C 94.261719 35.882812 93.960938 35.757812 93.75 35.511719 C 92.550781 34.113281 91.351562 32.71875 90.148438 31.320312 C 89.765625 30.871094 89.816406 30.199219 90.265625 29.816406 C 90.710938 29.429688 91.386719 29.480469 91.769531 29.929688 C 92.96875 31.328125 94.167969 32.726562 95.371094 34.121094 C 95.753906 34.570312 95.703125 35.242188 95.253906 35.628906 C 95.054688 35.800781 94.808594 35.882812 94.5625 35.882812 Z M 94.5625 35.882812 " fill-opacity="1" fill-rule="nonzero"/><path fill="#ffffff" d="M 90.960938 25.785156 L 90.960938 30.796875 L 86.019531 30.796875 Z M 90.960938 25.785156 " fill-opacity="1" fill-rule="nonzero"/><path fill="#16436f" d="M 90.960938 31.863281 L 86.019531 31.863281 C 85.433594 31.863281 84.953125 31.386719 84.953125 30.796875 C 84.953125 30.210938 85.433594 29.730469 86.019531 29.730469 L 89.890625 29.730469 L 89.890625 25.785156 C 89.890625 25.195312 90.371094 24.71875 90.960938 24.71875 C 91.546875 24.71875 92.027344 25.195312 92.027344 25.785156 L 92.027344 30.796875 C 92.027344 31.386719 91.546875 31.863281 90.960938 31.863281 Z M 90.960938 31.863281 " fill-opacity="1" fill-rule="nonzero"/><path fill="#ffffff" d="M 136.085938 33.15625 C 134.699219 34.367188 133.3125 35.574219 131.925781 36.785156 Z M 136.085938 33.15625 " fill-opacity="1" fill-rule="nonzero"/><path fill="#16436f" d="M 131.925781 37.855469 C 131.628906 37.855469 131.332031 37.730469 131.121094 37.488281 C 130.734375 37.042969 130.78125 36.371094 131.226562 35.984375 C 132.613281 34.773438 134 33.5625 135.382812 32.351562 C 135.828125 31.964844 136.503906 32.007812 136.890625 32.453125 C 137.277344 32.898438 137.230469 33.570312 136.789062 33.957031 C 135.402344 35.167969 134.015625 36.378906 132.628906 37.589844 C 132.425781 37.765625 132.175781 37.855469 131.925781 37.855469 Z M 131.925781 37.855469 " fill-opacity="1" fill-rule="nonzero"/><path fill="#ffffff" d="M 140.886719 33.15625 L 135.914062 33.15625 L 135.914062 28.175781 Z M 140.886719 33.15625 " fill-opacity="1" fill-rule="nonzero"/><path fill="#16436f" d="M 140.886719 34.222656 L 135.914062 34.222656 C 135.324219 34.222656 134.847656 33.746094 134.847656 33.15625 L 134.847656 28.175781 C 134.847656 27.585938 135.324219 27.109375 135.914062 27.109375 C 136.503906 27.109375 136.980469 27.585938 136.980469 28.175781 L 136.980469 32.089844 L 140.886719 32.089844 C 141.472656 32.089844 141.953125 32.566406 141.953125 33.15625 C 141.953125 33.746094 141.472656 34.222656 140.886719 34.222656 Z M 140.886719 34.222656 " fill-opacity="1" fill-rule="nonzero"/><path fill="#ffffff" d="M 89.699219 77.136719 C 91.085938 75.925781 92.472656 74.714844 93.859375 73.503906 Z M 89.699219 77.136719 " fill-opacity="1" fill-rule="nonzero"/><path fill="#16436f" d="M 89.699219 78.203125 C 89.402344 78.203125 89.109375 78.082031 88.898438 77.839844 C 88.507812 77.394531 88.554688 76.722656 89 76.332031 C 90.382812 75.121094 91.769531 73.914062 93.160156 72.703125 C 93.601562 72.316406 94.277344 72.359375 94.664062 72.804688 C 95.050781 73.25 95.003906 73.921875 94.5625 74.308594 C 93.175781 75.519531 91.789062 76.730469 90.402344 77.941406 C 90.199219 78.117188 89.949219 78.203125 89.699219 78.203125 Z M 89.699219 78.203125 " fill-opacity="1" fill-rule="nonzero"/><path fill="#ffffff" d="M 84.902344 77.136719 L 89.875 77.136719 L 89.875 82.117188 Z M 84.902344 77.136719 " fill-opacity="1" fill-rule="nonzero"/><path fill="#16436f" d="M 89.871094 83.183594 C 89.285156 83.183594 88.804688 82.707031 88.804688 82.117188 L 88.804688 78.203125 L 84.902344 78.203125 C 84.3125 78.203125 83.835938 77.726562 83.835938 77.136719 C 83.835938 76.546875 84.3125 76.070312 84.902344 76.070312 L 89.871094 76.070312 C 90.460938 76.070312 90.941406 76.546875 90.941406 77.136719 L 90.941406 82.117188 C 90.941406 82.707031 90.460938 83.183594 89.871094 83.183594 Z M 89.871094 83.183594 " fill-opacity="1" fill-rule="nonzero"/><path fill="#e7e6e6" d="M 150.285156 65.859375 L 137.335938 81.527344 C 136.835938 82.132812 136.914062 83.035156 137.515625 83.539062 L 144.304688 89.242188 C 144.890625 89.734375 145.753906 89.652344 146.242188 89.066406 L 157.855469 75.015625 Z M 150.285156 65.859375 " fill-opacity="1" fill-rule="nonzero"/><path fill="#16436f" d="M 145.179688 90.632812 C 144.609375 90.632812 144.0625 90.433594 143.621094 90.0625 L 136.828125 84.355469 C 135.785156 83.476562 135.640625 81.902344 136.511719 80.847656 L 149.460938 65.179688 C 149.839844 64.726562 150.511719 64.664062 150.964844 65.039062 C 151.417969 65.414062 151.484375 66.085938 151.105469 66.539062 L 138.15625 82.207031 C 138.027344 82.359375 138.050781 82.59375 138.203125 82.722656 L 144.992188 88.425781 C 145.070312 88.492188 145.15625 88.5 145.210938 88.496094 C 145.269531 88.492188 145.351562 88.46875 145.417969 88.386719 L 157.03125 74.335938 C 157.40625 73.882812 158.078125 73.820312 158.535156 74.195312 C 158.988281 74.570312 159.050781 75.242188 158.675781 75.695312 L 147.0625 89.746094 C 146.644531 90.25 146.058594 90.5625 145.40625 90.621094 C 145.332031 90.628906 145.257812 90.632812 145.179688 90.632812 Z M 145.179688 90.632812 " fill-opacity="1" fill-rule="nonzero"/><path fill="#e7e6e6" d="M 165.421875 65.859375 L 172.554688 57.230469 L 172.523438 56.984375 C 172.523438 48.832031 165.90625 42.164062 157.820312 42.164062 C 157.222656 42.164062 156.628906 42.199219 156.050781 42.269531 C 153.269531 42.613281 150.722656 43.742188 148.640625 45.429688 C 145.28125 48.152344 143.121094 52.328125 143.121094 56.984375 L 143.152344 57.230469 L 169.773438 89.433594 C 170.089844 89.820312 170.65625 89.871094 171.039062 89.550781 L 178.273438 83.46875 C 178.828125 83.003906 178.90625 82.167969 178.441406 81.609375 L 152.085938 49.726562 L 148.640625 45.429688 Z M 165.421875 65.859375 " fill-opacity="1" fill-rule="nonzero"/><path fill="#16436f" d="M 170.464844 90.828125 C 170.402344 90.828125 170.34375 90.824219 170.28125 90.820312 C 169.757812 90.769531 169.285156 90.519531 168.949219 90.113281 L 142.328125 57.910156 C 142.203125 57.753906 142.121094 57.566406 142.09375 57.367188 L 142.0625 57.121094 C 142.054688 57.078125 142.054688 57.03125 142.054688 56.984375 C 142.054688 52.160156 144.210938 47.648438 147.96875 44.601562 C 150.265625 42.738281 153.015625 41.566406 155.917969 41.210938 C 156.542969 41.136719 157.183594 41.097656 157.820312 41.097656 C 162.019531 41.097656 165.976562 42.753906 168.960938 45.765625 C 171.929688 48.757812 173.574219 52.714844 173.589844 56.914062 L 173.613281 57.09375 C 173.652344 57.386719 173.566406 57.683594 173.378906 57.910156 L 166.808594 65.859375 L 179.265625 80.929688 C 180.097656 81.9375 179.960938 83.445312 178.960938 84.285156 L 171.722656 90.367188 C 171.363281 90.667969 170.925781 90.828125 170.464844 90.828125 Z M 144.1875 56.808594 L 170.484375 88.621094 L 177.589844 82.652344 C 177.695312 82.5625 177.710938 82.398438 177.621094 82.289062 L 164.613281 66.550781 C 164.605469 66.542969 164.597656 66.535156 164.589844 66.523438 L 151.265625 50.40625 C 151.261719 50.402344 151.257812 50.398438 151.253906 50.394531 L 148.503906 46.964844 C 145.789062 49.53125 144.234375 53.054688 144.1875 56.808594 Z M 152.914062 49.050781 L 165.421875 64.183594 L 171.457031 56.886719 C 171.402344 49.347656 165.308594 43.230469 157.820312 43.230469 C 157.269531 43.230469 156.71875 43.261719 156.179688 43.328125 C 154.019531 43.59375 151.960938 44.382812 150.164062 45.621094 Z M 152.914062 49.050781 " fill-opacity="1" fill-rule="nonzero"/><path fill="#ffffff" d="M 167.183594 45.582031 L 163.621094 49.726562 L 157.855469 56.703125 Z M 167.183594 45.582031 " fill-opacity="1" fill-rule="nonzero"/><path fill="#16436f" d="M 157.851562 57.769531 C 157.613281 57.769531 157.371094 57.691406 157.175781 57.527344 C 156.71875 57.152344 156.65625 56.476562 157.03125 56.023438 L 162.800781 49.046875 C 162.804688 49.039062 162.808594 49.035156 162.8125 49.03125 L 166.375 44.882812 C 166.761719 44.4375 167.433594 44.386719 167.878906 44.769531 C 168.328125 45.15625 168.378906 45.828125 167.996094 46.277344 L 164.4375 50.414062 L 158.675781 57.382812 C 158.464844 57.636719 158.160156 57.769531 157.851562 57.769531 Z M 157.851562 57.769531 " fill-opacity="1" fill-rule="nonzero"/><path fill="#ffffff" d="M 154.277344 52.375 C 155.257812 51.558594 156.511719 51.0625 157.875 51.0625 C 159.226562 51.0625 160.472656 51.546875 161.449219 52.351562 Z M 154.277344 52.375 " fill-opacity="1" fill-rule="nonzero"/><path fill="#16436f" d="M 154.277344 53.441406 C 153.972656 53.441406 153.667969 53.308594 153.457031 53.058594 C 153.078125 52.605469 153.140625 51.929688 153.59375 51.554688 C 154.800781 50.550781 156.320312 49.996094 157.875 49.996094 C 159.417969 49.996094 160.925781 50.539062 162.125 51.527344 C 162.582031 51.902344 162.644531 52.574219 162.273438 53.03125 C 161.898438 53.484375 161.226562 53.550781 160.769531 53.175781 C 159.953125 52.5 158.921875 52.128906 157.875 52.128906 C 156.816406 52.128906 155.78125 52.507812 154.960938 53.191406 C 154.757812 53.359375 154.519531 53.441406 154.277344 53.441406 Z M 154.277344 53.441406 " fill-opacity="1" fill-rule="nonzero"/><path fill="#ffffff" d="M 79.003906 140.007812 C 79.003906 140.757812 78.96875 141.503906 78.894531 142.25 C 78.820312 142.996094 78.710938 143.734375 78.566406 144.46875 C 78.417969 145.203125 78.238281 145.929688 78.019531 146.648438 C 77.800781 147.363281 77.550781 148.070312 77.261719 148.761719 C 76.976562 149.453125 76.65625 150.128906 76.304688 150.789062 C 75.949219 151.449219 75.566406 152.09375 75.148438 152.714844 C 74.734375 153.339844 74.289062 153.9375 73.8125 154.519531 C 73.335938 155.097656 72.835938 155.652344 72.304688 156.179688 C 71.777344 156.710938 71.222656 157.214844 70.640625 157.6875 C 70.0625 158.164062 69.460938 158.609375 68.839844 159.027344 C 68.214844 159.441406 67.574219 159.828125 66.914062 160.179688 C 66.253906 160.535156 65.578125 160.851562 64.882812 161.140625 C 64.191406 161.425781 63.488281 161.679688 62.769531 161.894531 C 62.054688 162.113281 61.328125 162.296875 60.59375 162.441406 C 59.859375 162.585938 59.117188 162.699219 58.375 162.769531 C 57.628906 162.84375 56.878906 162.882812 56.132812 162.882812 C 55.382812 162.882812 54.636719 162.84375 53.890625 162.769531 C 53.144531 162.699219 52.402344 162.585938 51.667969 162.441406 C 50.933594 162.296875 50.207031 162.113281 49.492188 161.894531 C 48.773438 161.679688 48.070312 161.425781 47.378906 161.140625 C 46.6875 160.851562 46.007812 160.535156 45.347656 160.179688 C 44.6875 159.828125 44.046875 159.441406 43.421875 159.027344 C 42.800781 158.609375 42.199219 158.164062 41.621094 157.6875 C 41.042969 157.214844 40.488281 156.710938 39.957031 156.179688 C 39.425781 155.652344 38.925781 155.097656 38.449219 154.519531 C 37.976562 153.9375 37.527344 153.339844 37.113281 152.714844 C 36.695312 152.09375 36.3125 151.449219 35.957031 150.789062 C 35.605469 150.128906 35.285156 149.453125 35 148.761719 C 34.710938 148.070312 34.460938 147.363281 34.242188 146.648438 C 34.023438 145.929688 33.84375 145.203125 33.699219 144.46875 C 33.550781 143.734375 33.441406 142.996094 33.367188 142.25 C 33.292969 141.503906 33.257812 140.757812 33.257812 140.007812 C 33.257812 139.257812 33.292969 138.511719 33.367188 137.765625 C 33.441406 137.019531 33.550781 136.28125 33.699219 135.546875 C 33.84375 134.808594 34.023438 134.085938 34.242188 133.367188 C 34.460938 132.652344 34.710938 131.945312 35 131.253906 C 35.285156 130.5625 35.605469 129.886719 35.957031 129.226562 C 36.3125 128.566406 36.695312 127.921875 37.113281 127.300781 C 37.527344 126.675781 37.976562 126.074219 38.449219 125.496094 C 38.925781 124.917969 39.425781 124.363281 39.957031 123.832031 C 40.488281 123.304688 41.042969 122.800781 41.621094 122.328125 C 42.199219 121.851562 42.800781 121.40625 43.421875 120.988281 C 44.046875 120.574219 44.6875 120.1875 45.347656 119.835938 C 46.007812 119.480469 46.6875 119.160156 47.378906 118.875 C 48.070312 118.589844 48.773438 118.335938 49.492188 118.121094 C 50.207031 117.902344 50.933594 117.71875 51.667969 117.574219 C 52.402344 117.425781 53.144531 117.316406 53.890625 117.246094 C 54.636719 117.171875 55.382812 117.132812 56.132812 117.132812 C 56.878906 117.132812 57.628906 117.171875 58.375 117.246094 C 59.117188 117.316406 59.859375 117.425781 60.59375 117.574219 C 61.328125 117.71875 62.054688 117.902344 62.769531 118.121094 C 63.488281 118.335938 64.191406 118.589844 64.882812 118.875 C 65.578125 119.160156 66.253906 119.480469 66.914062 119.835938 C 67.574219 120.1875 68.214844 120.574219 68.839844 120.988281 C 69.460938 121.40625 70.0625 121.851562 70.640625 122.328125 C 71.222656 122.800781 71.777344 123.304688 72.304688 123.832031 C 72.835938 124.363281 73.335938 124.917969 73.8125 125.496094 C 74.289062 126.074219 74.734375 126.675781 75.148438 127.300781 C 75.566406 127.921875 75.949219 128.566406 76.304688 129.226562 C 76.65625 129.886719 76.976562 130.5625 77.261719 131.253906 C 77.550781 131.945312 77.800781 132.652344 78.019531 133.367188 C 78.238281 134.085938 78.417969 134.808594 78.566406 135.546875 C 78.710938 136.28125 78.820312 137.019531 78.894531 137.765625 C 78.96875 138.511719 79.003906 139.257812 79.003906 140.007812 Z M 79.003906 140.007812 " fill-opacity="1" fill-rule="nonzero"/><path fill="#16436f" d="M 56.132812 163.949219 C 49.738281 163.949219 43.726562 161.457031 39.203125 156.9375 C 34.679688 152.414062 32.191406 146.402344 32.191406 140.007812 C 32.191406 133.613281 34.679688 127.601562 39.203125 123.078125 C 43.726562 118.558594 49.738281 116.066406 56.132812 116.066406 C 62.527344 116.066406 68.539062 118.558594 73.058594 123.078125 C 77.582031 127.601562 80.070312 133.613281 80.070312 140.007812 C 80.070312 146.402344 77.582031 152.414062 73.058594 156.9375 C 68.539062 161.457031 62.527344 163.949219 56.132812 163.949219 Z M 56.132812 118.199219 C 44.105469 118.199219 34.324219 127.984375 34.324219 140.007812 C 34.324219 152.03125 44.105469 161.8125 56.132812 161.8125 C 68.15625 161.8125 77.9375 152.03125 77.9375 140.007812 C 77.9375 127.984375 68.15625 118.199219 56.132812 118.199219 Z M 56.132812 118.199219 " fill-opacity="1" fill-rule="nonzero"/><path fill="#16436f" d="M 56.132812 118.199219 C 55.542969 118.199219 55.0625 117.722656 55.0625 117.132812 L 55.0625 112.25 C 55.0625 111.660156 55.542969 111.183594 56.132812 111.183594 C 56.71875 111.183594 57.199219 111.660156 57.199219 112.25 L 57.199219 117.132812 C 57.199219 117.722656 56.71875 118.199219 56.132812 118.199219 Z M 56.132812 118.199219 " fill-opacity="1" fill-rule="nonzero"/><path fill="#e7e6e6" d="M 65.507812 102.875 C 65.507812 103.488281 65.445312 104.097656 65.328125 104.703125 C 65.207031 105.304688 65.027344 105.894531 64.792969 106.460938 C 64.558594 107.03125 64.269531 107.570312 63.925781 108.082031 C 63.585938 108.59375 63.195312 109.066406 62.761719 109.503906 C 62.324219 109.9375 61.851562 110.328125 61.339844 110.667969 C 60.828125 111.011719 60.289062 111.300781 59.71875 111.535156 C 59.148438 111.769531 58.5625 111.949219 57.960938 112.070312 C 57.355469 112.1875 56.746094 112.25 56.132812 112.25 C 55.515625 112.25 54.90625 112.1875 54.300781 112.070312 C 53.699219 111.949219 53.113281 111.769531 52.542969 111.535156 C 51.976562 111.300781 51.433594 111.011719 50.921875 110.667969 C 50.410156 110.328125 49.9375 109.9375 49.5 109.503906 C 49.066406 109.066406 48.679688 108.59375 48.335938 108.082031 C 47.992188 107.570312 47.707031 107.03125 47.46875 106.460938 C 47.234375 105.894531 47.054688 105.304688 46.9375 104.703125 C 46.816406 104.097656 46.757812 103.488281 46.757812 102.875 C 46.757812 102.257812 46.816406 101.648438 46.9375 101.042969 C 47.054688 100.441406 47.234375 99.855469 47.46875 99.285156 C 47.707031 98.71875 47.992188 98.175781 48.335938 97.664062 C 48.679688 97.152344 49.066406 96.679688 49.5 96.246094 C 49.9375 95.808594 50.410156 95.421875 50.921875 95.078125 C 51.433594 94.738281 51.976562 94.449219 52.542969 94.210938 C 53.113281 93.976562 53.699219 93.796875 54.300781 93.679688 C 54.90625 93.558594 55.515625 93.5 56.132812 93.5 C 56.746094 93.5 57.355469 93.558594 57.960938 93.679688 C 58.5625 93.796875 59.148438 93.976562 59.71875 94.210938 C 60.289062 94.449219 60.828125 94.738281 61.339844 95.078125 C 61.851562 95.421875 62.324219 95.808594 62.761719 96.246094 C 63.195312 96.679688 63.585938 97.152344 63.925781 97.664062 C 64.269531 98.175781 64.558594 98.71875 64.792969 99.285156 C 65.027344 99.855469 65.207031 100.441406 65.328125 101.042969 C 65.445312 101.648438 65.507812 102.257812 65.507812 102.875 Z M 65.507812 102.875 " fill-opacity="1" fill-rule="nonzero"/><path fill="#16436f" d="M 56.132812 113.316406 C 50.375 113.316406 45.6875 108.632812 45.6875 102.875 C 45.6875 97.117188 50.375 92.433594 56.132812 92.433594 C 61.890625 92.433594 66.574219 97.117188 66.574219 102.875 C 66.574219 108.632812 61.890625 113.316406 56.132812 113.316406 Z M 56.132812 94.566406 C 51.550781 94.566406 47.824219 98.292969 47.824219 102.875 C 47.824219 107.453125 51.550781 111.183594 56.132812 111.183594 C 60.710938 111.183594 64.441406 107.453125 64.441406 102.875 C 64.441406 98.292969 60.710938 94.566406 56.132812 94.566406 Z M 56.132812 94.566406 " fill-opacity="1" fill-rule="nonzero"/><path fill="#ffffff" d="M 65.507812 177.621094 C 65.507812 178.234375 65.445312 178.84375 65.328125 179.449219 C 65.207031 180.054688 65.027344 180.640625 64.792969 181.207031 C 64.558594 181.777344 64.269531 182.316406 63.925781 182.828125 C 63.585938 183.339844 63.195312 183.8125 62.761719 184.25 C 62.324219 184.683594 61.851562 185.074219 61.339844 185.414062 C 60.828125 185.757812 60.289062 186.046875 59.71875 186.28125 C 59.148438 186.515625 58.5625 186.695312 57.960938 186.816406 C 57.355469 186.933594 56.746094 186.996094 56.132812 186.996094 C 55.515625 186.996094 54.90625 186.933594 54.300781 186.816406 C 53.699219 186.695312 53.113281 186.515625 52.542969 186.28125 C 51.976562 186.046875 51.433594 185.757812 50.921875 185.414062 C 50.410156 185.074219 49.9375 184.683594 49.5 184.25 C 49.066406 183.8125 48.679688 183.339844 48.335938 182.828125 C 47.992188 182.316406 47.707031 181.777344 47.46875 181.207031 C 47.234375 180.640625 47.054688 180.054688 46.9375 179.449219 C 46.816406 178.84375 46.757812 178.234375 46.757812 177.621094 C 46.757812 177.003906 46.816406 176.394531 46.9375 175.792969 C 47.054688 175.1875 47.234375 174.601562 47.46875 174.03125 C 47.707031 173.464844 47.992188 172.921875 48.335938 172.410156 C 48.679688 171.898438 49.066406 171.425781 49.5 170.992188 C 49.9375 170.554688 50.410156 170.167969 50.921875 169.824219 C 51.433594 169.484375 51.976562 169.195312 52.542969 168.957031 C 53.113281 168.722656 53.699219 168.546875 54.300781 168.425781 C 54.90625 168.304688 55.515625 168.246094 56.132812 168.246094 C 56.746094 168.246094 57.355469 168.304688 57.960938 168.425781 C 58.5625 168.546875 59.148438 168.722656 59.71875 168.957031 C 60.289062 169.195312 60.828125 169.484375 61.339844 169.824219 C 61.851562 170.167969 62.324219 170.554688 62.761719 170.992188 C 63.195312 171.425781 63.585938 171.898438 63.925781 172.410156 C 64.269531 172.921875 64.558594 173.464844 64.792969 174.03125 C 65.027344 174.601562 65.207031 175.1875 65.328125 175.792969 C 65.445312 176.394531 65.507812 177.003906 65.507812 177.621094 Z M 65.507812 177.621094 " fill-opacity="1" fill-rule="nonzero"/><path fill="#16436f" d="M 56.132812 188.0625 C 50.375 188.0625 45.6875 183.378906 45.6875 177.621094 C 45.6875 171.863281 50.375 167.179688 56.132812 167.179688 C 61.890625 167.179688 66.574219 171.863281 66.574219 177.621094 C 66.574219 183.378906 61.890625 188.0625 56.132812 188.0625 Z M 56.132812 169.3125 C 51.550781 169.3125 47.824219 173.039062 47.824219 177.621094 C 47.824219 182.203125 51.550781 185.929688 56.132812 185.929688 C 60.710938 185.929688 64.441406 182.203125 64.441406 177.621094 C 64.441406 173.039062 60.710938 169.3125 56.132812 169.3125 Z M 56.132812 169.3125 " fill-opacity="1" fill-rule="nonzero"/><path fill="#16436f" d="M 56.132812 168.996094 C 55.542969 168.996094 55.0625 168.515625 55.0625 167.925781 L 55.0625 162.882812 C 55.0625 162.292969 55.542969 161.8125 56.132812 161.8125 C 56.71875 161.8125 57.199219 162.292969 57.199219 162.882812 L 57.199219 167.925781 C 57.199219 168.515625 56.71875 168.996094 56.132812 168.996094 Z M 56.132812 168.996094 " fill-opacity="1" fill-rule="nonzero"/><path fill="#16436f" d="M 84.128906 141.3125 L 79.242188 141.3125 C 78.65625 141.3125 78.175781 140.835938 78.175781 140.246094 C 78.175781 139.65625 78.65625 139.179688 79.242188 139.179688 L 84.128906 139.179688 C 84.71875 139.179688 85.195312 139.65625 85.195312 140.246094 C 85.195312 140.835938 84.71875 141.3125 84.128906 141.3125 Z M 84.128906 141.3125 " fill-opacity="1" fill-rule="nonzero"/><path fill="#e7e6e6" d="M 100.128906 133.617188 C 100.566406 134.050781 100.953125 134.527344 101.296875 135.039062 C 101.636719 135.550781 101.925781 136.089844 102.160156 136.660156 C 102.398438 137.226562 102.574219 137.8125 102.695312 138.417969 C 102.816406 139.019531 102.875 139.628906 102.875 140.246094 C 102.875 140.863281 102.816406 141.472656 102.695312 142.074219 C 102.574219 142.679688 102.398438 143.265625 102.160156 143.832031 C 101.925781 144.402344 101.636719 144.941406 101.296875 145.453125 C 100.953125 145.964844 100.566406 146.441406 100.128906 146.875 C 99.695312 147.3125 99.21875 147.699219 98.707031 148.042969 C 98.195312 148.382812 97.65625 148.671875 97.089844 148.90625 C 96.519531 149.144531 95.933594 149.320312 95.328125 149.441406 C 94.726562 149.5625 94.117188 149.621094 93.5 149.621094 C 92.882812 149.621094 92.273438 149.5625 91.671875 149.441406 C 91.066406 149.320312 90.480469 149.144531 89.914062 148.90625 C 89.34375 148.671875 88.804688 148.382812 88.292969 148.042969 C 87.78125 147.699219 87.304688 147.3125 86.871094 146.875 C 86.4375 146.441406 86.046875 145.96875 85.703125 145.453125 C 85.363281 144.941406 85.074219 144.402344 84.839844 143.835938 C 84.601562 143.265625 84.425781 142.679688 84.304688 142.074219 C 84.183594 141.472656 84.125 140.863281 84.125 140.246094 C 84.125 139.632812 84.183594 139.019531 84.304688 138.417969 C 84.425781 137.8125 84.601562 137.226562 84.839844 136.660156 C 85.074219 136.089844 85.363281 135.550781 85.703125 135.039062 C 86.046875 134.527344 86.433594 134.050781 86.871094 133.617188 C 87.304688 133.183594 87.78125 132.792969 88.292969 132.453125 C 88.804688 132.109375 89.34375 131.820312 89.914062 131.585938 C 90.480469 131.347656 91.066406 131.171875 91.671875 131.050781 C 92.273438 130.929688 92.882812 130.871094 93.5 130.871094 C 94.117188 130.871094 94.726562 130.929688 95.328125 131.050781 C 95.933594 131.171875 96.519531 131.347656 97.085938 131.585938 C 97.65625 131.820312 98.195312 132.109375 98.707031 132.449219 C 99.21875 132.792969 99.695312 133.179688 100.128906 133.617188 Z M 100.128906 133.617188 " fill-opacity="1" fill-rule="nonzero"/><path fill="#16436f" d="M 93.503906 150.6875 C 87.746094 150.6875 83.0625 146.003906 83.0625 140.246094 C 83.0625 134.488281 87.746094 129.804688 93.503906 129.804688 C 99.261719 129.804688 103.945312 134.488281 103.945312 140.246094 C 103.945312 146.003906 99.261719 150.6875 93.503906 150.6875 Z M 93.503906 131.9375 C 88.921875 131.9375 85.195312 135.664062 85.195312 140.246094 C 85.195312 144.828125 88.921875 148.554688 93.503906 148.554688 C 98.085938 148.554688 101.8125 144.828125 101.8125 140.246094 C 101.8125 135.664062 98.085938 131.9375 93.503906 131.9375 Z M 93.503906 131.9375 " fill-opacity="1" fill-rule="nonzero"/><path fill="#e7e6e6" d="M 28.132812 140.246094 C 28.132812 140.863281 28.074219 141.472656 27.953125 142.074219 C 27.832031 142.679688 27.65625 143.265625 27.417969 143.835938 C 27.183594 144.402344 26.894531 144.945312 26.554688 145.457031 C 26.210938 145.96875 25.824219 146.441406 25.386719 146.875 C 24.953125 147.3125 24.480469 147.699219 23.964844 148.042969 C 23.453125 148.382812 22.914062 148.671875 22.347656 148.910156 C 21.777344 149.144531 21.191406 149.320312 20.585938 149.441406 C 19.984375 149.5625 19.375 149.621094 18.757812 149.621094 C 18.140625 149.621094 17.53125 149.5625 16.929688 149.441406 C 16.324219 149.320312 15.738281 149.144531 15.171875 148.910156 C 14.601562 148.671875 14.0625 148.382812 13.550781 148.042969 C 13.039062 147.699219 12.5625 147.3125 12.128906 146.875 C 11.695312 146.441406 11.304688 145.96875 10.960938 145.457031 C 10.621094 144.945312 10.332031 144.402344 10.097656 143.835938 C 9.859375 143.265625 9.683594 142.679688 9.5625 142.074219 C 9.441406 141.472656 9.382812 140.863281 9.382812 140.246094 C 9.382812 139.632812 9.441406 139.023438 9.5625 138.417969 C 9.683594 137.8125 9.859375 137.226562 10.097656 136.660156 C 10.332031 136.089844 10.621094 135.550781 10.960938 135.039062 C 11.304688 134.527344 11.695312 134.054688 12.128906 133.617188 C 12.5625 133.183594 13.039062 132.792969 13.550781 132.453125 C 14.0625 132.109375 14.601562 131.820312 15.171875 131.585938 C 15.738281 131.351562 16.324219 131.171875 16.929688 131.050781 C 17.53125 130.933594 18.140625 130.871094 18.757812 130.871094 C 19.375 130.871094 19.984375 130.933594 20.585938 131.050781 C 21.191406 131.171875 21.777344 131.351562 22.347656 131.585938 C 22.914062 131.820312 23.453125 132.109375 23.964844 132.453125 C 24.480469 132.792969 24.953125 133.183594 25.386719 133.617188 C 25.824219 134.054688 26.210938 134.527344 26.554688 135.039062 C 26.894531 135.550781 27.183594 136.089844 27.417969 136.660156 C 27.65625 137.226562 27.832031 137.8125 27.953125 138.417969 C 28.074219 139.023438 28.132812 139.632812 28.132812 140.246094 Z M 28.132812 140.246094 " fill-opacity="1" fill-rule="nonzero"/><path fill="#16436f" d="M 18.757812 150.6875 C 13 150.6875 8.316406 146.003906 8.316406 140.246094 C 8.316406 134.488281 13 129.804688 18.757812 129.804688 C 24.515625 129.804688 29.199219 134.488281 29.199219 140.246094 C 29.199219 146.003906 24.515625 150.6875 18.757812 150.6875 Z M 18.757812 131.9375 C 14.175781 131.9375 10.449219 135.664062 10.449219 140.246094 C 10.449219 144.828125 14.175781 148.554688 18.757812 148.554688 C 23.339844 148.554688 27.066406 144.828125 27.066406 140.246094 C 27.066406 135.664062 23.339844 131.9375 18.757812 131.9375 Z M 18.757812 131.9375 " fill-opacity="1" fill-rule="nonzero"/><path fill="#16436f" d="M 32.734375 141.3125 L 28.449219 141.3125 C 27.863281 141.3125 27.382812 140.835938 27.382812 140.246094 C 27.382812 139.65625 27.863281 139.179688 28.449219 139.179688 L 32.734375 139.179688 C 33.324219 139.179688 33.800781 139.65625 33.800781 140.246094 C 33.800781 140.835938 33.324219 141.3125 32.734375 141.3125 Z M 32.734375 141.3125 " fill-opacity="1" fill-rule="nonzero"/><path fill="#16436f" d="M 72.472656 124.96875 C 72.203125 124.96875 71.929688 124.867188 71.71875 124.660156 C 71.304688 124.242188 71.304688 123.566406 71.71875 123.148438 L 75.175781 119.695312 C 75.589844 119.277344 76.265625 119.277344 76.683594 119.695312 C 77.101562 120.113281 77.101562 120.789062 76.683594 121.203125 L 73.230469 124.660156 C 73.019531 124.867188 72.746094 124.96875 72.472656 124.96875 Z M 72.472656 124.96875 " fill-opacity="1" fill-rule="nonzero"/><path fill="#ffffff" d="M 91.933594 113.820312 C 91.933594 114.4375 91.875 115.046875 91.753906 115.648438 C 91.632812 116.253906 91.457031 116.839844 91.21875 117.40625 C 90.984375 117.976562 90.695312 118.515625 90.351562 119.027344 C 90.011719 119.539062 89.621094 120.015625 89.1875 120.449219 C 88.753906 120.886719 88.277344 121.273438 87.765625 121.617188 C 87.253906 121.957031 86.714844 122.246094 86.144531 122.480469 C 85.578125 122.71875 84.992188 122.894531 84.386719 123.015625 C 83.785156 123.136719 83.171875 123.195312 82.558594 123.195312 C 81.941406 123.195312 81.332031 123.136719 80.730469 123.015625 C 80.125 122.894531 79.539062 122.71875 78.96875 122.480469 C 78.402344 122.246094 77.859375 121.957031 77.347656 121.617188 C 76.835938 121.273438 76.363281 120.886719 75.929688 120.449219 C 75.492188 120.015625 75.105469 119.539062 74.761719 119.027344 C 74.421875 118.515625 74.132812 117.976562 73.894531 117.40625 C 73.660156 116.839844 73.484375 116.253906 73.363281 115.648438 C 73.242188 115.046875 73.183594 114.4375 73.183594 113.820312 C 73.183594 113.203125 73.242188 112.59375 73.363281 111.992188 C 73.484375 111.386719 73.660156 110.800781 73.894531 110.230469 C 74.132812 109.664062 74.421875 109.125 74.761719 108.613281 C 75.105469 108.101562 75.492188 107.625 75.929688 107.191406 C 76.363281 106.753906 76.835938 106.367188 77.347656 106.023438 C 77.859375 105.683594 78.402344 105.394531 78.96875 105.160156 C 79.539062 104.921875 80.125 104.746094 80.730469 104.625 C 81.332031 104.503906 81.941406 104.445312 82.558594 104.445312 C 83.171875 104.445312 83.785156 104.503906 84.386719 104.625 C 84.992188 104.746094 85.578125 104.921875 86.144531 105.160156 C 86.714844 105.394531 87.253906 105.683594 87.765625 106.023438 C 88.277344 106.367188 88.753906 106.753906 89.1875 107.191406 C 89.621094 107.625 90.011719 108.101562 90.351562 108.613281 C 90.695312 109.125 90.984375 109.664062 91.21875 110.230469 C 91.457031 110.800781 91.632812 111.386719 91.753906 111.992188 C 91.875 112.59375 91.933594 113.203125 91.933594 113.820312 Z M 91.933594 113.820312 " fill-opacity="1" fill-rule="nonzero"/><path fill="#16436f" d="M 82.558594 124.257812 C 79.882812 124.257812 77.210938 123.238281 75.175781 121.203125 C 71.101562 117.132812 71.101562 110.507812 75.175781 106.4375 C 77.148438 104.464844 79.769531 103.378906 82.558594 103.378906 C 85.347656 103.378906 87.96875 104.464844 89.941406 106.4375 C 94.011719 110.507812 94.011719 117.132812 89.941406 121.203125 C 87.90625 123.238281 85.230469 124.257812 82.558594 124.257812 Z M 82.558594 105.511719 C 80.339844 105.511719 78.253906 106.375 76.683594 107.945312 C 73.445312 111.183594 73.445312 116.457031 76.683594 119.695312 C 79.921875 122.933594 85.195312 122.933594 88.433594 119.695312 C 91.671875 116.457031 91.671875 111.183594 88.433594 107.945312 C 86.863281 106.375 84.777344 105.511719 82.558594 105.511719 Z M 82.558594 105.511719 " fill-opacity="1" fill-rule="nonzero"/><path fill="#e7e6e6" d="M 39.078125 166.671875 C 39.078125 167.289062 39.019531 167.898438 38.898438 168.503906 C 38.78125 169.105469 38.601562 169.691406 38.367188 170.261719 C 38.128906 170.832031 37.839844 171.371094 37.5 171.882812 C 37.15625 172.394531 36.769531 172.867188 36.332031 173.304688 C 35.898438 173.738281 35.425781 174.128906 34.914062 174.46875 C 34.402344 174.8125 33.859375 175.101562 33.292969 175.335938 C 32.722656 175.570312 32.136719 175.75 31.535156 175.867188 C 30.929688 175.988281 30.320312 176.050781 29.703125 176.050781 C 29.089844 176.050781 28.480469 175.988281 27.875 175.867188 C 27.273438 175.75 26.683594 175.570312 26.117188 175.335938 C 25.546875 175.101562 25.007812 174.8125 24.496094 174.46875 C 23.984375 174.128906 23.511719 173.738281 23.074219 173.304688 C 22.640625 172.867188 22.25 172.394531 21.910156 171.882812 C 21.566406 171.371094 21.277344 170.832031 21.042969 170.261719 C 20.808594 169.691406 20.628906 169.105469 20.507812 168.503906 C 20.390625 167.898438 20.328125 167.289062 20.328125 166.671875 C 20.328125 166.058594 20.390625 165.449219 20.507812 164.84375 C 20.628906 164.242188 20.808594 163.65625 21.042969 163.085938 C 21.277344 162.515625 21.566406 161.976562 21.910156 161.464844 C 22.25 160.953125 22.640625 160.480469 23.074219 160.042969 C 23.511719 159.609375 23.984375 159.21875 24.496094 158.878906 C 25.007812 158.535156 25.546875 158.246094 26.117188 158.011719 C 26.683594 157.777344 27.273438 157.597656 27.875 157.480469 C 28.480469 157.359375 29.089844 157.296875 29.703125 157.296875 C 30.320312 157.296875 30.929688 157.359375 31.535156 157.480469 C 32.136719 157.597656 32.722656 157.777344 33.292969 158.011719 C 33.859375 158.246094 34.402344 158.535156 34.914062 158.878906 C 35.425781 159.21875 35.898438 159.609375 36.332031 160.042969 C 36.769531 160.480469 37.15625 160.953125 37.5 161.464844 C 37.839844 161.976562 38.128906 162.515625 38.367188 163.085938 C 38.601562 163.65625 38.78125 164.242188 38.898438 164.84375 C 39.019531 165.449219 39.078125 166.058594 39.078125 166.671875 Z M 39.078125 166.671875 " fill-opacity="1" fill-rule="nonzero"/><path fill="#16436f" d="M 29.703125 177.109375 C 27.03125 177.109375 24.355469 176.09375 22.320312 174.058594 C 20.347656 172.085938 19.261719 169.460938 19.261719 166.671875 C 19.261719 163.882812 20.347656 161.261719 22.320312 159.289062 C 24.292969 157.316406 26.914062 156.230469 29.703125 156.230469 C 32.492188 156.230469 35.117188 157.316406 37.089844 159.289062 C 39.058594 161.261719 40.144531 163.882812 40.144531 166.671875 C 40.144531 169.460938 39.058594 172.085938 37.089844 174.058594 C 35.050781 176.09375 32.378906 177.109375 29.703125 177.109375 Z M 29.703125 158.367188 C 27.484375 158.367188 25.398438 159.230469 23.828125 160.796875 C 22.261719 162.367188 21.394531 164.453125 21.394531 166.671875 C 21.394531 168.894531 22.261719 170.980469 23.828125 172.546875 C 27.070312 175.789062 32.339844 175.789062 35.578125 172.546875 C 37.148438 170.980469 38.011719 168.894531 38.011719 166.671875 C 38.011719 164.453125 37.148438 162.367188 35.578125 160.796875 C 34.011719 159.230469 31.921875 158.367188 29.703125 158.367188 Z M 36.332031 173.304688 L 36.335938 173.304688 Z M 36.332031 173.304688 " fill-opacity="1" fill-rule="nonzero"/><path fill="#16436f" d="M 36.558594 160.886719 C 36.285156 160.886719 36.011719 160.78125 35.804688 160.574219 C 35.386719 160.15625 35.386719 159.480469 35.804688 159.066406 L 39.371094 155.496094 C 39.789062 155.082031 40.464844 155.082031 40.882812 155.496094 C 41.296875 155.914062 41.296875 156.589844 40.882812 157.007812 L 37.3125 160.574219 C 37.105469 160.78125 36.832031 160.886719 36.558594 160.886719 Z M 36.558594 160.886719 " fill-opacity="1" fill-rule="nonzero"/><path fill="#16436f" d="M 75.929688 161.109375 C 75.65625 161.109375 75.382812 161.007812 75.175781 160.796875 L 71.71875 157.34375 C 71.304688 156.929688 71.304688 156.253906 71.71875 155.835938 C 72.136719 155.417969 72.8125 155.417969 73.230469 155.835938 L 76.683594 159.289062 C 77.101562 159.707031 77.101562 160.382812 76.683594 160.796875 C 76.476562 161.007812 76.203125 161.109375 75.929688 161.109375 Z M 75.929688 161.109375 " fill-opacity="1" fill-rule="nonzero"/><path fill="#e7e6e6" d="M 91.933594 166.671875 C 91.933594 167.289062 91.875 167.898438 91.753906 168.503906 C 91.632812 169.105469 91.457031 169.691406 91.21875 170.261719 C 90.984375 170.832031 90.695312 171.371094 90.351562 171.882812 C 90.011719 172.394531 89.621094 172.867188 89.1875 173.304688 C 88.753906 173.738281 88.277344 174.128906 87.765625 174.46875 C 87.253906 174.8125 86.714844 175.101562 86.144531 175.335938 C 85.578125 175.570312 84.992188 175.75 84.386719 175.867188 C 83.785156 175.988281 83.171875 176.050781 82.558594 176.050781 C 81.941406 176.050781 81.332031 175.988281 80.730469 175.867188 C 80.125 175.75 79.539062 175.570312 78.96875 175.335938 C 78.402344 175.101562 77.859375 174.8125 77.347656 174.46875 C 76.835938 174.128906 76.363281 173.738281 75.929688 173.304688 C 75.492188 172.867188 75.105469 172.394531 74.761719 171.882812 C 74.421875 171.371094 74.132812 170.832031 73.894531 170.261719 C 73.660156 169.691406 73.484375 169.105469 73.363281 168.503906 C 73.242188 167.898438 73.183594 167.289062 73.183594 166.671875 C 73.183594 166.058594 73.242188 165.449219 73.363281 164.84375 C 73.484375 164.242188 73.660156 163.65625 73.894531 163.085938 C 74.132812 162.515625 74.421875 161.976562 74.761719 161.464844 C 75.105469 160.953125 75.492188 160.480469 75.929688 160.042969 C 76.363281 159.609375 76.835938 159.21875 77.347656 158.878906 C 77.859375 158.535156 78.402344 158.246094 78.96875 158.011719 C 79.539062 157.777344 80.125 157.597656 80.730469 157.480469 C 81.332031 157.359375 81.941406 157.296875 82.558594 157.296875 C 83.171875 157.296875 83.785156 157.359375 84.386719 157.480469 C 84.992188 157.597656 85.578125 157.777344 86.144531 158.011719 C 86.714844 158.246094 87.253906 158.535156 87.765625 158.878906 C 88.277344 159.21875 88.753906 159.609375 89.1875 160.042969 C 89.621094 160.480469 90.011719 160.953125 90.351562 161.464844 C 90.695312 161.976562 90.984375 162.515625 91.21875 163.085938 C 91.457031 163.65625 91.632812 164.242188 91.753906 164.84375 C 91.875 165.449219 91.933594 166.058594 91.933594 166.671875 Z M 91.933594 166.671875 " fill-opacity="1" fill-rule="nonzero"/><path fill="#16436f" d="M 82.558594 177.109375 C 79.882812 177.109375 77.210938 176.09375 75.175781 174.058594 C 73.203125 172.085938 72.117188 169.460938 72.117188 166.671875 C 72.117188 163.882812 73.203125 161.261719 75.175781 159.289062 C 77.148438 157.316406 79.769531 156.230469 82.558594 156.230469 C 85.347656 156.230469 87.96875 157.316406 89.941406 159.289062 C 91.914062 161.261719 93 163.882812 93 166.671875 C 93 169.460938 91.914062 172.085938 89.941406 174.058594 C 87.90625 176.09375 85.230469 177.109375 82.558594 177.109375 Z M 76.683594 172.546875 C 79.921875 175.789062 85.195312 175.789062 88.433594 172.546875 C 90.003906 170.980469 90.867188 168.894531 90.867188 166.671875 C 90.867188 164.453125 90.003906 162.367188 88.433594 160.796875 C 86.863281 159.230469 84.777344 158.367188 82.558594 158.367188 C 80.339844 158.367188 78.253906 159.230469 76.683594 160.796875 C 75.113281 162.367188 74.25 164.453125 74.25 166.671875 C 74.25 168.894531 75.113281 170.980469 76.683594 172.546875 Z M 76.683594 172.546875 " fill-opacity="1" fill-rule="nonzero"/><path fill="#e7e6e6" d="M 39.078125 113.820312 C 39.078125 114.4375 39.019531 115.046875 38.898438 115.648438 C 38.78125 116.253906 38.601562 116.839844 38.367188 117.40625 C 38.128906 117.976562 37.839844 118.515625 37.5 119.027344 C 37.15625 119.539062 36.769531 120.015625 36.332031 120.449219 C 35.898438 120.886719 35.425781 121.273438 34.914062 121.617188 C 34.402344 121.957031 33.859375 122.246094 33.292969 122.480469 C 32.722656 122.71875 32.136719 122.894531 31.535156 123.015625 C 30.929688 123.136719 30.320312 123.195312 29.703125 123.195312 C 29.089844 123.195312 28.480469 123.136719 27.875 123.015625 C 27.273438 122.894531 26.683594 122.71875 26.117188 122.480469 C 25.546875 122.246094 25.007812 121.957031 24.496094 121.617188 C 23.984375 121.273438 23.511719 120.886719 23.074219 120.449219 C 22.640625 120.015625 22.25 119.539062 21.910156 119.027344 C 21.566406 118.515625 21.277344 117.976562 21.042969 117.40625 C 20.808594 116.839844 20.628906 116.253906 20.507812 115.648438 C 20.390625 115.046875 20.328125 114.4375 20.328125 113.820312 C 20.328125 113.203125 20.390625 112.59375 20.507812 111.992188 C 20.628906 111.386719 20.808594 110.800781 21.042969 110.230469 C 21.277344 109.664062 21.566406 109.125 21.910156 108.613281 C 22.25 108.101562 22.640625 107.625 23.074219 107.191406 C 23.511719 106.753906 23.984375 106.367188 24.496094 106.023438 C 25.007812 105.683594 25.546875 105.394531 26.117188 105.160156 C 26.683594 104.921875 27.273438 104.746094 27.875 104.625 C 28.480469 104.503906 29.089844 104.445312 29.703125 104.445312 C 30.320312 104.445312 30.929688 104.503906 31.535156 104.625 C 32.136719 104.746094 32.722656 104.921875 33.292969 105.160156 C 33.859375 105.394531 34.402344 105.683594 34.914062 106.023438 C 35.425781 106.367188 35.898438 106.753906 36.332031 107.191406 C 36.769531 107.625 37.15625 108.101562 37.5 108.613281 C 37.839844 109.125 38.128906 109.664062 38.367188 110.230469 C 38.601562 110.800781 38.78125 111.386719 38.898438 111.992188 C 39.019531 112.59375 39.078125 113.203125 39.078125 113.820312 Z M 39.078125 113.820312 " fill-opacity="1" fill-rule="nonzero"/><path fill="#16436f" d="M 29.703125 124.257812 C 27.03125 124.257812 24.355469 123.238281 22.320312 121.203125 C 18.25 117.132812 18.25 110.507812 22.320312 106.4375 C 24.292969 104.464844 26.914062 103.378906 29.703125 103.378906 C 32.492188 103.378906 35.117188 104.464844 37.089844 106.4375 C 41.160156 110.507812 41.160156 117.132812 37.089844 121.203125 C 35.050781 123.238281 32.378906 124.257812 29.703125 124.257812 Z M 29.703125 105.511719 C 27.484375 105.511719 25.398438 106.375 23.828125 107.945312 C 20.589844 111.183594 20.589844 116.457031 23.828125 119.695312 C 27.070312 122.933594 32.339844 122.933594 35.578125 119.695312 C 38.820312 116.457031 38.820312 111.183594 35.578125 107.945312 C 34.011719 106.375 31.921875 105.511719 29.703125 105.511719 Z M 29.703125 105.511719 " fill-opacity="1" fill-rule="nonzero"/><path fill="#16436f" d="M 39.84375 125.027344 C 39.570312 125.027344 39.296875 124.921875 39.089844 124.714844 L 35.804688 121.429688 C 35.386719 121.011719 35.386719 120.335938 35.804688 119.917969 C 36.21875 119.503906 36.894531 119.503906 37.3125 119.917969 L 40.597656 123.207031 C 41.015625 123.621094 41.015625 124.296875 40.597656 124.714844 C 40.390625 124.921875 40.117188 125.027344 39.84375 125.027344 Z M 39.84375 125.027344 " fill-opacity="1" fill-rule="nonzero"/><path fill="#16436f" d="M 85.859375 170.519531 C 85.585938 170.519531 85.316406 170.414062 85.105469 170.207031 L 79.003906 164.105469 C 78.589844 163.6875 78.589844 163.011719 79.003906 162.597656 C 79.421875 162.179688 80.097656 162.179688 80.511719 162.597656 L 86.613281 168.699219 C 87.03125 169.113281 87.03125 169.789062 86.613281 170.207031 C 86.40625 170.414062 86.132812 170.519531 85.859375 170.519531 Z M 85.859375 170.519531 " fill-opacity="1" fill-rule="nonzero"/><path fill="#16436f" d="M 79.757812 170.519531 C 79.484375 170.519531 79.210938 170.414062 79.003906 170.207031 C 78.589844 169.789062 78.589844 169.113281 79.003906 168.699219 L 85.105469 162.597656 C 85.523438 162.179688 86.199219 162.179688 86.613281 162.597656 C 87.03125 163.011719 87.03125 163.6875 86.613281 164.105469 L 80.511719 170.207031 C 80.304688 170.414062 80.03125 170.519531 79.757812 170.519531 Z M 79.757812 170.519531 " fill-opacity="1" fill-rule="nonzero"/><path fill="#16436f" d="M 21.792969 143.824219 C 21.519531 143.824219 21.246094 143.71875 21.039062 143.511719 L 14.9375 137.410156 C 14.519531 136.992188 14.519531 136.316406 14.9375 135.902344 C 15.351562 135.484375 16.027344 135.484375 16.445312 135.902344 L 22.546875 142.003906 C 22.964844 142.421875 22.964844 143.09375 22.546875 143.511719 C 22.339844 143.71875 22.066406 143.824219 21.792969 143.824219 Z M 21.792969 143.824219 " fill-opacity="1" fill-rule="nonzero"/><path fill="#16436f" d="M 15.691406 143.824219 C 15.417969 143.824219 15.144531 143.71875 14.9375 143.511719 C 14.519531 143.09375 14.519531 142.421875 14.9375 142.003906 L 21.039062 135.902344 C 21.453125 135.484375 22.128906 135.484375 22.546875 135.902344 C 22.964844 136.316406 22.964844 136.992188 22.546875 137.410156 L 16.445312 143.511719 C 16.238281 143.71875 15.964844 143.824219 15.691406 143.824219 Z M 15.691406 143.824219 " fill-opacity="1" fill-rule="nonzero"/><path fill="#16436f" d="M 47.28125 156.964844 C 46.691406 156.964844 46.214844 156.484375 46.214844 155.894531 C 46.214844 152.953125 46.898438 150.289062 48.300781 147.757812 C 49.394531 145.789062 50.882812 143.9375 53.132812 141.75 C 53.554688 141.339844 54.230469 141.351562 54.640625 141.773438 C 55.050781 142.195312 55.039062 142.871094 54.617188 143.28125 C 51.363281 146.445312 48.347656 150.164062 48.347656 155.894531 C 48.347656 156.484375 47.871094 156.964844 47.28125 156.964844 Z M 47.28125 156.964844 " fill-opacity="1" fill-rule="nonzero"/><path fill="#16436f" d="M 58.949219 138.910156 C 58.664062 138.910156 58.382812 138.796875 58.171875 138.574219 C 57.765625 138.148438 57.785156 137.472656 58.214844 137.066406 C 62.074219 133.417969 64.644531 129.957031 64.644531 124.929688 C 64.644531 124.339844 65.121094 123.863281 65.710938 123.863281 C 66.300781 123.863281 66.777344 124.339844 66.777344 124.929688 C 66.777344 127.75 66.070312 130.316406 64.617188 132.769531 C 63.222656 135.125 61.339844 137.046875 59.679688 138.617188 C 59.472656 138.8125 59.210938 138.910156 58.949219 138.910156 Z M 58.949219 138.910156 " fill-opacity="1" fill-rule="nonzero"/><path fill="#16436f" d="M 61.109375 128.628906 L 47.582031 128.628906 C 46.992188 128.628906 46.511719 128.148438 46.511719 127.558594 C 46.511719 126.972656 46.992188 126.492188 47.582031 126.492188 L 61.109375 126.492188 C 61.695312 126.492188 62.175781 126.972656 62.175781 127.558594 C 62.175781 128.148438 61.695312 128.628906 61.109375 128.628906 Z M 61.109375 128.628906 " fill-opacity="1" fill-rule="nonzero"/><path fill="#16436f" d="M 57.699219 134.464844 L 50.085938 134.464844 C 49.496094 134.464844 49.019531 133.988281 49.019531 133.398438 C 49.019531 132.808594 49.496094 132.332031 50.085938 132.332031 L 57.699219 132.332031 C 58.285156 132.332031 58.765625 132.808594 58.765625 133.398438 C 58.765625 133.988281 58.285156 134.464844 57.699219 134.464844 Z M 57.699219 134.464844 " fill-opacity="1" fill-rule="nonzero"/><path fill="#16436f" d="M 65.425781 156.578125 C 64.835938 156.578125 64.359375 156.097656 64.359375 155.511719 C 64.359375 153.289062 63.945312 151.292969 63.128906 149.585938 C 62.859375 149.019531 61.132812 146.214844 60.347656 145.28125 C 58.917969 143.667969 57.242188 142.160156 55.625 140.699219 C 51.015625 136.546875 46.25 132.25 46.25 124.929688 C 46.25 124.339844 46.726562 123.863281 47.316406 123.863281 C 47.90625 123.863281 48.382812 124.339844 48.382812 124.929688 C 48.382812 131.300781 52.59375 135.097656 57.050781 139.113281 C 58.71875 140.617188 60.441406 142.171875 61.953125 143.878906 C 61.957031 143.882812 61.960938 143.890625 61.964844 143.894531 C 62.898438 144.992188 64.730469 147.980469 65.054688 148.667969 C 66.011719 150.664062 66.492188 152.96875 66.492188 155.511719 C 66.492188 156.097656 66.015625 156.578125 65.425781 156.578125 Z M 65.425781 156.578125 " fill-opacity="1" fill-rule="nonzero"/><path fill="#16436f" d="M 65.121094 153.320312 L 51.617188 153.320312 C 51.027344 153.320312 50.550781 152.84375 50.550781 152.253906 C 50.550781 151.664062 51.027344 151.1875 51.617188 151.1875 L 65.121094 151.1875 C 65.710938 151.1875 66.1875 151.664062 66.1875 152.253906 C 66.1875 152.84375 65.710938 153.320312 65.121094 153.320312 Z M 65.121094 153.320312 " fill-opacity="1" fill-rule="nonzero"/><path fill="#16436f" d="M 62.773438 147.972656 L 56.210938 147.972656 C 55.625 147.972656 55.144531 147.496094 55.144531 146.90625 C 55.144531 146.316406 55.625 145.839844 56.210938 145.839844 L 62.773438 145.839844 C 63.359375 145.839844 63.839844 146.316406 63.839844 146.90625 C 63.839844 147.496094 63.359375 147.972656 62.773438 147.972656 Z M 62.773438 147.972656 " fill-opacity="1" fill-rule="nonzero"/><path fill="#e7e6e6" d="M 129.71875 166.164062 L 116.851562 179.03125 C 112.539062 183.34375 112.539062 190.339844 116.851562 194.652344 C 121.164062 198.96875 128.160156 198.96875 132.472656 194.652344 L 145.34375 181.785156 Z M 129.71875 166.164062 " fill-opacity="1" fill-rule="nonzero"/><path fill="#16436f" d="M 124.664062 198.949219 C 121.5625 198.949219 118.460938 197.769531 116.097656 195.40625 C 113.808594 193.121094 112.550781 190.078125 112.550781 186.84375 C 112.550781 183.605469 113.808594 180.566406 116.097656 178.277344 L 128.964844 165.410156 C 129.382812 164.992188 130.058594 164.992188 130.476562 165.410156 C 130.890625 165.824219 130.890625 166.5 130.476562 166.917969 L 117.605469 179.785156 C 115.722656 181.671875 114.683594 184.175781 114.683594 186.84375 C 114.683594 189.507812 115.722656 192.015625 117.605469 193.898438 C 119.550781 195.84375 122.109375 196.816406 124.664062 196.816406 C 127.21875 196.816406 129.773438 195.84375 131.71875 193.898438 L 144.589844 181.03125 C 145.003906 180.613281 145.679688 180.613281 146.097656 181.03125 C 146.515625 181.445312 146.515625 182.121094 146.097656 182.539062 L 133.226562 195.40625 C 130.867188 197.769531 127.765625 198.949219 124.664062 198.949219 Z M 124.664062 198.949219 " fill-opacity="1" fill-rule="nonzero"/><path fill="#ffffff" d="M 190.863281 120.347656 C 191.761719 121.246094 192.617188 122.1875 193.421875 123.171875 C 194.230469 124.152344 194.984375 125.171875 195.691406 126.230469 C 196.398438 127.289062 197.050781 128.375 197.648438 129.496094 C 198.25 130.617188 198.792969 131.765625 199.277344 132.941406 C 199.765625 134.117188 200.195312 135.3125 200.5625 136.527344 C 200.929688 137.746094 201.238281 138.976562 201.488281 140.222656 C 201.734375 141.46875 201.921875 142.726562 202.046875 143.992188 C 202.171875 145.257812 202.234375 146.523438 202.234375 147.796875 C 202.234375 149.066406 202.171875 150.335938 202.046875 151.601562 C 201.921875 152.867188 201.738281 154.121094 201.488281 155.371094 C 201.242188 156.617188 200.933594 157.847656 200.5625 159.066406 C 200.195312 160.28125 199.765625 161.476562 199.28125 162.652344 C 198.792969 163.828125 198.25 164.972656 197.652344 166.09375 C 197.050781 167.21875 196.398438 168.304688 195.691406 169.363281 C 194.984375 170.421875 194.230469 171.441406 193.421875 172.421875 C 192.617188 173.40625 191.765625 174.347656 190.863281 175.246094 C 189.964844 176.144531 189.023438 176.996094 188.042969 177.804688 C 187.058594 178.609375 186.039062 179.367188 184.984375 180.074219 C 183.925781 180.78125 182.835938 181.433594 181.714844 182.03125 C 180.59375 182.632812 179.445312 183.175781 178.273438 183.660156 C 177.097656 184.148438 175.902344 184.574219 174.683594 184.945312 C 173.46875 185.3125 172.238281 185.621094 170.988281 185.871094 C 169.742188 186.117188 168.488281 186.304688 167.222656 186.429688 C 165.957031 186.554688 164.6875 186.617188 163.417969 186.617188 C 162.144531 186.617188 160.878906 186.554688 159.613281 186.429688 C 158.347656 186.304688 157.089844 186.117188 155.84375 185.871094 C 154.597656 185.621094 153.363281 185.3125 152.148438 184.945312 C 150.929688 184.574219 149.734375 184.148438 148.5625 183.660156 C 147.386719 183.175781 146.238281 182.632812 145.117188 182.03125 C 143.996094 181.433594 142.90625 180.78125 141.851562 180.074219 C 140.792969 179.367188 139.773438 178.609375 138.789062 177.804688 C 137.808594 177 136.867188 176.144531 135.96875 175.246094 C 135.070312 174.347656 134.214844 173.40625 133.410156 172.425781 C 132.601562 171.441406 131.847656 170.421875 131.140625 169.363281 C 130.433594 168.308594 129.78125 167.21875 129.179688 166.097656 C 128.582031 164.976562 128.039062 163.828125 127.550781 162.652344 C 127.066406 161.476562 126.636719 160.28125 126.269531 159.066406 C 125.898438 157.851562 125.589844 156.617188 125.34375 155.371094 C 125.09375 154.125 124.910156 152.867188 124.785156 151.601562 C 124.660156 150.335938 124.597656 149.070312 124.597656 147.796875 C 124.597656 146.527344 124.660156 145.257812 124.785156 143.992188 C 124.910156 142.726562 125.09375 141.472656 125.34375 140.226562 C 125.589844 138.976562 125.898438 137.746094 126.269531 136.53125 C 126.636719 135.3125 127.066406 134.117188 127.550781 132.941406 C 128.039062 131.769531 128.582031 130.621094 129.179688 129.5 C 129.78125 128.378906 130.433594 127.289062 131.140625 126.230469 C 131.84375 125.175781 132.601562 124.15625 133.410156 123.171875 C 134.214844 122.1875 135.066406 121.246094 135.964844 120.347656 C 136.867188 119.449219 137.804688 118.597656 138.789062 117.789062 C 139.773438 116.984375 140.792969 116.226562 141.847656 115.519531 C 142.90625 114.816406 143.996094 114.160156 145.117188 113.5625 C 146.238281 112.964844 147.386719 112.421875 148.558594 111.933594 C 149.734375 111.449219 150.929688 111.019531 152.148438 110.652344 C 153.363281 110.28125 154.59375 109.972656 155.84375 109.726562 C 157.089844 109.476562 158.34375 109.289062 159.609375 109.164062 C 160.875 109.042969 162.144531 108.980469 163.414062 108.980469 C 164.6875 108.980469 165.953125 109.042969 167.21875 109.164062 C 168.484375 109.289062 169.742188 109.476562 170.988281 109.722656 C 172.234375 109.972656 173.46875 110.28125 174.683594 110.648438 C 175.898438 111.019531 177.097656 111.445312 178.269531 111.933594 C 179.445312 112.421875 180.59375 112.960938 181.714844 113.5625 C 182.835938 114.160156 183.925781 114.8125 184.980469 115.519531 C 186.039062 116.226562 187.058594 116.984375 188.042969 117.789062 C 189.023438 118.597656 189.964844 119.449219 190.863281 120.347656 Z M 190.863281 120.347656 " fill-opacity="1" fill-rule="nonzero"/><path fill="#16436f" d="M 163.421875 187.683594 C 158.039062 187.683594 152.8125 186.628906 147.894531 184.546875 C 143.144531 182.539062 138.878906 179.664062 135.21875 176 C 131.554688 172.335938 128.679688 168.070312 126.671875 163.324219 C 124.589844 158.40625 123.535156 153.179688 123.535156 147.796875 C 123.535156 142.414062 124.589844 137.1875 126.671875 132.269531 C 128.679688 127.523438 131.554688 123.257812 135.21875 119.59375 C 138.878906 115.929688 143.144531 113.054688 147.894531 111.046875 C 152.8125 108.964844 158.039062 107.910156 163.421875 107.910156 C 168.804688 107.910156 174.027344 108.964844 178.945312 111.046875 C 183.695312 113.054688 187.960938 115.929688 191.625 119.59375 C 195.289062 123.257812 198.164062 127.523438 200.171875 132.269531 C 202.253906 137.1875 203.308594 142.414062 203.308594 147.796875 C 203.308594 153.179688 202.253906 158.40625 200.171875 163.324219 C 198.164062 168.070312 195.289062 172.335938 191.625 176 C 187.960938 179.664062 183.695312 182.539062 178.945312 184.546875 C 174.027344 186.628906 168.804688 187.683594 163.421875 187.683594 Z M 163.421875 110.046875 C 142.605469 110.046875 125.667969 126.980469 125.667969 147.796875 C 125.667969 168.613281 142.605469 185.550781 163.421875 185.550781 C 184.238281 185.550781 201.171875 168.613281 201.171875 147.796875 C 201.171875 126.980469 184.238281 110.046875 163.421875 110.046875 Z M 163.421875 110.046875 " fill-opacity="1" fill-rule="nonzero"/><path fill="#ffffff" d="M 147.398438 147.792969 L 142.003906 147.789062 Z M 147.398438 147.792969 " fill-opacity="1" fill-rule="nonzero"/><path fill="#16436f" d="M 147.398438 148.859375 L 142.003906 148.855469 C 141.417969 148.855469 140.9375 148.378906 140.9375 147.789062 C 140.9375 147.199219 141.417969 146.722656 142.007812 146.722656 L 147.402344 146.726562 C 147.988281 146.726562 148.46875 147.203125 148.46875 147.792969 C 148.464844 148.382812 147.988281 148.859375 147.398438 148.859375 Z M 147.398438 148.859375 " fill-opacity="1" fill-rule="nonzero"/><path fill="#ffffff" d="M 147.398438 156.492188 L 144.164062 159.722656 Z M 147.398438 156.492188 " fill-opacity="1" fill-rule="nonzero"/><path fill="#16436f" d="M 144.164062 160.789062 C 143.890625 160.789062 143.617188 160.683594 143.410156 160.476562 C 142.992188 160.058594 142.992188 159.382812 143.410156 158.96875 L 146.648438 155.738281 C 147.0625 155.324219 147.738281 155.324219 148.15625 155.738281 C 148.570312 156.15625 148.570312 156.832031 148.152344 157.25 L 144.917969 160.476562 C 144.710938 160.683594 144.4375 160.789062 144.164062 160.789062 Z M 144.164062 160.789062 " fill-opacity="1" fill-rule="nonzero"/><path fill="#ffffff" d="M 144.195312 135.871094 L 147.398438 139.085938 Z M 144.195312 135.871094 " fill-opacity="1" fill-rule="nonzero"/><path fill="#16436f" d="M 147.398438 140.152344 C 147.125 140.152344 146.851562 140.046875 146.644531 139.839844 L 143.441406 136.625 C 143.023438 136.207031 143.027344 135.53125 143.441406 135.117188 C 143.859375 134.699219 144.535156 134.703125 144.953125 135.117188 L 148.15625 138.332031 C 148.570312 138.75 148.570312 139.425781 148.152344 139.839844 C 147.945312 140.046875 147.671875 140.152344 147.398438 140.152344 Z M 147.398438 140.152344 " fill-opacity="1" fill-rule="nonzero"/><path fill="#16436f" d="M 170.664062 134.925781 L 156.683594 134.925781 C 156.097656 134.925781 155.617188 134.449219 155.617188 133.859375 C 155.617188 133.269531 156.097656 132.792969 156.683594 132.792969 L 170.664062 132.792969 C 171.253906 132.792969 171.730469 133.269531 171.730469 133.859375 C 171.730469 134.449219 171.253906 134.925781 170.664062 134.925781 Z M 170.664062 134.925781 " fill-opacity="1" fill-rule="nonzero"/><path fill="#16436f" d="M 170.6875 126.886719 L 156.660156 126.886719 C 156.074219 126.886719 155.59375 126.410156 155.59375 125.820312 C 155.59375 125.230469 156.074219 124.753906 156.660156 124.753906 L 170.6875 124.753906 C 171.277344 124.753906 171.757812 125.230469 171.757812 125.820312 C 171.757812 126.410156 171.277344 126.886719 170.6875 126.886719 Z M 170.6875 126.886719 " fill-opacity="1" fill-rule="nonzero"/><path fill="#16436f" d="M 170.632812 161.953125 L 156.71875 161.953125 C 156.128906 161.953125 155.652344 161.476562 155.652344 160.886719 C 155.652344 160.296875 156.128906 159.820312 156.71875 159.820312 L 170.632812 159.820312 C 171.222656 159.820312 171.699219 160.296875 171.699219 160.886719 C 171.699219 161.476562 171.222656 161.953125 170.632812 161.953125 Z M 170.632812 161.953125 " fill-opacity="1" fill-rule="nonzero"/><path fill="#16436f" d="M 170.683594 171.019531 L 156.671875 171.019531 C 156.082031 171.019531 155.601562 170.542969 155.601562 169.953125 C 155.601562 169.363281 156.082031 168.886719 156.671875 168.886719 L 170.683594 168.886719 C 171.269531 168.886719 171.75 169.363281 171.75 169.953125 C 171.75 170.542969 171.269531 171.019531 170.683594 171.019531 Z M 170.683594 171.019531 " fill-opacity="1" fill-rule="nonzero"/><path fill="#e7e6e6" d="M 149.164062 134.472656 C 149.164062 136.945312 149.640625 139.351562 150.574219 141.617188 L 151.363281 143.527344 L 159.59375 138.148438 L 159.082031 136.851562 C 158.613281 135.660156 158.375 134.398438 158.375 133.105469 L 158.375 122.554688 C 158.375 121.296875 157.878906 120.125 156.976562 119.25 C 156.074219 118.375 154.886719 117.914062 153.628906 117.953125 C 151.167969 118.027344 149.164062 120.144531 149.164062 122.675781 Z M 149.164062 134.472656 " fill-opacity="1" fill-rule="nonzero"/><path fill="#16436f" d="M 151.363281 144.59375 C 151.257812 144.59375 151.152344 144.578125 151.050781 144.546875 C 150.746094 144.453125 150.5 144.226562 150.378906 143.933594 L 149.589844 142.023438 C 148.601562 139.628906 148.097656 137.085938 148.097656 134.472656 L 148.097656 122.675781 C 148.097656 119.574219 150.566406 116.976562 153.597656 116.886719 C 155.148438 116.839844 156.609375 117.40625 157.71875 118.484375 C 158.828125 119.5625 159.441406 121.007812 159.441406 122.554688 L 159.441406 133.105469 C 159.441406 134.265625 159.652344 135.394531 160.074219 136.460938 L 160.585938 137.757812 C 160.773438 138.230469 160.601562 138.765625 160.179688 139.042969 L 151.949219 144.417969 C 151.773438 144.535156 151.570312 144.59375 151.363281 144.59375 Z M 153.773438 119.015625 C 153.734375 119.015625 153.699219 119.019531 153.660156 119.019531 C 151.769531 119.074219 150.230469 120.714844 150.230469 122.675781 L 150.230469 134.472656 C 150.230469 136.804688 150.679688 139.074219 151.5625 141.210938 L 151.859375 141.929688 L 158.28125 137.730469 L 158.089844 137.242188 C 157.570312 135.925781 157.308594 134.53125 157.308594 133.105469 L 157.308594 122.554688 C 157.308594 121.589844 156.925781 120.6875 156.234375 120.015625 C 155.566406 119.371094 154.695312 119.015625 153.773438 119.015625 Z M 153.773438 119.015625 " fill-opacity="1" fill-rule="nonzero"/><path fill="#e7e6e6" d="M 149.164062 173.039062 C 149.164062 175.578125 151.230469 177.644531 153.769531 177.644531 C 156.316406 177.644531 158.382812 175.578125 158.382812 173.039062 L 158.382812 161.96875 C 158.382812 158.351562 160.238281 155.074219 163.34375 153.203125 C 163.542969 153.082031 163.808594 153.082031 164.007812 153.203125 C 167.113281 155.074219 168.96875 158.351562 168.96875 161.96875 L 168.96875 173.039062 C 168.96875 175.578125 171.035156 177.644531 173.574219 177.644531 C 176.121094 177.644531 178.1875 175.578125 178.1875 173.039062 L 178.1875 160.605469 C 178.1875 156.636719 176.964844 152.847656 174.652344 149.648438 C 174.117188 148.90625 173.523438 148.203125 172.878906 147.539062 C 173.523438 146.878906 174.117188 146.171875 174.652344 145.425781 C 176.964844 142.222656 178.1875 138.433594 178.1875 134.472656 L 178.1875 122.554688 C 178.1875 121.296875 177.664062 120.082031 176.75 119.214844 C 175.824219 118.335938 174.613281 117.890625 173.335938 117.957031 C 170.890625 118.085938 168.976562 120.175781 168.976562 122.71875 L 168.976562 133.105469 C 168.976562 136.710938 167.132812 139.976562 164.046875 141.851562 L 158.4375 144.832031 C 156.421875 145.902344 154.691406 147.273438 153.292969 148.90625 C 153.066406 149.167969 152.867188 149.421875 152.703125 149.644531 C 151.851562 150.824219 151.140625 152.09375 150.585938 153.433594 C 149.644531 155.707031 149.164062 158.121094 149.164062 160.605469 Z M 149.164062 173.039062 " fill-opacity="1" fill-rule="nonzero"/><path fill="#16436f" d="M 173.574219 178.710938 C 170.445312 178.710938 167.902344 176.167969 167.902344 173.039062 L 167.902344 161.96875 C 167.902344 158.8125 166.328125 155.949219 163.675781 154.25 C 161.023438 155.949219 159.449219 158.8125 159.449219 161.96875 L 159.449219 173.039062 C 159.449219 176.167969 156.902344 178.710938 153.769531 178.710938 C 150.640625 178.710938 148.097656 176.167969 148.097656 173.039062 L 148.097656 160.605469 C 148.097656 157.980469 148.605469 155.429688 149.601562 153.023438 C 150.1875 151.609375 150.941406 150.261719 151.839844 149.019531 C 152.023438 148.765625 152.238281 148.496094 152.480469 148.210938 C 153.96875 146.476562 155.804688 145.023438 157.9375 143.890625 L 163.515625 140.925781 C 166.269531 139.242188 167.910156 136.324219 167.910156 133.105469 L 167.910156 122.71875 C 167.910156 119.609375 170.269531 117.050781 173.28125 116.890625 C 174.855469 116.808594 176.347656 117.359375 177.484375 118.441406 C 178.609375 119.507812 179.253906 121.007812 179.253906 122.554688 L 179.253906 134.472656 C 179.253906 138.660156 177.960938 142.664062 175.519531 146.050781 C 175.148438 146.5625 174.753906 147.0625 174.332031 147.539062 C 174.753906 148.019531 175.148438 148.515625 175.515625 149.027344 C 177.960938 152.40625 179.253906 156.414062 179.253906 160.605469 L 179.253906 173.039062 C 179.253906 176.167969 176.707031 178.710938 173.574219 178.710938 Z M 163.675781 152.046875 C 163.984375 152.046875 164.289062 152.125 164.558594 152.289062 C 167.988281 154.355469 170.035156 157.972656 170.035156 161.96875 L 170.035156 173.039062 C 170.035156 174.988281 171.625 176.578125 173.574219 176.578125 C 175.527344 176.578125 177.121094 174.988281 177.121094 173.039062 L 177.121094 160.605469 C 177.121094 156.863281 175.96875 153.292969 173.785156 150.273438 C 173.285156 149.578125 172.722656 148.90625 172.113281 148.285156 C 171.710938 147.871094 171.710938 147.210938 172.113281 146.796875 C 172.71875 146.171875 173.285156 145.503906 173.789062 144.804688 C 175.96875 141.78125 177.121094 138.210938 177.121094 134.472656 L 177.121094 122.554688 C 177.121094 121.589844 176.71875 120.652344 176.015625 119.988281 C 175.304688 119.3125 174.371094 118.972656 173.390625 119.023438 C 171.515625 119.121094 170.042969 120.742188 170.042969 122.71875 L 170.042969 133.105469 C 170.042969 137.085938 168.007812 140.695312 164.597656 142.765625 C 164.582031 142.773438 164.5625 142.785156 164.546875 142.792969 L 158.9375 145.773438 C 157.039062 146.78125 155.414062 148.070312 154.101562 149.601562 C 153.898438 149.835938 153.710938 150.070312 153.566406 150.273438 C 152.765625 151.378906 152.09375 152.578125 151.570312 153.839844 C 150.683594 155.988281 150.230469 158.261719 150.230469 160.605469 L 150.230469 173.039062 C 150.230469 174.988281 151.820312 176.578125 153.769531 176.578125 C 155.726562 176.578125 157.316406 174.988281 157.316406 173.039062 L 157.316406 161.96875 C 157.316406 157.972656 159.363281 154.355469 162.792969 152.289062 C 163.0625 152.125 163.367188 152.046875 163.675781 152.046875 Z M 163.675781 152.046875 " fill-opacity="1" fill-rule="nonzero"/></svg>