<svg xmlns="http://www.w3.org/2000/svg" xmlns:xlink="http://www.w3.org/1999/xlink" width="300" zoomAndPan="magnify" viewBox="0 0 224.87999 225" height="300" preserveAspectRatio="xMidYMid meet" version="1.0"><defs><clipPath id="8831ce9782"><path d="M 19.429688 7.253906 L 205.328125 7.253906 L 205.328125 217.890625 L 19.429688 217.890625 Z M 19.429688 7.253906 " clip-rule="nonzero"/></clipPath></defs><g clip-path="url(#8831ce9782)"><path fill="#16436f" d="M 205.402344 131.136719 C 205.402344 129.511719 204.730469 126.210938 203.230469 123.960938 L 185.304688 97.078125 C 184.984375 96.59375 184.921875 95.980469 185.144531 95.441406 C 187.445312 89.785156 189.617188 84.449219 189.617188 79.167969 C 189.617188 74.210938 177.96875 45.375 173.390625 37.125 C 162.847656 18.140625 138.074219 7.253906 105.421875 7.253906 C 56.445312 7.253906 19.496094 42.832031 19.472656 90.011719 C 19.460938 115.667969 29.046875 139.320312 45.78125 154.917969 C 48.011719 156.996094 49.292969 159.839844 49.292969 162.722656 L 49.292969 214.230469 C 49.292969 216.167969 50.863281 217.738281 52.800781 217.738281 C 54.738281 217.738281 56.308594 216.167969 56.308594 214.230469 L 56.308594 162.71875 C 56.308594 157.898438 54.214844 153.183594 50.5625 149.785156 C 35.253906 135.511719 26.476562 113.726562 26.488281 90.015625 C 26.511719 46.832031 60.445312 14.269531 105.421875 14.269531 C 135.449219 14.269531 157.988281 23.84375 167.253906 40.53125 C 172.320312 49.652344 182.304688 75.890625 182.597656 79.167969 C 182.597656 83.074219 180.765625 87.578125 178.644531 92.796875 C 177.546875 95.496094 177.855469 98.550781 179.46875 100.972656 L 197.390625 127.855469 C 197.949219 128.691406 198.378906 130.535156 198.382812 131.136719 C 198.382812 135.5 195.328125 137.054688 192.46875 137.054688 L 184.355469 137.054688 C 183.355469 137.054688 182.40625 137.476562 181.738281 138.222656 C 181.074219 138.964844 180.757812 139.957031 180.867188 140.949219 L 182.257812 153.476562 C 182.335938 154.179688 182.019531 154.855469 181.433594 155.246094 L 178.898438 156.9375 C 177.289062 158.011719 176.851562 160.1875 177.925781 161.800781 L 179.25 163.785156 C 179.707031 164.46875 179.667969 165.359375 179.15625 166 L 176.296875 169.574219 C 174.523438 171.789062 173.933594 174.738281 174.710938 177.460938 L 176.316406 183.054688 C 176.855469 184.921875 176.730469 186.863281 175.894531 188.8125 C 174.417969 192.261719 170.796875 194.261719 167.085938 193.683594 L 119.234375 186.164062 C 107.183594 184.269531 97.191406 175.480469 93.777344 163.769531 L 92.863281 160.636719 C 92.320312 158.773438 90.371094 157.707031 88.511719 158.253906 C 86.652344 158.792969 85.585938 160.742188 86.128906 162.601562 L 87.039062 165.738281 C 91.214844 180.042969 103.421875 190.78125 118.144531 193.09375 L 133.484375 195.503906 L 133.484375 214.230469 C 133.484375 216.167969 135.058594 217.738281 136.996094 217.738281 C 138.929688 217.738281 140.503906 216.167969 140.503906 214.230469 L 140.503906 196.609375 L 165.996094 200.613281 C 172.878906 201.695312 179.601562 197.980469 182.40625 191.4375 C 183.804688 188.167969 184.035156 184.503906 183.058594 181.113281 L 181.457031 175.53125 C 181.300781 174.988281 181.417969 174.402344 181.773438 173.960938 L 184.632812 170.386719 C 186.828125 167.640625 187.1875 163.9375 185.648438 160.859375 C 188.21875 158.980469 189.585938 155.890625 189.230469 152.703125 L 188.273438 144.070312 L 192.46875 144.070312 C 199.960938 144.070312 205.402344 138.628906 205.402344 131.136719 Z M 205.402344 131.136719 " fill-opacity="1" fill-rule="nonzero"/></g><path fill="#16436f" d="M 72.972656 128.28125 L 91.390625 128.28125 C 93.324219 128.28125 94.898438 126.710938 94.898438 124.773438 C 94.898438 122.839844 93.324219 121.265625 91.390625 121.265625 L 72.972656 121.265625 C 69.585938 121.265625 66.832031 118.511719 66.832031 115.128906 C 66.832031 111.742188 69.585938 108.988281 72.972656 108.988281 L 89.636719 108.988281 C 91.570312 108.988281 93.144531 107.417969 93.144531 105.480469 C 93.144531 103.542969 91.570312 101.972656 89.636719 101.972656 L 72.972656 101.972656 C 65.71875 101.972656 59.816406 107.871094 59.816406 115.128906 C 59.816406 122.382812 65.71875 128.28125 72.972656 128.28125 Z M 72.972656 128.28125 " fill-opacity="1" fill-rule="nonzero"/><path fill="#16436f" d="M 73.847656 182.660156 C 75.785156 182.660156 77.355469 181.085938 77.355469 179.148438 L 77.355469 152.839844 C 77.355469 146.070312 82.863281 140.5625 89.636719 140.5625 L 100.160156 140.5625 C 110.796875 140.5625 119.453125 131.90625 119.453125 121.265625 C 119.453125 116.113281 117.449219 111.265625 113.800781 107.625 C 112.433594 106.253906 110.210938 106.253906 108.839844 107.625 C 107.46875 108.992188 107.46875 111.214844 108.839844 112.585938 C 111.160156 114.90625 112.4375 117.988281 112.4375 121.265625 C 112.4375 128.039062 106.929688 133.546875 100.160156 133.546875 L 89.636719 133.546875 C 78.996094 133.546875 70.339844 142.203125 70.339844 152.839844 L 70.339844 179.148438 C 70.339844 181.085938 71.914062 182.660156 73.847656 182.660156 Z M 73.847656 182.660156 " fill-opacity="1" fill-rule="nonzero"/><path fill="#16436f" d="M 31.75 91.449219 C 31.75 103.054688 41.195312 112.496094 52.800781 112.496094 C 54.738281 112.496094 56.308594 110.925781 56.308594 108.988281 C 56.308594 107.050781 54.738281 105.480469 52.800781 105.480469 C 45.0625 105.480469 38.769531 99.183594 38.769531 91.449219 C 38.769531 85.367188 42.652344 80.011719 48.4375 78.117188 C 49.492188 77.773438 50.320312 76.949219 50.671875 75.894531 C 51.023438 74.84375 50.855469 73.683594 50.222656 72.773438 C 48.464844 70.261719 47.539062 67.316406 47.539062 64.261719 C 47.539062 56.039062 54.226562 49.351562 62.449219 49.351562 C 63.078125 49.351562 63.757812 49.40625 64.589844 49.527344 C 65.613281 49.671875 66.636719 49.363281 67.410156 48.6875 C 68.179688 48.003906 68.613281 47.019531 68.597656 45.992188 L 68.585938 45.84375 C 68.585938 41.007812 72.519531 37.074219 77.355469 37.074219 C 78.785156 37.074219 80.15625 37.410156 81.425781 38.078125 C 82.394531 38.585938 83.539062 38.613281 84.53125 38.15625 C 85.523438 37.699219 86.242188 36.804688 86.480469 35.742188 C 87.902344 29.398438 93.65625 24.792969 100.160156 24.792969 C 106.417969 24.792969 111.96875 29.007812 113.65625 35.039062 C 113.976562 36.183594 114.855469 37.085938 115.988281 37.4375 C 117.125 37.792969 118.359375 37.550781 119.273438 36.789062 C 121.785156 34.710938 124.960938 33.566406 128.222656 33.566406 C 135.960938 33.566406 142.257812 39.859375 142.257812 47.597656 C 142.257812 50.0625 141.589844 52.503906 140.335938 54.652344 C 139.714844 55.714844 139.695312 57.019531 140.28125 58.09375 C 140.867188 59.171875 141.96875 59.867188 143.195312 59.925781 C 153.488281 60.421875 161.550781 68.875 161.550781 79.167969 C 161.550781 89.808594 152.894531 98.464844 142.257812 98.464844 C 140.128906 98.464844 138 98.097656 135.921875 97.375 C 134.984375 97.046875 133.949219 97.136719 133.074219 97.617188 C 132.203125 98.097656 131.578125 98.925781 131.351562 99.894531 C 130.480469 103.648438 128.0625 106.914062 124.71875 108.859375 C 123.042969 109.832031 122.472656 111.980469 123.449219 113.65625 C 124.097656 114.773438 125.277344 115.402344 126.484375 115.402344 C 127.082031 115.402344 127.6875 115.25 128.242188 114.925781 C 132.195312 112.632812 135.28125 109.101562 137.050781 104.949219 C 138.773438 105.300781 140.515625 105.480469 142.257812 105.480469 C 156.765625 105.480469 168.566406 93.675781 168.566406 79.167969 C 168.566406 66.792969 160.023438 56.367188 148.386719 53.605469 C 148.972656 51.660156 149.273438 49.636719 149.273438 47.597656 C 149.273438 35.992188 139.832031 26.546875 128.222656 26.546875 C 124.890625 26.546875 121.613281 27.347656 118.671875 28.84375 C 115.054688 22.15625 107.976562 17.777344 100.160156 17.777344 C 91.585938 17.777344 84.113281 22.828125 80.847656 30.453125 C 79.703125 30.191406 78.53125 30.054688 77.355469 30.054688 C 69.855469 30.054688 63.558594 35.316406 61.960938 42.339844 C 50.09375 42.601562 40.523438 52.332031 40.523438 64.261719 C 40.523438 67.351562 41.164062 70.363281 42.40625 73.144531 C 35.898438 76.828125 31.75 83.75 31.75 91.449219 Z M 31.75 91.449219 " fill-opacity="1" fill-rule="nonzero"/><path fill="#16436f" d="M 70.339844 86.1875 C 71.753906 86.1875 73.027344 85.339844 73.574219 84.039062 L 84.105469 59.027344 L 98.609375 99.644531 C 99.082031 100.957031 100.285156 101.867188 101.675781 101.960938 C 101.753906 101.96875 101.835938 101.972656 101.914062 101.972656 C 103.214844 101.972656 104.417969 101.246094 105.023438 100.082031 L 118.609375 73.949219 L 125.25 84.539062 C 125.894531 85.566406 127.015625 86.1875 128.222656 86.1875 L 149.273438 86.1875 C 151.210938 86.1875 152.78125 84.613281 152.78125 82.679688 C 152.78125 80.742188 151.210938 79.167969 149.273438 79.167969 L 130.164062 79.167969 L 121.296875 65.027344 C 120.628906 63.964844 119.445312 63.335938 118.183594 63.386719 C 116.925781 63.4375 115.792969 64.160156 115.210938 65.273438 L 102.511719 89.707031 L 87.675781 48.171875 C 87.191406 46.808594 85.917969 45.882812 84.472656 45.84375 C 83.027344 45.804688 81.703125 46.65625 81.140625 47.988281 L 68.011719 79.167969 L 58.0625 79.167969 C 56.125 79.167969 54.554688 80.742188 54.554688 82.679688 C 54.554688 84.613281 56.125 86.1875 58.0625 86.1875 Z M 70.339844 86.1875 " fill-opacity="1" fill-rule="nonzero"/></svg>