<svg xmlns="http://www.w3.org/2000/svg" xmlns:xlink="http://www.w3.org/1999/xlink" width="300" zoomAndPan="magnify" viewBox="0 0 224.87999 225" height="300" preserveAspectRatio="xMidYMid meet" version="1.0"><path fill="#16436f" d="M 187.703125 83.867188 C 182.433594 83.867188 177.824219 88.148438 177.824219 93.746094 L 177.824219 112.507812 C 177.824219 117.777344 175.851562 123.042969 172.230469 126.664062 L 150.5 149.710938 C 145.5625 154.976562 137.332031 150.039062 139.96875 147.734375 L 156.757812 130.945312 C 161.695312 126.007812 161.695312 117.777344 156.757812 112.507812 C 153.464844 109.21875 151.488281 115.472656 130.421875 135.226562 C 116.265625 149.378906 123.507812 165.511719 121.53125 202.710938 C 121.53125 203.371094 121.859375 203.699219 122.519531 203.699219 L 153.136719 203.699219 C 153.792969 203.699219 154.121094 203.371094 154.121094 202.710938 L 154.121094 190.53125 C 154.121094 175.386719 164.988281 169.792969 182.761719 145.757812 C 196.261719 132.261719 189.675781 116.789062 191.324219 87.820312 C 191.324219 85.515625 189.675781 83.867188 187.703125 83.867188 Z M 187.703125 83.867188 " fill-opacity="1" fill-rule="nonzero"/><path fill="#16436f" d="M 68.859375 203.039062 C 68.859375 203.699219 69.1875 204.027344 69.847656 204.027344 L 100.132812 204.027344 C 100.792969 204.027344 101.121094 203.699219 101.121094 203.039062 C 99.144531 166.828125 106.386719 150.699219 92.234375 136.871094 L 69.847656 114.484375 C 69.519531 113.828125 68.859375 113.828125 68.199219 113.828125 C 67.542969 113.828125 66.882812 114.15625 66.554688 114.484375 C 61.617188 119.421875 61.617188 127.652344 66.554688 132.589844 C 82.6875 149.050781 84.992188 149.710938 83.015625 151.355469 C 80.050781 154.320312 75.445312 154.320312 72.480469 151.027344 C 56.019531 131.601562 45.484375 127.324219 45.484375 114.15625 L 45.484375 95.71875 C 45.484375 93.085938 44.5 90.78125 42.523438 88.808594 C 40.878906 87.160156 38.242188 85.84375 35.609375 85.84375 C 33.632812 85.84375 31.988281 87.492188 31.988281 89.464844 C 33.632812 117.777344 27.050781 133.25 40.546875 146.746094 L 62.933594 174.070312 C 66.882812 178.679688 68.859375 184.605469 68.859375 190.859375 Z M 68.859375 203.039062 " fill-opacity="1" fill-rule="nonzero"/><path fill="#16436f" d="M 104.085938 209.296875 L 65.566406 209.296875 C 64.910156 209.296875 64.578125 209.625 64.578125 210.28125 L 64.578125 218.84375 C 64.578125 219.5 64.910156 219.828125 65.566406 219.828125 L 103.753906 219.828125 C 104.414062 219.828125 104.742188 219.5 104.742188 218.84375 L 104.742188 210.28125 C 105.070312 209.953125 104.414062 209.296875 104.085938 209.296875 Z M 104.085938 209.296875 " fill-opacity="1" fill-rule="nonzero"/><path fill="#16436f" d="M 156.757812 209.296875 L 118.570312 209.296875 C 117.910156 209.296875 117.582031 209.625 117.582031 210.28125 L 117.582031 218.84375 C 117.582031 219.5 117.910156 219.828125 118.570312 219.828125 L 156.757812 219.828125 C 157.414062 219.828125 157.746094 219.5 157.746094 218.84375 L 157.746094 210.28125 C 157.746094 209.953125 157.414062 209.296875 156.757812 209.296875 Z M 156.757812 209.296875 " fill-opacity="1" fill-rule="nonzero"/><path fill="#16436f" d="M 137.664062 115.144531 C 145.894531 116.789062 154.453125 109.546875 153.136719 100.328125 C 149.84375 100.988281 140.953125 100.660156 141.941406 98.023438 C 142.273438 97.367188 142.929688 97.039062 143.589844 97.039062 C 160.707031 102.304688 167.949219 84.855469 159.390625 75.96875 C 166.304688 70.371094 165.972656 59.835938 158.402344 54.570312 C 163.339844 47.328125 159.71875 37.121094 151.488281 34.488281 C 151.160156 36.792969 149.183594 43.378906 147.210938 42.058594 C 146.550781 41.730469 146.222656 40.742188 146.878906 40.414062 C 146.878906 40.414062 148.527344 37.78125 149.183594 34.160156 C 152.148438 24.285156 143.589844 15.066406 134.371094 17.039062 C 130.089844 8.8125 119.226562 7.492188 113.300781 13.417969 L 113.300781 52.265625 C 114.289062 51.605469 114.949219 50.621094 115.277344 49.632812 C 115.605469 48.972656 116.265625 48.644531 116.921875 48.972656 C 117.582031 49.300781 117.910156 49.960938 117.582031 50.621094 C 116.921875 52.59375 115.277344 54.242188 113.300781 55.226562 L 113.300781 79.261719 C 115.605469 80.246094 117.582031 81.894531 118.570312 84.527344 C 118.898438 85.1875 118.570312 85.84375 117.910156 86.171875 C 117.910156 86.171875 117.582031 86.171875 117.582031 86.171875 C 116.921875 86.171875 116.59375 85.84375 116.265625 85.1875 C 115.605469 83.867188 114.617188 82.550781 113.300781 81.894531 L 113.300781 116.460938 C 118.570312 126.996094 133.710938 126.007812 137.664062 115.144531 Z M 150.5 46.339844 C 154.78125 52.265625 152.476562 59.507812 150.171875 59.507812 C 149.84375 59.507812 149.84375 59.507812 149.515625 59.179688 C 148.855469 58.847656 148.855469 57.863281 149.183594 57.53125 C 152.148438 52.925781 148.527344 47.984375 148.527344 47.984375 C 147.210938 46.339844 149.515625 45.023438 150.5 46.339844 Z M 148.199219 75.96875 C 156.097656 73.992188 159.0625 67.078125 156.757812 60.167969 C 156.425781 59.507812 157.085938 58.847656 157.746094 58.519531 C 160.707031 57.53125 161.695312 69.054688 156.097656 74.652344 C 162.023438 82.882812 156.425781 92.097656 153.792969 92.097656 C 152.476562 92.097656 152.148438 90.453125 153.136719 89.792969 C 156.757812 87.160156 157.746094 81.566406 154.121094 76.296875 C 152.804688 77.285156 150.832031 77.945312 148.855469 78.601562 C 148.855469 78.601562 148.527344 78.601562 148.527344 78.601562 C 147.867188 78.601562 147.539062 78.273438 147.210938 77.613281 C 147.210938 76.957031 147.539062 76.296875 148.199219 75.96875 Z M 146.878906 83.210938 C 148.199219 85.1875 147.867188 88.148438 146.222656 89.792969 C 144.574219 91.441406 142.273438 91.441406 140.625 92.097656 C 138.652344 92.757812 138.320312 94.402344 138.652344 95.0625 C 139.308594 96.050781 138.652344 97.039062 137.664062 97.039062 C 135.6875 97.039062 134.371094 91.769531 139.636719 89.792969 C 140.296875 89.464844 140.953125 89.464844 141.613281 89.136719 C 142.601562 88.808594 143.917969 88.476562 144.574219 87.820312 C 145.5625 87.160156 145.5625 85.515625 144.90625 84.527344 C 144.574219 83.867188 144.574219 83.210938 145.234375 82.550781 C 145.894531 82.550781 146.550781 82.550781 146.878906 83.210938 Z M 146.222656 52.59375 C 146.222656 53.253906 145.5625 53.910156 144.90625 53.910156 C 140.296875 53.582031 136.675781 55.558594 134.042969 57.863281 C 139.308594 60.167969 144.246094 62.472656 145.5625 66.421875 C 145.894531 67.078125 145.5625 67.738281 144.90625 68.066406 C 144.90625 68.066406 144.574219 68.066406 144.574219 68.066406 C 143.917969 68.066406 143.589844 67.738281 143.257812 67.078125 C 141.941406 63.789062 135.027344 61.152344 131.40625 59.179688 C 131.078125 58.847656 125.152344 56.875 124.164062 46.667969 C 124.164062 45.023438 126.46875 44.695312 126.800781 46.339844 C 127.128906 49.632812 128.117188 53.910156 131.738281 56.214844 C 134.699219 53.582031 139.636719 50.621094 145.5625 50.949219 C 145.894531 51.277344 146.550781 51.605469 146.222656 52.59375 Z M 129.433594 37.453125 C 128.445312 36.132812 130.421875 34.488281 131.40625 35.804688 C 136.015625 42.390625 133.054688 50.289062 130.421875 48.644531 C 129.761719 48.316406 129.761719 47.328125 130.089844 47 C 133.054688 42.71875 129.433594 37.453125 129.433594 37.453125 Z M 117.253906 17.699219 C 115.605469 15.394531 121.859375 13.089844 126.46875 16.710938 C 131.078125 20.003906 131.738281 26.257812 135.6875 29.550781 C 137.332031 30.867188 139.636719 31.527344 141.613281 30.207031 C 143.589844 28.890625 145.5625 33.5 139.636719 33.5 C 135.359375 33.5 132.394531 30.539062 130.421875 26.585938 C 128.117188 33.171875 121.203125 30.207031 120.875 36.792969 C 120.875 37.453125 120.214844 38.109375 119.554688 38.109375 C 118.898438 38.109375 118.238281 37.453125 118.238281 36.792969 C 118.238281 33.832031 119.886719 30.867188 124.164062 29.222656 C 124.496094 28.890625 125.152344 28.890625 125.480469 28.5625 C 127.457031 27.574219 128.445312 24.941406 128.117188 22.964844 C 128.117188 22.964844 128.117188 22.964844 128.117188 22.636719 C 127.128906 21.320312 126.46875 20.003906 125.152344 19.015625 C 123.507812 17.699219 120.875 17.039062 119.226562 18.359375 C 118.238281 18.6875 117.582031 18.359375 117.253906 17.699219 Z M 117.253906 64.773438 C 118.570312 62.472656 121.859375 61.8125 124.824219 64.773438 C 126.140625 66.09375 127.128906 67.738281 128.445312 68.398438 C 131.078125 69.382812 131.40625 65.761719 133.382812 66.75 C 135.6875 68.066406 132.066406 71.03125 129.433594 71.03125 C 127.128906 71.03125 125.8125 69.382812 124.164062 67.738281 C 123.507812 66.75 122.519531 65.433594 121.203125 65.433594 C 120.542969 65.433594 119.886719 65.761719 119.886719 66.09375 C 119.554688 66.75 118.898438 67.078125 118.238281 66.75 C 117.253906 66.09375 116.921875 65.433594 117.253906 64.773438 Z M 118.238281 77.285156 C 117.910156 76.625 118.238281 75.96875 118.898438 75.640625 C 125.152344 73.335938 129.761719 76.296875 132.394531 81.894531 C 136.675781 79.589844 141.285156 79.917969 142.601562 76.957031 C 142.929688 75.96875 142.929688 74.652344 142.273438 73.335938 C 141.941406 72.675781 142.273438 72.019531 142.929688 71.6875 C 143.589844 71.359375 144.246094 71.6875 144.574219 72.347656 C 145.5625 74.652344 145.894531 76.625 144.90625 78.273438 C 143.589844 80.90625 140.953125 81.894531 138.652344 82.550781 C 136.015625 83.210938 134.042969 83.867188 132.394531 85.1875 C 130.75 86.171875 129.433594 87.492188 129.101562 88.808594 C 128.773438 89.464844 128.773438 90.453125 128.773438 91.441406 C 128.773438 92.097656 128.117188 92.757812 127.457031 92.757812 C 126.800781 92.757812 126.140625 92.097656 126.140625 91.441406 C 126.140625 88.148438 127.785156 85.515625 130.421875 83.539062 C 128.445312 78.929688 125.152344 76.625 120.214844 78.273438 C 119.226562 78.273438 118.238281 77.945312 118.238281 77.285156 Z M 120.214844 118.433594 C 120.875 115.472656 126.140625 121.070312 130.089844 111.191406 C 126.140625 109.875 122.847656 106.253906 120.214844 100.660156 C 119.886719 100 120.214844 99.339844 120.875 99.011719 C 121.53125 98.683594 122.191406 99.011719 122.519531 99.671875 C 127.128906 108.886719 135.027344 112.839844 142.601562 105.925781 C 143.257812 105.597656 143.917969 105.597656 144.574219 105.925781 C 146.878906 108.230469 137.664062 112.507812 132.726562 111.851562 C 128.445312 122.386719 119.886719 120.738281 120.214844 118.433594 Z M 120.214844 118.433594 " fill-opacity="1" fill-rule="nonzero"/><path fill="#16436f" d="M 88.941406 16.710938 C 80.050781 15.066406 71.164062 23.625 74.125 33.832031 C 74.785156 37.453125 76.429688 40.085938 76.429688 40.085938 C 77.417969 41.730469 75.113281 42.71875 74.125 41.402344 C 74.125 41.074219 72.480469 38.109375 71.492188 34.160156 C 66.226562 35.804688 62.273438 40.742188 62.273438 46.667969 C 62.273438 49.300781 63.261719 51.9375 64.578125 53.910156 C 61.289062 56.214844 58.984375 60.167969 58.984375 64.773438 C 58.984375 69.054688 60.957031 72.675781 63.921875 74.980469 C 61.617188 77.285156 60.300781 80.578125 60.300781 84.199219 C 60.300781 89.792969 63.59375 94.402344 68.199219 96.378906 C 75.773438 99.339844 80.382812 94.402344 81.367188 97.039062 C 82.027344 99.339844 75.113281 99.671875 73.46875 99.671875 C 72.480469 99.671875 71.164062 99.671875 69.847656 99.339844 C 69.847656 100 69.847656 100.328125 69.847656 100.988281 C 69.847656 109.546875 77.746094 115.800781 85.648438 114.15625 C 89.597656 125.019531 104.742188 126.007812 110.007812 115.800781 L 110.007812 82.222656 C 107.046875 83.867188 107.375 86.832031 105.402344 86.171875 C 102.765625 85.1875 106.71875 80.578125 110.007812 79.261719 L 110.007812 55.558594 C 108.035156 54.570312 106.386719 52.925781 105.730469 50.949219 C 105.402344 50.289062 105.730469 49.632812 106.386719 49.300781 C 107.046875 48.972656 107.707031 49.300781 108.035156 49.960938 C 108.363281 50.949219 109.023438 51.9375 110.007812 52.59375 L 110.007812 13.089844 C 104.085938 7.164062 93.21875 8.480469 88.941406 16.710938 Z M 91.902344 56.214844 C 95.523438 53.910156 96.511719 49.632812 96.839844 46.339844 C 96.839844 45.679688 97.5 45.023438 98.160156 45.023438 C 98.816406 45.023438 99.476562 45.679688 99.476562 46.339844 C 98.816406 56.546875 92.5625 58.519531 92.234375 58.847656 C 88.613281 60.824219 81.699219 63.128906 80.382812 66.75 C 79.394531 69.382812 71.820312 65.433594 89.269531 57.53125 C 81.367188 51.277344 77.089844 55.226562 76.761719 52.59375 C 76.761719 49.300781 86.308594 51.605469 91.902344 56.214844 Z M 93.21875 47 C 93.550781 47.65625 93.550781 48.316406 92.890625 48.644531 C 92.5625 48.972656 92.234375 48.972656 91.902344 48.972656 C 91.574219 48.972656 90.914062 48.644531 90.914062 48.316406 C 87.292969 42.390625 91.574219 36.132812 91.902344 35.804688 C 92.234375 35.148438 93.21875 35.148438 93.878906 35.476562 C 94.539062 35.804688 94.539062 36.792969 94.207031 37.453125 C 93.878906 37.453125 90.257812 42.71875 93.21875 47 Z M 72.808594 46.339844 C 73.140625 45.679688 74.125 45.679688 74.785156 46.011719 C 77.089844 47.65625 70.503906 51.605469 74.457031 57.53125 C 75.445312 58.847656 73.140625 60.496094 72.152344 58.847656 C 68.199219 52.925781 72.808594 46.667969 72.808594 46.339844 Z M 69.1875 76.296875 C 65.566406 81.566406 66.882812 87.160156 70.175781 89.792969 C 70.835938 90.125 70.835938 91.113281 70.503906 91.769531 C 70.175781 92.429688 69.1875 92.429688 68.53125 92.097656 C 63.921875 88.476562 62.273438 81.566406 66.882812 74.980469 C 60.957031 69.382812 62.605469 58.191406 65.238281 58.847656 C 67.871094 59.507812 63.261719 64.445312 67.214844 71.03125 C 70.503906 76.957031 76.429688 74.980469 75.773438 77.613281 C 75.445312 79.917969 70.835938 77.285156 69.1875 76.296875 Z M 77.089844 89.792969 C 73.796875 86.832031 76.101562 81.234375 78.078125 82.882812 C 79.722656 84.199219 76.429688 85.84375 78.734375 87.820312 C 79.722656 88.808594 81.699219 88.808594 83.34375 89.464844 C 89.597656 91.769531 86.964844 98.355469 84.660156 96.707031 C 83.015625 95.390625 86.636719 93.414062 82.355469 92.097656 C 80.710938 91.441406 78.734375 91.441406 77.089844 89.792969 Z M 103.097656 100.660156 C 100.460938 106.253906 96.839844 109.546875 93.21875 111.191406 C 97.171875 121.070312 102.4375 115.472656 103.097656 118.433594 C 103.425781 120.738281 94.867188 122.386719 90.585938 111.851562 C 86.308594 112.507812 76.429688 108.558594 78.734375 105.925781 C 80.710938 103.949219 83.34375 110.535156 90.914062 109.21875 C 91.574219 108.886719 96.183594 108.886719 100.792969 99.671875 C 101.121094 99.011719 101.78125 98.683594 102.4375 99.011719 C 103.097656 99.339844 103.425781 100 103.097656 100.660156 Z M 103.425781 78.273438 C 98.488281 76.625 95.195312 78.929688 93.21875 83.539062 C 95.855469 85.515625 97.5 88.148438 97.5 91.441406 C 97.5 92.097656 96.839844 92.757812 96.183594 92.757812 C 95.523438 92.757812 94.867188 92.097656 94.867188 91.441406 C 94.867188 90.453125 94.867188 89.792969 94.539062 88.808594 C 93.878906 87.492188 92.890625 86.171875 91.246094 85.1875 C 89.597656 84.199219 87.625 83.210938 84.992188 82.550781 C 79.394531 81.234375 76.761719 77.613281 79.066406 72.347656 C 79.722656 70.699219 82.027344 72.019531 81.367188 73.335938 C 78.40625 79.917969 86.308594 79.589844 90.914062 81.894531 C 93.21875 76.296875 98.160156 73.335938 104.414062 75.640625 C 106.058594 76.296875 105.070312 78.601562 103.425781 78.273438 Z M 106.058594 64.773438 C 106.386719 65.433594 106.058594 66.09375 105.402344 66.421875 C 103.753906 67.410156 103.753906 65.105469 102.109375 65.433594 C 99.144531 65.761719 98.160156 71.03125 93.878906 71.03125 C 90.914062 71.03125 87.625 68.066406 89.929688 66.75 C 92.234375 65.433594 92.5625 71.6875 97.171875 66.09375 C 101.121094 61.484375 104.742188 62.140625 106.058594 64.773438 Z M 104.414062 18.027344 C 102.4375 16.710938 98.816406 17.039062 95.523438 22.308594 C 94.867188 28.234375 98.488281 28.234375 101.121094 29.550781 C 103.753906 30.867188 105.402344 33.5 105.402344 36.464844 C 105.402344 37.121094 104.742188 37.78125 104.085938 37.78125 C 103.425781 37.78125 102.765625 37.121094 102.765625 36.464844 C 102.765625 34.488281 101.449219 32.84375 99.804688 31.855469 C 99.476562 31.527344 98.816406 31.527344 98.488281 31.195312 C 96.183594 30.207031 94.207031 29.222656 93.21875 26.257812 C 87.292969 36.792969 78.40625 32.84375 80.050781 30.207031 C 81.699219 28.234375 85.320312 36.132812 91.902344 23.625 C 93.21875 21.320312 94.539062 18.6875 96.839844 16.710938 C 99.144531 15.066406 102.765625 14.078125 105.730469 16.054688 C 107.375 17.039062 105.730469 19.015625 104.414062 18.027344 Z M 104.414062 18.027344 " fill-opacity="1" fill-rule="nonzero"/><path fill="#16436f" d="M 187.703125 83.867188 C 182.433594 83.867188 177.824219 88.148438 177.824219 93.746094 L 177.824219 112.507812 C 177.824219 117.777344 175.851562 123.042969 172.230469 126.664062 L 150.5 149.710938 C 145.5625 154.976562 137.332031 150.039062 139.96875 147.734375 L 156.757812 130.945312 C 161.695312 126.007812 161.695312 117.777344 156.757812 112.507812 C 153.464844 109.21875 151.488281 115.472656 130.421875 135.226562 C 116.265625 149.378906 123.507812 165.511719 121.53125 202.710938 C 121.53125 203.371094 121.859375 203.699219 122.519531 203.699219 L 153.136719 203.699219 C 153.792969 203.699219 154.121094 203.371094 154.121094 202.710938 L 154.121094 190.53125 C 154.121094 175.386719 164.988281 169.792969 182.761719 145.757812 C 196.261719 132.261719 189.675781 116.789062 191.324219 87.820312 C 191.324219 85.515625 189.675781 83.867188 187.703125 83.867188 Z M 187.703125 83.867188 " fill-opacity="1" fill-rule="nonzero"/><path fill="#16436f" d="M 68.859375 203.039062 C 68.859375 203.699219 69.1875 204.027344 69.847656 204.027344 L 100.132812 204.027344 C 100.792969 204.027344 101.121094 203.699219 101.121094 203.039062 C 99.144531 166.828125 106.386719 150.699219 92.234375 136.871094 L 69.847656 114.484375 C 69.519531 113.828125 68.859375 113.828125 68.199219 113.828125 C 67.542969 113.828125 66.882812 114.15625 66.554688 114.484375 C 61.617188 119.421875 61.617188 127.652344 66.554688 132.589844 C 82.6875 149.050781 84.992188 149.710938 83.015625 151.355469 C 80.050781 154.320312 75.445312 154.320312 72.480469 151.027344 C 56.019531 131.601562 45.484375 127.324219 45.484375 114.15625 L 45.484375 95.71875 C 45.484375 93.085938 44.5 90.78125 42.523438 88.808594 C 40.878906 87.160156 38.242188 85.84375 35.609375 85.84375 C 33.632812 85.84375 31.988281 87.492188 31.988281 89.464844 C 33.632812 117.777344 27.050781 133.25 40.546875 146.746094 L 62.933594 174.070312 C 66.882812 178.679688 68.859375 184.605469 68.859375 190.859375 Z M 68.859375 203.039062 " fill-opacity="1" fill-rule="nonzero"/><path fill="#16436f" d="M 104.085938 209.296875 L 65.566406 209.296875 C 64.910156 209.296875 64.578125 209.625 64.578125 210.28125 L 64.578125 218.84375 C 64.578125 219.5 64.910156 219.828125 65.566406 219.828125 L 103.753906 219.828125 C 104.414062 219.828125 104.742188 219.5 104.742188 218.84375 L 104.742188 210.28125 C 105.070312 209.953125 104.414062 209.296875 104.085938 209.296875 Z M 104.085938 209.296875 " fill-opacity="1" fill-rule="nonzero"/><path fill="#16436f" d="M 156.757812 209.296875 L 118.570312 209.296875 C 117.910156 209.296875 117.582031 209.625 117.582031 210.28125 L 117.582031 218.84375 C 117.582031 219.5 117.910156 219.828125 118.570312 219.828125 L 156.757812 219.828125 C 157.414062 219.828125 157.746094 219.5 157.746094 218.84375 L 157.746094 210.28125 C 157.746094 209.953125 157.414062 209.296875 156.757812 209.296875 Z M 156.757812 209.296875 " fill-opacity="1" fill-rule="nonzero"/><path fill="#16436f" d="M 137.664062 115.144531 C 145.894531 116.789062 154.453125 109.546875 153.136719 100.328125 C 149.84375 100.988281 140.953125 100.660156 141.941406 98.023438 C 142.273438 97.367188 142.929688 97.039062 143.589844 97.039062 C 160.707031 102.304688 167.949219 84.855469 159.390625 75.96875 C 166.304688 70.371094 165.972656 59.835938 158.402344 54.570312 C 163.339844 47.328125 159.71875 37.121094 151.488281 34.488281 C 151.160156 36.792969 149.183594 43.378906 147.210938 42.058594 C 146.550781 41.730469 146.222656 40.742188 146.878906 40.414062 C 146.878906 40.414062 148.527344 37.78125 149.183594 34.160156 C 152.148438 24.285156 143.589844 15.066406 134.371094 17.039062 C 130.089844 8.8125 119.226562 7.492188 113.300781 13.417969 L 113.300781 52.265625 C 114.289062 51.605469 114.949219 50.621094 115.277344 49.632812 C 115.605469 48.972656 116.265625 48.644531 116.921875 48.972656 C 117.582031 49.300781 117.910156 49.960938 117.582031 50.621094 C 116.921875 52.59375 115.277344 54.242188 113.300781 55.226562 L 113.300781 79.261719 C 115.605469 80.246094 117.582031 81.894531 118.570312 84.527344 C 118.898438 85.1875 118.570312 85.84375 117.910156 86.171875 C 117.253906 86.503906 116.59375 86.171875 116.265625 85.515625 C 115.605469 84.199219 114.617188 82.882812 113.300781 82.222656 L 113.300781 116.789062 C 118.570312 126.996094 133.710938 126.007812 137.664062 115.144531 Z M 150.5 46.339844 C 154.78125 52.265625 152.476562 59.507812 150.171875 59.507812 C 149.84375 59.507812 149.84375 59.507812 149.515625 59.179688 C 148.855469 58.847656 148.855469 57.863281 149.183594 57.53125 C 152.148438 52.925781 148.527344 47.984375 148.527344 47.984375 C 147.210938 46.339844 149.515625 45.023438 150.5 46.339844 Z M 148.199219 75.96875 C 156.097656 73.992188 159.0625 67.078125 156.757812 60.167969 C 156.425781 59.507812 157.085938 58.847656 157.746094 58.519531 C 160.707031 57.53125 161.695312 69.054688 156.097656 74.652344 C 162.023438 82.882812 156.425781 92.097656 153.792969 92.097656 C 152.476562 92.097656 152.148438 90.453125 153.136719 89.792969 C 156.757812 87.160156 157.746094 81.566406 154.121094 76.296875 C 152.804688 77.285156 150.832031 77.945312 148.855469 78.601562 C 148.855469 78.601562 148.527344 78.601562 148.527344 78.601562 C 147.867188 78.601562 147.539062 78.273438 147.210938 77.613281 C 147.210938 76.957031 147.539062 76.296875 148.199219 75.96875 Z M 146.878906 83.210938 C 148.199219 85.1875 147.867188 88.148438 146.222656 89.792969 C 144.574219 91.441406 142.273438 91.441406 140.625 92.097656 C 138.652344 92.757812 138.320312 94.402344 138.652344 95.0625 C 139.308594 96.050781 138.652344 97.039062 137.664062 97.039062 C 135.6875 97.039062 134.371094 91.769531 139.636719 89.792969 C 140.296875 89.464844 140.953125 89.464844 141.613281 89.136719 C 142.601562 88.808594 143.917969 88.476562 144.574219 87.820312 C 145.5625 87.160156 145.5625 85.515625 144.90625 84.527344 C 144.574219 83.867188 144.574219 83.210938 145.234375 82.550781 C 145.894531 82.550781 146.550781 82.550781 146.878906 83.210938 Z M 146.222656 52.59375 C 146.222656 53.253906 145.5625 53.910156 144.90625 53.910156 C 140.296875 53.582031 136.675781 55.558594 134.042969 57.863281 C 139.308594 60.167969 144.246094 62.472656 145.5625 66.421875 C 145.894531 67.078125 145.5625 67.738281 144.90625 68.066406 C 144.90625 68.066406 144.574219 68.066406 144.574219 68.066406 C 143.917969 68.066406 143.589844 67.738281 143.257812 67.078125 C 141.941406 63.789062 135.027344 61.152344 131.40625 59.179688 C 131.078125 58.847656 125.152344 56.875 124.164062 46.667969 C 124.164062 45.023438 126.46875 44.695312 126.800781 46.339844 C 127.128906 49.632812 128.117188 53.910156 131.738281 56.214844 C 134.699219 53.582031 139.636719 50.621094 145.5625 50.949219 C 145.894531 51.277344 146.550781 51.605469 146.222656 52.59375 Z M 129.433594 37.453125 C 128.445312 36.132812 130.421875 34.488281 131.40625 35.804688 C 136.015625 42.390625 133.054688 50.289062 130.421875 48.644531 C 129.761719 48.316406 129.761719 47.328125 130.089844 47 C 133.054688 42.71875 129.433594 37.453125 129.433594 37.453125 Z M 117.253906 17.699219 C 115.605469 15.394531 121.859375 13.089844 126.46875 16.710938 C 131.078125 20.003906 131.738281 26.257812 135.6875 29.550781 C 137.332031 30.867188 139.636719 31.527344 141.613281 30.207031 C 143.589844 28.890625 145.5625 33.5 139.636719 33.5 C 135.359375 33.5 132.394531 30.539062 130.421875 26.585938 C 128.117188 33.171875 121.203125 30.207031 120.875 36.792969 C 120.875 37.453125 120.214844 38.109375 119.554688 38.109375 C 118.898438 38.109375 118.238281 37.453125 118.238281 36.792969 C 118.238281 27.90625 130.089844 30.539062 128.117188 22.964844 C 128.117188 22.964844 128.117188 22.964844 128.117188 22.636719 C 127.128906 21.320312 126.46875 20.003906 125.152344 19.015625 C 123.507812 17.699219 120.875 17.039062 119.226562 18.359375 C 118.238281 18.6875 117.582031 18.359375 117.253906 17.699219 Z M 117.253906 64.773438 C 118.570312 62.472656 121.859375 61.8125 124.824219 64.773438 C 126.140625 66.09375 127.128906 67.738281 128.445312 68.398438 C 131.078125 69.382812 131.40625 65.761719 133.382812 66.75 C 135.6875 68.066406 132.066406 71.03125 129.433594 71.03125 C 127.128906 71.03125 125.8125 69.382812 124.164062 67.738281 C 123.507812 66.75 122.519531 65.433594 121.203125 65.433594 C 120.542969 65.433594 119.886719 65.761719 119.886719 66.09375 C 119.554688 66.75 118.898438 67.078125 118.238281 66.75 C 117.253906 66.09375 116.921875 65.433594 117.253906 64.773438 Z M 118.238281 77.285156 C 117.910156 76.625 118.238281 75.96875 118.898438 75.640625 C 125.152344 73.335938 129.761719 76.296875 132.394531 81.894531 C 136.675781 79.589844 141.285156 79.917969 142.601562 76.957031 C 142.929688 75.96875 142.929688 74.652344 142.273438 73.335938 C 141.941406 72.675781 142.273438 72.019531 142.929688 71.6875 C 143.589844 71.359375 144.246094 71.6875 144.574219 72.347656 C 145.5625 74.652344 145.894531 76.625 144.90625 78.273438 C 143.589844 80.90625 140.953125 81.894531 138.652344 82.550781 C 136.015625 83.210938 134.042969 83.867188 132.394531 85.1875 C 130.75 86.171875 129.433594 87.492188 129.101562 88.808594 C 128.773438 89.464844 128.773438 90.453125 128.773438 91.441406 C 128.773438 92.097656 128.117188 92.757812 127.457031 92.757812 C 126.800781 92.757812 126.140625 92.097656 126.140625 91.441406 C 126.140625 88.148438 127.785156 85.515625 130.421875 83.539062 C 128.445312 78.929688 125.152344 76.625 120.214844 78.273438 C 119.226562 78.273438 118.238281 77.945312 118.238281 77.285156 Z M 120.214844 118.433594 C 120.875 115.472656 126.140625 121.070312 130.089844 111.191406 C 126.140625 109.875 122.847656 106.253906 120.214844 100.660156 C 119.886719 100 120.214844 99.339844 120.875 99.011719 C 121.53125 98.683594 122.191406 99.011719 122.519531 99.671875 C 127.128906 108.886719 135.027344 112.839844 142.601562 105.925781 C 143.257812 105.597656 143.917969 105.597656 144.574219 105.925781 C 146.878906 108.230469 137.664062 112.507812 132.726562 111.851562 C 128.445312 122.386719 119.886719 120.738281 120.214844 118.433594 Z M 120.214844 118.433594 " fill-opacity="1" fill-rule="nonzero"/><path fill="#16436f" d="M 88.941406 16.710938 C 80.050781 15.066406 71.164062 23.625 74.125 33.832031 C 74.785156 37.453125 76.429688 40.085938 76.429688 40.085938 C 77.417969 41.730469 75.113281 42.71875 74.125 41.402344 C 74.125 41.074219 72.480469 38.109375 71.492188 34.160156 C 66.226562 35.804688 62.273438 40.742188 62.273438 46.667969 C 62.273438 49.300781 63.261719 51.9375 64.578125 53.910156 C 61.289062 56.214844 58.984375 60.167969 58.984375 64.773438 C 58.984375 69.054688 60.957031 72.675781 63.921875 74.980469 C 61.617188 77.285156 60.300781 80.578125 60.300781 84.199219 C 60.300781 89.792969 63.59375 94.402344 68.199219 96.378906 C 75.773438 99.339844 80.382812 94.402344 81.367188 97.039062 C 82.027344 99.339844 75.113281 99.671875 73.46875 99.671875 C 72.480469 99.671875 71.164062 99.671875 69.847656 99.339844 C 69.847656 100 69.847656 100.328125 69.847656 100.988281 C 69.847656 109.546875 77.746094 115.800781 85.648438 114.15625 C 89.597656 125.019531 104.742188 126.007812 110.007812 115.800781 L 110.007812 82.222656 C 107.046875 83.867188 107.375 86.832031 105.402344 86.171875 C 102.765625 85.1875 106.71875 80.578125 110.007812 79.261719 L 110.007812 55.558594 C 108.035156 54.570312 106.386719 52.925781 105.730469 50.949219 C 105.402344 50.289062 105.730469 49.632812 106.386719 49.300781 C 107.046875 48.972656 107.707031 49.300781 108.035156 49.960938 C 108.363281 50.949219 109.023438 51.9375 110.007812 52.59375 L 110.007812 13.089844 C 104.085938 7.164062 93.21875 8.480469 88.941406 16.710938 Z M 91.902344 56.214844 C 95.523438 53.910156 96.511719 49.632812 96.839844 46.339844 C 96.839844 45.679688 97.5 45.023438 98.160156 45.023438 C 98.816406 45.023438 99.476562 45.679688 99.476562 46.339844 C 98.816406 56.546875 92.5625 58.519531 92.234375 58.847656 C 88.613281 60.824219 81.699219 63.128906 80.382812 66.75 C 79.394531 69.382812 71.820312 65.433594 89.269531 57.53125 C 81.367188 51.277344 77.089844 55.226562 76.761719 52.59375 C 76.761719 49.300781 86.308594 51.605469 91.902344 56.214844 Z M 93.21875 47 C 93.550781 47.65625 93.550781 48.316406 92.890625 48.644531 C 92.234375 48.972656 91.574219 48.972656 91.246094 48.316406 C 87.625 42.390625 91.902344 36.132812 92.234375 35.804688 C 92.5625 35.148438 93.550781 35.148438 94.207031 35.476562 C 94.867188 35.804688 94.867188 36.792969 94.539062 37.453125 C 93.878906 37.453125 90.257812 42.71875 93.21875 47 Z M 72.808594 46.339844 C 73.140625 45.679688 74.125 45.679688 74.785156 46.011719 C 77.089844 47.65625 70.503906 51.605469 74.457031 57.53125 C 75.445312 58.847656 73.140625 60.496094 72.152344 58.847656 C 68.199219 52.925781 72.808594 46.667969 72.808594 46.339844 Z M 69.1875 76.296875 C 65.566406 81.566406 66.882812 87.160156 70.175781 89.792969 C 70.835938 90.125 70.835938 91.113281 70.503906 91.769531 C 70.175781 92.429688 69.1875 92.429688 68.53125 92.097656 C 63.921875 88.476562 62.273438 81.566406 66.882812 74.980469 C 60.957031 69.382812 62.605469 58.191406 65.238281 58.847656 C 67.871094 59.507812 63.261719 64.445312 67.214844 71.03125 C 70.503906 76.957031 76.429688 74.980469 75.773438 77.613281 C 75.445312 79.917969 70.835938 77.285156 69.1875 76.296875 Z M 77.089844 89.792969 C 73.796875 86.832031 76.101562 81.234375 78.078125 82.882812 C 79.722656 84.199219 76.429688 85.84375 78.734375 87.820312 C 79.722656 88.808594 81.699219 88.808594 83.34375 89.464844 C 89.597656 91.769531 86.964844 98.355469 84.660156 96.707031 C 83.015625 95.390625 86.636719 93.414062 82.355469 92.097656 C 80.710938 91.441406 78.734375 91.441406 77.089844 89.792969 Z M 103.097656 100.660156 C 100.460938 106.253906 96.839844 109.546875 93.21875 111.191406 C 97.171875 121.070312 102.4375 115.472656 103.097656 118.433594 C 103.425781 120.738281 94.867188 122.386719 90.585938 111.851562 C 86.308594 112.507812 76.429688 108.558594 78.734375 105.925781 C 80.710938 103.949219 83.34375 110.535156 90.914062 109.21875 C 91.574219 108.886719 96.183594 108.886719 100.792969 99.671875 C 101.121094 99.011719 101.78125 98.683594 102.4375 99.011719 C 103.097656 99.339844 103.425781 100 103.097656 100.660156 Z M 103.425781 78.273438 C 98.488281 76.625 95.195312 78.929688 93.21875 83.539062 C 95.855469 85.515625 97.5 88.148438 97.5 91.441406 C 97.5 92.097656 96.839844 92.757812 96.183594 92.757812 C 95.523438 92.757812 94.867188 92.097656 94.867188 91.441406 C 94.867188 90.453125 94.867188 89.792969 94.539062 88.808594 C 93.878906 87.492188 92.890625 86.171875 91.246094 85.1875 C 89.597656 84.199219 87.625 83.210938 84.992188 82.550781 C 79.394531 81.234375 76.761719 77.613281 79.066406 72.347656 C 79.722656 70.699219 82.027344 72.019531 81.367188 73.335938 C 78.40625 79.917969 86.308594 79.589844 90.914062 81.894531 C 93.21875 76.296875 98.160156 73.335938 104.414062 75.640625 C 106.058594 76.296875 105.070312 78.601562 103.425781 78.273438 Z M 106.058594 64.773438 C 106.386719 65.433594 106.058594 66.09375 105.402344 66.421875 C 103.753906 67.410156 103.753906 65.105469 102.109375 65.433594 C 99.144531 65.761719 98.160156 71.03125 93.878906 71.03125 C 90.914062 71.03125 87.625 68.066406 89.929688 66.75 C 92.234375 65.433594 92.5625 71.6875 97.171875 66.09375 C 101.121094 61.484375 104.742188 62.140625 106.058594 64.773438 Z M 104.414062 18.027344 C 102.4375 16.710938 98.816406 17.039062 95.523438 22.308594 C 94.867188 28.234375 98.488281 28.234375 101.121094 29.550781 C 103.753906 30.867188 105.402344 33.5 105.402344 36.464844 C 105.402344 37.121094 104.742188 37.78125 104.085938 37.78125 C 103.425781 37.78125 102.765625 37.121094 102.765625 36.464844 C 102.765625 34.488281 101.449219 32.84375 99.804688 31.855469 C 99.476562 31.527344 98.816406 31.527344 98.488281 31.195312 C 96.183594 30.207031 94.207031 29.222656 93.21875 26.257812 C 87.292969 36.792969 78.40625 32.84375 80.050781 30.207031 C 81.699219 28.234375 85.320312 36.132812 91.902344 23.625 C 93.21875 21.320312 94.539062 18.6875 96.839844 16.710938 C 99.144531 15.066406 102.765625 14.078125 105.730469 16.054688 C 107.375 17.039062 105.730469 19.015625 104.414062 18.027344 Z M 104.414062 18.027344 " fill-opacity="1" fill-rule="nonzero"/></svg>